<svg width="64" height="64" viewBox="0 0 64 64" fill="none" xmlns="http://www.w3.org/2000/svg">
<g id="&#230;&#150;&#185;&#230;&#161;&#136; 1" clip-path="url(#clip0_3366_1975)">
<g id="Group 1321316591">
<rect id="Rectangle 34625708" x="6.8369" y="18.4438" width="16" height="57" rx="2.5" transform="rotate(-45 6.8369 18.4438)" stroke="#191919" stroke-width="3"/>
<path id="Vector 37" d="M14.2615 24.4541L19.9183 18.7972" stroke="black" stroke-width="3" stroke-linecap="round"/>
<path id="Vector 39" d="M18.8577 28.3433L21.6861 25.5148" stroke="black" stroke-width="3" stroke-linecap="round"/>
<path id="Vector 40" d="M42.8994 52.3848L45.7278 49.5563" stroke="black" stroke-width="3" stroke-linecap="round"/>
<path id="Vector 38" d="M38.3032 48.4961L43.9601 42.8392" stroke="black" stroke-width="3" stroke-linecap="round"/>
</g>
<g id="Group 1321316590">
<path id="Rectangle 34625707" d="M46.0814 8.89788C47.0577 7.92157 48.6406 7.92157 49.6169 8.89788L56.688 15.9689C57.6643 16.9453 57.6643 18.5282 56.688 19.5045L38.3032 37.8893L22.9233 53.2692C22.5637 53.6287 22.103 53.8701 21.6027 53.9611L10.118 56.0492C9.77433 56.1117 9.47413 55.8115 9.53662 55.4678L11.6247 43.9831L10.1489 43.7148L11.6247 43.9831C11.7157 43.4828 11.9571 43.0221 12.3167 42.6626L27.6966 27.2827L46.0814 8.89788Z" fill="#F2FFF7" stroke="#191919" stroke-width="3"/>
<path id="Vector 39_2" d="M41.4854 15.6152L50.6777 24.8076" stroke="black" stroke-width="3" stroke-linecap="round"/>
<path id="Vector 40_2" d="M13.2009 42.4854L22.3933 51.6777" stroke="black" stroke-width="3" stroke-linecap="round"/>
</g>
</g>
<defs>
<clipPath id="clip0_3366_1975">
<rect width="64" height="64" fill="white"/>
</clipPath>
</defs>
</svg>
