<svg width="64" height="64" viewBox="0 0 64 64" fill="none" xmlns="http://www.w3.org/2000/svg">
<g id="&#228;&#188;&#151;&#229;&#164;&#154;&#231;&#148;&#168;&#230;&#136;&#183;_every-user 1">
<path id="Vector" d="M18.6667 45.3333C22.3486 45.3333 25.3333 42.3486 25.3333 38.6667C25.3333 34.9848 22.3486 32 18.6667 32C14.9848 32 12 34.9848 12 38.6667C12 42.3486 14.9848 45.3333 18.6667 45.3333Z" stroke="#333333" stroke-width="3" stroke-linecap="round" stroke-linejoin="round"/>
<path id="Vector_2" d="M45.3334 45.3333C49.0153 45.3333 52.0001 42.3486 52.0001 38.6667C52.0001 34.9848 49.0153 32 45.3334 32C41.6515 32 38.6667 34.9848 38.6667 38.6667C38.6667 42.3486 41.6515 45.3333 45.3334 45.3333Z" stroke="#333333" stroke-width="3" stroke-linecap="round" stroke-linejoin="round"/>
<path id="Vector_3" d="M31.9999 18.6668C35.6818 18.6668 38.6666 15.6821 38.6666 12.0002C38.6666 8.31826 35.6818 5.3335 31.9999 5.3335C28.318 5.3335 25.3333 8.31826 25.3333 12.0002C25.3333 15.6821 28.318 18.6668 31.9999 18.6668Z" stroke="#333333" stroke-width="3" stroke-linecap="round" stroke-linejoin="round"/>
<path id="Vector_4" d="M31.9999 58.6668C31.9999 51.3031 26.0303 45.3335 18.6666 45.3335C11.3028 45.3335 5.33325 51.3031 5.33325 58.6668" stroke="#333333" stroke-width="3" stroke-linecap="round" stroke-linejoin="round"/>
<path id="Vector_5" d="M58.6667 58.6668C58.6667 51.3031 52.6971 45.3335 45.3333 45.3335C37.9696 45.3335 32 51.3031 32 58.6668" stroke="#333333" stroke-width="3" stroke-linecap="round" stroke-linejoin="round"/>
<path id="Vector_6" d="M45.3334 31.9998C45.3334 24.6361 39.3638 18.6665 32.0001 18.6665C24.6363 18.6665 18.6667 24.6361 18.6667 31.9998" stroke="#333333" stroke-width="3" stroke-linecap="round" stroke-linejoin="round"/>
</g>
</svg>
