<svg width="284" height="66" viewBox="0 0 284 66" fill="none" xmlns="http://www.w3.org/2000/svg">
<g id="&#229;&#142;&#187;&#232;&#137;&#178;">
<g id="Gologin-logo- 3">
<path id="Vector" fill-rule="evenodd" clip-rule="evenodd" d="M44.0169 33.2833C44.0169 23.5203 51.9508 15.606 61.738 15.606C67.5064 15.606 73.1387 19.2878 76.194 22.9882L89.5537 39.2071C91.7218 41.837 95.5318 44.0482 98.6417 44.0482C104.602 44.0482 109.433 39.2286 109.433 33.2833C109.433 27.3378 104.602 22.5183 98.6417 22.5183C95.5348 22.5183 91.7016 24.75 89.5295 27.3885L87.1828 30.2375L82.7461 24.7357L84.1743 23.0019C87.232 19.2878 92.8666 15.606 98.6417 15.606C108.429 15.606 116.363 23.5203 116.363 33.2833C116.363 43.0462 108.429 50.9604 98.6417 50.9604C92.8748 50.9604 87.2627 47.3119 84.2009 43.5968L79.8575 38.3238V51.3855H73.7942V46.0196C70.6223 48.7536 66.2284 50.9604 61.738 50.9604C51.9508 50.9604 44.0169 43.0462 44.0169 33.2833ZM70.8453 27.3829L76.5792 34.3439H62.6377V40.3921H69.7116C67.499 42.4702 64.3716 44.0482 61.738 44.0482C55.7778 44.0482 50.9464 39.2286 50.9464 33.2833C50.9464 27.3378 55.7778 22.5183 61.738 22.5183C64.8362 22.5183 68.669 24.7485 70.8435 27.3806L70.8453 27.3829Z" fill="#00A987"/>
<path id="Vector_2" d="M145.161 30.8603H156.016V32.5292C156.016 35.6198 155.027 38.1232 153.047 40.0394C151.068 41.9556 148.512 42.9137 145.378 42.9137C142.038 42.9137 139.265 41.832 137.059 39.6685C134.873 37.4845 133.781 34.8266 133.781 31.6947C133.781 28.5423 134.863 25.874 137.028 23.69C139.213 21.506 141.914 20.4139 145.13 20.4139C147.13 20.4139 148.965 20.8672 150.635 21.7738C152.305 22.6804 153.614 23.9063 154.563 25.4517L150.914 27.5533C150.398 26.6674 149.615 25.9462 148.563 25.3898C147.512 24.8335 146.357 24.5554 145.099 24.5554C143.017 24.5554 141.316 25.2353 139.997 26.5952C138.677 27.9138 138.018 29.6137 138.018 31.6947C138.018 33.7345 138.688 35.424 140.028 36.7634C141.368 38.082 143.162 38.7414 145.409 38.7414C147.037 38.7414 148.398 38.3808 149.491 37.6596C150.584 36.9384 151.326 35.9289 151.718 34.6308H145.161V30.8603ZM170.696 40.5648C169.129 42.1307 167.191 42.9137 164.882 42.9137C162.573 42.9137 160.635 42.1307 159.068 40.5648C157.501 38.999 156.718 37.0621 156.718 34.7544C156.718 32.4674 157.501 30.5408 159.068 28.975C160.656 27.3884 162.593 26.5952 164.882 26.5952C167.17 26.5952 169.108 27.3884 170.696 28.975C172.284 30.5615 173.077 32.4879 173.077 34.7544C173.077 37.0415 172.284 38.9783 170.696 40.5648ZM161.882 37.8142C162.686 38.6177 163.686 39.0195 164.882 39.0195C166.078 39.0195 167.078 38.6177 167.882 37.8142C168.686 37.0106 169.088 35.9907 169.088 34.7544C169.088 33.5182 168.686 32.4983 167.882 31.6947C167.078 30.8912 166.078 30.4894 164.882 30.4894C163.686 30.4894 162.686 30.8912 161.882 31.6947C161.099 32.5189 160.707 33.5388 160.707 34.7544C160.707 35.9701 161.099 36.99 161.882 37.8142ZM178.529 42.481H174.539V19.9194H178.529V42.481ZM194.009 40.5648C192.443 42.1307 190.505 42.9137 188.195 42.9137C185.886 42.9137 183.949 42.1307 182.381 40.5648C180.815 38.999 180.031 37.0621 180.031 34.7544C180.031 32.4674 180.815 30.5408 182.381 28.975C183.969 27.3884 185.907 26.5952 188.195 26.5952C190.484 26.5952 192.423 27.3884 194.009 28.975C195.597 30.5615 196.39 32.4879 196.39 34.7544C196.39 37.0415 195.597 38.9783 194.009 40.5648ZM185.195 37.8142C185.999 38.6177 187 39.0195 188.195 39.0195C189.392 39.0195 190.391 38.6177 191.195 37.8142C191.999 37.0106 192.401 35.9907 192.401 34.7544C192.401 33.5182 191.999 32.4983 191.195 31.6947C190.391 30.8912 189.392 30.4894 188.195 30.4894C187 30.4894 185.999 30.8912 185.195 31.6947C184.413 32.5189 184.02 33.5388 184.02 34.7544C184.02 35.9701 184.413 36.99 185.195 37.8142ZM209.698 28.9441V27.0279H213.594V41.7393C213.594 44.1087 212.8 45.9322 211.213 47.2097C209.645 48.4665 207.75 49.0949 205.523 49.0949C202.018 49.0949 199.574 47.8381 198.194 45.3244L201.595 43.3773C202.358 44.8195 203.708 45.5407 205.647 45.5407C206.904 45.5407 207.893 45.2111 208.615 44.5517C209.336 43.8923 209.698 42.955 209.698 41.7393V40.0703C208.523 41.6362 206.873 42.4192 204.75 42.4192C202.563 42.4192 200.729 41.6569 199.245 40.1321C197.781 38.5663 197.049 36.6912 197.049 34.5072C197.049 32.3232 197.791 30.4585 199.276 28.9132C200.76 27.3679 202.585 26.5952 204.75 26.5952C206.873 26.5952 208.523 27.3782 209.698 28.9441ZM208.461 37.5669C209.285 36.7634 209.698 35.7434 209.698 34.5072C209.698 33.2709 209.285 32.2716 208.461 31.5093C207.657 30.7057 206.625 30.3039 205.368 30.3039C204.131 30.3039 203.089 30.7057 202.245 31.5093C201.441 32.2716 201.039 33.2709 201.039 34.5072C201.039 35.7434 201.441 36.7634 202.245 37.5669C203.069 38.3499 204.11 38.7414 205.368 38.7414C206.625 38.7414 207.657 38.3499 208.461 37.5669ZM217.846 25.1735C217.187 25.1735 216.609 24.9366 216.114 24.4627C215.641 23.9682 215.403 23.3912 215.403 22.7319C215.403 22.0726 215.641 21.4957 216.114 21.0012C216.609 20.5067 217.187 20.2594 217.846 20.2594C218.526 20.2594 219.105 20.5067 219.578 21.0012C220.073 21.4957 220.32 22.0726 220.32 22.7319C220.32 23.3912 220.073 23.9682 219.578 24.4627C219.105 24.9366 218.526 25.1735 217.846 25.1735ZM219.856 42.481H215.867V27.0279H219.856V42.481ZM230.761 26.5952C232.471 26.5952 233.863 27.1619 234.936 28.295C236.049 29.4489 236.606 31.0148 236.606 32.9928V42.481H232.616V33.4873C232.616 32.4777 232.338 31.6947 231.781 31.1384C231.245 30.5821 230.503 30.3039 229.555 30.3039C228.503 30.3039 227.668 30.6336 227.05 31.2929C226.451 31.9316 226.153 32.8795 226.153 34.1363V42.481H222.164V27.0279H226.153V28.7586C227.101 27.3164 228.636 26.5952 230.761 26.5952Z" fill="#36363D"/>
</g>
</g>
</svg>
