<svg width="98" height="55" viewBox="0 0 98 55" fill="none" xmlns="http://www.w3.org/2000/svg">
<g id="Component 73">
<path id="Rectangle 34625708" d="M24.1352 6.27022C25.837 5.19315 27.8824 4.79758 29.8631 5.16248L89.723 16.1907C94.0681 16.9913 96.9416 21.1626 96.1411 25.5078L92.3362 46.1602C91.5357 50.5054 87.3643 53.3789 83.0191 52.5783L23.1592 41.5501C21.1786 41.1852 19.4084 40.0867 18.2022 38.4738L7.64621 24.3594C5.55138 21.5584 6.28681 17.5666 9.24231 15.6961L24.1352 6.27022Z" fill="url(#paint0_linear_3047_10036)"/>
<path id="&#232;&#174;&#164;&#232;&#175;&#129;&#233;&#128;&#129;500M" d="M23.9307 20.8675C23.7905 20.5244 23.5783 20.0867 23.2941 19.5544C23.0191 19.0157 22.7804 18.5894 22.5779 18.2755L23.5916 17.6081C23.8142 17.9013 24.0648 18.285 24.3435 18.7594C24.6236 19.2258 24.852 19.6421 25.0286 20.0082L23.9307 20.8675ZM29.7014 29.8131C29.1138 28.9402 28.6508 28.0536 28.3123 27.1534C27.9738 26.2532 27.7518 25.2727 27.6462 24.212C27.2478 25.0497 26.7215 25.8313 26.0672 26.5567C25.4223 27.2758 24.5734 27.9979 23.5206 28.7232L22.7849 27.5505C23.7248 27.0403 24.5054 26.4683 25.1266 25.8344C25.7491 25.1925 26.2705 24.3938 26.6906 23.4381C27.1107 22.4824 27.4495 21.2839 27.7069 19.8427L27.9699 18.4147L29.2004 18.6902L28.8851 20.4014L28.7454 20.9614C28.5884 22.6082 28.6798 24.0771 29.0195 25.368C29.3592 26.6589 29.9461 27.8449 30.78 28.9258L29.7014 29.8131ZM24.6486 25.9781C24.5132 26.0508 24.2559 26.2108 23.8768 26.4582C23.507 26.6992 23.1165 26.9649 22.7051 27.2551L22.088 27.6905L21.4731 26.7231C21.6192 26.6362 21.7157 26.5319 21.7625 26.4104C21.8172 26.2903 21.8684 26.1004 21.9163 25.8408L22.5337 22.4892L21.271 22.2566L21.5123 20.9466L24.0378 21.4119L23.2834 25.507L24.4905 24.7166L24.6486 25.9781ZM35.0912 22.704C34.9895 22.4168 34.8219 22.0239 34.5884 21.5254C34.3642 21.0204 34.1683 20.6264 34.0008 20.3434L35.1313 19.7707C35.3046 20.0223 35.502 20.3637 35.7235 20.795C35.9529 21.2277 36.132 21.6023 36.2608 21.9189L35.0912 22.704ZM39.7221 29.7558L42.3302 30.2363L42.0932 31.5226L34.4932 30.1224L34.6649 29.1901L34.4037 29.3494L33.6503 29.7963C33.5478 29.8669 33.474 29.9143 33.4289 29.9385L32.8432 28.8789C32.9643 28.7954 33.0475 28.6969 33.0929 28.5832C33.1382 28.4696 33.1812 28.3026 33.2217 28.0823L33.8784 24.5183L32.8162 24.3226L33.0576 23.0126L35.3588 23.4366L34.5609 27.7677L35.583 27.1873L35.6559 28.5796C35.6172 28.6131 35.4384 28.7225 35.1196 28.9078L35.9221 29.0557L36.944 23.509L38.2216 23.7932L37.2084 29.2926L38.424 29.5166L39.7198 22.483L36.7577 21.9372L36.9925 20.6627L43.4596 21.8542L43.2248 23.1287L41.018 22.7221L40.5266 25.3892L42.6036 25.7719L42.3514 27.1409L40.2744 26.7582L39.7221 29.7558ZM46.7155 29.9704C47.6677 29.7472 48.3748 29.5074 48.837 29.2509C49.3005 28.9865 49.6405 28.6424 49.8569 28.2186L47.2606 27.7403L47.4715 26.5955L50.2212 27.1021L50.2843 26.7599L50.4799 25.6977L48.1315 25.2651L48.3293 24.1911L49.8163 24.4651C49.5202 23.7761 49.2528 23.2184 49.0141 22.7921L50.0511 22.2632C50.3426 22.7562 50.6246 23.345 50.8971 24.0297L50.0405 24.5064L51.5275 24.7804C51.8387 24.5042 52.1704 24.183 52.5226 23.8167C52.8762 23.4426 53.1453 23.1302 53.3297 22.8794L54.2894 23.7639C53.996 24.076 53.5513 24.5025 52.9555 25.0434L54.6785 25.3609L54.4806 26.4348L51.7899 25.9391L51.5725 27.1192L51.5312 27.3434L54.3753 27.8674L54.1644 29.0122L51.2258 28.4708L51.1125 28.755C51.8872 29.4508 52.7088 30.2896 53.5774 31.2712L52.6689 32.3606C52.248 31.8194 51.8635 31.3459 51.5152 30.9401C51.1763 30.5279 50.8148 30.1277 50.4308 29.7397C50.1231 30.041 49.72 30.3084 49.2214 30.5419C48.7243 30.7676 48.0812 30.9907 47.2922 31.2114L46.7155 29.9704ZM46.6044 25.1424C46.4928 24.8208 46.3138 24.4015 46.0675 23.8843C45.8211 23.3671 45.6024 22.9648 45.4113 22.6774L46.4709 22.0917C46.6492 22.3604 46.8612 22.733 47.1069 23.2094C47.3541 23.678 47.5542 24.0931 47.7072 24.4548L46.6044 25.1424ZM50.1708 32.1444C51.3352 32.359 52.5919 32.5579 53.941 32.7414L53.4329 33.8436C52.1231 33.6674 50.9175 33.4778 49.8161 33.2749C49.2575 33.172 48.8373 33.0905 48.5555 33.0304C47.6615 32.8495 46.9851 32.6354 46.5263 32.3881C46.0675 32.1409 45.7017 31.7644 45.4288 31.2586C45.0797 31.5197 44.9005 31.6534 44.8912 31.6598C44.216 32.1455 43.8784 32.3884 43.8784 32.3884L43.2427 31.1365L45.0658 29.9837L45.6202 26.9744L44.381 26.7461L44.5963 25.5777L47.0392 26.0278L46.2695 30.2055C46.4409 30.6438 46.7295 30.998 47.1353 31.2679C47.5505 31.5315 48.1263 31.7393 48.863 31.8913C49.1526 31.9528 49.5886 32.0372 50.1708 32.1444ZM55.5017 33.2364L55.7539 31.8674C56.0713 31.9991 56.3411 32.1017 56.5635 32.1752C56.7859 32.2487 57.0505 32.3137 57.3573 32.3703C57.971 32.4833 58.4658 32.4687 58.8418 32.3265C59.2192 32.1764 59.4536 31.8535 59.5449 31.3579C59.6363 30.8622 59.5513 30.4846 59.29 30.2249C59.0287 29.9653 58.5558 29.7724 57.8713 29.6463C57.415 29.5622 56.8456 29.5183 56.1629 29.5146L57.5469 25.1816L61.701 25.947L61.451 27.3041L58.5714 26.7736L57.9717 28.5056C58.2636 28.5106 58.563 28.5413 58.8698 28.5979C59.7982 28.7689 60.4561 29.1057 60.8434 29.6082C61.2401 30.1043 61.3602 30.7772 61.2037 31.6269C61.0341 32.5474 60.6051 33.176 59.9166 33.5129C59.2361 33.8512 58.3411 33.9181 57.2318 33.7138C56.6024 33.5978 56.0257 33.4387 55.5017 33.2364ZM62.7157 30.368C62.9158 29.2823 63.1903 28.4543 63.5394 27.8841C63.8899 27.3061 64.3001 26.9342 64.7699 26.7686C65.2475 26.6044 65.8011 26.5803 66.4305 26.6963C67.0678 26.8137 67.5763 27.0335 67.9563 27.3556C68.3362 27.6778 68.5869 28.1714 68.7084 28.8364C68.8314 29.4936 68.7929 30.365 68.5928 31.4507C68.3928 32.5365 68.1175 33.3684 67.767 33.9464C67.4179 34.5166 67.0085 34.8845 66.5387 35.0501C66.0689 35.2158 65.5154 35.2399 64.8781 35.1225C64.2408 35.0051 63.7322 34.7853 63.3523 34.4631C62.9724 34.1409 62.7209 33.6513 62.598 32.9941C62.4765 32.3291 62.5157 31.4537 62.7157 30.368ZM65.1303 33.7535C65.4686 33.8158 65.7467 33.7857 65.9645 33.6631C66.1916 33.5342 66.3861 33.2731 66.548 32.8799C66.7178 32.4882 66.8723 31.9147 67.0114 31.1594C67.1506 30.4041 67.2106 29.8132 67.1916 29.3867C67.1804 28.9616 67.091 28.6523 66.9233 28.4587C66.7649 28.2587 66.5166 28.1276 66.1783 28.0652C65.8478 28.0044 65.573 28.0391 65.3537 28.1696C65.1359 28.2921 64.9421 28.5493 64.7723 28.941C64.6104 29.3342 64.4599 29.9084 64.3207 30.6637C64.1801 31.4268 64.1154 32.0209 64.1266 32.446C64.1392 32.8632 64.2247 33.1718 64.3831 33.3718C64.5508 33.5654 64.7999 33.6926 65.1303 33.7535ZM69.6421 31.6441C69.8422 30.5583 70.1167 29.7304 70.4658 29.1602C70.8163 28.5821 71.2265 28.2103 71.6963 28.0447C72.1739 27.8805 72.7275 27.8564 73.3569 27.9723C73.9942 28.0898 74.5027 28.3095 74.8827 28.6317C75.2626 28.9539 75.5133 29.4475 75.6348 30.1125C75.7578 30.7697 75.7193 31.6411 75.5192 32.7268C75.3192 33.8126 75.0439 34.6444 74.6934 35.2225C74.3443 35.7927 73.9349 36.1606 73.4651 36.3262C72.9953 36.4918 72.4418 36.5159 71.8045 36.3985C71.1672 36.2811 70.6586 36.0613 70.2787 35.7392C69.8988 35.417 69.6473 34.9273 69.5244 34.2702C69.4029 33.6052 69.4421 32.7298 69.6421 31.6441ZM72.0567 35.0296C72.395 35.0919 72.6731 35.0618 72.8909 34.9392C73.118 34.8102 73.3125 34.5492 73.4744 34.156C73.6442 33.7643 73.7987 33.1908 73.9378 32.4355C74.077 31.6802 74.137 31.0893 74.118 30.6628C74.1068 30.2377 74.0174 29.9284 73.8497 29.7348C73.6913 29.5348 73.443 29.4036 73.1047 29.3413C72.7742 29.2804 72.4994 29.3152 72.2801 29.4456C72.0623 29.5682 71.8685 29.8253 71.6987 30.2171C71.5368 30.6102 71.3863 31.1845 71.2471 31.9398C71.1065 32.7029 71.0418 33.297 71.053 33.7221C71.0656 34.1393 71.1511 34.4479 71.3095 34.6479C71.4772 34.8415 71.7263 34.9687 72.0567 35.0296ZM80.4386 29.3991L81.0537 34.4054L81.1245 34.4184L83.5423 29.9709L86.1622 30.4536L84.6533 38.6437L83.0129 38.3415L84.224 31.7681L84.1532 31.7551L81.562 36.4147L79.8862 36.106L79.1376 30.831L79.0668 30.818L77.8557 37.3914L76.2389 37.0935L77.7478 28.9033L80.4386 29.3991Z" fill="#191919"/>
</g>
<defs>
<linearGradient id="paint0_linear_3047_10036" x1="3.76134" y1="19.165" x2="142.428" y2="44.7121" gradientUnits="userSpaceOnUse">
<stop stop-color="#37FFCA"/>
<stop offset="1" stop-color="#F7FF00"/>
</linearGradient>
</defs>
</svg>
