<svg width="156" height="156" viewBox="0 0 156 156" fill="none" xmlns="http://www.w3.org/2000/svg">
<g id="Group 1321316558">
<path id="Vector" d="M78 139C90.1502 139 101.15 134.075 109.113 126.113C117.075 118.15 122 107.15 122 95C122 82.8498 117.075 71.8498 109.113 63.8873C101.15 55.9249 90.1502 51 78 51C65.8498 51 54.8498 55.9249 46.8873 63.8873C38.9249 71.8498 34 82.8498 34 95C34 107.15 38.9249 118.15 46.8873 126.113C54.8498 134.075 65.8498 139 78 139Z" fill="#01AA44"/>
<path id="Vector_2" d="M58.6665 95L73.1665 109.5L102.167 80.5" stroke="white" stroke-width="7" stroke-linecap="round" stroke-linejoin="round"/>
<circle id="Ellipse 6" cx="122" cy="51" r="4" fill="#01AA44" fill-opacity="0.1"/>
<path id="Star 2" d="M55 106L55.8981 108.764H58.8042L56.4531 110.472L57.3511 113.236L55 111.528L52.6489 113.236L53.5469 110.472L51.1958 108.764H54.1019L55 106Z" fill="#CAEDD8"/>
<path id="Vector 31" d="M28.0114 70.138C25.2423 63.0079 10.6045 51.8624 8.42411 56.8115C6.84962 60.3853 18.0646 59.6948 28.0114 70.138Z" fill="#01AA44" fill-opacity="0.21"/>
<circle id="Ellipse 7" cx="89.5" cy="37.5" r="3" stroke="#01AA44" stroke-opacity="0.1"/>
<circle id="Ellipse 9" cx="9.5" cy="147.5" r="3" stroke="#01AA44" stroke-opacity="0.1"/>
<circle id="Ellipse 8" cx="37.5" cy="48.5" r="3" stroke="#01AA44" stroke-opacity="0.1"/>
<path id="Star 3" d="M47 33L47.8981 35.7639H50.8042L48.4531 37.4721L49.3511 40.2361L47 38.5279L44.6489 40.2361L45.5469 37.4721L43.1958 35.7639H46.1019L47 33Z" fill="#CAEDD8"/>
<circle id="Ellipse 3" cx="146.5" cy="94.5" r="6.5" fill="#01AA44" fill-opacity="0.1"/>
<path id="Vector 30" d="M127 62.1379C130.743 52.4999 150.53 37.4339 153.477 44.1238C155.605 48.9548 140.445 48.0213 127 62.1379Z" fill="#01AA44" fill-opacity="0.21"/>
<circle id="Ellipse 4" cx="61" cy="12" r="4" fill="#01AA44" fill-opacity="0.1"/>
<circle id="Ellipse 6_2" cx="85" cy="19" r="4" fill="#01AA44" fill-opacity="0.1"/>
<circle id="Ellipse 7_2" cx="135" cy="145" r="4" fill="#01AA44" fill-opacity="0.1"/>
<circle id="Ellipse 5" cx="16" cy="69" r="4" fill="#01AA44" fill-opacity="0.1"/>
<path id="Star 1" d="M127 12L127.898 14.7639H130.804L128.453 16.4721L129.351 19.2361L127 17.5279L124.649 19.2361L125.547 16.4721L123.196 14.7639H126.102L127 12Z" fill="#CAEDD8"/>
</g>
</svg>
