<svg width="20" height="20" viewBox="0 0 20 20" fill="none" xmlns="http://www.w3.org/2000/svg">
<g id="&#229;&#138;&#168;" clip-path="url(#clip0_3423_7301)">
<path id="Vector" d="M15.0002 16.673C13.6075 17.7135 11.8762 18.3334 10.0002 18.3334C6.91571 18.3334 4.22258 16.6576 2.78174 14.1667H6.25021" stroke="#191919" stroke-width="1.5" stroke-linecap="round" stroke-linejoin="round"/>
<path id="Vector_2" d="M13.3335 2.36011C16.2767 3.64604 18.3335 6.58283 18.3335 10C18.3335 11.5179 17.9277 12.941 17.2187 14.1667L15.5343 11.25" stroke="#191919" stroke-width="1.5" stroke-linecap="round" stroke-linejoin="round"/>
<path id="Vector_3" d="M1.70765 10.8334C1.68044 10.5593 1.6665 10.2813 1.6665 10.0001C1.6665 5.39771 5.39746 1.66675 9.99984 1.66675L8.31555 4.58341" stroke="#191919" stroke-width="1.5" stroke-linecap="round" stroke-linejoin="round"/>
<path id="Vector_4" d="M10 12.5C11.3807 12.5 12.5 11.3807 12.5 10C12.5 8.61929 11.3807 7.5 10 7.5C8.61929 7.5 7.5 8.61929 7.5 10C7.5 11.3807 8.61929 12.5 10 12.5Z" stroke="#191919" stroke-width="1.5" stroke-linecap="round" stroke-linejoin="round"/>
</g>
<defs>
<clipPath id="clip0_3423_7301">
<rect width="20" height="20" fill="white"/>
</clipPath>
</defs>
</svg>
