<svg width="20" height="20" viewBox="0 0 20 20" fill="none" xmlns="http://www.w3.org/2000/svg">
<g id="&#229;&#150;&#135;&#229;&#143;&#173;_trumpet 1">
<path id="Vector" d="M7.6875 12.9226L5.42328 13.9825L7.36634 18.1335C7.65902 18.7588 7.89626 19.2657 8.12269 19.1597C8.87495 18.8075 8.89186 18.2475 8.72487 17.4976L7.6875 12.9226Z" stroke="#191919" stroke-width="1.33333"/>
<path id="Vector_2" d="M5.99323 6.35486L2.21953 8.12129C1.59426 8.41396 1.32466 9.15806 1.61734 9.78332L3.38376 13.557C3.67644 14.1823 4.42053 14.4519 5.0458 14.1592L9.19688 12.2162" stroke="#191919" stroke-width="1.33333" stroke-linecap="round"/>
<path id="Vector_3" d="M12.0074 4.45977L12.7621 4.10648C14.0126 3.52114 15.5009 4.06036 16.0862 5.31086C16.6716 6.56135 16.1323 8.04959 14.8818 8.63493L14.1271 8.98822" stroke="#191919" stroke-width="1.33333" stroke-linejoin="round"/>
<path id="Vector_4" d="M15.2887 11.665C15.3301 11.6456 15.3479 11.5964 15.3285 11.5551L10.6293 1.5158C10.6099 1.47445 10.5607 1.4566 10.5194 1.47596L9.27344 2.05917C6.45984 3.37617 5.24659 6.72474 6.5636 9.53834C7.88061 12.3519 11.2292 13.5652 14.0428 12.2482L15.2887 11.665Z" stroke="#191919" stroke-width="1.33333"/>
</g>
</svg>
