<svg width="20" height="20" viewBox="0 0 20 20" fill="none" xmlns="http://www.w3.org/2000/svg">
<g id="&#232;&#180;&#173;&#231;&#137;&#169;&#232;&#189;&#166;_shopping 1">
<path id="Vector" d="M1.25 2.5H2.70833L3.33333 5L5.41667 13.3333H16.25L18.3333 5" stroke="#333333" stroke-width="1.5" stroke-linecap="round" stroke-linejoin="round"/>
<path id="Vector_2" d="M5.4165 17.5C6.10686 17.5 6.6665 16.9404 6.6665 16.25C6.6665 15.5596 6.10686 15 5.4165 15C4.72615 15 4.1665 15.5596 4.1665 16.25C4.1665 16.9404 4.72615 17.5 5.4165 17.5Z" stroke="#333333" stroke-width="1.5" stroke-linecap="round" stroke-linejoin="round"/>
<path id="Vector_3" d="M16.25 17.5C16.9404 17.5 17.5 16.9404 17.5 16.25C17.5 15.5596 16.9404 15 16.25 15C15.5596 15 15 15.5596 15 16.25C15 16.9404 15.5596 17.5 16.25 17.5Z" stroke="#333333" stroke-width="1.5" stroke-linecap="round" stroke-linejoin="round"/>
<path id="Vector_4" fill-rule="evenodd" clip-rule="evenodd" d="M8.75 10.2778V2.77783H13.75V10.2778L11.25 7.66421L8.75 10.2778Z" stroke="#333333" stroke-width="1.5" stroke-linecap="round" stroke-linejoin="round"/>
</g>
</svg>
