<svg width="268" height="163" viewBox="0 0 268 163" fill="none" xmlns="http://www.w3.org/2000/svg">
<g id="Group 1321316595">
<path id="Rectangle 64" d="M0 16C0 7.16344 7.16344 0 16 0H252C260.837 0 268 7.16344 268 16V147C268 155.837 260.837 163 252 163H16C7.16345 163 0 155.837 0 147V16Z" fill="#B6D8D6"/>
<g id="Mask group">
<mask id="mask0_3375_10035" style="mask-type:alpha" maskUnits="userSpaceOnUse" x="0" y="0" width="268" height="163">
<path id="Rectangle 65" d="M0 16C0 7.16344 7.16344 0 16 0H252C260.837 0 268 7.16344 268 16V147C268 155.837 260.837 163 252 163H16C7.16345 163 0 155.837 0 147V16Z" fill="#B6D8D6"/>
</mask>
<g mask="url(#mask0_3375_10035)">
<g id="Group 1321316470">
<path id="Rectangle 34625646" d="M16.5 34C16.5 27.6487 21.6487 22.5 28 22.5H240C246.351 22.5 251.5 27.6487 251.5 34V166.5H16.5V34Z" fill="white" stroke="#C4CDE1"/>
<rect id="Rectangle 4" x="39.5" y="71.5" width="189" height="30" rx="7.5" fill="white" stroke="#D9D9D9"/>
<rect id="Rectangle 34625647" x="39.5" y="111.5" width="189" height="30" rx="7.5" fill="#01AA44" stroke="#D9D9D9"/>
<path id="&#232;&#180;&#166;&#230;&#136;&#183;&#230;&#179;&#168;&#229;&#134;&#140;" d="M118.928 54.968C119.112 55.824 119.408 56.568 119.816 57.2C120.232 57.832 120.788 58.44 121.484 59.024L120.488 59.912C119.792 59.28 119.224 58.572 118.784 57.788C118.352 56.996 118.024 56.056 117.8 54.968H117.188V58.448L118.568 57.788L118.64 59.072C118.24 59.232 117.68 59.512 116.96 59.912L116.312 60.272L115.7 59.12C115.844 59.024 115.932 58.932 115.964 58.844C116.004 58.756 116.024 58.656 116.024 58.544V54.968H115.376V53.792H116.024V49.4L117.188 49.46V52.148C117.684 51.828 118.188 51.456 118.7 51.032C119.22 50.6 119.656 50.18 120.008 49.772L120.824 50.816C120.424 51.208 119.948 51.628 119.396 52.076C118.852 52.516 118.34 52.904 117.86 53.24L117.188 52.232V53.792H121.04V54.968H118.928ZM114.104 50.972H112.076V56.972H110.984V49.832H115.196V56.924H114.104V50.972ZM113.648 51.608V55.436C113.648 56.18 113.572 56.816 113.42 57.344C113.268 57.864 113.024 58.348 112.688 58.796C112.352 59.236 111.872 59.728 111.248 60.272L110.444 59.24C111.036 58.784 111.484 58.368 111.788 57.992C112.092 57.608 112.3 57.2 112.412 56.768C112.524 56.336 112.58 55.788 112.58 55.124V51.56L113.648 51.608ZM113.96 57.26C114.28 57.54 114.548 57.792 114.764 58.016C114.988 58.24 115.216 58.5 115.448 58.796L114.788 59.792C114.228 59.072 113.704 58.492 113.216 58.052L113.96 57.26ZM132.313 50.756V55.568H124.921C124.849 56.592 124.693 57.44 124.453 58.112C124.221 58.776 123.849 59.508 123.337 60.308L122.089 59.588C122.505 59.012 122.817 58.5 123.025 58.052C123.241 57.596 123.397 57.068 123.493 56.468C123.589 55.86 123.637 55.076 123.637 54.116V50.756H127.309C127.189 50.324 127.065 49.948 126.937 49.628L128.377 49.364C128.601 49.932 128.769 50.396 128.881 50.756H132.313ZM124.969 54.308H130.945V51.968H124.969V53.816V54.308ZM141.509 58.568H144.797V59.828H136.961V58.568H140.189V55.976H137.681V54.692H140.189V52.484H137.573V51.2H140.345C140.233 50.744 140.081 50.204 139.889 49.58L141.137 49.4C141.257 49.72 141.441 50.32 141.689 51.2H144.401V52.484H141.509V54.692H144.017V55.976H141.509V58.568ZM136.841 52.208C136.601 51.992 136.257 51.712 135.809 51.368C135.361 51.024 134.997 50.764 134.717 50.588L135.401 49.484C135.705 49.66 136.073 49.908 136.505 50.228C136.945 50.54 137.277 50.8 137.501 51.008L136.841 52.208ZM136.457 55.172C136.161 54.9 135.769 54.58 135.281 54.212C134.801 53.836 134.401 53.548 134.081 53.348L134.813 52.256C135.133 52.464 135.525 52.736 135.989 53.072C136.453 53.408 136.833 53.7 137.129 53.948L136.457 55.172ZM136.565 55.892L137.225 56.18C137.161 56.412 136.901 57.08 136.445 58.184C135.989 59.288 135.697 59.96 135.569 60.2L134.285 59.684C134.389 59.508 134.677 58.864 135.149 57.752C135.621 56.632 135.909 55.936 136.013 55.664L136.565 55.892ZM156.73 53.804V55.04H155.53V58.736C155.53 59.112 155.482 59.392 155.386 59.576C155.298 59.76 155.154 59.888 154.954 59.96C154.754 60.032 154.442 60.088 154.018 60.128L153.202 60.2L152.806 58.916L153.634 58.844C153.842 58.828 153.986 58.804 154.066 58.772C154.154 58.74 154.21 58.688 154.234 58.616C154.266 58.536 154.282 58.408 154.282 58.232V55.04H152.926C152.918 55.976 152.878 56.732 152.806 57.308C152.742 57.876 152.626 58.392 152.458 58.856C152.298 59.312 152.054 59.816 151.726 60.368L150.454 59.72C150.254 59.84 149.902 59.932 149.398 59.996L148.774 60.068L148.39 58.856L149.086 58.784C149.326 58.76 149.49 58.712 149.578 58.64C149.666 58.568 149.71 58.424 149.71 58.208V55.04H148.521C148.514 55.968 148.474 56.72 148.402 57.296C148.33 57.864 148.206 58.38 148.03 58.844C147.854 59.3 147.594 59.808 147.25 60.368L145.99 59.684C146.326 59.204 146.578 58.772 146.746 58.388C146.914 57.996 147.034 57.552 147.106 57.056C147.186 56.552 147.234 55.88 147.25 55.04H145.918V53.804H147.262V49.784H150.934V53.804H151.678V49.784H155.53V53.804H156.73ZM148.521 51.008V53.804H149.71V51.008H148.521ZM152.926 51.008V53.804H154.282V51.008H152.926ZM151.666 55.04H150.934V58.52C150.934 58.632 150.926 58.776 150.91 58.952C151.182 58.432 151.37 57.896 151.474 57.344C151.586 56.792 151.65 56.024 151.666 55.04Z" fill="#191919"/>
<path id="gugeqiyao@gmail.com" d="M61.54 83.52V89.544C61.54 90.44 61.284 91.14 60.772 91.644C60.268 92.148 59.468 92.4 58.372 92.4C58.092 92.4 57.812 92.384 57.532 92.352C57.252 92.32 57.008 92.284 56.8 92.244V91.368C57.288 91.464 57.816 91.512 58.384 91.512C59.104 91.512 59.636 91.352 59.98 91.032C60.332 90.712 60.508 90.18 60.508 89.436V88.788C60.372 89.172 60.144 89.472 59.824 89.688C59.504 89.896 59.032 90 58.408 90C57.864 90 57.42 89.92 57.076 89.76C56.732 89.6 56.456 89.376 56.248 89.088C56.048 88.8 55.908 88.456 55.828 88.056C55.756 87.648 55.72 87.196 55.72 86.7C55.72 86.252 55.756 85.828 55.828 85.428C55.908 85.028 56.048 84.68 56.248 84.384C56.456 84.08 56.732 83.84 57.076 83.664C57.42 83.488 57.864 83.4 58.408 83.4C58.736 83.4 59.016 83.436 59.248 83.508C59.488 83.572 59.688 83.664 59.848 83.784C60.016 83.896 60.152 84.036 60.256 84.204C60.36 84.364 60.444 84.54 60.508 84.732V83.52H61.54ZM58.552 89.136C58.944 89.136 59.268 89.084 59.524 88.98C59.78 88.868 59.984 88.708 60.136 88.5C60.288 88.292 60.392 88.036 60.448 87.732C60.512 87.428 60.544 87.084 60.544 86.7C60.544 86.332 60.512 85.996 60.448 85.692C60.392 85.388 60.288 85.132 60.136 84.924C59.984 84.716 59.78 84.556 59.524 84.444C59.268 84.324 58.944 84.264 58.552 84.264C58.16 84.264 57.848 84.332 57.616 84.468C57.392 84.604 57.22 84.784 57.1 85.008C56.98 85.232 56.904 85.492 56.872 85.788C56.84 86.084 56.824 86.388 56.824 86.7C56.824 87.036 56.84 87.352 56.872 87.648C56.912 87.944 56.992 88.204 57.112 88.428C57.232 88.644 57.404 88.816 57.628 88.944C57.86 89.072 58.168 89.136 58.552 89.136ZM68.8929 83.52V90H68.0169L67.8849 89.064C67.7889 89.28 67.6649 89.456 67.5129 89.592C67.3609 89.728 67.1929 89.836 67.0089 89.916C66.8329 89.988 66.6449 90.04 66.4449 90.072C66.2449 90.104 66.0449 90.12 65.8449 90.12C65.4209 90.12 65.0689 90.068 64.7889 89.964C64.5089 89.86 64.2849 89.716 64.1169 89.532C63.9569 89.348 63.8409 89.128 63.7689 88.872C63.7049 88.608 63.6729 88.32 63.6729 88.008V83.52H64.7049V87.624C64.7049 87.872 64.7209 88.096 64.7529 88.296C64.7849 88.488 64.8449 88.652 64.9329 88.788C65.0289 88.924 65.1569 89.028 65.3169 89.1C65.4849 89.172 65.6969 89.208 65.9529 89.208C66.1529 89.208 66.3489 89.196 66.5409 89.172C66.7329 89.14 66.9089 89.08 67.0689 88.992C67.2369 88.896 67.3849 88.764 67.5129 88.596C67.6489 88.428 67.7649 88.204 67.8609 87.924V83.52H68.8929ZM76.5283 83.52V89.544C76.5283 90.44 76.2723 91.14 75.7603 91.644C75.2563 92.148 74.4563 92.4 73.3603 92.4C73.0803 92.4 72.8003 92.384 72.5203 92.352C72.2403 92.32 71.9963 92.284 71.7883 92.244V91.368C72.2763 91.464 72.8043 91.512 73.3723 91.512C74.0923 91.512 74.6243 91.352 74.9683 91.032C75.3203 90.712 75.4963 90.18 75.4963 89.436V88.788C75.3603 89.172 75.1323 89.472 74.8123 89.688C74.4923 89.896 74.0203 90 73.3963 90C72.8523 90 72.4083 89.92 72.0643 89.76C71.7203 89.6 71.4443 89.376 71.2363 89.088C71.0363 88.8 70.8963 88.456 70.8163 88.056C70.7443 87.648 70.7083 87.196 70.7083 86.7C70.7083 86.252 70.7443 85.828 70.8163 85.428C70.8963 85.028 71.0363 84.68 71.2363 84.384C71.4443 84.08 71.7203 83.84 72.0643 83.664C72.4083 83.488 72.8523 83.4 73.3963 83.4C73.7243 83.4 74.0043 83.436 74.2363 83.508C74.4763 83.572 74.6763 83.664 74.8363 83.784C75.0043 83.896 75.1403 84.036 75.2443 84.204C75.3483 84.364 75.4323 84.54 75.4963 84.732V83.52H76.5283ZM73.5403 89.136C73.9323 89.136 74.2563 89.084 74.5123 88.98C74.7683 88.868 74.9723 88.708 75.1243 88.5C75.2763 88.292 75.3803 88.036 75.4363 87.732C75.5003 87.428 75.5323 87.084 75.5323 86.7C75.5323 86.332 75.5003 85.996 75.4363 85.692C75.3803 85.388 75.2763 85.132 75.1243 84.924C74.9723 84.716 74.7683 84.556 74.5123 84.444C74.2563 84.324 73.9323 84.264 73.5403 84.264C73.1483 84.264 72.8363 84.332 72.6043 84.468C72.3803 84.604 72.2083 84.784 72.0883 85.008C71.9683 85.232 71.8923 85.492 71.8603 85.788C71.8283 86.084 71.8123 86.388 71.8123 86.7C71.8123 87.036 71.8283 87.352 71.8603 87.648C71.9003 87.944 71.9803 88.204 72.1003 88.428C72.2203 88.644 72.3923 88.816 72.6163 88.944C72.8483 89.072 73.1563 89.136 73.5403 89.136ZM83.8572 86.112C83.8572 86.2 83.8492 86.312 83.8332 86.448C83.8252 86.576 83.8132 86.716 83.7972 86.868L79.4052 87.144C79.4052 87.496 79.4412 87.804 79.5132 88.068C79.5852 88.324 79.7012 88.536 79.8612 88.704C80.0212 88.872 80.2332 89 80.4972 89.088C80.7612 89.168 81.0892 89.208 81.4812 89.208C81.8412 89.208 82.2052 89.168 82.5732 89.088C82.9492 89.008 83.2612 88.908 83.5092 88.788V89.736C83.4132 89.784 83.2892 89.832 83.1372 89.88C82.9852 89.928 82.8132 89.968 82.6212 90C82.4292 90.04 82.2212 90.068 81.9972 90.084C81.7812 90.108 81.5572 90.12 81.3252 90.12C80.8452 90.12 80.4172 90.068 80.0412 89.964C79.6732 89.852 79.3612 89.668 79.1052 89.412C78.8492 89.148 78.6532 88.804 78.5172 88.38C78.3892 87.948 78.3252 87.408 78.3252 86.76C78.3252 86.112 78.3892 85.576 78.5172 85.152C78.6532 84.72 78.8452 84.376 79.0932 84.12C79.3492 83.856 79.6572 83.672 80.0172 83.568C80.3852 83.456 80.8012 83.4 81.2652 83.4C81.8172 83.4 82.2612 83.484 82.5972 83.652C82.9412 83.812 83.2052 84.024 83.3892 84.288C83.5732 84.544 83.6972 84.836 83.7612 85.164C83.8252 85.484 83.8572 85.8 83.8572 86.112ZM82.8372 86.124C82.8372 85.876 82.8212 85.64 82.7892 85.416C82.7572 85.184 82.6852 84.984 82.5732 84.816C82.4692 84.64 82.3132 84.504 82.1052 84.408C81.8972 84.304 81.6172 84.252 81.2652 84.252C80.8892 84.252 80.5812 84.3 80.3412 84.396C80.1092 84.492 79.9252 84.632 79.7892 84.816C79.6532 85 79.5572 85.224 79.5012 85.488C79.4452 85.752 79.4132 86.048 79.4052 86.376L82.8372 86.124ZM91.1067 83.52V92.4H90.0747V88.776C90.0107 88.976 89.9227 89.16 89.8107 89.328C89.7067 89.488 89.5707 89.628 89.4027 89.748C89.2347 89.868 89.0307 89.96 88.7907 90.024C88.5507 90.088 88.2707 90.12 87.9507 90.12C87.4147 90.12 86.9707 90.04 86.6187 89.88C86.2747 89.712 86.0027 89.48 85.8027 89.184C85.6027 88.888 85.4627 88.536 85.3827 88.128C85.3107 87.712 85.2747 87.256 85.2747 86.76C85.2747 86.32 85.3107 85.896 85.3827 85.488C85.4627 85.08 85.6027 84.724 85.8027 84.42C86.0027 84.108 86.2747 83.86 86.6187 83.676C86.9707 83.492 87.4147 83.4 87.9507 83.4C88.2707 83.4 88.5507 83.432 88.7907 83.496C89.0307 83.552 89.2347 83.636 89.4027 83.748C89.5707 83.86 89.7067 83.996 89.8107 84.156C89.9227 84.316 90.0107 84.492 90.0747 84.684V83.52H91.1067ZM88.1067 89.244C88.4987 89.244 88.8227 89.188 89.0787 89.076C89.3347 88.964 89.5387 88.8 89.6907 88.584C89.8427 88.368 89.9467 88.108 90.0027 87.804C90.0667 87.492 90.0987 87.144 90.0987 86.76C90.0987 86.392 90.0667 86.056 90.0027 85.752C89.9467 85.44 89.8427 85.176 89.6907 84.96C89.5387 84.736 89.3347 84.564 89.0787 84.444C88.8227 84.324 88.4987 84.264 88.1067 84.264C87.7147 84.264 87.4027 84.336 87.1707 84.48C86.9467 84.616 86.7747 84.804 86.6547 85.044C86.5347 85.276 86.4587 85.544 86.4267 85.848C86.3947 86.144 86.3787 86.448 86.3787 86.76C86.3787 87.096 86.3947 87.416 86.4267 87.72C86.4667 88.024 86.5467 88.288 86.6667 88.512C86.7867 88.736 86.9587 88.916 87.1827 89.052C87.4147 89.18 87.7227 89.244 88.1067 89.244ZM93.8036 82.332C93.5716 82.332 93.4076 82.296 93.3116 82.224C93.2236 82.152 93.1796 81.984 93.1796 81.72C93.1796 81.448 93.2236 81.28 93.3116 81.216C93.4076 81.144 93.5716 81.108 93.8036 81.108C94.0196 81.108 94.1756 81.144 94.2716 81.216C94.3676 81.28 94.4156 81.448 94.4156 81.72C94.4156 81.984 94.3676 82.152 94.2716 82.224C94.1756 82.296 94.0196 82.332 93.8036 82.332ZM93.2756 83.52H94.3076V90H93.2756V83.52ZM96.1985 91.512C96.7585 91.512 97.1745 91.388 97.4465 91.14C97.7265 90.892 97.9465 90.508 98.1065 89.988L95.5145 83.52H96.6305L98.6105 88.896H98.6825L100.555 83.52H101.599L99.2705 89.784C99.1185 90.192 98.9625 90.556 98.8025 90.876C98.6425 91.196 98.4465 91.468 98.2145 91.692C97.9905 91.924 97.7185 92.1 97.3985 92.22C97.0785 92.34 96.6785 92.4 96.1985 92.4V91.512ZM104.961 83.4C105.473 83.4 105.893 83.452 106.221 83.556C106.557 83.652 106.821 83.788 107.013 83.964C107.213 84.14 107.349 84.352 107.421 84.6C107.501 84.848 107.541 85.116 107.541 85.404V90H106.665L106.509 89.016C106.413 89.192 106.285 89.348 106.125 89.484C105.965 89.62 105.781 89.736 105.573 89.832C105.373 89.928 105.153 90 104.913 90.048C104.673 90.096 104.433 90.12 104.193 90.12C103.417 90.12 102.849 89.952 102.489 89.616C102.137 89.28 101.961 88.804 101.961 88.188C101.961 87.804 102.021 87.48 102.141 87.216C102.269 86.952 102.445 86.74 102.669 86.58C102.893 86.42 103.161 86.304 103.473 86.232C103.793 86.16 104.145 86.124 104.529 86.124H106.509V85.584C106.509 85.392 106.485 85.216 106.437 85.056C106.397 84.888 106.317 84.748 106.197 84.636C106.085 84.516 105.925 84.424 105.717 84.36C105.509 84.296 105.241 84.264 104.913 84.264C104.697 84.264 104.461 84.276 104.205 84.3C103.957 84.324 103.717 84.36 103.485 84.408V83.496C103.725 83.464 103.973 83.44 104.229 83.424C104.485 83.408 104.729 83.4 104.961 83.4ZM104.289 89.256C104.833 89.256 105.297 89.148 105.681 88.932C106.065 88.708 106.341 88.404 106.509 88.02V86.952H104.601C104.337 86.952 104.105 86.968 103.905 87C103.705 87.032 103.541 87.096 103.413 87.192C103.285 87.28 103.189 87.404 103.125 87.564C103.061 87.724 103.029 87.928 103.029 88.176C103.029 88.536 103.125 88.808 103.317 88.992C103.509 89.168 103.833 89.256 104.289 89.256ZM112.356 90.12C111.876 90.12 111.448 90.068 111.072 89.964C110.704 89.852 110.392 89.668 110.136 89.412C109.88 89.148 109.684 88.804 109.548 88.38C109.42 87.948 109.356 87.408 109.356 86.76C109.356 86.112 109.42 85.576 109.548 85.152C109.684 84.72 109.88 84.376 110.136 84.12C110.392 83.856 110.704 83.672 111.072 83.568C111.448 83.456 111.876 83.4 112.356 83.4C112.836 83.4 113.26 83.456 113.628 83.568C114.004 83.672 114.316 83.856 114.564 84.12C114.82 84.376 115.012 84.72 115.14 85.152C115.276 85.576 115.344 86.112 115.344 86.76C115.344 87.408 115.276 87.948 115.14 88.38C115.012 88.804 114.82 89.148 114.564 89.412C114.316 89.668 114.004 89.852 113.628 89.964C113.26 90.068 112.836 90.12 112.356 90.12ZM112.356 89.244C112.724 89.244 113.028 89.204 113.268 89.124C113.516 89.044 113.712 88.908 113.856 88.716C114 88.524 114.1 88.268 114.156 87.948C114.22 87.628 114.252 87.232 114.252 86.76C114.252 86.288 114.22 85.892 114.156 85.572C114.092 85.252 113.984 84.996 113.832 84.804C113.688 84.612 113.492 84.476 113.244 84.396C113.004 84.308 112.708 84.264 112.356 84.264C111.996 84.264 111.692 84.308 111.444 84.396C111.204 84.476 111.008 84.612 110.856 84.804C110.712 84.996 110.608 85.252 110.544 85.572C110.488 85.892 110.46 86.288 110.46 86.76C110.46 87.232 110.492 87.628 110.556 87.948C110.62 88.268 110.728 88.524 110.88 88.716C111.032 88.908 111.228 89.044 111.468 89.124C111.708 89.204 112.004 89.244 112.356 89.244ZM121.514 91.32C120.73 91.32 120.038 91.216 119.438 91.008C118.846 90.8 118.35 90.5 117.95 90.108C117.55 89.716 117.246 89.244 117.038 88.692C116.838 88.14 116.738 87.516 116.738 86.82C116.738 86.028 116.874 85.308 117.146 84.66C117.418 84.012 117.786 83.46 118.25 83.004C118.722 82.548 119.266 82.196 119.882 81.948C120.506 81.692 121.17 81.564 121.874 81.564C123.194 81.564 124.214 81.9 124.934 82.572C125.662 83.236 126.026 84.188 126.026 85.428C126.026 85.932 125.97 86.396 125.858 86.82C125.754 87.244 125.602 87.608 125.402 87.912C125.21 88.216 124.974 88.456 124.694 88.632C124.422 88.8 124.118 88.884 123.782 88.884C123.23 88.884 122.822 88.64 122.558 88.152C122.318 88.416 122.058 88.608 121.778 88.728C121.498 88.848 121.166 88.908 120.782 88.908C120.23 88.908 119.806 88.748 119.51 88.428C119.222 88.108 119.078 87.672 119.078 87.12C119.078 86.616 119.146 86.172 119.282 85.788C119.426 85.396 119.614 85.068 119.846 84.804C120.078 84.54 120.342 84.34 120.638 84.204C120.942 84.068 121.254 84 121.574 84C121.878 84 122.134 84.056 122.342 84.168C122.558 84.28 122.726 84.44 122.846 84.648L122.954 84.06H123.83L123.338 86.556C123.266 86.916 123.23 87.176 123.23 87.336C123.23 87.56 123.286 87.744 123.398 87.888C123.518 88.024 123.67 88.092 123.854 88.092C124.038 88.092 124.206 88.032 124.358 87.912C124.51 87.784 124.642 87.608 124.754 87.384C124.866 87.152 124.95 86.876 125.006 86.556C125.07 86.236 125.102 85.88 125.102 85.488C125.102 84.448 124.814 83.672 124.238 83.16C123.67 82.648 122.878 82.392 121.862 82.392C121.278 82.392 120.73 82.496 120.218 82.704C119.714 82.912 119.27 83.208 118.886 83.592C118.51 83.976 118.214 84.44 117.998 84.984C117.782 85.528 117.674 86.136 117.674 86.808C117.674 88.024 117.994 88.94 118.634 89.556C119.282 90.172 120.274 90.48 121.61 90.48C122.498 90.48 123.374 90.348 124.238 90.084V90.888C123.326 91.176 122.418 91.32 121.514 91.32ZM120.938 88.092C121.37 88.092 121.714 87.944 121.97 87.648C122.226 87.344 122.398 86.936 122.486 86.424C122.502 86.328 122.514 86.236 122.522 86.148C122.538 86.052 122.546 85.972 122.546 85.908C122.546 85.74 122.534 85.588 122.51 85.452C122.486 85.308 122.438 85.188 122.366 85.092C122.294 84.988 122.194 84.912 122.066 84.864C121.938 84.808 121.77 84.78 121.562 84.78C121.306 84.78 121.082 84.852 120.89 84.996C120.698 85.132 120.534 85.312 120.398 85.536C120.27 85.76 120.174 86.012 120.11 86.292C120.046 86.572 120.014 86.852 120.014 87.132C120.014 87.252 120.026 87.372 120.05 87.492C120.082 87.604 120.13 87.704 120.194 87.792C120.266 87.88 120.362 87.952 120.482 88.008C120.602 88.064 120.754 88.092 120.938 88.092ZM132.931 83.52V89.544C132.931 90.44 132.675 91.14 132.163 91.644C131.659 92.148 130.859 92.4 129.763 92.4C129.483 92.4 129.203 92.384 128.923 92.352C128.643 92.32 128.399 92.284 128.191 92.244V91.368C128.679 91.464 129.207 91.512 129.775 91.512C130.495 91.512 131.027 91.352 131.371 91.032C131.723 90.712 131.899 90.18 131.899 89.436V88.788C131.763 89.172 131.535 89.472 131.215 89.688C130.895 89.896 130.423 90 129.799 90C129.255 90 128.811 89.92 128.467 89.76C128.123 89.6 127.847 89.376 127.639 89.088C127.439 88.8 127.299 88.456 127.219 88.056C127.147 87.648 127.111 87.196 127.111 86.7C127.111 86.252 127.147 85.828 127.219 85.428C127.299 85.028 127.439 84.68 127.639 84.384C127.847 84.08 128.123 83.84 128.467 83.664C128.811 83.488 129.255 83.4 129.799 83.4C130.127 83.4 130.407 83.436 130.639 83.508C130.879 83.572 131.079 83.664 131.239 83.784C131.407 83.896 131.543 84.036 131.647 84.204C131.751 84.364 131.835 84.54 131.899 84.732V83.52H132.931ZM129.943 89.136C130.335 89.136 130.659 89.084 130.915 88.98C131.171 88.868 131.375 88.708 131.527 88.5C131.679 88.292 131.783 88.036 131.839 87.732C131.903 87.428 131.935 87.084 131.935 86.7C131.935 86.332 131.903 85.996 131.839 85.692C131.783 85.388 131.679 85.132 131.527 84.924C131.375 84.716 131.171 84.556 130.915 84.444C130.659 84.324 130.335 84.264 129.943 84.264C129.551 84.264 129.239 84.332 129.007 84.468C128.783 84.604 128.611 84.784 128.491 85.008C128.371 85.232 128.295 85.492 128.263 85.788C128.231 86.084 128.215 86.388 128.215 86.7C128.215 87.036 128.231 87.352 128.263 87.648C128.303 87.944 128.383 88.204 128.503 88.428C128.623 88.644 128.795 88.816 129.019 88.944C129.251 89.072 129.559 89.136 129.943 89.136ZM141.916 83.4C142.292 83.4 142.612 83.452 142.876 83.556C143.148 83.66 143.368 83.808 143.536 84C143.712 84.184 143.84 84.408 143.92 84.672C144 84.928 144.04 85.212 144.04 85.524V90H143.008V85.896C143.008 85.392 142.92 85.004 142.744 84.732C142.576 84.46 142.248 84.324 141.76 84.324C141.568 84.324 141.384 84.34 141.208 84.372C141.04 84.404 140.884 84.464 140.74 84.552C140.596 84.632 140.468 84.748 140.356 84.9C140.244 85.044 140.152 85.232 140.08 85.464V85.512V90H139.048V85.896C139.048 85.4 138.968 85.016 138.808 84.744C138.648 84.464 138.332 84.324 137.86 84.324C137.66 84.324 137.472 84.34 137.296 84.372C137.12 84.396 136.96 84.452 136.816 84.54C136.672 84.62 136.544 84.74 136.432 84.9C136.32 85.052 136.224 85.252 136.144 85.5V90H135.112V83.52H136.144V84.372C136.344 83.988 136.608 83.732 136.936 83.604C137.264 83.468 137.624 83.4 138.016 83.4C138.528 83.4 138.936 83.496 139.24 83.688C139.544 83.872 139.764 84.128 139.9 84.456C139.996 84.248 140.116 84.076 140.26 83.94C140.412 83.804 140.576 83.696 140.752 83.616C140.936 83.536 141.124 83.48 141.316 83.448C141.516 83.416 141.716 83.4 141.916 83.4ZM148.73 83.4C149.242 83.4 149.662 83.452 149.99 83.556C150.326 83.652 150.59 83.788 150.782 83.964C150.982 84.14 151.118 84.352 151.19 84.6C151.27 84.848 151.31 85.116 151.31 85.404V90H150.434L150.278 89.016C150.182 89.192 150.054 89.348 149.894 89.484C149.734 89.62 149.55 89.736 149.342 89.832C149.142 89.928 148.922 90 148.682 90.048C148.442 90.096 148.202 90.12 147.962 90.12C147.186 90.12 146.618 89.952 146.258 89.616C145.906 89.28 145.73 88.804 145.73 88.188C145.73 87.804 145.79 87.48 145.91 87.216C146.038 86.952 146.214 86.74 146.438 86.58C146.662 86.42 146.93 86.304 147.242 86.232C147.562 86.16 147.914 86.124 148.298 86.124H150.278V85.584C150.278 85.392 150.254 85.216 150.206 85.056C150.166 84.888 150.086 84.748 149.966 84.636C149.854 84.516 149.694 84.424 149.486 84.36C149.278 84.296 149.01 84.264 148.682 84.264C148.466 84.264 148.23 84.276 147.974 84.3C147.726 84.324 147.486 84.36 147.254 84.408V83.496C147.494 83.464 147.742 83.44 147.998 83.424C148.254 83.408 148.498 83.4 148.73 83.4ZM148.058 89.256C148.602 89.256 149.066 89.148 149.45 88.932C149.834 88.708 150.11 88.404 150.278 88.02V86.952H148.37C148.106 86.952 147.874 86.968 147.674 87C147.474 87.032 147.31 87.096 147.182 87.192C147.054 87.28 146.958 87.404 146.894 87.564C146.83 87.724 146.798 87.928 146.798 88.176C146.798 88.536 146.894 88.808 147.086 88.992C147.278 89.168 147.602 89.256 148.058 89.256ZM154.038 82.332C153.806 82.332 153.642 82.296 153.546 82.224C153.458 82.152 153.414 81.984 153.414 81.72C153.414 81.448 153.458 81.28 153.546 81.216C153.642 81.144 153.806 81.108 154.038 81.108C154.254 81.108 154.41 81.144 154.506 81.216C154.602 81.28 154.65 81.448 154.65 81.72C154.65 81.984 154.602 82.152 154.506 82.224C154.41 82.296 154.254 82.332 154.038 82.332ZM153.51 83.52H154.542V90H153.51V83.52ZM158.161 90.072C157.681 90.072 157.321 89.964 157.081 89.748C156.841 89.532 156.721 89.18 156.721 88.692V80.88H157.753V88.428C157.753 88.756 157.801 88.968 157.897 89.064C157.993 89.16 158.145 89.208 158.353 89.208C158.425 89.208 158.501 89.204 158.581 89.196C158.669 89.188 158.757 89.172 158.845 89.148V90C158.749 90.024 158.645 90.04 158.533 90.048C158.429 90.064 158.305 90.072 158.161 90.072ZM160.875 90.072C160.595 90.072 160.395 90.028 160.275 89.94C160.163 89.852 160.107 89.64 160.107 89.304C160.107 88.984 160.163 88.78 160.275 88.692C160.395 88.604 160.595 88.56 160.875 88.56C161.147 88.56 161.343 88.604 161.463 88.692C161.583 88.78 161.643 88.984 161.643 89.304C161.643 89.64 161.583 89.852 161.463 89.94C161.343 90.028 161.147 90.072 160.875 90.072ZM165.911 90.12C165.431 90.12 165.003 90.068 164.627 89.964C164.259 89.852 163.947 89.668 163.691 89.412C163.435 89.148 163.239 88.804 163.103 88.38C162.975 87.948 162.911 87.408 162.911 86.76C162.911 86.112 162.975 85.576 163.103 85.152C163.239 84.72 163.435 84.376 163.691 84.12C163.947 83.856 164.259 83.672 164.627 83.568C165.003 83.456 165.431 83.4 165.911 83.4C166.271 83.4 166.595 83.424 166.883 83.472C167.179 83.52 167.419 83.576 167.603 83.64V84.588C167.363 84.5 167.107 84.432 166.835 84.384C166.563 84.328 166.259 84.3 165.923 84.3C165.563 84.3 165.263 84.34 165.023 84.42C164.783 84.5 164.587 84.636 164.435 84.828C164.283 85.012 164.175 85.264 164.111 85.584C164.047 85.896 164.015 86.292 164.015 86.772C164.015 87.244 164.047 87.636 164.111 87.948C164.175 88.26 164.283 88.512 164.435 88.704C164.587 88.888 164.783 89.02 165.023 89.1C165.271 89.172 165.575 89.208 165.935 89.208C166.239 89.208 166.539 89.188 166.835 89.148C167.131 89.1 167.395 89.028 167.627 88.932V89.88C167.539 89.912 167.427 89.944 167.291 89.976C167.163 90 167.019 90.024 166.859 90.048C166.707 90.072 166.547 90.088 166.379 90.096C166.219 90.112 166.063 90.12 165.911 90.12ZM171.876 90.12C171.396 90.12 170.968 90.068 170.592 89.964C170.224 89.852 169.912 89.668 169.656 89.412C169.4 89.148 169.204 88.804 169.068 88.38C168.94 87.948 168.876 87.408 168.876 86.76C168.876 86.112 168.94 85.576 169.068 85.152C169.204 84.72 169.4 84.376 169.656 84.12C169.912 83.856 170.224 83.672 170.592 83.568C170.968 83.456 171.396 83.4 171.876 83.4C172.356 83.4 172.78 83.456 173.148 83.568C173.524 83.672 173.836 83.856 174.084 84.12C174.34 84.376 174.532 84.72 174.66 85.152C174.796 85.576 174.864 86.112 174.864 86.76C174.864 87.408 174.796 87.948 174.66 88.38C174.532 88.804 174.34 89.148 174.084 89.412C173.836 89.668 173.524 89.852 173.148 89.964C172.78 90.068 172.356 90.12 171.876 90.12ZM171.876 89.244C172.244 89.244 172.548 89.204 172.788 89.124C173.036 89.044 173.232 88.908 173.376 88.716C173.52 88.524 173.62 88.268 173.676 87.948C173.74 87.628 173.772 87.232 173.772 86.76C173.772 86.288 173.74 85.892 173.676 85.572C173.612 85.252 173.504 84.996 173.352 84.804C173.208 84.612 173.012 84.476 172.764 84.396C172.524 84.308 172.228 84.264 171.876 84.264C171.516 84.264 171.212 84.308 170.964 84.396C170.724 84.476 170.528 84.612 170.376 84.804C170.232 84.996 170.128 85.252 170.064 85.572C170.008 85.892 169.98 86.288 169.98 86.76C169.98 87.232 170.012 87.628 170.076 87.948C170.14 88.268 170.248 88.524 170.4 88.716C170.552 88.908 170.748 89.044 170.988 89.124C171.228 89.204 171.524 89.244 171.876 89.244ZM183.482 83.4C183.858 83.4 184.178 83.452 184.442 83.556C184.714 83.66 184.934 83.808 185.102 84C185.278 84.184 185.406 84.408 185.486 84.672C185.566 84.928 185.606 85.212 185.606 85.524V90H184.574V85.896C184.574 85.392 184.486 85.004 184.31 84.732C184.142 84.46 183.814 84.324 183.326 84.324C183.134 84.324 182.95 84.34 182.774 84.372C182.606 84.404 182.45 84.464 182.306 84.552C182.162 84.632 182.034 84.748 181.922 84.9C181.81 85.044 181.718 85.232 181.646 85.464V85.512V90H180.614V85.896C180.614 85.4 180.534 85.016 180.374 84.744C180.214 84.464 179.898 84.324 179.426 84.324C179.226 84.324 179.038 84.34 178.862 84.372C178.686 84.396 178.526 84.452 178.382 84.54C178.238 84.62 178.11 84.74 177.998 84.9C177.886 85.052 177.79 85.252 177.71 85.5V90H176.678V83.52H177.71V84.372C177.91 83.988 178.174 83.732 178.502 83.604C178.83 83.468 179.19 83.4 179.582 83.4C180.094 83.4 180.502 83.496 180.806 83.688C181.11 83.872 181.33 84.128 181.466 84.456C181.562 84.248 181.682 84.076 181.826 83.94C181.978 83.804 182.142 83.696 182.318 83.616C182.502 83.536 182.69 83.48 182.882 83.448C183.082 83.416 183.282 83.4 183.482 83.4Z" fill="#191919"/>
<path id="&#230;&#179;&#168;&#229;&#134;&#140;" d="M129.884 130.568H133.172V131.828H125.336V130.568H128.564V127.976H126.056V126.692H128.564V124.484H125.948V123.2H128.72C128.608 122.744 128.456 122.204 128.264 121.58L129.512 121.4C129.632 121.72 129.816 122.32 130.064 123.2H132.776V124.484H129.884V126.692H132.392V127.976H129.884V130.568ZM125.216 124.208C124.976 123.992 124.632 123.712 124.184 123.368C123.736 123.024 123.372 122.764 123.092 122.588L123.776 121.484C124.08 121.66 124.448 121.908 124.88 122.228C125.32 122.54 125.652 122.8 125.876 123.008L125.216 124.208ZM124.832 127.172C124.536 126.9 124.144 126.58 123.656 126.212C123.176 125.836 122.776 125.548 122.456 125.348L123.188 124.256C123.508 124.464 123.9 124.736 124.364 125.072C124.828 125.408 125.208 125.7 125.504 125.948L124.832 127.172ZM124.94 127.892L125.6 128.18C125.536 128.412 125.276 129.08 124.82 130.184C124.364 131.288 124.072 131.96 123.944 132.2L122.66 131.684C122.764 131.508 123.052 130.864 123.524 129.752C123.996 128.632 124.284 127.936 124.388 127.664L124.94 127.892ZM145.105 125.804V127.04H143.905V130.736C143.905 131.112 143.857 131.392 143.761 131.576C143.673 131.76 143.529 131.888 143.329 131.96C143.129 132.032 142.817 132.088 142.393 132.128L141.577 132.2L141.181 130.916L142.009 130.844C142.217 130.828 142.361 130.804 142.441 130.772C142.529 130.74 142.585 130.688 142.609 130.616C142.641 130.536 142.657 130.408 142.657 130.232V127.04H141.301C141.293 127.976 141.253 128.732 141.181 129.308C141.117 129.876 141.001 130.392 140.833 130.856C140.673 131.312 140.429 131.816 140.101 132.368L138.829 131.72C138.629 131.84 138.277 131.932 137.773 131.996L137.149 132.068L136.765 130.856L137.461 130.784C137.701 130.76 137.865 130.712 137.953 130.64C138.041 130.568 138.085 130.424 138.085 130.208V127.04H136.896C136.889 127.968 136.849 128.72 136.777 129.296C136.705 129.864 136.581 130.38 136.405 130.844C136.229 131.3 135.969 131.808 135.625 132.368L134.365 131.684C134.701 131.204 134.953 130.772 135.121 130.388C135.289 129.996 135.409 129.552 135.481 129.056C135.561 128.552 135.609 127.88 135.625 127.04H134.293V125.804H135.637V121.784H139.309V125.804H140.053V121.784H143.905V125.804H145.105ZM136.896 123.008V125.804H138.085V123.008H136.896ZM141.301 123.008V125.804H142.657V123.008H141.301ZM140.041 127.04H139.309V130.52C139.309 130.632 139.301 130.776 139.285 130.952C139.557 130.432 139.745 129.896 139.849 129.344C139.961 128.792 140.025 128.024 140.041 127.04Z" fill="white"/>
<g id="Group 1321316469">
<circle id="Ellipse 15" cx="27.5" cy="32.5" r="2.5" fill="#FF3E3E"/>
<circle id="Ellipse 16" cx="39.5" cy="32.5" r="2.5" fill="#FFC83E"/>
<circle id="Ellipse 17" cx="51.5" cy="32.5" r="2.5" fill="#3DCD85"/>
</g>
</g>
</g>
</g>
<path id="Rectangle 65_2" d="M0 138H268V147C268 155.837 260.837 163 252 163H16C7.16345 163 0 155.837 0 147V138Z" fill="url(#paint0_linear_3375_10035)" fill-opacity="0.3"/>
</g>
<defs>
<linearGradient id="paint0_linear_3375_10035" x1="134" y1="163" x2="134" y2="131" gradientUnits="userSpaceOnUse">
<stop stop-color="#C7D8B6"/>
<stop offset="1" stop-color="white" stop-opacity="0"/>
</linearGradient>
</defs>
</svg>
