<svg width="268" height="163" viewBox="0 0 268 163" fill="none" xmlns="http://www.w3.org/2000/svg">
<g id="Group 1321316594">
<path id="Rectangle 64" d="M0 16C0 7.16344 7.16344 0 16 0H252C260.837 0 268 7.16344 268 16V147C268 155.837 260.837 163 252 163H16C7.16345 163 0 155.837 0 147V16Z" fill="#B6D8D6"/>
<g id="Mask group">
<mask id="mask0_3375_10034" style="mask-type:alpha" maskUnits="userSpaceOnUse" x="0" y="0" width="268" height="163">
<path id="Rectangle 65" d="M0 16C0 7.16344 7.16344 0 16 0H252C260.837 0 268 7.16344 268 16V147C268 155.837 260.837 163 252 163H16C7.16345 163 0 155.837 0 147V16Z" fill="#C7D8B6"/>
</mask>
<g mask="url(#mask0_3375_10034)">
<g id="Group 1321316470">
<path id="Rectangle 34625646" d="M16.5 34C16.5 27.6487 21.6487 22.5 28 22.5H240C246.351 22.5 251.5 27.6487 251.5 34V165.5H16.5V34Z" fill="white" stroke="#C4CDE1"/>
<rect id="Rectangle 4" x="72.5" y="44.5" width="156" height="28" rx="7.5" fill="white" stroke="#D9D9D9"/>
<rect id="Rectangle 34625659" x="205" y="54" width="18" height="8" rx="4" fill="#01AA44"/>
<rect id="Rectangle 34625654" x="72.5" y="77.5" width="156" height="31" rx="7.5" fill="white" stroke="#D9D9D9"/>
<rect id="Rectangle 34625658" x="72.5" y="113.5" width="156" height="53" rx="7.5" fill="white" stroke="#D9D9D9"/>
<rect id="Rectangle 34625649" x="36" y="73" width="27" height="7" rx="3.5" fill="#EBEFF8"/>
<rect id="Rectangle 34625655" x="78" y="84" width="46" height="19" rx="2" fill="url(#paint0_linear_3375_10034)"/>
<rect id="Rectangle 34625656" x="128" y="84" width="45" height="19" rx="2" fill="url(#paint1_linear_3375_10034)"/>
<rect id="Rectangle 34625657" x="177" y="84" width="46" height="19" rx="2" fill="url(#paint2_linear_3375_10034)"/>
<rect id="Rectangle 34625652" x="36" y="53" width="14" height="14" rx="7" fill="#EBEFF8"/>
<rect id="Rectangle 34625650" x="36" y="86" width="27" height="7" rx="3.5" fill="#EBEFF8"/>
<rect id="Rectangle 34625651" x="36" y="99" width="27" height="7" rx="3.5" fill="#EBEFF8"/>
<rect id="Rectangle 34625653" x="36" y="112" width="27" height="7" rx="3.5" fill="#EBEFF8"/>
<path id="Rectangle 34625648" d="M31.5 52C31.5 47.8579 34.8579 44.5 39 44.5H60C64.1421 44.5 67.5 47.8579 67.5 52V165.5H31.5V52Z" stroke="#D9D9D9"/>
<path id="px732472025101133" d="M87.996 59.76C87.996 60.792 87.8 61.612 87.408 62.22C87.024 62.82 86.336 63.12 85.344 63.12C84.76 63.12 84.308 63.024 83.988 62.832C83.676 62.632 83.448 62.348 83.304 61.98V65.4H82.008V56.52H83.304V57.54C83.608 56.78 84.288 56.4 85.344 56.4C86.032 56.4 86.568 56.536 86.952 56.808C87.344 57.08 87.616 57.46 87.768 57.948C87.92 58.436 87.996 59.04 87.996 59.76ZM86.652 59.76C86.652 59.264 86.612 58.852 86.532 58.524C86.452 58.188 86.296 57.92 86.064 57.72C85.84 57.52 85.508 57.42 85.068 57.42C84.388 57.42 83.912 57.616 83.64 58.008C83.368 58.392 83.232 58.976 83.232 59.76C83.232 60.52 83.368 61.1 83.64 61.5C83.92 61.892 84.396 62.088 85.068 62.088C85.516 62.088 85.852 61.984 86.076 61.776C86.308 61.568 86.46 61.3 86.532 60.972C86.612 60.644 86.652 60.24 86.652 59.76ZM88.5503 63L90.7823 59.688L88.6823 56.52H90.1583L91.6583 58.92H91.7303L93.2063 56.52H94.6703L92.5703 59.676L94.7903 63H93.2903L91.7183 60.48H91.6463L90.0263 63H88.5503ZM96.4936 63L99.9256 55.8H95.5816V54.672H101.114V55.956L97.8616 63H96.4936ZM102.734 62.964V61.812C103.286 61.948 103.898 62.016 104.57 62.016C105.21 62.016 105.71 61.912 106.07 61.704C106.438 61.496 106.622 61.136 106.622 60.624C106.622 60.104 106.438 59.74 106.07 59.532C105.702 59.316 105.13 59.208 104.354 59.208H103.706V58.2H104.342C105.022 58.2 105.542 58.088 105.902 57.864C106.27 57.632 106.454 57.292 106.454 56.844C106.454 56.412 106.314 56.104 106.034 55.92C105.762 55.728 105.342 55.632 104.774 55.632C104.518 55.632 104.234 55.656 103.922 55.704C103.618 55.744 103.346 55.8 103.106 55.872V54.792C103.322 54.728 103.594 54.672 103.922 54.624C104.25 54.576 104.57 54.552 104.882 54.552C105.818 54.552 106.522 54.728 106.994 55.08C107.474 55.432 107.714 55.996 107.714 56.772C107.714 57.268 107.594 57.668 107.354 57.972C107.114 58.268 106.758 58.488 106.286 58.632V58.704C106.838 58.808 107.25 59.028 107.522 59.364C107.794 59.7 107.93 60.14 107.93 60.684C107.93 62.308 106.826 63.12 104.618 63.12C103.89 63.12 103.262 63.068 102.734 62.964ZM109.539 61.704C110.643 60.832 111.479 60.124 112.047 59.58C112.615 59.028 113.007 58.564 113.223 58.188C113.439 57.804 113.547 57.416 113.547 57.024C113.547 56.104 112.995 55.644 111.891 55.644C111.307 55.644 110.707 55.728 110.091 55.896V54.78C110.667 54.628 111.335 54.552 112.095 54.552C112.975 54.552 113.655 54.748 114.135 55.14C114.615 55.524 114.855 56.12 114.855 56.928C114.855 57.424 114.759 57.88 114.567 58.296C114.383 58.712 114.059 59.16 113.595 59.64C113.139 60.112 112.471 60.7 111.591 61.404L111.087 61.8V61.896H115.143V63H109.539V61.704ZM122.296 59.928V61.044H121.336V63H120.088V61.044H116.236V59.688L119.776 54.672H121.336V59.928H122.296ZM117.352 59.928H120.088V56.028H120.016L117.352 59.856V59.928ZM124.384 63L127.816 55.8H123.472V54.672H129.004V55.956L125.752 63H124.384ZM130.457 61.704C131.561 60.832 132.397 60.124 132.965 59.58C133.533 59.028 133.925 58.564 134.141 58.188C134.357 57.804 134.465 57.416 134.465 57.024C134.465 56.104 133.913 55.644 132.809 55.644C132.225 55.644 131.625 55.728 131.009 55.896V54.78C131.585 54.628 132.253 54.552 133.013 54.552C133.893 54.552 134.573 54.748 135.053 55.14C135.533 55.524 135.773 56.12 135.773 56.928C135.773 57.424 135.677 57.88 135.485 58.296C135.301 58.712 134.977 59.16 134.513 59.64C134.057 60.112 133.389 60.7 132.509 61.404L132.005 61.8V61.896H136.061V63H130.457V61.704ZM137.358 58.836C137.358 57.74 137.474 56.88 137.706 56.256C137.946 55.624 138.274 55.184 138.69 54.936C139.114 54.68 139.634 54.552 140.25 54.552C140.874 54.552 141.394 54.676 141.81 54.924C142.234 55.172 142.562 55.612 142.794 56.244C143.026 56.868 143.142 57.732 143.142 58.836C143.142 59.94 143.026 60.808 142.794 61.44C142.562 62.064 142.234 62.5 141.81 62.748C141.394 62.996 140.874 63.12 140.25 63.12C139.634 63.12 139.114 62.996 138.69 62.748C138.274 62.5 137.946 62.064 137.706 61.44C137.474 60.808 137.358 59.94 137.358 58.836ZM141.822 58.836C141.822 58.012 141.766 57.372 141.654 56.916C141.55 56.46 141.386 56.14 141.162 55.956C140.938 55.772 140.634 55.68 140.25 55.68C139.874 55.68 139.574 55.772 139.35 55.956C139.126 56.14 138.958 56.46 138.846 56.916C138.742 57.372 138.69 58.012 138.69 58.836C138.69 59.668 138.742 60.312 138.846 60.768C138.958 61.224 139.126 61.544 139.35 61.728C139.574 61.912 139.874 62.004 140.25 62.004C140.634 62.004 140.938 61.912 141.162 61.728C141.386 61.544 141.55 61.224 141.654 60.768C141.766 60.312 141.822 59.668 141.822 58.836ZM144.402 61.704C145.506 60.832 146.342 60.124 146.91 59.58C147.478 59.028 147.87 58.564 148.086 58.188C148.302 57.804 148.41 57.416 148.41 57.024C148.41 56.104 147.858 55.644 146.754 55.644C146.17 55.644 145.57 55.728 144.954 55.896V54.78C145.53 54.628 146.198 54.552 146.958 54.552C147.838 54.552 148.518 54.748 148.998 55.14C149.478 55.524 149.718 56.12 149.718 56.928C149.718 57.424 149.622 57.88 149.43 58.296C149.246 58.712 148.922 59.16 148.458 59.64C148.002 60.112 147.334 60.7 146.454 61.404L145.95 61.8V61.896H150.006V63H144.402V61.704ZM151.723 62.964V61.812C152.035 61.892 152.311 61.948 152.551 61.98C152.799 62.004 153.087 62.016 153.415 62.016C154.103 62.016 154.635 61.896 155.011 61.656C155.387 61.408 155.575 60.988 155.575 60.396C155.575 59.828 155.403 59.42 155.059 59.172C154.723 58.924 154.163 58.8 153.379 58.8C152.939 58.8 152.391 58.86 151.735 58.98L152.299 54.672H156.343V55.8H153.331L153.019 57.876C153.307 57.828 153.619 57.804 153.955 57.804C154.923 57.804 155.655 58.012 156.151 58.428C156.647 58.836 156.895 59.476 156.895 60.348C156.895 61.292 156.599 61.992 156.007 62.448C155.415 62.896 154.575 63.12 153.487 63.12C152.855 63.12 152.267 63.068 151.723 62.964ZM160.928 63V55.872L158.876 56.268V55.176L161.336 54.672H162.26V63H160.928ZM165.248 58.836C165.248 57.74 165.364 56.88 165.596 56.256C165.836 55.624 166.164 55.184 166.58 54.936C167.004 54.68 167.524 54.552 168.14 54.552C168.764 54.552 169.284 54.676 169.7 54.924C170.124 55.172 170.452 55.612 170.684 56.244C170.916 56.868 171.032 57.732 171.032 58.836C171.032 59.94 170.916 60.808 170.684 61.44C170.452 62.064 170.124 62.5 169.7 62.748C169.284 62.996 168.764 63.12 168.14 63.12C167.524 63.12 167.004 62.996 166.58 62.748C166.164 62.5 165.836 62.064 165.596 61.44C165.364 60.808 165.248 59.94 165.248 58.836ZM169.712 58.836C169.712 58.012 169.656 57.372 169.544 56.916C169.44 56.46 169.276 56.14 169.052 55.956C168.828 55.772 168.524 55.68 168.14 55.68C167.764 55.68 167.464 55.772 167.24 55.956C167.016 56.14 166.848 56.46 166.736 56.916C166.632 57.372 166.58 58.012 166.58 58.836C166.58 59.668 166.632 60.312 166.736 60.768C166.848 61.224 167.016 61.544 167.24 61.728C167.464 61.912 167.764 62.004 168.14 62.004C168.524 62.004 168.828 61.912 169.052 61.728C169.276 61.544 169.44 61.224 169.544 60.768C169.656 60.312 169.712 59.668 169.712 58.836ZM174.873 63V55.872L172.821 56.268V55.176L175.281 54.672H176.205V63H174.873ZM181.845 63V55.872L179.793 56.268V55.176L182.253 54.672H183.177V63H181.845ZM186.406 62.964V61.812C186.958 61.948 187.57 62.016 188.242 62.016C188.882 62.016 189.382 61.912 189.742 61.704C190.11 61.496 190.294 61.136 190.294 60.624C190.294 60.104 190.11 59.74 189.742 59.532C189.374 59.316 188.802 59.208 188.026 59.208H187.378V58.2H188.014C188.694 58.2 189.214 58.088 189.574 57.864C189.942 57.632 190.126 57.292 190.126 56.844C190.126 56.412 189.986 56.104 189.706 55.92C189.434 55.728 189.014 55.632 188.446 55.632C188.19 55.632 187.906 55.656 187.594 55.704C187.29 55.744 187.018 55.8 186.778 55.872V54.792C186.994 54.728 187.266 54.672 187.594 54.624C187.922 54.576 188.242 54.552 188.554 54.552C189.49 54.552 190.194 54.728 190.666 55.08C191.146 55.432 191.386 55.996 191.386 56.772C191.386 57.268 191.266 57.668 191.026 57.972C190.786 58.268 190.43 58.488 189.958 58.632V58.704C190.51 58.808 190.922 59.028 191.194 59.364C191.466 59.7 191.602 60.14 191.602 60.684C191.602 62.308 190.498 63.12 188.29 63.12C187.562 63.12 186.934 63.068 186.406 62.964ZM193.379 62.964V61.812C193.931 61.948 194.543 62.016 195.215 62.016C195.855 62.016 196.355 61.912 196.715 61.704C197.083 61.496 197.267 61.136 197.267 60.624C197.267 60.104 197.083 59.74 196.715 59.532C196.347 59.316 195.775 59.208 194.999 59.208H194.351V58.2H194.987C195.667 58.2 196.187 58.088 196.547 57.864C196.915 57.632 197.099 57.292 197.099 56.844C197.099 56.412 196.959 56.104 196.679 55.92C196.407 55.728 195.987 55.632 195.419 55.632C195.163 55.632 194.879 55.656 194.567 55.704C194.263 55.744 193.991 55.8 193.751 55.872V54.792C193.967 54.728 194.239 54.672 194.567 54.624C194.895 54.576 195.215 54.552 195.527 54.552C196.463 54.552 197.167 54.728 197.639 55.08C198.119 55.432 198.359 55.996 198.359 56.772C198.359 57.268 198.239 57.668 197.999 57.972C197.759 58.268 197.403 58.488 196.931 58.632V58.704C197.483 58.808 197.895 59.028 198.167 59.364C198.439 59.7 198.575 60.14 198.575 60.684C198.575 62.308 197.471 63.12 195.263 63.12C194.535 63.12 193.907 63.068 193.379 62.964Z" fill="#191919"/>
<g id="Group 1321316469">
<circle id="Ellipse 15" cx="27.5" cy="32.5" r="2.5" fill="#FF3E3E"/>
<circle id="Ellipse 16" cx="39.5" cy="32.5" r="2.5" fill="#FFC83E"/>
<circle id="Ellipse 17" cx="51.5" cy="32.5" r="2.5" fill="#3DCD85"/>
</g>
</g>
</g>
</g>
<path id="Rectangle 65_2" d="M0 138H268V147C268 155.837 260.837 163 252 163H16C7.16345 163 0 155.837 0 147V138Z" fill="url(#paint3_linear_3375_10034)" fill-opacity="0.3"/>
</g>
<defs>
<linearGradient id="paint0_linear_3375_10034" x1="82.5695" y1="75.5823" x2="91.652" y2="100.494" gradientUnits="userSpaceOnUse">
<stop stop-color="#C1F6D6"/>
<stop offset="1" stop-color="#F7FFD5"/>
</linearGradient>
<linearGradient id="paint1_linear_3375_10034" x1="132.47" y1="75.5823" x2="141.706" y2="100.363" gradientUnits="userSpaceOnUse">
<stop stop-color="#C1F6D6"/>
<stop offset="1" stop-color="#F7FFD5"/>
</linearGradient>
<linearGradient id="paint2_linear_3375_10034" x1="181.57" y1="75.5823" x2="190.652" y2="100.494" gradientUnits="userSpaceOnUse">
<stop stop-color="#C1F6D6"/>
<stop offset="1" stop-color="#F7FFD5"/>
</linearGradient>
<linearGradient id="paint3_linear_3375_10034" x1="134" y1="163" x2="134" y2="131" gradientUnits="userSpaceOnUse">
<stop stop-color="#C7D8B6"/>
<stop offset="1" stop-color="white" stop-opacity="0"/>
</linearGradient>
</defs>
</svg>
