<svg width="268" height="163" viewBox="0 0 268 163" fill="none" xmlns="http://www.w3.org/2000/svg">
<g id="Group 1321316593">
<path id="Rectangle 64" d="M0 16C0 7.16344 7.16344 0 16 0H252C260.837 0 268 7.16344 268 16V147C268 155.837 260.837 163 252 163H16C7.16345 163 0 155.837 0 147V16Z" fill="#B6D8D6"/>
<g id="Mask group">
<mask id="mask0_3375_10033" style="mask-type:alpha" maskUnits="userSpaceOnUse" x="0" y="0" width="268" height="163">
<path id="Rectangle 65" d="M0 16C0 7.16344 7.16344 0 16 0H252C260.837 0 268 7.16344 268 16V147C268 155.837 260.837 163 252 163H16C7.16345 163 0 155.837 0 147V16Z" fill="#E1E9FF"/>
</mask>
<g mask="url(#mask0_3375_10033)">
<g id="Group 1321316470">
<path id="Rectangle 34625646" d="M16.5 34C16.5 27.6487 21.6487 22.5 28 22.5H240C246.351 22.5 251.5 27.6487 251.5 34V165.5H16.5V34Z" fill="white" stroke="#C4CDE1"/>
<g id="Group 1321316492">
<rect id="Rectangle 4" x="39.5" y="45.5" width="189" height="30" rx="7.5" fill="white" stroke="#D9D9D9"/>
<path id="https://www.bitip.com//...." d="M59.2 57.4C59.624 57.4 59.976 57.452 60.256 57.556C60.536 57.66 60.756 57.808 60.916 58C61.084 58.184 61.2 58.404 61.264 58.66C61.336 58.916 61.372 59.2 61.372 59.512V64H60.34V59.896C60.34 59.648 60.324 59.428 60.292 59.236C60.26 59.036 60.196 58.872 60.1 58.744C60.012 58.608 59.884 58.504 59.716 58.432C59.556 58.36 59.348 58.324 59.092 58.324C58.884 58.324 58.68 58.34 58.48 58.372C58.288 58.396 58.104 58.456 57.928 58.552C57.76 58.64 57.604 58.768 57.46 58.936C57.324 59.104 57.212 59.332 57.124 59.62V64H56.092V54.88H57.124V58.444C57.22 58.236 57.344 58.064 57.496 57.928C57.656 57.792 57.828 57.688 58.012 57.616C58.196 57.536 58.388 57.48 58.588 57.448C58.796 57.416 59 57.4 59.2 57.4ZM65.526 63.208C65.67 63.208 65.794 63.204 65.898 63.196C66.01 63.18 66.122 63.16 66.234 63.136V64.012C66.106 64.028 65.986 64.04 65.874 64.048C65.762 64.064 65.638 64.072 65.502 64.072C65.142 64.072 64.838 64.048 64.59 64C64.35 63.944 64.15 63.84 63.99 63.688C63.838 63.536 63.726 63.328 63.654 63.064C63.59 62.792 63.558 62.444 63.558 62.02V58.384H62.598V57.52H63.558V55.984H64.59V57.52H66.198V58.384H64.59V61.96C64.59 62.216 64.602 62.424 64.626 62.584C64.65 62.744 64.694 62.872 64.758 62.968C64.83 63.056 64.926 63.12 65.046 63.16C65.166 63.192 65.326 63.208 65.526 63.208ZM69.5689 63.208C69.7129 63.208 69.8369 63.204 69.9409 63.196C70.0529 63.18 70.1649 63.16 70.2769 63.136V64.012C70.1489 64.028 70.0289 64.04 69.9169 64.048C69.8049 64.064 69.6809 64.072 69.5449 64.072C69.1849 64.072 68.8809 64.048 68.6329 64C68.3929 63.944 68.1929 63.84 68.0329 63.688C67.8809 63.536 67.7689 63.328 67.6969 63.064C67.6329 62.792 67.6009 62.444 67.6009 62.02V58.384H66.6409V57.52H67.6009V55.984H68.6329V57.52H70.2409V58.384H68.6329V61.96C68.6329 62.216 68.6449 62.424 68.6689 62.584C68.6929 62.744 68.7369 62.872 68.8009 62.968C68.8729 63.056 68.9689 63.12 69.0889 63.16C69.2089 63.192 69.3689 63.208 69.5689 63.208ZM74.7279 57.4C75.2719 57.4 75.7159 57.484 76.0599 57.652C76.4119 57.812 76.6839 58.04 76.8759 58.336C77.0759 58.632 77.2119 58.988 77.2839 59.404C77.3639 59.812 77.4039 60.264 77.4039 60.76C77.4039 61.208 77.3639 61.636 77.2839 62.044C77.2119 62.444 77.0759 62.8 76.8759 63.112C76.6839 63.416 76.4119 63.66 76.0599 63.844C75.7159 64.028 75.2719 64.12 74.7279 64.12C74.0959 64.12 73.6199 64.008 73.2999 63.784C72.9879 63.56 72.7639 63.256 72.6279 62.872V66.4H71.5959V57.52H72.6279V58.684C72.7639 58.3 72.9919 57.992 73.3119 57.76C73.6319 57.52 74.1039 57.4 74.7279 57.4ZM74.5959 63.244C74.9799 63.244 75.2839 63.176 75.5079 63.04C75.7399 62.896 75.9159 62.708 76.0359 62.476C76.1559 62.244 76.2319 61.98 76.2639 61.684C76.3039 61.38 76.3239 61.072 76.3239 60.76C76.3239 60.416 76.3039 60.096 76.2639 59.8C76.2239 59.496 76.1439 59.232 76.0239 59.008C75.9039 58.776 75.7279 58.596 75.4959 58.468C75.2719 58.332 74.9719 58.264 74.5959 58.264C74.2039 58.264 73.8799 58.324 73.6239 58.444C73.3679 58.556 73.1599 58.72 72.9999 58.936C72.8479 59.152 72.7399 59.416 72.6759 59.728C72.6119 60.032 72.5799 60.376 72.5799 60.76C72.5799 61.136 72.6119 61.476 72.6759 61.78C72.7399 62.084 72.8479 62.344 72.9999 62.56C73.1599 62.776 73.3679 62.944 73.6239 63.064C73.8799 63.184 74.2039 63.244 74.5959 63.244ZM80.7131 64.072C80.5531 64.072 80.3811 64.064 80.1971 64.048C80.0211 64.04 79.8451 64.028 79.6691 64.012C79.4931 63.996 79.3291 63.976 79.1771 63.952C79.0331 63.92 78.9171 63.892 78.8291 63.868V62.98C78.9411 63.012 79.0731 63.044 79.2251 63.076C79.3851 63.108 79.5491 63.136 79.7171 63.16C79.8851 63.184 80.0531 63.204 80.2211 63.22C80.3971 63.228 80.5571 63.232 80.7011 63.232C81.1971 63.232 81.5691 63.164 81.8171 63.028C82.0731 62.884 82.2011 62.62 82.2011 62.236C82.2011 62.044 82.1811 61.888 82.1411 61.768C82.1091 61.64 82.0411 61.536 81.9371 61.456C81.8331 61.368 81.6851 61.292 81.4931 61.228C81.3091 61.164 81.0611 61.096 80.7491 61.024C80.3891 60.944 80.0931 60.852 79.8611 60.748C79.6291 60.644 79.4451 60.52 79.3091 60.376C79.1731 60.232 79.0771 60.06 79.0211 59.86C78.9651 59.66 78.9371 59.424 78.9371 59.152C78.9371 58.624 79.1291 58.2 79.5131 57.88C79.9051 57.56 80.4891 57.4 81.2651 57.4C81.5771 57.4 81.8851 57.42 82.1891 57.46C82.5011 57.5 82.7371 57.552 82.8971 57.616L82.8251 58.492C82.6411 58.42 82.4131 58.36 82.1411 58.312C81.8691 58.264 81.5811 58.24 81.2771 58.24C80.8211 58.24 80.4771 58.304 80.2451 58.432C80.0211 58.56 79.9091 58.808 79.9091 59.176C79.9091 59.344 79.9251 59.48 79.9571 59.584C79.9971 59.688 80.0611 59.78 80.1491 59.86C80.2371 59.932 80.3611 59.996 80.5211 60.052C80.6811 60.1 80.8891 60.152 81.1451 60.208C81.5131 60.296 81.8251 60.392 82.0811 60.496C82.3451 60.592 82.5571 60.716 82.7171 60.868C82.8771 61.012 82.9931 61.192 83.0651 61.408C83.1371 61.624 83.1731 61.888 83.1731 62.2C83.1731 62.848 82.9611 63.324 82.5371 63.628C82.1211 63.924 81.5131 64.072 80.7131 64.072ZM86.1313 58.96C85.8513 58.96 85.6513 58.916 85.5313 58.828C85.4193 58.74 85.3633 58.532 85.3633 58.204C85.3633 57.876 85.4193 57.668 85.5313 57.58C85.6513 57.492 85.8513 57.448 86.1313 57.448C86.4033 57.448 86.5993 57.492 86.7193 57.58C86.8393 57.668 86.8993 57.876 86.8993 58.204C86.8993 58.532 86.8393 58.74 86.7193 58.828C86.5993 58.916 86.4033 58.96 86.1313 58.96ZM86.1313 64.072C85.8513 64.072 85.6513 64.028 85.5313 63.94C85.4193 63.852 85.3633 63.64 85.3633 63.304C85.3633 62.984 85.4193 62.78 85.5313 62.692C85.6513 62.604 85.8513 62.56 86.1313 62.56C86.4033 62.56 86.5993 62.604 86.7193 62.692C86.8393 62.78 86.8993 62.984 86.8993 63.304C86.8993 63.64 86.8393 63.852 86.7193 63.94C86.5993 64.028 86.4033 64.072 86.1313 64.072ZM92.5504 55.312H93.4744L90.2464 64.36H89.3224L92.5504 55.312ZM97.109 55.312H98.033L94.805 64.36H93.881L97.109 55.312ZM99.221 57.52H100.253L101.621 62.956H101.693L103.301 57.52H104.525L106.181 62.956H106.253L107.621 57.52H108.641L106.841 64H105.557L103.949 58.684H103.877L102.257 64H100.973L99.221 57.52ZM109.159 57.52H110.191L111.559 62.956H111.631L113.239 57.52H114.463L116.119 62.956H116.191L117.559 57.52H118.579L116.779 64H115.495L113.887 58.684H113.815L112.195 64H110.911L109.159 57.52ZM119.096 57.52H120.128L121.496 62.956H121.568L123.176 57.52H124.4L126.056 62.956H126.128L127.496 57.52H128.516L126.716 64H125.432L123.824 58.684H123.752L122.132 64H120.848L119.096 57.52ZM129.984 64.072C129.704 64.072 129.504 64.028 129.384 63.94C129.272 63.852 129.216 63.64 129.216 63.304C129.216 62.984 129.272 62.78 129.384 62.692C129.504 62.604 129.704 62.56 129.984 62.56C130.256 62.56 130.452 62.604 130.572 62.692C130.692 62.78 130.752 62.984 130.752 63.304C130.752 63.64 130.692 63.852 130.572 63.94C130.452 64.028 130.256 64.072 129.984 64.072ZM136.017 57.4C136.561 57.4 137.005 57.484 137.349 57.652C137.701 57.812 137.973 58.04 138.165 58.336C138.365 58.632 138.501 58.988 138.573 59.404C138.653 59.812 138.693 60.264 138.693 60.76C138.693 61.208 138.653 61.636 138.573 62.044C138.501 62.444 138.365 62.8 138.165 63.112C137.973 63.416 137.701 63.66 137.349 63.844C137.005 64.028 136.561 64.12 136.017 64.12C135.385 64.12 134.909 64.008 134.589 63.784C134.277 63.56 134.053 63.256 133.917 62.872L133.785 64H132.885V54.88H133.917V58.684C134.053 58.3 134.281 57.992 134.601 57.76C134.921 57.52 135.393 57.4 136.017 57.4ZM135.885 63.244C136.269 63.244 136.573 63.176 136.797 63.04C137.029 62.896 137.205 62.708 137.325 62.476C137.445 62.244 137.521 61.98 137.553 61.684C137.593 61.38 137.613 61.072 137.613 60.76C137.613 60.424 137.593 60.104 137.553 59.8C137.513 59.496 137.433 59.232 137.313 59.008C137.193 58.776 137.017 58.596 136.785 58.468C136.561 58.332 136.261 58.264 135.885 58.264C135.493 58.264 135.169 58.324 134.913 58.444C134.657 58.556 134.449 58.72 134.289 58.936C134.137 59.152 134.029 59.416 133.965 59.728C133.901 60.032 133.869 60.376 133.869 60.76C133.869 61.136 133.901 61.476 133.965 61.78C134.029 62.084 134.137 62.344 134.289 62.56C134.449 62.776 134.657 62.944 134.913 63.064C135.169 63.184 135.493 63.244 135.885 63.244ZM141.03 56.332C140.798 56.332 140.634 56.296 140.538 56.224C140.45 56.152 140.406 55.984 140.406 55.72C140.406 55.448 140.45 55.28 140.538 55.216C140.634 55.144 140.798 55.108 141.03 55.108C141.246 55.108 141.402 55.144 141.498 55.216C141.594 55.28 141.642 55.448 141.642 55.72C141.642 55.984 141.594 56.152 141.498 56.224C141.402 56.296 141.246 56.332 141.03 56.332ZM140.502 57.52H141.534V64H140.502V57.52ZM145.729 63.208C145.873 63.208 145.997 63.204 146.101 63.196C146.213 63.18 146.325 63.16 146.437 63.136V64.012C146.309 64.028 146.189 64.04 146.077 64.048C145.965 64.064 145.841 64.072 145.705 64.072C145.345 64.072 145.041 64.048 144.793 64C144.553 63.944 144.353 63.84 144.193 63.688C144.041 63.536 143.929 63.328 143.857 63.064C143.793 62.792 143.761 62.444 143.761 62.02V58.384H142.801V57.52H143.761V55.984H144.793V57.52H146.401V58.384H144.793V61.96C144.793 62.216 144.805 62.424 144.829 62.584C144.853 62.744 144.897 62.872 144.961 62.968C145.033 63.056 145.129 63.12 145.249 63.16C145.369 63.192 145.529 63.208 145.729 63.208ZM148.284 56.332C148.052 56.332 147.888 56.296 147.792 56.224C147.704 56.152 147.66 55.984 147.66 55.72C147.66 55.448 147.704 55.28 147.792 55.216C147.888 55.144 148.052 55.108 148.284 55.108C148.5 55.108 148.656 55.144 148.752 55.216C148.848 55.28 148.896 55.448 148.896 55.72C148.896 55.984 148.848 56.152 148.752 56.224C148.656 56.296 148.5 56.332 148.284 56.332ZM147.756 57.52H148.788V64H147.756V57.52ZM154.099 57.4C154.643 57.4 155.087 57.484 155.431 57.652C155.783 57.812 156.055 58.04 156.247 58.336C156.447 58.632 156.583 58.988 156.655 59.404C156.735 59.812 156.775 60.264 156.775 60.76C156.775 61.208 156.735 61.636 156.655 62.044C156.583 62.444 156.447 62.8 156.247 63.112C156.055 63.416 155.783 63.66 155.431 63.844C155.087 64.028 154.643 64.12 154.099 64.12C153.467 64.12 152.991 64.008 152.671 63.784C152.359 63.56 152.135 63.256 151.999 62.872V66.4H150.967V57.52H151.999V58.684C152.135 58.3 152.363 57.992 152.683 57.76C153.003 57.52 153.475 57.4 154.099 57.4ZM153.967 63.244C154.351 63.244 154.655 63.176 154.879 63.04C155.111 62.896 155.287 62.708 155.407 62.476C155.527 62.244 155.603 61.98 155.635 61.684C155.675 61.38 155.695 61.072 155.695 60.76C155.695 60.416 155.675 60.096 155.635 59.8C155.595 59.496 155.515 59.232 155.395 59.008C155.275 58.776 155.099 58.596 154.867 58.468C154.643 58.332 154.343 58.264 153.967 58.264C153.575 58.264 153.251 58.324 152.995 58.444C152.739 58.556 152.531 58.72 152.371 58.936C152.219 59.152 152.111 59.416 152.047 59.728C151.983 60.032 151.951 60.376 151.951 60.76C151.951 61.136 151.983 61.476 152.047 61.78C152.111 62.084 152.219 62.344 152.371 62.56C152.531 62.776 152.739 62.944 152.995 63.064C153.251 63.184 153.575 63.244 153.967 63.244ZM158.824 64.072C158.544 64.072 158.344 64.028 158.224 63.94C158.112 63.852 158.056 63.64 158.056 63.304C158.056 62.984 158.112 62.78 158.224 62.692C158.344 62.604 158.544 62.56 158.824 62.56C159.096 62.56 159.292 62.604 159.412 62.692C159.532 62.78 159.592 62.984 159.592 63.304C159.592 63.64 159.532 63.852 159.412 63.94C159.292 64.028 159.096 64.072 158.824 64.072ZM163.86 64.12C163.38 64.12 162.952 64.068 162.576 63.964C162.208 63.852 161.896 63.668 161.64 63.412C161.384 63.148 161.188 62.804 161.052 62.38C160.924 61.948 160.86 61.408 160.86 60.76C160.86 60.112 160.924 59.576 161.052 59.152C161.188 58.72 161.384 58.376 161.64 58.12C161.896 57.856 162.208 57.672 162.576 57.568C162.952 57.456 163.38 57.4 163.86 57.4C164.22 57.4 164.544 57.424 164.832 57.472C165.128 57.52 165.368 57.576 165.552 57.64V58.588C165.312 58.5 165.056 58.432 164.784 58.384C164.512 58.328 164.208 58.3 163.872 58.3C163.512 58.3 163.212 58.34 162.972 58.42C162.732 58.5 162.536 58.636 162.384 58.828C162.232 59.012 162.124 59.264 162.06 59.584C161.996 59.896 161.964 60.292 161.964 60.772C161.964 61.244 161.996 61.636 162.06 61.948C162.124 62.26 162.232 62.512 162.384 62.704C162.536 62.888 162.732 63.02 162.972 63.1C163.22 63.172 163.524 63.208 163.884 63.208C164.188 63.208 164.488 63.188 164.784 63.148C165.08 63.1 165.344 63.028 165.576 62.932V63.88C165.488 63.912 165.376 63.944 165.24 63.976C165.112 64 164.968 64.024 164.808 64.048C164.656 64.072 164.496 64.088 164.328 64.096C164.168 64.112 164.012 64.12 163.86 64.12ZM169.825 64.12C169.345 64.12 168.917 64.068 168.541 63.964C168.173 63.852 167.861 63.668 167.605 63.412C167.349 63.148 167.153 62.804 167.017 62.38C166.889 61.948 166.825 61.408 166.825 60.76C166.825 60.112 166.889 59.576 167.017 59.152C167.153 58.72 167.349 58.376 167.605 58.12C167.861 57.856 168.173 57.672 168.541 57.568C168.917 57.456 169.345 57.4 169.825 57.4C170.305 57.4 170.729 57.456 171.097 57.568C171.473 57.672 171.785 57.856 172.033 58.12C172.289 58.376 172.481 58.72 172.609 59.152C172.745 59.576 172.813 60.112 172.813 60.76C172.813 61.408 172.745 61.948 172.609 62.38C172.481 62.804 172.289 63.148 172.033 63.412C171.785 63.668 171.473 63.852 171.097 63.964C170.729 64.068 170.305 64.12 169.825 64.12ZM169.825 63.244C170.193 63.244 170.497 63.204 170.737 63.124C170.985 63.044 171.181 62.908 171.325 62.716C171.469 62.524 171.569 62.268 171.625 61.948C171.689 61.628 171.721 61.232 171.721 60.76C171.721 60.288 171.689 59.892 171.625 59.572C171.561 59.252 171.453 58.996 171.301 58.804C171.157 58.612 170.961 58.476 170.713 58.396C170.473 58.308 170.177 58.264 169.825 58.264C169.465 58.264 169.161 58.308 168.913 58.396C168.673 58.476 168.477 58.612 168.325 58.804C168.181 58.996 168.077 59.252 168.013 59.572C167.957 59.892 167.929 60.288 167.929 60.76C167.929 61.232 167.961 61.628 168.025 61.948C168.089 62.268 168.197 62.524 168.349 62.716C168.501 62.908 168.697 63.044 168.937 63.124C169.177 63.204 169.473 63.244 169.825 63.244ZM181.431 57.4C181.807 57.4 182.127 57.452 182.391 57.556C182.663 57.66 182.883 57.808 183.051 58C183.227 58.184 183.355 58.408 183.435 58.672C183.515 58.928 183.555 59.212 183.555 59.524V64H182.523V59.896C182.523 59.392 182.435 59.004 182.259 58.732C182.091 58.46 181.763 58.324 181.275 58.324C181.083 58.324 180.899 58.34 180.723 58.372C180.555 58.404 180.399 58.464 180.255 58.552C180.111 58.632 179.983 58.748 179.871 58.9C179.759 59.044 179.667 59.232 179.595 59.464V59.512V64H178.563V59.896C178.563 59.4 178.483 59.016 178.323 58.744C178.163 58.464 177.847 58.324 177.375 58.324C177.175 58.324 176.987 58.34 176.811 58.372C176.635 58.396 176.475 58.452 176.331 58.54C176.187 58.62 176.059 58.74 175.947 58.9C175.835 59.052 175.739 59.252 175.659 59.5V64H174.627V57.52H175.659V58.372C175.859 57.988 176.123 57.732 176.451 57.604C176.779 57.468 177.139 57.4 177.531 57.4C178.043 57.4 178.451 57.496 178.755 57.688C179.059 57.872 179.279 58.128 179.415 58.456C179.511 58.248 179.631 58.076 179.775 57.94C179.927 57.804 180.091 57.696 180.267 57.616C180.451 57.536 180.639 57.48 180.831 57.448C181.031 57.416 181.231 57.4 181.431 57.4ZM188.738 55.312H189.662L186.434 64.36H185.51L188.738 55.312ZM193.297 55.312H194.221L190.993 64.36H190.069L193.297 55.312ZM196.957 64.072C196.677 64.072 196.477 64.028 196.357 63.94C196.245 63.852 196.189 63.64 196.189 63.304C196.189 62.984 196.245 62.78 196.357 62.692C196.477 62.604 196.677 62.56 196.957 62.56C197.229 62.56 197.425 62.604 197.545 62.692C197.665 62.78 197.725 62.984 197.725 63.304C197.725 63.64 197.665 63.852 197.545 63.94C197.425 64.028 197.229 64.072 196.957 64.072ZM200.578 64.072C200.298 64.072 200.098 64.028 199.978 63.94C199.866 63.852 199.81 63.64 199.81 63.304C199.81 62.984 199.866 62.78 199.978 62.692C200.098 62.604 200.298 62.56 200.578 62.56C200.85 62.56 201.046 62.604 201.166 62.692C201.286 62.78 201.346 62.984 201.346 63.304C201.346 63.64 201.286 63.852 201.166 63.94C201.046 64.028 200.85 64.072 200.578 64.072ZM204.199 64.072C203.919 64.072 203.719 64.028 203.599 63.94C203.487 63.852 203.431 63.64 203.431 63.304C203.431 62.984 203.487 62.78 203.599 62.692C203.719 62.604 203.919 62.56 204.199 62.56C204.471 62.56 204.667 62.604 204.787 62.692C204.907 62.78 204.967 62.984 204.967 63.304C204.967 63.64 204.907 63.852 204.787 63.94C204.667 64.028 204.471 64.072 204.199 64.072ZM207.82 64.072C207.54 64.072 207.34 64.028 207.22 63.94C207.108 63.852 207.052 63.64 207.052 63.304C207.052 62.984 207.108 62.78 207.22 62.692C207.34 62.604 207.54 62.56 207.82 62.56C208.092 62.56 208.288 62.604 208.408 62.692C208.528 62.78 208.588 62.984 208.588 63.304C208.588 63.64 208.528 63.852 208.408 63.94C208.288 64.028 208.092 64.072 207.82 64.072Z" fill="#191919"/>
<g id="Group 1321316493">
<rect id="Rectangle 34625647" x="39.5" y="82.5" width="189" height="30" rx="7.5" fill="#01AA44" stroke="#D9D9D9"/>
<path id="&#230;&#179;&#168;&#229;&#134;&#140;" d="M132.752 98.088C132.128 97.656 131.624 97.272 131.24 96.936C131.2 97.632 131.148 98.42 131.084 99.3C131.028 100.18 130.976 100.852 130.928 101.316C130.88 101.748 130.784 102.08 130.64 102.312C130.496 102.552 130.284 102.724 130.004 102.828C129.724 102.94 129.332 103.012 128.828 103.044L127.76 103.116L127.352 101.784L128.444 101.712C128.764 101.688 128.996 101.652 129.14 101.604C129.292 101.556 129.4 101.472 129.464 101.352C129.536 101.224 129.584 101.02 129.608 100.74L129.824 98.028H126.944C126.944 98.1 126.936 98.272 126.92 98.544C126.888 99.288 126.768 99.928 126.56 100.464C126.36 100.992 126.024 101.492 125.552 101.964C125.08 102.436 124.416 102.928 123.56 103.44L122.54 102.36C123.308 101.96 123.892 101.58 124.292 101.22C124.7 100.86 124.988 100.48 125.156 100.08C125.332 99.672 125.456 99.156 125.528 98.532L125.576 98.028H124.088V97.188C123.76 97.468 123.428 97.74 123.092 98.004L122.348 96.852C123.18 96.236 123.92 95.544 124.568 94.776C125.216 94 125.724 93.184 126.092 92.328L127.352 92.82C127.024 93.58 126.636 94.276 126.188 94.908C125.74 95.54 125.208 96.144 124.592 96.72H131C130.408 96.168 129.896 95.564 129.464 94.908C129.04 94.252 128.668 93.488 128.348 92.616L129.56 92.172C129.928 93.188 130.416 94.056 131.024 94.776C131.64 95.488 132.46 96.172 133.484 96.828L132.752 98.088ZM144.661 93.36V94.392H134.725V93.36H139.201L138.913 92.532L140.257 92.352C140.321 92.528 140.361 92.632 140.377 92.664C140.417 92.768 140.457 92.88 140.497 93C140.545 93.112 140.589 93.232 140.629 93.36H144.661ZM143.521 94.896V97.464H135.877V94.896H143.521ZM142.297 95.796H137.065V96.528H142.297V95.796ZM144.997 100.032V101.088H140.449V101.82C140.449 102.172 140.405 102.436 140.317 102.612C140.229 102.796 140.073 102.928 139.849 103.008C139.625 103.088 139.293 103.144 138.853 103.176L137.905 103.248L137.521 102.036L138.493 101.964C138.693 101.948 138.837 101.928 138.925 101.904C139.013 101.88 139.073 101.832 139.105 101.76C139.137 101.688 139.153 101.568 139.153 101.4V101.088H134.401V100.032H139.153V99.66L141.553 98.988H135.445V98.004H143.881V98.988L140.641 100.032H144.997Z" fill="white"/>
</g>
</g>
<g id="Group 1321316469">
<circle id="Ellipse 15" cx="27.5" cy="32.5" r="2.5" fill="#FF3E3E"/>
<circle id="Ellipse 16" cx="39.5" cy="32.5" r="2.5" fill="#FFC83E"/>
<circle id="Ellipse 17" cx="51.5" cy="32.5" r="2.5" fill="#3DCD85"/>
</g>
</g>
<path id="Vector 20" d="M135 114C135 116.5 132.516 121.5 129.039 122C125.498 122.509 87.1441 122 68.4323 122C62.9677 122 58 127.5 58 133" stroke="#D9D9D9"/>
<path id="Vector 21" d="M135 114C135 116.5 137.5 121.5 141 122C144.564 122.509 183.167 122 202 122C207.5 122 212.5 127.5 212.5 133" stroke="#D9D9D9"/>
<g id="1">
<rect id="Rectangle 34625633" x="40" y="132" width="24" height="24" rx="12" fill="#01AA44"/>
<path id="Vector" d="M46.0012 148.777C46.0012 148.9 46.1131 149 46.2511 149L57.7481 149C57.8861 149 57.998 148.9 57.998 148.777V148.512C58.0038 148.432 58.0155 148.032 57.728 147.59C57.5468 147.311 57.2837 147.071 56.9461 146.874C56.5378 146.637 56.0183 146.465 55.3899 146.362C55.3853 146.361 54.9193 146.305 54.442 146.193C53.6108 145.998 53.5382 145.826 53.5377 145.824C53.5328 145.807 53.5257 145.791 53.5167 145.776C53.5099 145.744 53.4931 145.623 53.5252 145.299C53.6067 144.476 54.0882 143.989 54.4752 143.599C54.5972 143.476 54.7124 143.359 54.8012 143.245C55.184 142.753 55.2195 142.193 55.2211 142.158C55.2211 142.088 55.2123 142.03 55.1935 141.976C55.1559 141.869 55.0852 141.802 55.0336 141.753L55.0332 141.753C55.0202 141.741 55.0079 141.729 54.9979 141.719C54.9941 141.714 54.9839 141.704 54.9931 141.648C55.0271 141.444 55.0475 141.273 55.0573 141.111C55.0747 140.821 55.0884 140.387 55.0068 139.965C54.9967 139.893 54.9794 139.817 54.9524 139.726C54.8662 139.435 54.7277 139.187 54.5353 138.982C54.5022 138.949 53.6976 138.172 51.3617 138.012C51.0387 137.99 50.7194 138.002 50.4051 138.017C50.3294 138.02 50.2256 138.025 50.1286 138.048C49.8874 138.105 49.823 138.245 49.8061 138.324C49.7781 138.454 49.8274 138.555 49.8599 138.622C49.8647 138.631 49.8705 138.643 49.8603 138.674C49.8061 138.751 49.7208 138.821 49.6338 138.887C49.6087 138.906 49.023 139.369 48.9907 139.974C48.9039 140.434 48.9105 141.15 49.0132 141.646C49.0191 141.673 49.0279 141.714 49.0136 141.741C48.9032 141.832 48.778 141.934 48.7783 142.169C48.7797 142.193 48.8152 142.753 49.1981 143.245C49.2867 143.359 49.4019 143.475 49.5238 143.599L49.5241 143.599C49.911 143.989 50.3925 144.476 50.474 145.299C50.5061 145.623 50.4893 145.744 50.4825 145.776C50.4735 145.791 50.4664 145.807 50.4615 145.824C50.461 145.826 50.3887 145.998 49.5612 146.192C49.0839 146.304 48.6139 146.361 48.5999 146.363C47.9893 146.458 47.473 146.625 47.0653 146.861C46.7289 147.056 46.4653 147.297 46.282 147.578C45.989 148.027 45.9969 148.435 46.0012 148.51V148.777Z" fill="white"/>
</g>
<g id="2">
<rect id="Rectangle 34625633_2" x="204" y="132" width="24" height="24" rx="12" fill="#D9D9D9"/>
<path id="Vector_2" d="M210.001 148.777C210.001 148.9 210.113 149 210.251 149L221.748 149C221.886 149 221.998 148.9 221.998 148.777V148.512C222.004 148.432 222.015 148.032 221.728 147.59C221.547 147.311 221.284 147.071 220.946 146.874C220.538 146.637 220.018 146.465 219.39 146.362C219.385 146.361 218.919 146.305 218.442 146.193C217.611 145.998 217.538 145.826 217.538 145.824C217.533 145.807 217.526 145.791 217.517 145.776C217.51 145.744 217.493 145.623 217.525 145.299C217.607 144.476 218.088 143.989 218.475 143.599C218.597 143.476 218.712 143.359 218.801 143.245C219.184 142.753 219.22 142.193 219.221 142.158C219.221 142.088 219.212 142.03 219.193 141.976C219.156 141.869 219.085 141.802 219.034 141.753L219.033 141.753C219.02 141.741 219.008 141.729 218.998 141.719C218.994 141.714 218.984 141.704 218.993 141.648C219.027 141.444 219.048 141.273 219.057 141.111C219.075 140.821 219.088 140.387 219.007 139.965C218.997 139.893 218.979 139.817 218.952 139.726C218.866 139.435 218.728 139.187 218.535 138.982C218.502 138.949 217.698 138.172 215.362 138.012C215.039 137.99 214.719 138.002 214.405 138.017C214.329 138.02 214.226 138.025 214.129 138.048C213.887 138.105 213.823 138.245 213.806 138.324C213.778 138.454 213.827 138.555 213.86 138.622C213.865 138.631 213.871 138.643 213.86 138.674C213.806 138.751 213.721 138.821 213.634 138.887C213.609 138.906 213.023 139.369 212.991 139.974C212.904 140.434 212.91 141.15 213.013 141.646C213.019 141.673 213.028 141.714 213.014 141.741C212.903 141.832 212.778 141.934 212.778 142.169C212.78 142.193 212.815 142.753 213.198 143.245C213.287 143.359 213.402 143.475 213.524 143.599L213.524 143.599C213.911 143.989 214.392 144.476 214.474 145.299C214.506 145.623 214.489 145.744 214.483 145.776C214.473 145.791 214.466 145.807 214.462 145.824C214.461 145.826 214.389 145.998 213.561 146.192C213.084 146.304 212.614 146.361 212.6 146.363C211.989 146.458 211.473 146.625 211.065 146.861C210.729 147.056 210.465 147.297 210.282 147.578C209.989 148.027 209.997 148.435 210.001 148.51V148.777Z" fill="white"/>
</g>
<g id="3">
<rect id="Rectangle 34625633_3" x="163" y="132" width="24" height="24" rx="12" fill="#D9D9D9"/>
<path id="Vector_3" d="M169.001 148.777C169.001 148.9 169.113 149 169.251 149L180.748 149C180.886 149 180.998 148.9 180.998 148.777V148.512C181.004 148.432 181.015 148.032 180.728 147.59C180.547 147.311 180.284 147.071 179.946 146.874C179.538 146.637 179.018 146.465 178.39 146.362C178.385 146.361 177.919 146.305 177.442 146.193C176.611 145.998 176.538 145.826 176.538 145.824C176.533 145.807 176.526 145.791 176.517 145.776C176.51 145.744 176.493 145.623 176.525 145.299C176.607 144.476 177.088 143.989 177.475 143.599C177.597 143.476 177.712 143.359 177.801 143.245C178.184 142.753 178.22 142.193 178.221 142.158C178.221 142.088 178.212 142.03 178.193 141.976C178.156 141.869 178.085 141.802 178.034 141.753L178.033 141.753C178.02 141.741 178.008 141.729 177.998 141.719C177.994 141.714 177.984 141.704 177.993 141.648C178.027 141.444 178.048 141.273 178.057 141.111C178.075 140.821 178.088 140.387 178.007 139.965C177.997 139.893 177.979 139.817 177.952 139.726C177.866 139.435 177.728 139.187 177.535 138.982C177.502 138.949 176.698 138.172 174.362 138.012C174.039 137.99 173.719 138.002 173.405 138.017C173.329 138.02 173.226 138.025 173.129 138.048C172.887 138.105 172.823 138.245 172.806 138.324C172.778 138.454 172.827 138.555 172.86 138.622C172.865 138.631 172.871 138.643 172.86 138.674C172.806 138.751 172.721 138.821 172.634 138.887C172.609 138.906 172.023 139.369 171.991 139.974C171.904 140.434 171.91 141.15 172.013 141.646C172.019 141.673 172.028 141.714 172.014 141.741C171.903 141.832 171.778 141.934 171.778 142.169C171.78 142.193 171.815 142.753 172.198 143.245C172.287 143.359 172.402 143.475 172.524 143.599L172.524 143.599C172.911 143.989 173.392 144.476 173.474 145.299C173.506 145.623 173.489 145.744 173.483 145.776C173.473 145.791 173.466 145.807 173.462 145.824C173.461 145.826 173.389 145.998 172.561 146.192C172.084 146.304 171.614 146.361 171.6 146.363C170.989 146.458 170.473 146.625 170.065 146.861C169.729 147.056 169.465 147.297 169.282 147.578C168.989 148.027 168.997 148.435 169.001 148.51V148.777Z" fill="white"/>
</g>
<g id="4">
<rect id="Rectangle 34625633_4" x="81" y="132" width="24" height="24" rx="12" fill="#D9D9D9"/>
<path id="Vector_4" d="M87.0012 148.777C87.0012 148.9 87.1131 149 87.2511 149L98.7481 149C98.8861 149 98.998 148.9 98.998 148.777V148.512C99.0038 148.432 99.0155 148.032 98.728 147.59C98.5468 147.311 98.2837 147.071 97.9461 146.874C97.5378 146.637 97.0183 146.465 96.3899 146.362C96.3853 146.361 95.9193 146.305 95.442 146.193C94.6108 145.998 94.5382 145.826 94.5377 145.824C94.5328 145.807 94.5257 145.791 94.5167 145.776C94.5099 145.744 94.4931 145.623 94.5252 145.299C94.6067 144.476 95.0882 143.989 95.4752 143.599C95.5972 143.476 95.7124 143.359 95.8012 143.245C96.184 142.753 96.2195 142.193 96.2211 142.158C96.2211 142.088 96.2123 142.03 96.1935 141.976C96.1559 141.869 96.0852 141.802 96.0336 141.753L96.0332 141.753C96.0202 141.741 96.0079 141.729 95.9979 141.719C95.9941 141.714 95.9839 141.704 95.9931 141.648C96.0271 141.444 96.0475 141.273 96.0573 141.111C96.0747 140.821 96.0884 140.387 96.0068 139.965C95.9967 139.893 95.9794 139.817 95.9524 139.726C95.8662 139.435 95.7277 139.187 95.5353 138.982C95.5022 138.949 94.6976 138.172 92.3617 138.012C92.0387 137.99 91.7194 138.002 91.4051 138.017C91.3294 138.02 91.2256 138.025 91.1286 138.048C90.8874 138.105 90.823 138.245 90.8061 138.324C90.7781 138.454 90.8274 138.555 90.8599 138.622C90.8647 138.631 90.8705 138.643 90.8603 138.674C90.8061 138.751 90.7208 138.821 90.6338 138.887C90.6087 138.906 90.023 139.369 89.9907 139.974C89.9039 140.434 89.9105 141.15 90.0132 141.646C90.0191 141.673 90.0279 141.714 90.0136 141.741C89.9032 141.832 89.778 141.934 89.7783 142.169C89.7797 142.193 89.8152 142.753 90.1981 143.245C90.2867 143.359 90.4019 143.475 90.5238 143.599L90.5241 143.599C90.911 143.989 91.3925 144.476 91.474 145.299C91.5061 145.623 91.4893 145.744 91.4825 145.776C91.4735 145.791 91.4664 145.807 91.4615 145.824C91.461 145.826 91.3887 145.998 90.5612 146.192C90.0839 146.304 89.6139 146.361 89.5999 146.363C88.9893 146.458 88.473 146.625 88.0653 146.861C87.7289 147.056 87.4653 147.297 87.282 147.578C86.989 148.027 86.9969 148.435 87.0012 148.51V148.777Z" fill="white"/>
</g>
<g id="5">
<rect id="Rectangle 34625633_5" x="122" y="132" width="24" height="24" rx="12" fill="#D9D9D9"/>
<path id="Vector_5" d="M128.001 148.777C128.001 148.9 128.113 149 128.251 149L139.748 149C139.886 149 139.998 148.9 139.998 148.777V148.512C140.004 148.432 140.015 148.032 139.728 147.59C139.547 147.311 139.284 147.071 138.946 146.874C138.538 146.637 138.018 146.465 137.39 146.362C137.385 146.361 136.919 146.305 136.442 146.193C135.611 145.998 135.538 145.826 135.538 145.824C135.533 145.807 135.526 145.791 135.517 145.776C135.51 145.744 135.493 145.623 135.525 145.299C135.607 144.476 136.088 143.989 136.475 143.599C136.597 143.476 136.712 143.359 136.801 143.245C137.184 142.753 137.22 142.193 137.221 142.158C137.221 142.088 137.212 142.03 137.193 141.976C137.156 141.869 137.085 141.802 137.034 141.753L137.033 141.753C137.02 141.741 137.008 141.729 136.998 141.719C136.994 141.714 136.984 141.704 136.993 141.648C137.027 141.444 137.048 141.273 137.057 141.111C137.075 140.821 137.088 140.387 137.007 139.965C136.997 139.893 136.979 139.817 136.952 139.726C136.866 139.435 136.728 139.187 136.535 138.982C136.502 138.949 135.698 138.172 133.362 138.012C133.039 137.99 132.719 138.002 132.405 138.017C132.329 138.02 132.226 138.025 132.129 138.048C131.887 138.105 131.823 138.245 131.806 138.324C131.778 138.454 131.827 138.555 131.86 138.622C131.865 138.631 131.871 138.643 131.86 138.674C131.806 138.751 131.721 138.821 131.634 138.887C131.609 138.906 131.023 139.369 130.991 139.974C130.904 140.434 130.91 141.15 131.013 141.646C131.019 141.673 131.028 141.714 131.014 141.741C130.903 141.832 130.778 141.934 130.778 142.169C130.78 142.193 130.815 142.753 131.198 143.245C131.287 143.359 131.402 143.475 131.524 143.599L131.524 143.599C131.911 143.989 132.392 144.476 132.474 145.299C132.506 145.623 132.489 145.744 132.483 145.776C132.473 145.791 132.466 145.807 132.462 145.824C132.461 145.826 132.389 145.998 131.561 146.192C131.084 146.304 130.614 146.361 130.6 146.363C129.989 146.458 129.473 146.625 129.065 146.861C128.729 147.056 128.465 147.297 128.282 147.578C127.989 148.027 127.997 148.435 128.001 148.51V148.777Z" fill="white"/>
</g>
</g>
</g>
<path id="Rectangle 65_2" d="M0 138H268V147C268 155.837 260.837 163 252 163H16C7.16345 163 0 155.837 0 147V138Z" fill="url(#paint0_linear_3375_10033)" fill-opacity="0.3"/>
<g id="money-cny-circle-fill 2" clip-path="url(#clip0_3375_10033)">
<path id="Vector_6" d="M26.8977 108.799C21.7185 110.716 15.9654 108.072 14.0478 102.893C12.1302 97.7138 14.7743 91.9606 19.9536 90.043C25.1328 88.1255 30.886 90.7696 32.8035 95.9488C34.7211 101.128 32.077 106.881 26.8977 108.799Z" fill="white"/>
<path id="Vector_7" d="M26.8977 108.799C21.7185 110.716 15.9654 108.072 14.0478 102.893C12.1302 97.7138 14.7743 91.9606 19.9536 90.043C25.1328 88.1255 30.886 90.7696 32.8035 95.9488C34.7211 101.128 32.077 106.881 26.8977 108.799ZM24.7106 100.011L24.3634 99.0737L27.1768 98.032L26.4824 96.1565L24.0575 97.0543L25.3103 94.3284L23.493 93.4932L22.2402 96.2191L19.5143 94.9663L18.6791 96.7836L21.405 98.0363L18.9801 98.9341L19.6745 100.81L22.4879 99.7681L22.8351 100.706L20.0217 101.748L20.7161 103.623L23.5295 102.581L24.2239 104.457L26.0995 103.763L25.4051 101.887L28.2184 100.845L27.524 98.9698L24.7106 100.011Z" fill="#FFD61D"/>
</g>
<g id="money-cny-circle-fill 3" clip-path="url(#clip1_3375_10033)">
<path id="Vector_8" d="M226.519 43.0642C221.655 40.4487 219.832 34.3853 222.447 29.5209C225.063 24.6567 231.126 22.8336 235.991 25.449C240.855 28.0644 242.678 34.128 240.063 38.9922C237.447 43.8566 231.384 45.6796 226.519 43.0642Z" fill="white"/>
<path id="Vector_9" d="M226.519 43.0642C221.655 40.4487 219.832 34.3853 222.447 29.5209C225.063 24.6567 231.126 22.8336 235.991 25.449C240.855 28.0644 242.678 34.128 240.063 38.9922C237.447 43.8566 231.384 45.6796 226.519 43.0642ZM231.662 35.6109L232.136 34.7301L234.778 36.1508L235.725 34.3893L233.448 33.1648L236.321 32.301L235.745 30.3857L232.872 31.2495L232.008 28.3766L230.093 28.9524L230.957 31.8253L228.679 30.6008L227.732 32.3623L230.374 33.783L229.901 34.6638L227.258 33.2431L226.311 35.0046L228.954 36.4253L228.007 38.1868L229.768 39.1339L230.715 37.3724L233.357 38.7931L234.305 37.0316L231.662 35.6109Z" fill="#FFD61D"/>
</g>
</g>
<defs>
<linearGradient id="paint0_linear_3375_10033" x1="134" y1="163" x2="134" y2="131" gradientUnits="userSpaceOnUse">
<stop stop-color="#C7D8B6"/>
<stop offset="1" stop-color="white" stop-opacity="0"/>
</linearGradient>
<clipPath id="clip0_3375_10033">
<rect width="24" height="24" fill="white" transform="translate(8 92.333) rotate(-20.3167)"/>
</clipPath>
<clipPath id="clip1_3375_10033">
<rect width="24" height="24" fill="white" transform="translate(226.366 18) rotate(28.266)"/>
</clipPath>
</defs>
</svg>
