<svg width="268" height="163" viewBox="0 0 268 163" fill="none" xmlns="http://www.w3.org/2000/svg">
<g id="Group 1321316592">
<path id="Rectangle 64" d="M0 16C0 7.16344 7.16344 0 16 0H252C260.837 0 268 7.16344 268 16V147C268 155.837 260.837 163 252 163H16C7.16345 163 0 155.837 0 147V16Z" fill="#B6D8D6"/>
<g id="Mask group">
<mask id="mask0_3375_10032" style="mask-type:alpha" maskUnits="userSpaceOnUse" x="0" y="0" width="268" height="163">
<path id="Rectangle 65" d="M0 16C0 7.16344 7.16344 0 16 0H252C260.837 0 268 7.16344 268 16V147C268 155.837 260.837 163 252 163H16C7.16345 163 0 155.837 0 147V16Z" fill="#E1E9FF"/>
</mask>
<g mask="url(#mask0_3375_10032)">
<g id="Group 1321316470">
<path id="Rectangle 34625646" d="M16.5 34C16.5 27.6487 21.6487 22.5 28 22.5H240C246.351 22.5 251.5 27.6487 251.5 34V166.5H16.5V34Z" fill="white" stroke="#C4CDE1"/>
<rect id="Rectangle 4" x="31.5" y="77.5" width="203" height="52" rx="26" fill="white" stroke="#D9D9D9"/>
<path id="&#232;&#180;&#166;&#230;&#136;&#183;&#230;&#179;&#168;&#229;&#134;&#140;" d="M118.388 59.724C118.612 60.452 118.976 61.108 119.48 61.692C119.992 62.276 120.58 62.728 121.244 63.048L120.56 64.26C120.008 63.964 119.496 63.568 119.024 63.072C118.56 62.584 118.18 62.048 117.884 61.464C117.652 61.984 117.328 62.476 116.912 62.94C116.496 63.396 115.972 63.84 115.34 64.272L114.608 63.228V64.188H113.456V62.46C112.44 62.628 111.464 62.76 110.528 62.856L110.444 61.68L111.128 61.608V55.104H110.648V53.928H115.196V55.104H114.608V61.08C114.768 61.056 115.008 61.012 115.328 60.948L115.34 61.5L115.352 62.124L114.608 62.268V63.132C115.376 62.684 115.956 62.188 116.348 61.644C116.748 61.1 117.004 60.46 117.116 59.724H114.932V58.476H117.188V56.82H115.22V55.584H116.372C116.036 54.832 115.712 54.252 115.4 53.844L116.396 53.268C116.764 53.82 117.128 54.424 117.488 55.08L116.828 55.584H117.896C118.136 55.232 118.38 54.832 118.628 54.384C118.876 53.928 119.064 53.536 119.192 53.208L120.308 53.712C120.132 54.12 119.796 54.744 119.3 55.584H120.656V56.82H118.436V58.476H120.872V59.724H118.388ZM113.456 56.436V55.104H112.208V56.436H113.456ZM113.456 57.564H112.208V58.86H113.456V57.564ZM112.208 61.464C112.72 61.392 113.136 61.328 113.456 61.272V60H112.208V61.464ZM128.473 60.432V62.76C128.473 63.128 128.429 63.404 128.341 63.588C128.261 63.772 128.113 63.9 127.897 63.972C127.689 64.052 127.365 64.108 126.925 64.14L126.097 64.2L125.713 62.94L126.481 62.892C126.785 62.868 126.981 62.828 127.069 62.772C127.165 62.708 127.213 62.576 127.213 62.376V60.492C126.597 60.532 125.665 60.584 124.417 60.648C124.065 60.664 123.733 60.692 123.421 60.732L123.181 59.376C123.469 59.352 123.825 59.3 124.249 59.22C124.977 58.988 125.829 58.552 126.805 57.912L126.385 57.924C126.137 57.932 125.861 57.94 125.557 57.948C125.253 57.956 124.953 57.968 124.657 57.984C124.289 58 123.933 58.024 123.589 58.056L123.361 56.892C123.801 56.82 124.133 56.728 124.357 56.616C124.949 56.304 125.573 55.852 126.229 55.26C125.397 55.3 124.405 55.34 123.253 55.38L123.121 54.12C124.345 54.096 125.861 54.032 127.669 53.928C129.477 53.824 130.937 53.716 132.049 53.604L132.253 54.852C131.189 54.964 129.421 55.088 126.949 55.224L127.729 55.404C127.217 55.868 126.849 56.192 126.625 56.376C126.401 56.552 126.193 56.7 126.001 56.82C126.425 56.812 127.233 56.78 128.424 56.724C129.057 56.22 129.653 55.696 130.213 55.152L131.053 56.148C130.381 56.78 129.649 57.38 128.857 57.948C128.073 58.516 127.361 58.968 126.721 59.304C127.561 59.264 128.373 59.216 129.157 59.16L130.153 59.1C129.785 58.716 129.537 58.464 129.409 58.344L130.321 57.564C130.673 57.876 131.081 58.284 131.545 58.788C132.017 59.284 132.425 59.756 132.769 60.204L131.905 61.116C131.777 60.94 131.553 60.664 131.233 60.288C130.313 60.328 129.393 60.376 128.473 60.432ZM126.277 61.716C125.853 62.076 125.341 62.46 124.741 62.868C124.141 63.268 123.553 63.636 122.977 63.972L122.305 62.904C122.833 62.624 123.401 62.276 124.009 61.86C124.617 61.444 125.117 61.052 125.509 60.684L126.277 61.716ZM129.709 60.72C130.821 61.368 131.941 62.048 133.069 62.76L132.433 63.96C132.065 63.664 131.545 63.304 130.873 62.88C130.201 62.456 129.597 62.092 129.061 61.788L129.709 60.72ZM144.845 59.376L144.617 60.612C142.577 60.364 140.869 59.984 139.493 59.472C137.885 60.088 136.173 60.516 134.357 60.756L134.045 59.532C135.461 59.404 136.793 59.164 138.041 58.812C137.601 58.58 137.189 58.32 136.805 58.032C136.261 58.44 135.773 58.768 135.341 59.016L134.633 58.032C135.193 57.752 135.777 57.372 136.385 56.892C136.993 56.412 137.425 55.992 137.681 55.632L139.037 55.968L138.701 56.34H143.045V55.476H136.049V56.688H134.777V54.348H138.917C138.805 54.012 138.701 53.724 138.605 53.484L140.081 53.28L140.477 54.348H144.341V56.7H143.297V57.36C142.641 57.88 141.873 58.364 140.993 58.812C142.105 59.084 143.389 59.272 144.845 59.376ZM137.777 57.384C138.297 57.76 138.877 58.076 139.517 58.332C140.237 58.044 140.853 57.728 141.365 57.384H137.777ZM137.093 64.26H135.821V60.624H143.249V64.26H141.989V63.816H137.093V64.26ZM141.989 62.796V61.704H137.093V62.796H141.989ZM156.766 63.048L156.13 64.152C155.282 63.648 154.622 63.152 154.15 62.664C153.742 63.12 153.238 63.576 152.638 64.032L152.038 63.36V64.152H150.886V53.82H155.974C155.942 54.588 155.91 55.276 155.878 55.884C155.862 56.22 155.81 56.476 155.722 56.652C155.642 56.82 155.506 56.94 155.314 57.012C155.122 57.076 154.846 57.12 154.486 57.144L153.55 57.204L153.154 56.052L154.006 56.004C154.254 55.988 154.422 55.952 154.51 55.896C154.606 55.832 154.658 55.724 154.666 55.572C154.698 55.26 154.714 55.072 154.714 55.008H152.038V57.72H156.13V58.824C155.834 59.96 155.422 60.924 154.894 61.716C155.126 61.94 155.374 62.144 155.638 62.328C155.91 62.512 156.286 62.752 156.766 63.048ZM146.77 53.832H150.406V62.844C150.406 63.14 150.362 63.368 150.274 63.528C150.194 63.688 150.062 63.804 149.878 63.876C149.694 63.948 149.43 64 149.086 64.032L148.462 64.092L148.102 62.904L148.702 62.856C148.878 62.84 148.998 62.82 149.062 62.796C149.134 62.772 149.178 62.732 149.194 62.676C149.218 62.612 149.23 62.504 149.23 62.352V60.516H147.838C147.694 61.884 147.354 63.132 146.818 64.26L145.738 63.672C146.018 63.176 146.222 62.752 146.35 62.4C146.486 62.04 146.59 61.556 146.662 60.948C146.734 60.332 146.77 59.476 146.77 58.38V53.832ZM149.23 56.604V54.996H147.922V56.604H149.23ZM149.23 59.376V57.744H147.922V58.896C147.922 59.112 147.918 59.272 147.91 59.376H149.23ZM152.038 62.796C152.518 62.46 152.962 62.08 153.37 61.656C152.922 60.944 152.522 60 152.17 58.824H152.038V62.796ZM154.966 58.824H153.346C153.554 59.576 153.806 60.208 154.102 60.72C154.462 60.168 154.75 59.536 154.966 58.824Z" fill="#191919"/>
<g id="Group 1321316469">
<circle id="Ellipse 15" cx="27.5" cy="32.5" r="2.5" fill="#FF3E3E"/>
<circle id="Ellipse 16" cx="39.5" cy="32.5" r="2.5" fill="#FFC83E"/>
<circle id="Ellipse 17" cx="51.5" cy="32.5" r="2.5" fill="#3DCD85"/>
</g>
</g>
</g>
</g>
<path id="Rectangle 65_2" d="M0 138H268V147C268 155.837 260.837 163 252 163H16C7.16345 163 0 155.837 0 147V138Z" fill="url(#paint0_linear_3375_10032)" fill-opacity="0.3"/>
<g id="Frame 3">
<g id="Group 19">
<g id="QQ (1) 1">
<circle id="Ellipse 1" cx="68" cy="104" r="17" fill="#15ADFF"/>
<path id="Vector" d="M74.808 106.199C74.4602 105.082 74.0604 104.143 73.4453 102.607C73.5409 98.5709 71.8632 95.3066 67.9991 95.3066C64.0915 95.3066 62.4507 98.6361 62.555 102.607C61.9378 104.145 61.5401 105.078 61.1923 106.199C60.4534 108.579 60.6925 109.563 60.875 109.585C61.2662 109.633 62.3985 107.794 62.3985 107.794C62.3985 108.859 62.9462 110.248 64.1328 111.25C63.559 111.426 62.2703 111.9 62.5767 112.419C62.8245 112.839 66.8407 112.686 67.9991 112.556C69.1574 112.686 73.1737 112.839 73.4214 112.419C73.7278 111.902 72.4369 111.426 71.8653 111.25C73.052 110.246 73.5996 108.857 73.5996 107.794C73.5996 107.794 74.7319 109.633 75.1231 109.585C75.3078 109.561 75.5469 108.577 74.808 106.199Z" fill="white"/>
</g>
</g>
<g id="Group 20">
<g id="&#229;&#190;&#174;&#228;&#191;&#161; 1">
<circle id="Ellipse 1_2" cx="112" cy="104" r="17" fill="#0ECE6B"/>
<path id="Vector_2" d="M115.945 100.946C116.163 100.946 116.38 100.966 116.597 100.985C116.015 98.284 113.094 96.2656 109.768 96.2656C106.048 96.2787 103 98.7928 103 101.985C103 103.826 104.016 105.344 105.704 106.519L105.023 108.535L107.392 107.361C108.24 107.527 108.922 107.693 109.759 107.693C109.977 107.693 110.184 107.683 110.391 107.664C110.256 107.206 110.187 106.731 110.184 106.253C110.193 103.326 112.73 100.948 115.946 100.948L115.945 100.946H115.945ZM112.304 99.1272C112.818 99.1272 113.153 99.4592 113.153 99.9691C113.153 100.467 112.818 100.811 112.304 100.811C111.801 100.811 111.288 100.478 111.288 99.9691C111.288 99.4592 111.801 99.1272 112.304 99.1272ZM107.567 100.811C107.065 100.811 106.551 100.478 106.551 99.9691C106.551 99.4592 107.065 99.1272 107.567 99.1272C108.071 99.1272 108.416 99.4592 108.416 99.9691C108.416 100.467 108.081 100.811 107.567 100.811ZM122.125 106.183C122.125 103.501 119.421 101.308 116.371 101.308C113.154 101.308 110.618 103.501 110.618 106.183C110.618 108.875 113.154 111.06 116.371 111.06C117.043 111.06 117.724 110.894 118.404 110.726L120.259 111.734L119.746 110.06C121.109 109.033 122.125 107.69 122.125 106.183ZM114.506 105.341C114.171 105.341 113.825 105.009 113.825 104.665C113.825 104.333 114.171 103.989 114.506 103.989C115.02 103.989 115.355 104.323 115.355 104.665C115.355 105.009 115.02 105.341 114.506 105.341ZM118.227 105.341C117.891 105.341 117.555 105.009 117.555 104.665C117.555 104.333 117.89 103.989 118.227 103.989C118.74 103.989 119.076 104.323 119.076 104.665C119.076 105.009 118.74 105.341 118.227 105.341Z" fill="white"/>
</g>
</g>
<g id="Group 22">
<g id="&#229;&#190;&#174;&#228;&#191;&#161; 1_2">
<circle id="Ellipse 1_3" cx="156" cy="104" r="17" fill="#0ECE6B"/>
<rect id="Rectangle 70" x="149" y="95" width="14" height="18" rx="1" fill="white"/>
<circle id="Ellipse 2" cx="153" cy="98.5" r="1.5" fill="#0ECE6B"/>
<rect id="Rectangle 71" x="151.5" y="102" width="9" height="1.5" fill="#0ECE6B"/>
<rect id="Rectangle 72" x="151.5" y="105" width="4" height="1.5" fill="#0ECE6B"/>
<rect id="Rectangle 73" x="151.5" y="108" width="4" height="1.5" fill="#0ECE6B"/>
</g>
</g>
<g id="Group 21">
<g id="&#231;&#148;&#181;&#230;&#138;&#165;&#231;&#164;&#190;&#231;&#190;&#164; 1">
<path id="Vector_3" d="M205.627 111.576L208.447 98.5932C208.696 97.4482 208.025 97.0002 207.256 97.2816L190.668 103.521C189.535 103.951 189.554 104.569 190.477 104.85L194.72 106.142L204.574 100.091C205.035 99.7908 205.458 99.96 205.112 100.261L197.141 107.285L196.833 111.558C196.998 111.559 197.162 111.523 197.311 111.451C197.46 111.38 197.59 111.275 197.693 111.146L199.767 109.198L204.068 112.289C204.856 112.719 205.413 112.495 205.624 111.577H205.627V111.576ZM217 104C217 113.389 209.389 121 200 121C190.611 121 183 113.389 183 104C183 94.6109 190.611 87 200 87C209.389 87 217 94.6109 217 104Z" fill="#2EA3E1"/>
</g>
</g>
</g>
<g id="&#231;&#130;&#185;&#229;&#135;&#187;_click 1">
<path id="Vector_4" d="M129 118.667V124" stroke="#03490C" stroke-width="1.33333" stroke-linecap="round" stroke-linejoin="round"/>
<path id="Vector_5" fill-rule="evenodd" clip-rule="evenodd" d="M127.667 130.667L141 133.333L137 136L141 140L137 144L133 140L130.333 144L127.667 130.667Z" fill="white" stroke="#03490C" stroke-width="1.33333" stroke-linecap="round" stroke-linejoin="round"/>
<path id="Vector_6" d="M138.428 122.572L134.657 126.343" stroke="#03490C" stroke-width="1.33333" stroke-linecap="round" stroke-linejoin="round"/>
<path id="Vector_7" d="M119.572 141.428L123.343 137.657" stroke="#03490C" stroke-width="1.33333" stroke-linecap="round" stroke-linejoin="round"/>
<path id="Vector_8" d="M115.667 132H121" stroke="#03490C" stroke-width="1.33333" stroke-linecap="round" stroke-linejoin="round"/>
<path id="Vector_9" d="M119.572 122.572L123.343 126.343" stroke="#03490C" stroke-width="1.33333" stroke-linecap="round" stroke-linejoin="round"/>
</g>
</g>
<defs>
<linearGradient id="paint0_linear_3375_10032" x1="134" y1="163" x2="134" y2="131" gradientUnits="userSpaceOnUse">
<stop stop-color="#C7D8B6"/>
<stop offset="1" stop-color="white" stop-opacity="0"/>
</linearGradient>
</defs>
</svg>
