<svg width="48" height="48" viewBox="0 0 48 48" fill="none" xmlns="http://www.w3.org/2000/svg">
<g id="&#229;&#164;&#180;&#229;&#131;&#143;">
<rect id="Rectangle 65" width="48" height="48" rx="24" fill="#01AA44"/>
<g id="Group 1">
<path id="&#231;&#159;&#169;&#229;&#189;&#162; 17" d="M21.3257 18.8239H16.9976V21.7181H21.3257V18.8239Z" fill="#C2FFDB"/>
<path id="&#231;&#159;&#169;&#229;&#189;&#162; 18" d="M23.2494 14H14L15.0739 15.0853V16.1707V18.3413H23.2494V14Z" fill="#C2FFDB"/>
<path id="&#229;&#135;&#143;&#229;&#142;&#187;&#233;&#161;&#182;&#229;&#177;&#130;" fill-rule="evenodd" clip-rule="evenodd" d="M18.6807 22.321H27.878C31.364 22.321 34.1899 25.1556 34.1899 28.6522V29.2551C34.1899 32.7517 31.364 35.5863 27.878 35.5863H18.6807V31.8479H27.6376C29.0651 31.8479 30.2224 30.6871 30.2224 29.2551C30.2224 27.8232 29.0651 26.6624 27.6376 26.6624H18.6807V22.321Z" fill="#58DA8C"/>
<path id="&#229;&#135;&#143;&#229;&#142;&#187;&#233;&#161;&#182;&#229;&#177;&#130;_2" fill-rule="evenodd" clip-rule="evenodd" d="M23.2494 14H26.1949C29.6809 14 32.5068 16.8345 32.5068 20.3311C32.5068 23.8277 29.6809 26.6622 26.1949 26.6622H16.9976V22.3209H26.5556C27.6512 22.3209 28.5393 21.4301 28.5393 20.3311C28.5393 19.2322 27.6512 18.3413 26.5556 18.3413H23.2494V14Z" fill="#C2FFDB"/>
<path id="&#231;&#159;&#169;&#229;&#189;&#162; 16" d="M21.3257 22.321H16.9976V35.5863H19.1616H20.2437C20.2463 35.5863 20.2488 35.5852 20.2506 35.5834L20.7853 35.0507C21.1313 34.7061 21.3257 34.2378 21.3257 33.7495V22.321Z" fill="#C2FFDB"/>
</g>
</g>
</svg>
