<svg width="87" height="33" viewBox="0 0 87 33" fill="none" xmlns="http://www.w3.org/2000/svg">
<g id="Group 1321316461">
<rect id="Rectangle 34625641" x="12" y="7" width="75" height="22" rx="11" fill="#01AA44"/>
<g id="&#228;&#191;&#157;&#230;&#138;&#164;_protect 1">
<path id="Vector" d="M4.125 6.36325L16.5059 2.75L28.875 6.36325V13.7732C28.875 21.5615 23.8908 28.4758 16.5018 30.9378C9.11082 28.4759 4.125 21.56 4.125 13.7697V6.36325Z" fill="white" stroke="#01AA44" stroke-width="2.5" stroke-linejoin="round"/>
<path id="Vector_2" d="M10.3125 15.8125L15.125 20.625L23.375 12.375" stroke="#01AA44" stroke-width="2.5" stroke-linecap="round" stroke-linejoin="round"/>
</g>
<path id="&#229;&#183;&#178;&#232;&#174;&#164;&#232;&#175;&#129;" d="M46.999 21.408C46.967 21.92 46.9083 22.4427 46.823 22.976C46.7057 23.5947 46.5617 24.0587 46.391 24.368C46.231 24.6773 45.975 24.896 45.623 25.024C45.2817 25.152 44.775 25.232 44.103 25.264C42.7697 25.3173 41.5697 25.344 40.503 25.344C39.5217 25.344 38.4177 25.3173 37.191 25.264C36.4977 25.232 35.9697 25.136 35.607 24.976C35.2443 24.8267 34.983 24.5707 34.823 24.208C34.663 23.8453 34.583 23.3173 34.583 22.624V15.072L36.135 15.136V17.104H44.023V13.568H34.183V12.048H45.559V18.576H36.135V22.224C36.135 22.6613 36.1723 22.9813 36.247 23.184C36.3323 23.3867 36.4763 23.5307 36.679 23.616C36.8923 23.6907 37.2283 23.7387 37.687 23.76C38.7857 23.8133 39.7777 23.84 40.663 23.84C41.5483 23.84 42.5403 23.8133 43.639 23.76C44.0977 23.728 44.4283 23.68 44.631 23.616C44.8443 23.552 44.999 23.4347 45.095 23.264C45.191 23.0827 45.271 22.8 45.335 22.416C45.4097 21.936 45.4577 21.4293 45.479 20.896L46.999 21.408ZM63.277 24.416L62.221 25.6C61.1757 24.5653 60.3063 23.472 59.613 22.32C58.9197 21.168 58.381 19.8667 57.997 18.416C57.6877 19.7173 57.1863 20.944 56.493 22.096C55.7997 23.248 54.813 24.4427 53.533 25.68L52.461 24.56C53.6023 23.6107 54.509 22.6293 55.181 21.616C55.853 20.6027 56.349 19.4133 56.669 18.048C56.989 16.6827 57.149 15.0293 57.149 13.088V11.184L58.573 11.232V13.456L58.541 14.144C58.7223 16.4373 59.2023 18.4107 59.981 20.064C60.7597 21.7173 61.8583 23.168 63.277 24.416ZM52.365 15.328C52.1197 14.9227 51.7357 14.4 51.213 13.76C50.701 13.1093 50.2637 12.5973 49.901 12.224L50.893 11.296C51.2557 11.6267 51.6877 12.0853 52.189 12.672C52.701 13.248 53.1063 13.7493 53.405 14.176L52.365 15.328ZM54.013 20.448L54.461 21.84C54.2157 22.064 53.8797 22.3787 53.453 22.784C53.0263 23.1787 52.5997 23.584 52.173 24L51.741 24.432L51.469 24.72L50.573 23.744C50.7437 23.584 50.8503 23.4293 50.893 23.28C50.9357 23.12 50.957 22.8907 50.957 22.592V17.68H49.021V16.192H52.413V21.984L54.013 20.448ZM67.427 15.008C67.1923 14.6347 66.8563 14.1547 66.419 13.568C65.9923 12.9813 65.6403 12.5333 65.363 12.224L66.499 11.36C66.787 11.6587 67.1337 12.0693 67.539 12.592C67.955 13.1147 68.291 13.5627 68.547 13.936L67.427 15.008ZM74.995 23.392H78.755V24.848H68.435V23.408L67.795 23.968C67.603 24.1387 67.2883 24.4267 66.851 24.832L65.987 23.776C66.1257 23.6373 66.2163 23.4933 66.259 23.344C66.3123 23.184 66.339 22.9867 66.339 22.752V17.552H64.643V16.08H67.747V22.176L69.091 21.008L69.507 22.48L68.451 23.392H70.147V15.696L71.619 15.76V23.392H73.507V13.52H69.459V12.064H78.243V13.52H74.995V17.424H78.019V18.96H74.995V23.392Z" fill="white"/>
</g>
</svg>
