<svg width="195" height="198" viewBox="0 0 195 198" fill="none" xmlns="http://www.w3.org/2000/svg">
<g id="ISO-27001 1">
<path id="Vector" fill-rule="evenodd" clip-rule="evenodd" d="M195 98.8674C195 152.763 151.348 196.453 97.5 196.453C43.6523 196.453 0 152.763 0 98.8674C0 44.9723 43.6523 1.28174 97.5 1.28174C151.348 1.28174 195 44.9723 195 98.8674Z" fill="#130F35"/>
<path id="Vector_2" fill-rule="evenodd" clip-rule="evenodd" d="M106.232 91.5552V80.6986H97.5206C94.8457 80.3238 92.1505 80.1097 89.4502 80.0576C79.4139 80.0576 72.5386 83.7348 72.5386 91.8553C72.5386 107.841 95.5568 100.872 95.5568 106.855C95.5568 108.695 93.7195 109.721 89.1936 109.721C85.7771 109.721 82.7882 108.993 81.508 108.31V106.002H72.7952V116.857H81.508C84.3397 117.235 87.191 117.449 90.0473 117.499C103.243 117.499 107.642 112.114 107.642 105.532C107.642 89.6326 84.4113 96.9397 84.4113 90.5731C84.4113 89.0332 85.9913 87.837 90.0473 87.837C93.2083 87.837 96.2393 88.5651 97.5209 89.2471V91.5552H106.232Z" fill="white"/>
<path id="Vector_3" fill-rule="evenodd" clip-rule="evenodd" d="M46.9159 107.956V116.932H70.1884V107.956H64.3382V89.7476H70.1884V80.772H46.9159V89.7476H52.7648V107.956H46.9159Z" fill="white"/>
<path id="Vector_4" fill-rule="evenodd" clip-rule="evenodd" d="M108.79 69.1757C107.252 65.2517 105.234 62.0228 103.238 59.9945C109.404 61.0507 115.237 63.5373 120.271 67.2546C116.491 68.1498 112.655 68.7913 108.79 69.1757ZM97.4556 69.7542C94.3249 69.7542 91.2241 69.6215 88.2137 69.3717C90.7812 63.212 94.0403 59.5051 97.1965 59.5051C100.359 59.5051 103.626 63.2275 106.196 69.4119C103.34 69.6359 100.408 69.7536 97.4556 69.7542ZM85.6231 69.1257C81.7932 68.726 77.9935 68.0692 74.2509 67.1604C79.2559 63.4957 85.042 61.0425 91.1543 59.9945C89.1673 62.0141 87.1557 65.2265 85.6231 69.1257ZM129.297 76.478H132.312C119.967 57.0677 94.239 51.3478 74.8452 63.7033C69.7082 66.9759 65.3515 71.3368 62.0815 76.478H65.0963C67.0119 73.7436 69.2645 71.2618 71.8012 69.092C76.0469 70.2441 80.3756 71.0615 84.7487 71.5376C84.225 73.0995 83.7525 74.7528 83.3294 76.478H85.8882C86.316 74.8102 86.7823 73.2407 87.289 71.7947C90.5944 72.0926 94.0081 72.2493 97.4553 72.2493C100.76 72.2493 103.994 72.1109 107.123 71.8479C107.622 73.2789 108.084 74.8306 108.505 76.478H111.064C110.646 74.7783 110.18 73.1456 109.667 71.6046C114.073 71.1455 118.437 70.3417 122.718 69.1998C125.204 71.343 127.414 73.788 129.297 76.478Z" fill="white"/>
<path id="Vector_5" fill-rule="evenodd" clip-rule="evenodd" d="M128.959 108.993C124.389 108.993 121.485 106.088 121.485 98.7782C121.485 91.4709 124.389 88.5651 128.959 88.5651C133.527 88.5651 136.431 91.4709 136.431 98.7782C136.431 106.087 133.527 108.993 128.959 108.993ZM128.959 80.0576C117.428 80.0576 109.187 86.7673 109.187 98.7782C109.187 110.789 117.428 117.499 128.959 117.499C140.488 117.499 148.731 110.789 148.731 98.7782C148.731 86.7673 140.488 80.0576 128.959 80.0576Z" fill="white"/>
<path id="Vector_6" fill-rule="evenodd" clip-rule="evenodd" d="M65.9213 151.564H48.7543V147.843L56.6616 139.523C58.6105 137.302 59.585 135.537 59.585 134.229C59.585 133.17 59.3541 132.364 58.8923 131.811C58.4302 131.259 57.7601 130.982 56.8815 130.982C56.0142 130.982 55.3102 131.352 54.7696 132.09C54.2289 132.829 53.9585 133.751 53.9585 134.855H48.2473C48.2473 133.344 48.6245 131.95 49.3794 130.67C50.1342 129.39 51.1816 128.39 52.5223 127.667C53.8624 126.947 55.3608 126.585 57.0166 126.585C59.6751 126.585 61.7226 127.2 63.1585 128.429C64.5948 129.658 65.3129 131.422 65.3129 133.722C65.3129 134.692 65.1326 135.636 64.7722 136.555C64.4116 137.474 63.8515 138.438 63.091 139.446C62.3308 140.456 61.1057 141.805 59.4159 143.497L56.2394 147.166H65.9213V151.564Z" fill="white"/>
<path id="Vector_7" fill-rule="evenodd" clip-rule="evenodd" d="M85.893 129.984L76.7011 151.563H70.6861L79.8949 131.337H68.1683V126.94H85.893V129.984Z" fill="white"/>
<path id="Vector_8" fill-rule="evenodd" clip-rule="evenodd" d="M100.221 136.275C100.221 134.505 99.9898 133.184 99.5283 132.31C99.0662 131.436 98.3343 130.999 97.3316 130.999C96.3515 130.999 95.6393 131.405 95.1942 132.217C94.7491 133.028 94.5097 134.258 94.4764 135.903V142.194C94.4764 144.032 94.707 145.376 95.1688 146.228C95.6305 147.079 96.3628 147.504 97.3655 147.504C98.3343 147.504 99.0493 147.09 99.5111 146.262C99.9728 145.433 100.209 144.134 100.221 142.364V136.275ZM105.915 141.501C105.915 144.827 105.169 147.392 103.676 149.196C102.183 150.999 100.08 151.902 97.3655 151.902C94.6281 151.902 92.5103 150.994 91.0122 149.179C89.514 147.364 88.7651 144.804 88.7651 141.501V137.002C88.7651 133.677 89.5112 131.112 91.004 129.308C92.4961 127.504 94.6055 126.602 97.3316 126.602C100.058 126.602 102.17 127.51 103.668 129.325C105.166 131.14 105.915 133.705 105.915 137.019V141.501Z" fill="white"/>
<path id="Vector_9" fill-rule="evenodd" clip-rule="evenodd" d="M120.261 136.275C120.261 134.505 120.03 133.184 119.568 132.31C119.106 131.436 118.374 130.999 117.371 130.999C116.391 130.999 115.679 131.405 115.234 132.217C114.789 133.028 114.55 134.258 114.516 135.903V142.194C114.516 144.032 114.747 145.376 115.209 146.228C115.67 147.079 116.402 147.504 117.405 147.504C118.374 147.504 119.089 147.09 119.551 146.262C120.013 145.433 120.249 144.134 120.261 142.364V136.275ZM125.955 141.501C125.955 144.827 125.208 147.392 123.716 149.196C122.223 150.999 120.119 151.902 117.405 151.902C114.668 151.902 112.55 150.994 111.052 149.179C109.554 147.364 108.805 144.804 108.805 141.501V137.002C108.805 133.677 109.551 131.112 111.044 129.308C112.536 127.504 114.645 126.602 117.371 126.602C120.097 126.602 122.209 127.51 123.707 129.325C125.206 131.14 125.955 133.705 125.955 137.019V141.501Z" fill="white"/>
<path id="Vector_10" fill-rule="evenodd" clip-rule="evenodd" d="M141.533 151.563H135.822V133.366L130.213 135.007V130.678L141.009 126.94H141.533V151.563Z" fill="white"/>
<path id="Vector_11" fill-rule="evenodd" clip-rule="evenodd" d="M21.5146 106.153L21.7926 108.651L11.4081 109.808L11.1301 107.31L21.5146 106.153Z" fill="white"/>
<path id="Vector_12" fill-rule="evenodd" clip-rule="evenodd" d="M21.1077 96.1494L21.1607 98.6553L14.7384 102.498L21.2385 102.361L21.2915 104.881L10.8455 105.102L10.7925 102.581L17.2147 98.7458L10.7146 98.8829L10.6616 96.3698L21.1077 96.1494Z" fill="white"/>
<path id="Vector_13" fill-rule="evenodd" clip-rule="evenodd" d="M17.6513 88.1947L17.2856 92.2435L21.4307 92.6183L21.2041 95.1295L10.7979 94.1878L11.4273 87.2202L13.3642 87.3956L12.9617 91.852L15.356 92.0687L15.7217 88.0201L17.6513 88.1947Z" fill="white"/>
<path id="Vector_14" fill-rule="evenodd" clip-rule="evenodd" d="M17.7964 80.4356C16.7793 80.2271 15.9725 80.239 15.3757 80.471C14.7789 80.7032 14.4157 81.1357 14.2861 81.7693C14.0327 83.0076 14.8267 83.852 16.6685 84.3025L17.4192 84.4638C18.4223 84.6691 19.2275 84.6612 19.8345 84.4383C20.4415 84.2157 20.8124 83.7759 20.9467 83.1191C21.0744 82.4956 20.9081 81.9602 20.4473 81.5139C19.9867 81.0678 19.26 80.7405 18.2675 80.5323L17.7964 80.4356ZM18.7392 78.0112C19.7375 78.216 20.5829 78.5826 21.2758 79.1104C21.9687 79.6385 22.4528 80.2863 22.7279 81.0539C23.003 81.8213 23.0515 82.6416 22.8731 83.5139C22.6944 84.3866 22.3357 85.1197 21.7969 85.7129C21.2579 86.3063 20.5772 86.7156 19.7547 86.9402C18.9326 87.1653 18.0364 87.1883 17.0672 87.0092L16.4908 86.891C15.4877 86.6856 14.6407 86.3202 13.9497 85.7946C13.2587 85.2693 12.7752 84.6208 12.4985 83.8477C12.2218 83.0752 12.1733 82.2501 12.3527 81.373C12.5305 80.5052 12.8949 79.7737 13.4464 79.1777C13.9979 78.5818 14.6933 78.1733 15.5321 77.9518C16.3711 77.7304 17.2829 77.7179 18.2681 77.9148L18.7392 78.0112Z" fill="white"/>
<path id="Vector_15" fill-rule="evenodd" clip-rule="evenodd" d="M19.3158 74.1915L19.823 72.68C19.9755 72.2265 19.9707 71.8444 19.8089 71.5352C19.6474 71.2258 19.3528 70.9992 18.9252 70.8555C18.4979 70.7113 18.1238 70.7147 17.8031 70.8643C17.482 71.0142 17.2462 71.3135 17.0952 71.7626L16.5881 73.2745L19.3158 74.1915ZM21.5866 73.5152L21.1525 74.8093L24.6558 75.9871L23.8538 78.3767L13.9493 75.0466L15.2585 71.1455C15.653 69.9696 16.2223 69.1383 16.9656 68.6507C17.7089 68.163 18.5563 68.0793 19.5077 68.3989C20.1964 68.6309 20.7201 68.9621 21.0794 69.3934C21.4388 69.8251 21.6594 70.3851 21.7404 71.0745L26.4345 70.3492L26.5366 70.3834L25.6774 72.9439L21.5866 73.5152Z" fill="white"/>
<path id="Vector_16" fill-rule="evenodd" clip-rule="evenodd" d="M18.7616 62.2986L26.3072 63.4597L20.8417 58.1278L22.3223 55.1587L31.6708 59.8298L30.5426 62.0918L28.3598 61.0011L23.9997 58.5496L29.5233 64.1352L28.78 65.6264L20.9902 64.5682L25.5744 66.5853L27.7574 67.6763L26.6324 69.9318L17.2839 65.2609L18.7616 62.2986Z" fill="white"/>
<path id="Vector_17" fill-rule="evenodd" clip-rule="evenodd" d="M30.8193 54.2597L32.0973 52.4112L28.4762 51.2744L30.8193 54.2597ZM34.0397 53.0228L32.0755 55.8635L33.3377 57.4715L31.8062 59.6863L25.3948 50.5814L26.7425 48.6328L37.5313 51.4054L35.9919 53.632L34.0397 53.0228Z" fill="white"/>
<path id="Vector_18" fill-rule="evenodd" clip-rule="evenodd" d="M36.1126 40.1838L34.062 42.5587L40.4958 48.1236L38.8488 50.0312L32.4149 44.4657L30.4016 46.797L28.9304 45.5241L34.6413 38.9106L36.1126 40.1838Z" fill="white"/>
<path id="Vector_19" fill-rule="evenodd" clip-rule="evenodd" d="M44.9851 43.4954L43.1897 45.253L35.8828 37.7777L37.6785 36.02L44.9851 43.4954Z" fill="white"/>
<path id="Vector_20" fill-rule="evenodd" clip-rule="evenodd" d="M47.2719 34.336C46.6149 33.5315 45.9816 33.0306 45.3725 32.8337C44.7632 32.6363 44.2088 32.7421 43.7085 33.1511C42.7307 33.9513 42.8138 35.1082 43.9572 36.6214L44.4379 37.2211C45.0857 38.0145 45.7156 38.5166 46.3269 38.7273C46.9382 38.9389 47.5028 38.8323 48.0214 38.408C48.5137 38.0049 48.7226 37.4844 48.6468 36.8474C48.5717 36.2102 48.2147 35.4977 47.5763 34.7082L47.2719 34.336ZM49.5325 33.0518C50.1774 33.8418 50.6019 34.6604 50.806 35.5076C51.0097 36.3547 50.9764 37.1634 50.7056 37.9319C50.4346 38.7013 49.9548 39.3674 49.266 39.9317C48.577 40.4949 47.8366 40.8369 47.0444 40.9562C46.252 41.0759 45.4658 40.9627 44.6864 40.6171C43.9069 40.2723 43.1976 39.7238 42.5592 38.972L42.1867 38.516C41.5387 37.7232 41.1125 36.904 40.9082 36.06C40.7036 35.2162 40.738 34.4072 41.011 33.6331C41.284 32.8592 41.767 32.1888 42.4594 31.6219C43.1447 31.0613 43.8891 30.7242 44.6926 30.6113C45.4963 30.4976 46.2933 30.6206 47.0834 30.9787C47.8736 31.3374 48.5883 31.904 49.2282 32.6793L49.5325 33.0518Z" fill="white"/>
<path id="Vector_21" fill-rule="evenodd" clip-rule="evenodd" d="M60.6343 31.9212L58.5127 33.2529L51.9214 29.7081L55.3752 35.2215L53.2412 36.5606L47.6908 27.7004L49.8248 26.3614L56.4098 29.9095L52.9558 24.3963L55.0841 23.061L60.6343 31.9212Z" fill="white"/>
<path id="Vector_22" fill-rule="evenodd" clip-rule="evenodd" d="M68.4753 25.2945C68.3337 24.9543 68.1028 24.7393 67.7834 24.6492C67.4632 24.5595 66.9588 24.539 66.2689 24.5879C65.5794 24.6368 65.0028 24.6464 64.5397 24.6163C63.0342 24.5227 62.0578 23.9391 61.611 22.8652C61.3883 22.3302 61.3476 21.7932 61.4892 21.255C61.6302 20.7161 61.9385 20.2143 62.4133 19.7492C62.8887 19.2841 63.4816 18.9033 64.1926 18.6066C64.8859 18.3178 65.5587 18.1824 66.2119 18.2009C66.8644 18.2194 67.4384 18.3935 67.9338 18.7244C68.4286 19.0544 68.7986 19.5137 69.043 20.1018L66.7248 21.0684C66.5606 20.6746 66.3136 20.42 65.9827 20.3034C65.652 20.1874 65.2812 20.2149 64.8706 20.3858C64.4552 20.5592 64.1658 20.7876 64.001 21.071C63.8368 21.3549 63.8133 21.6386 63.9312 21.921C64.0343 22.1688 64.2599 22.3378 64.6089 22.4282C64.9576 22.5193 65.5099 22.5327 66.2658 22.4691C67.0218 22.4059 67.6656 22.4084 68.1969 22.4774C69.4895 22.6442 70.3555 23.2555 70.7952 24.3119C71.1462 25.1565 71.1041 25.9522 70.6689 26.6987C70.2331 27.4455 69.461 28.0502 68.3526 28.512C67.5712 28.8381 66.8048 28.9928 66.0542 28.9759C65.3035 28.96 64.6665 28.7739 64.1432 28.4189C63.6198 28.0639 63.2255 27.5678 62.961 26.9316L65.2928 25.9595C65.5082 26.4767 65.8001 26.8025 66.1695 26.9367C66.5385 27.0705 67.0238 27.012 67.624 26.7619C68.0087 26.6016 68.2777 26.3923 68.4317 26.1336C68.5858 25.8746 68.6005 25.5951 68.4753 25.2945Z" fill="white"/>
<path id="Vector_23" fill-rule="evenodd" clip-rule="evenodd" d="M77.5376 20.5915L73.7379 21.7127L74.4442 24.1103L78.9323 22.7857L79.4797 24.6454L72.5764 26.683L69.6215 16.6523L76.5389 14.6108L77.0888 16.4779L72.5872 17.8064L73.21 19.9213L77.01 18.8005L77.5376 20.5915Z" fill="white"/>
<path id="Vector_24" fill-rule="evenodd" clip-rule="evenodd" d="M87.6215 19.5646C87.7159 20.2872 87.6356 20.9545 87.3798 21.5665C87.1246 22.1788 86.7041 22.6925 86.12 23.1077C85.5355 23.5233 84.8333 23.8038 84.0137 23.9501C82.662 24.1912 81.5194 23.9402 80.5851 23.1972C79.6511 22.4545 79.0412 21.279 78.7552 19.6713L78.6645 19.1621C78.4847 18.1537 78.5034 17.2395 78.7193 16.4202C78.9358 15.6011 79.3371 14.9265 79.9229 14.3966C80.5088 13.8666 81.2354 13.5242 82.1018 13.3696C83.3498 13.1473 84.4113 13.2971 85.2871 13.82C86.1624 14.3419 86.7547 15.1715 87.0636 16.308L84.5908 16.7492C84.4605 16.125 84.2228 15.7034 83.8775 15.4826C83.5318 15.2622 83.0554 15.206 82.448 15.3143C81.8308 15.4245 81.4196 15.7359 81.2147 16.2493C81.0096 16.7626 80.9901 17.527 81.1565 18.5431L81.2859 19.2714C81.4818 20.3699 81.759 21.1298 82.1182 21.5524C82.4777 21.9747 82.994 22.1258 83.6678 22.006C84.2375 21.9041 84.6496 21.692 84.9031 21.3694C85.1566 21.0471 85.2408 20.5922 85.1557 20.0042L87.6215 19.5646Z" fill="white"/>
<path id="Vector_25" fill-rule="evenodd" clip-rule="evenodd" d="M96.4037 12.0933L96.7951 18.9268C96.8395 19.7011 96.7132 20.3809 96.4162 20.9667C96.1186 21.5519 95.6709 22.0106 95.0715 22.3425C94.4724 22.674 93.7526 22.8641 92.9118 22.912C91.6412 22.9852 90.6218 22.7127 89.8534 22.0949C89.0844 21.4771 88.6605 20.5949 88.5803 19.4485L88.186 12.5651L90.7151 12.4194L91.1122 19.3536C91.2063 20.4946 91.7692 21.0354 92.8008 20.9763C93.3216 20.9462 93.7074 20.7801 93.9583 20.4783C94.2096 20.1758 94.3164 19.7021 94.2796 19.0568L93.8891 12.2373L96.4037 12.0933Z" fill="white"/>
<path id="Vector_26" fill-rule="evenodd" clip-rule="evenodd" d="M100.817 17.0629L102.407 17.1578C102.885 17.1866 103.251 17.0824 103.508 16.8451C103.764 16.6081 103.905 16.2644 103.932 15.814C103.959 15.3636 103.858 15.0029 103.63 14.7321C103.402 14.4609 103.051 14.3114 102.579 14.283L100.989 14.1877L100.817 17.0629ZM102.062 19.0798L100.701 18.9987L100.48 22.691L97.9661 22.5402L98.5901 12.1016L102.695 12.3469C103.931 12.4213 104.882 12.7538 105.546 13.3445C106.211 13.9354 106.513 14.7321 106.453 15.7347C106.41 16.4605 106.227 17.0534 105.905 17.5133C105.583 17.9733 105.1 18.3327 104.457 18.5908L106.382 22.9363L106.376 23.0439L103.682 22.8826L102.062 19.0798Z" fill="white"/>
<path id="Vector_27" fill-rule="evenodd" clip-rule="evenodd" d="M109.736 23.6351L107.251 23.27L108.768 12.9233L111.253 13.2878L109.736 23.6351Z" fill="white"/>
<path id="Vector_28" fill-rule="evenodd" clip-rule="evenodd" d="M120.768 17.3006L117.713 16.5921L115.794 24.8838L113.341 24.3149L115.259 16.0231L112.26 15.3278L112.699 13.4316L121.207 15.4041L120.768 17.3006Z" fill="white"/>
<path id="Vector_29" fill-rule="evenodd" clip-rule="evenodd" d="M124.984 21.5002L128.322 17.874L130.883 18.7911L125.459 23.9665L124.195 27.5032L121.79 26.6424L123.054 23.1053L122.146 15.6636L124.693 16.5752L124.984 21.5002Z" fill="white"/>
<path id="Vector_30" fill-rule="evenodd" clip-rule="evenodd" d="M138.674 22.6396L137.047 30.1051L142.703 24.9762L145.572 26.6398L140.334 35.6887L138.148 34.4212L139.371 32.308L142.087 28.105L136.174 33.2759L134.733 32.4406L136.272 24.7245L133.976 29.179L132.753 31.2916L130.573 30.0278L135.811 20.9795L138.674 22.6396Z" fill="white"/>
<path id="Vector_31" fill-rule="evenodd" clip-rule="evenodd" d="M145.942 35.1816L147.706 36.5724L149.063 33.0254L145.942 35.1816ZM146.977 38.4752L144.265 36.3376L142.583 37.4993L140.469 35.8327L149.944 29.9897L151.805 31.4564L148.373 42.0629L146.248 40.3876L146.977 38.4752Z" fill="white"/>
<path id="Vector_32" fill-rule="evenodd" clip-rule="evenodd" d="M154.576 48.3943L152.816 46.6112L154.838 39.4009L150.213 43.9747L148.443 42.1817L155.875 34.8311L157.645 36.6247L155.618 43.8293L160.243 39.2558L162.008 41.0434L154.576 48.3943Z" fill="white"/>
<path id="Vector_33" fill-rule="evenodd" clip-rule="evenodd" d="M160.242 49.2868L161.608 51.0716L163.8 47.9703L160.242 49.2868ZM160.431 52.7342L158.332 49.9916L156.416 50.701L154.779 48.5626L165.404 45.2476L166.844 47.1294L160.898 56.5562L159.253 54.4068L160.431 52.7342Z" fill="white"/>
<path id="Vector_34" fill-rule="evenodd" clip-rule="evenodd" d="M166.31 63.2959C165.742 63.1808 165.155 62.8682 164.55 62.3583C163.944 61.8488 163.415 61.2104 162.963 60.443C162.268 59.2635 162.074 58.108 162.38 56.9772C162.685 55.8466 163.466 54.877 164.723 54.0683L165.498 53.6027C166.384 53.0803 167.251 52.7799 168.097 52.7032C168.943 52.6266 169.716 52.7745 170.416 53.1479C171.116 53.521 171.693 54.0915 172.145 54.8589C172.806 55.9807 173.062 57.0035 172.915 57.927C172.767 58.8503 172.215 59.664 171.258 60.3681L170.026 58.2766C170.485 57.9058 170.749 57.5333 170.817 57.1593C170.886 56.7854 170.787 56.3716 170.519 55.9176C170.199 55.3734 169.72 55.0891 169.083 55.0639C168.447 55.0396 167.699 55.2778 166.839 55.7798L166.295 56.1012C165.397 56.631 164.812 57.1825 164.542 57.7565C164.272 58.3301 164.331 58.9464 164.72 59.6063C165.053 60.1718 165.426 60.5186 165.84 60.6464L167.238 59.8219L166.348 58.3123L167.838 57.4331L170.007 61.1145L166.31 63.2959Z" fill="white"/>
<path id="Vector_35" fill-rule="evenodd" clip-rule="evenodd" d="M172.245 68.871L170.628 65.2516L168.348 66.2716L170.257 70.5467L168.488 71.3384L165.551 64.7614L175.09 60.4937L178.033 67.0839L176.258 67.8782L174.343 63.5895L172.331 64.4896L173.948 68.109L172.245 68.871Z" fill="white"/>
<path id="Vector_36" fill-rule="evenodd" clip-rule="evenodd" d="M179.679 71.8186L173.379 76.1347L181.01 76.2858L181.957 79.4656L171.944 82.4535L171.222 80.0308L173.561 79.333L178.417 78.1388L170.57 77.8418L170.095 76.245L176.503 71.6876L171.779 73.3514L169.441 74.0492L168.721 71.6333L178.734 68.6455L179.679 71.8186Z" fill="white"/>
<path id="Vector_37" fill-rule="evenodd" clip-rule="evenodd" d="M177.41 89.0926L176.782 85.1782L174.316 85.5744L175.059 90.1983L173.146 90.5058L172.004 83.3928L182.32 81.7344L183.464 88.8612L181.544 89.1701L180.799 84.5321L178.624 84.882L179.252 88.7962L177.41 89.0926Z" fill="white"/>
<path id="Vector_38" fill-rule="evenodd" clip-rule="evenodd" d="M173.617 99.6691L173.503 97.165L179.827 93.1648L173.333 93.4627L173.218 90.9444L183.655 90.4658L183.77 92.9838L177.445 96.9772L183.94 96.6791L184.055 99.19L173.617 99.6691Z" fill="white"/>
<path id="Vector_39" fill-rule="evenodd" clip-rule="evenodd" d="M181.485 109.248L181.706 106.117L173.223 105.521L173.4 103.006L181.882 103.603L182.098 100.529L184.038 100.666L183.426 109.385L181.485 109.248Z" fill="white"/>
<path id="Vector_40" fill-rule="evenodd" clip-rule="evenodd" d="M71.528 178.042C71.2347 178.709 70.8201 179.238 70.2845 179.629C69.749 180.019 69.1236 180.241 68.4086 180.293C67.6933 180.345 66.9478 180.221 66.1714 179.92C64.8907 179.425 64.0431 178.618 63.6294 177.497C63.2156 176.377 63.3027 175.056 63.8911 173.533L64.077 173.051C64.4464 172.095 64.9353 171.322 65.5446 170.734C66.1536 170.146 66.8463 169.777 67.6218 169.628C68.3973 169.479 69.1959 169.563 70.0172 169.881C71.1996 170.338 72.0296 171.018 72.5078 171.918C72.9854 172.819 73.0623 173.836 72.7381 174.968L70.3953 174.062C70.6064 173.461 70.622 172.977 70.4408 172.609C70.2597 172.241 69.8815 171.946 69.3056 171.723C68.7211 171.497 68.2082 171.55 67.767 171.883C67.3256 172.215 66.913 172.859 66.5287 173.814L66.2622 174.504C65.8606 175.545 65.7037 176.339 65.7925 176.886C65.8812 177.434 66.2444 177.832 66.8828 178.078C67.4228 178.287 67.8846 178.319 68.2684 178.175C68.6525 178.031 68.9599 177.686 69.1917 177.139L71.528 178.042Z" fill="white"/>
<path id="Vector_41" fill-rule="evenodd" clip-rule="evenodd" d="M79.3583 179.199L75.5286 178.187L74.8908 180.603L79.4145 181.799L78.9197 183.674L71.9607 181.835L74.6282 171.724L81.6013 173.566L81.1048 175.449L76.5669 174.249L76.0045 176.381L79.8347 177.394L79.3583 179.199Z" fill="white"/>
<path id="Vector_42" fill-rule="evenodd" clip-rule="evenodd" d="M83.8144 178.802L85.3899 179.037C85.863 179.108 86.238 179.037 86.5141 178.823C86.79 178.609 86.9615 178.28 87.0279 177.833C87.0946 177.387 87.0259 177.019 86.8227 176.729C86.6193 176.439 86.2832 176.258 85.815 176.188L84.2394 175.953L83.8144 178.802ZM84.8767 180.921L83.5284 180.72L82.9827 184.378L80.4915 184.006L82.0342 173.663L86.101 174.271C87.3263 174.454 88.2437 174.869 88.8536 175.516C89.4632 176.164 89.694 176.984 89.546 177.977C89.4386 178.697 89.2046 179.271 88.8428 179.701C88.4814 180.129 87.9687 180.445 87.3051 180.645L88.84 185.144L88.8239 185.251L86.1552 184.852L84.8767 180.921Z" fill="white"/>
<path id="Vector_43" fill-rule="evenodd" clip-rule="evenodd" d="M98.7228 177.147L95.589 177.03L95.2711 185.535L92.7542 185.441L93.0718 176.936L89.9956 176.82L90.0685 174.875L98.7955 175.202L98.7228 177.147Z" fill="white"/>
<path id="Vector_44" fill-rule="evenodd" clip-rule="evenodd" d="M102.589 185.404L100.08 185.518L99.6057 175.071L102.115 174.957L102.589 185.404Z" fill="white"/>
<path id="Vector_45" fill-rule="evenodd" clip-rule="evenodd" d="M110.763 180.367L106.731 180.86L107.236 184.995L104.736 185.3L103.469 174.919L110.407 174.072L110.643 176.004L106.205 176.546L106.496 178.935L110.528 178.442L110.763 180.367Z" fill="white"/>
<path id="Vector_46" fill-rule="evenodd" clip-rule="evenodd" d="M115.723 183.603L113.261 184.099L111.202 173.846L113.665 173.351L115.723 183.603Z" fill="white"/>
<path id="Vector_47" fill-rule="evenodd" clip-rule="evenodd" d="M122.866 177.131L119.055 178.214L119.737 180.618L124.238 179.339L124.767 181.205L117.843 183.172L114.99 173.112L121.928 171.141L122.459 173.013L117.944 174.296L118.545 176.418L122.356 175.334L122.866 177.131Z" fill="white"/>
<path id="Vector_48" fill-rule="evenodd" clip-rule="evenodd" d="M125.416 171.852L127.891 177.94L128.701 177.609C129.371 177.337 129.788 176.889 129.953 176.266C130.118 175.643 130.01 174.862 129.627 173.922L129.457 173.502C129.077 172.566 128.611 171.934 128.059 171.606C127.507 171.277 126.888 171.253 126.201 171.533L125.416 171.852ZM126.287 180.685L122.351 170.999L125.468 169.729C126.323 169.382 127.171 169.263 128.011 169.373C128.851 169.483 129.607 169.814 130.278 170.365C130.949 170.917 131.465 171.631 131.826 172.507L132.007 172.952C132.368 173.84 132.504 174.711 132.415 175.566C132.326 176.422 132.023 177.186 131.503 177.861C130.985 178.535 130.307 179.044 129.471 179.39L126.287 180.685Z" fill="white"/>
</g>
</svg>
