<svg width="58" height="58" viewBox="0 0 58 58" fill="none" xmlns="http://www.w3.org/2000/svg">
<g id="verified-badge-line 1">
<path id="Vector" d="M24.1841 5.08391C20.7968 3.98742 17.1147 5.5126 15.4949 8.68303L13.5476 12.4945C13.3162 12.9474 12.9479 13.3157 12.495 13.5471L8.68351 15.4944C5.51308 17.1142 3.98793 20.7963 5.08439 24.1834L6.40259 28.2555C6.55921 28.7393 6.55921 29.2604 6.40259 29.7442L5.08439 33.8163C3.98793 37.2035 5.51311 40.8855 8.68351 42.5051L12.495 44.4525C12.9479 44.684 13.3162 45.0523 13.5476 45.5052L15.4949 49.3165C17.1147 52.4869 20.7968 54.0121 24.1841 52.9157L28.2561 51.5976C28.74 51.441 29.2607 51.441 29.7446 51.5976L33.8166 52.9157C37.2038 54.0121 40.8859 52.4869 42.5058 49.3165L44.4531 45.5052C44.6844 45.0523 45.0527 44.684 45.5056 44.4525L49.3171 42.5051C52.4876 40.8855 54.0127 37.2035 52.9163 33.8163L51.598 29.7442C51.4414 29.2604 51.4414 28.7393 51.598 28.2555L52.9163 24.1834C54.0127 20.7963 52.4876 17.1142 49.3171 15.4944L45.5056 13.5471C45.0527 13.3157 44.6844 12.9474 44.4531 12.4945L42.5058 8.68303C40.8859 5.5126 37.2038 3.98742 33.8166 5.08391L29.7446 6.40208C29.2607 6.55871 28.74 6.55871 28.2561 6.40208L24.1841 5.08391ZM19.799 10.882C20.3389 9.82519 21.5663 9.31682 22.6954 9.6823L26.7675 11.0005C28.2189 11.4704 29.7818 11.4704 31.2332 11.0005L35.3053 9.6823C36.4344 9.31682 37.6616 9.82519 38.2017 10.882L40.1488 14.6935C40.8431 16.0521 41.948 17.1571 43.3067 17.8512L47.1182 19.7985C48.175 20.3385 48.6833 21.5658 48.3179 22.6949L46.9996 26.7671C46.5298 28.2185 46.5298 29.7812 46.9996 31.2326L48.3179 35.3047C48.6833 36.4338 48.175 37.6612 47.1182 38.2011L43.3067 40.1484C41.948 40.8425 40.8431 41.9476 40.1488 43.306L38.2017 47.1176C37.6616 48.1744 36.4344 48.6829 35.3053 48.3172L31.2332 46.9992C29.7818 46.5294 28.2189 46.5294 26.7675 46.9992L22.6954 48.3172C21.5663 48.6829 20.3389 48.1744 19.799 47.1176L17.8517 43.306C17.1576 41.9476 16.0526 40.8425 14.694 40.1484L10.8825 38.2011C9.8257 37.6612 9.3173 36.4338 9.6828 35.3047L11.001 31.2326C11.4708 29.7812 11.4708 28.2185 11.001 26.7671L9.6828 22.6949C9.3173 21.5658 9.8257 20.3385 10.8825 19.7985L14.694 17.8512C16.0526 17.1571 17.1576 16.0521 17.8517 14.6935L19.799 10.882Z" fill="black" stroke="white"/>
<path id="Vector_2" d="M18.1206 30.198L26.5889 38.6663L40.1082 25.1472L36.6905 21.7295L26.5889 31.831L21.5383 26.7801L18.1206 30.198Z" fill="#01AA44"/>
</g>
</svg>
