<svg width="813" height="610" viewBox="0 0 813 610" fill="none" xmlns="http://www.w3.org/2000/svg">
<g id="Group 1321316509">
<g id="Group 1321316504">
<g id="&#232;&#131;&#140;&#230;&#153;&#175;">
<g id="&#228;&#189;&#142;-&#232;&#131;&#140;&#230;&#153;&#175;">
<rect id="&#229;&#164;&#135;&#233;&#128;&#137;" x="54.3955" width="678.711" height="304.966" fill="url(#paint0_linear_2372_2063)" fill-opacity="0.6"/>
<g id="Mask group">
<mask id="mask0_2372_2063" style="mask-type:alpha" maskUnits="userSpaceOnUse" x="54" y="9" width="651" height="296">
<rect id="&#229;&#164;&#135;&#233;&#128;&#137;_2" x="54.3955" y="9.08447" width="650.161" height="295.882" fill="white"/>
</mask>
<g mask="url(#mask0_2372_2063)">
<g id="Ellipse 13" filter="url(#filter0_f_2372_2063)">
<circle cx="298.368" cy="265.385" r="145.994" fill="#C3FF79" fill-opacity="0.22"/>
</g>
<g id="Ellipse 14" filter="url(#filter1_f_2372_2063)">
<circle cx="525.795" cy="196.93" r="131.395" fill="#79FFD5" fill-opacity="0.27"/>
</g>
</g>
</g>
</g>
<g id="&#228;&#189;&#142;-&#232;&#131;&#140;&#230;&#153;&#175;_2">
<rect id="&#229;&#164;&#135;&#233;&#128;&#137;_3" width="682.604" height="304.966" transform="matrix(1 0 0 -1 54.3955 609.932)" fill="url(#paint1_linear_2372_2063)" fill-opacity="0.6"/>
<g id="Mask group_2">
<mask id="mask1_2372_2063" style="mask-type:alpha" maskUnits="userSpaceOnUse" x="54" y="305" width="628" height="296">
<rect id="&#229;&#164;&#135;&#233;&#128;&#137;_4" width="628" height="296" transform="matrix(1 0 0 -1 54 601)" fill="white"/>
</mask>
<g mask="url(#mask1_2372_2063)">
<g id="Ellipse 13_2" filter="url(#filter2_f_2372_2063)">
<circle cx="145.994" cy="145.994" r="145.994" transform="matrix(1 0 0 -1 152.376 490.541)" fill="#C3FF79" fill-opacity="0.22"/>
</g>
<g id="Ellipse 14_2" filter="url(#filter3_f_2372_2063)">
<circle cx="131.395" cy="131.395" r="131.395" transform="matrix(1 0 0 -1 394.401 544.396)" fill="#79FFD5" fill-opacity="0.27"/>
</g>
</g>
</g>
</g>
</g>
<g id="&#232;&#163;&#133;&#233;&#165;&#176;">
<g id="Frame 33">
<rect id="Rectangle 34625667" x="54.5" y="159.5" width="107" height="107" rx="22.5" stroke="#79FFD5" stroke-opacity="0.07" stroke-width="3"/>
<rect id="Rectangle 34625670" x="184.5" y="159.5" width="107" height="107" rx="22.5" stroke="#79FFD5" stroke-opacity="0.1" stroke-width="3"/>
<rect id="Rectangle 34625671" x="314.5" y="159.5" width="107" height="107" rx="22.5" stroke="#79FFD5" stroke-opacity="0.1" stroke-width="3"/>
<rect id="Rectangle 34625666" x="444.5" y="159.5" width="107" height="107" rx="22.5" stroke="#79FFD5" stroke-opacity="0.1" stroke-width="3"/>
<rect id="Rectangle 34625668" x="574.5" y="159.5" width="107" height="107" rx="22.5" stroke="#79FFD5" stroke-opacity="0.1" stroke-width="3"/>
<rect id="Rectangle 34625669" x="704.5" y="159.5" width="107" height="107" rx="22.5" stroke="#79FFD5" stroke-opacity="0.03" stroke-width="3"/>
</g>
<g id="Frame 34" opacity="0.5">
<rect id="Rectangle 34625667_2" x="35.5" y="289.5" width="107" height="107" rx="22.5" stroke="#79FFD5" stroke-opacity="0.3" stroke-width="3"/>
<rect id="Rectangle 34625670_2" x="165.5" y="289.5" width="107" height="107" rx="22.5" stroke="#79FFD5" stroke-width="3"/>
<rect id="Rectangle 34625671_2" x="295.5" y="289.5" width="107" height="107" rx="22.5" stroke="#79FFD5" stroke-width="3"/>
<rect id="Rectangle 34625666_2" x="425.5" y="289.5" width="107" height="107" rx="22.5" stroke="#79FFD5" stroke-width="3"/>
<rect id="Rectangle 34625668_2" x="555.5" y="289.5" width="107" height="107" rx="22.5" stroke="#79FFD5" stroke-width="3"/>
<rect id="Rectangle 34625669_2" x="685.5" y="289.5" width="107" height="107" rx="22.5" stroke="#79FFD5" stroke-opacity="0.3" stroke-width="3"/>
</g>
<g id="Frame 35">
<rect id="Rectangle 34625667_3" x="25.5" y="419.5" width="107" height="107" rx="22.5" stroke="#79FFD5" stroke-opacity="0.17" stroke-width="3"/>
<rect id="Rectangle 34625666_3" x="155.5" y="419.5" width="107" height="107" rx="22.5" stroke="#79FFD5" stroke-opacity="0.17" stroke-width="3"/>
<rect id="Rectangle 34625668_3" x="285.5" y="419.5" width="107" height="107" rx="22.5" stroke="#79FFD5" stroke-opacity="0.17" stroke-width="3"/>
<rect id="Rectangle 34625669_3" x="415.5" y="419.5" width="107" height="107" rx="22.5" stroke="#79FFD5" stroke-opacity="0.17" stroke-width="3"/>
</g>
</g>
</g>
<g id="&#231;&#148;&#181;&#232;&#132;&#145;1">
<g id="&#231;&#148;&#181;&#232;&#132;&#145;&#230;&#168;&#161;&#229;&#158;&#139;" filter="url(#filter4_d_2372_2063)">
<path id="Rectangle 34625683" d="M134.412 165.06C134.412 157.328 140.68 151.06 148.412 151.06H600.858C606.381 151.06 610.858 155.537 610.858 161.06V435.483H134.412V165.06Z" fill="#F7F7F7"/>
<path id="Rectangle 34625685" d="M145.644 172.609C145.644 167.087 150.121 162.609 155.644 162.609H588.989C594.512 162.609 598.989 167.087 598.989 172.609V436.927H145.644V172.609Z" fill="white"/>
<g id="Group 1321316470">
<rect id="Rectangle 34625648" x="174.846" y="205.417" width="397.085" height="213.641" rx="7.5" stroke="#F7F6F6"/>
<g id="Group 1321316469">
<circle id="Ellipse 15" cx="167.417" cy="182.709" r="4.73347" fill="#FF3E3E"/>
<circle id="Ellipse 16" cx="190.137" cy="182.709" r="4.73347" fill="#FFC83E"/>
<circle id="Ellipse 17" cx="212.858" cy="182.709" r="4.73347" fill="#3DCD85"/>
</g>
</g>
<path id="Rectangle 34625684" d="M663.841 442.583C663.841 451.42 656.677 458.583 647.841 458.583L104.823 458.583C99.1767 458.583 93.9483 455.607 91.0656 450.752L84.6903 440.014C83.5029 438.014 84.9441 435.483 87.2698 435.483L660.841 435.483C662.498 435.483 663.841 436.826 663.841 438.483L663.841 442.583Z" fill="white"/>
</g>
<g id="Group 1321316538">
<g id="Rectangle 4" filter="url(#filter5_d_2372_2063)">
<rect x="427.811" y="81.1479" width="323.437" height="54.9082" rx="10" transform="rotate(19.4092 427.811 81.1479)" fill="white" fill-opacity="0.9" shape-rendering="crispEdges"/>
<rect x="428.116" y="81.7857" width="322.437" height="53.9082" rx="9.5" transform="rotate(19.4092 428.116 81.7857)" stroke="#EBEFF8" shape-rendering="crispEdges"/>
</g>
<rect id="Rectangle 34625649" x="435.044" y="92.1651" width="142.51" height="37.6853" rx="7.5" transform="rotate(19.4092 435.044 92.1651)" fill="#EBEFF8" stroke="#F7F6F6"/>
<path id="&#229;&#142;&#159;&#231;&#148;&#159;IP" d="M659.398 190.866L656.965 190.008L656.148 192.328C656.039 192.638 655.915 192.857 655.776 192.986C655.637 193.116 655.461 193.181 655.249 193.182C655.033 193.191 654.731 193.148 654.34 193.053L653.592 192.866L653.625 191.796L654.279 191.963C654.506 192.017 654.671 192.041 654.775 192.036C654.886 192.032 654.97 191.998 655.027 191.934C655.086 191.861 655.147 191.738 655.208 191.565L655.89 189.629L653.343 188.732L654.803 184.59L656.851 185.312C657.128 184.985 657.349 184.706 657.515 184.476L654.198 183.308L653.213 186.104C652.857 187.115 652.508 187.95 652.165 188.61C651.833 189.264 651.469 189.828 651.074 190.299C650.678 190.77 650.195 191.24 649.623 191.709L648.934 190.703C649.498 190.232 649.951 189.802 650.292 189.413C650.642 189.019 650.963 188.542 651.253 187.983C651.544 187.424 651.85 186.688 652.171 185.775L653.503 181.994L662.286 185.089L661.951 186.04L658.624 184.867L657.994 185.714L660.858 186.723L659.398 190.866ZM659.322 188.014L659.601 187.222L655.481 185.77L655.202 186.563L659.322 188.014ZM659.023 188.863L654.903 187.411L654.616 188.226L658.735 189.678L659.023 188.863ZM654.669 190.242C654.307 190.522 653.842 190.82 653.272 191.137C652.713 191.449 652.15 191.734 651.584 191.993L651.176 190.984C651.68 190.78 652.19 190.536 652.706 190.251C653.233 189.961 653.69 189.673 654.08 189.386L654.669 190.242ZM658.025 190.827C658.257 191.18 658.512 191.635 658.791 192.191C659.078 192.75 659.313 193.262 659.498 193.725L658.585 194.256C658.429 193.785 658.214 193.264 657.94 192.693C657.667 192.122 657.408 191.628 657.165 191.211L658.025 190.827ZM666.363 195.775L670.562 197.255L670.211 198.251L660.546 194.845L660.897 193.849L665.288 195.396L666.169 192.895L662.819 191.715L663.166 190.73L666.516 191.91L667.254 189.817L664.764 188.939C664.21 189.524 663.564 190.094 662.826 190.648L662.121 189.725C662.843 189.216 663.487 188.676 664.053 188.104C664.62 187.531 665.143 186.876 665.624 186.138L666.551 186.757C666.204 187.237 665.866 187.678 665.538 188.079L667.609 188.809L668.367 186.659L669.43 187.072L668.684 189.188L672.362 190.484L672.008 191.491L668.329 190.195L667.591 192.289L670.896 193.454L670.549 194.438L667.245 193.274L666.363 195.775ZM672.057 198.189L674.825 190.334L676.092 190.78L673.325 198.635L672.057 198.189ZM680.417 192.304C681.172 192.57 681.732 192.869 682.099 193.202C682.468 193.527 682.677 193.906 682.728 194.34C682.779 194.773 682.696 195.3 682.478 195.918C682.252 196.56 681.969 197.037 681.63 197.35C681.298 197.666 680.883 197.833 680.384 197.852C679.893 197.874 679.292 197.76 678.583 197.511L677.497 197.128L676.563 199.776L675.296 199.33L678.063 191.475L680.417 192.304ZM678.818 196.41C679.286 196.575 679.66 196.656 679.941 196.653C680.232 196.645 680.473 196.552 680.663 196.373C680.856 196.187 681.026 195.886 681.172 195.471C681.308 195.086 681.357 194.764 681.321 194.506C681.285 194.247 681.152 194.022 680.923 193.831C680.701 193.643 680.363 193.469 679.911 193.309L678.96 192.974L677.867 196.075L678.818 196.41Z" fill="#01AA44"/>
<path id="&#229;&#142;&#159;&#231;&#148;&#159;IP_2" d="M448.716 116.635L446.282 115.777L445.465 118.097C445.356 118.407 445.232 118.626 445.093 118.755C444.954 118.885 444.779 118.95 444.566 118.951C444.351 118.96 444.048 118.917 443.657 118.822L442.909 118.635L442.943 117.565L443.596 117.732C443.823 117.786 443.988 117.811 444.092 117.805C444.204 117.802 444.288 117.768 444.344 117.703C444.404 117.63 444.464 117.507 444.525 117.334L445.207 115.398L442.661 114.501L444.12 110.359L446.169 111.081C446.445 110.754 446.666 110.475 446.832 110.246L443.516 109.077L442.531 111.873C442.175 112.884 441.825 113.719 441.482 114.379C441.15 115.033 440.786 115.597 440.391 116.068C439.996 116.54 439.512 117.009 438.94 117.478L438.251 116.472C438.816 116.001 439.268 115.571 439.609 115.182C439.96 114.788 440.28 114.311 440.571 113.752C440.861 113.193 441.167 112.457 441.489 111.544L442.821 107.764L451.604 110.858L451.269 111.809L447.941 110.636L447.312 111.483L450.175 112.492L448.716 116.635ZM448.639 113.783L448.918 112.991L444.798 111.539L444.519 112.332L448.639 113.783ZM448.34 114.632L444.22 113.18L443.933 113.995L448.053 115.447L448.34 114.632ZM443.986 116.012C443.625 116.291 443.159 116.59 442.589 116.906C442.03 117.218 441.467 117.503 440.901 117.762L440.493 116.753C440.998 116.549 441.508 116.305 442.024 116.02C442.55 115.73 443.008 115.442 443.397 115.155L443.986 116.012ZM447.343 116.596C447.574 116.949 447.83 117.404 448.109 117.96C448.395 118.519 448.631 119.031 448.815 119.494L447.903 120.025C447.746 119.554 447.531 119.033 447.258 118.462C446.984 117.891 446.725 117.397 446.482 116.98L447.343 116.596ZM455.681 121.544L459.88 123.024L459.529 124.02L449.863 120.614L450.214 119.618L454.605 121.165L455.487 118.664L452.137 117.484L452.483 116.499L455.834 117.679L456.571 115.586L454.081 114.708C453.527 115.293 452.881 115.863 452.143 116.417L451.438 115.494C452.16 114.986 452.804 114.445 453.371 113.873C453.937 113.3 454.461 112.645 454.941 111.907L455.868 112.526C455.521 113.006 455.183 113.447 454.855 113.848L456.926 114.578L457.684 112.428L458.747 112.841L458.001 114.957L461.68 116.253L461.325 117.26L457.647 115.964L456.909 118.058L460.214 119.223L459.867 120.207L456.562 119.043L455.681 121.544ZM461.375 123.958L464.142 116.103L465.41 116.549L462.642 124.404L461.375 123.958ZM469.735 118.073C470.489 118.339 471.05 118.638 471.416 118.971C471.785 119.296 471.995 119.675 472.046 120.109C472.097 120.542 472.013 121.069 471.795 121.687C471.569 122.329 471.286 122.806 470.947 123.119C470.615 123.435 470.2 123.602 469.701 123.621C469.21 123.643 468.61 123.53 467.9 123.28L466.814 122.897L465.881 125.545L464.613 125.099L467.381 117.244L469.735 118.073ZM468.136 122.179C468.603 122.344 468.978 122.425 469.259 122.422C469.55 122.414 469.79 122.321 469.981 122.142C470.174 121.956 470.343 121.655 470.489 121.24C470.625 120.855 470.675 120.533 470.639 120.275C470.603 120.016 470.47 119.791 470.24 119.6C470.018 119.412 469.681 119.238 469.228 119.078L468.277 118.743L467.185 121.844L468.136 122.179Z" fill="#191919"/>
</g>
<g id="Group 1321316539">
<g id="Group 1321316537">
<rect id="Rectangle 4_2" x="174.846" y="310.242" width="397.085" height="53.9082" rx="7.5" fill="white" stroke="#F7F6F6"/>
<rect id="Rectangle 34625649_2" x="184.829" y="318.977" width="142.51" height="37.6853" rx="7.5" fill="#EBEFF8" stroke="#F7F6F6"/>
<path id="101.4433" d="M418.613 332.652V334.116H417.569V331.728H421.793C421.681 331.328 421.565 330.964 421.445 330.636L422.549 330.456C422.605 330.608 422.657 330.76 422.705 330.912C422.753 331.064 422.797 331.204 422.837 331.332L422.957 331.728H427.073V334.128H426.017V332.652H418.613ZM427.745 339.852L427.073 340.704C426.273 340.208 425.613 339.692 425.093 339.156C424.573 338.612 424.141 337.964 423.797 337.212L423.353 337.416C423.465 337.944 423.521 338.56 423.521 339.264C423.521 339.776 423.469 340.164 423.365 340.428C423.269 340.7 423.089 340.896 422.825 341.016C422.561 341.144 422.165 341.232 421.637 341.28L420.785 341.352L420.473 340.356L421.253 340.296C421.605 340.264 421.861 340.216 422.021 340.152C422.189 340.088 422.301 339.98 422.357 339.828C422.413 339.676 422.441 339.44 422.441 339.12C422.441 338.944 422.433 338.704 422.417 338.4C421.817 338.888 421.061 339.368 420.149 339.84C419.237 340.304 418.297 340.716 417.329 341.076L416.909 340.188C418.005 339.82 419.013 339.404 419.933 338.94C420.853 338.468 421.633 337.976 422.273 337.464C422.193 337.208 422.129 337.016 422.081 336.888C421.041 337.624 419.541 338.348 417.581 339.06L417.209 338.16C418.025 337.904 418.821 337.6 419.597 337.248C420.381 336.896 421.073 336.524 421.673 336.132C421.577 335.972 421.469 335.816 421.349 335.664C420.165 336.304 418.917 336.816 417.605 337.2L417.245 336.288C418.045 336.064 418.809 335.804 419.537 335.508C420.265 335.212 420.913 334.904 421.481 334.584H418.889V333.672H425.717V334.584H423.089C422.865 334.752 422.569 334.948 422.201 335.172C422.553 335.596 422.837 336.04 423.053 336.504C424.173 336 425.197 335.432 426.125 334.8L426.641 335.676C426.089 336.036 425.429 336.408 424.661 336.792C425.005 337.504 425.409 338.084 425.873 338.532C426.337 338.98 426.961 339.42 427.745 339.852ZM430.858 332.652V335.664C430.858 336.616 430.81 337.408 430.714 338.04C430.618 338.664 430.47 339.228 430.27 339.732C430.07 340.236 429.774 340.82 429.382 341.484L428.494 341.004C428.846 340.436 429.118 339.912 429.31 339.432C429.502 338.944 429.638 338.416 429.718 337.848C429.806 337.28 429.85 336.592 429.85 335.784V331.752H434.074L433.978 331.464L433.726 330.696L434.854 330.504C434.99 330.856 435.134 331.272 435.286 331.752H439.09V332.652H430.858ZM438.742 336.72H437.098V338.124H438.694V339.048H434.626V338.124H436.162V336.72H434.506V335.784H436.162V334.584C435.482 334.664 434.922 334.716 434.482 334.74L434.422 333.84C435.086 333.8 435.786 333.732 436.522 333.636C437.258 333.532 437.934 333.408 438.55 333.264L438.718 334.176C438.286 334.272 437.746 334.368 437.098 334.464V335.784H438.742V336.72ZM437.59 340.008C438.206 340.008 438.826 339.996 439.45 339.972L439.27 340.992C438.886 341.008 438.306 341.016 437.53 341.016C436.754 341.016 436.17 341.008 435.778 340.992C435.082 340.968 434.486 340.888 433.99 340.752C433.494 340.616 433.058 340.4 432.682 340.104C432.258 340.576 431.742 341.04 431.134 341.496L430.522 340.716C431.194 340.212 431.694 339.784 432.022 339.432C431.654 338.96 431.326 338.332 431.038 337.548L431.83 337.2C432.038 337.808 432.29 338.308 432.586 338.7C432.89 338.212 433.118 337.616 433.27 336.912H431.374V336.048L432.994 334.464H431.266V333.564H434.158V334.476L432.514 336.012H434.134V336.9C434.022 337.42 433.898 337.872 433.762 338.256C433.626 338.64 433.454 339.004 433.246 339.348C433.542 339.556 433.886 339.708 434.278 339.804C434.678 339.9 435.158 339.956 435.718 339.972C436.342 339.996 436.966 340.008 437.59 340.008ZM442.322 332.628V333.516H441.23V331.632H445.49C445.362 331.216 445.266 330.928 445.202 330.768L446.306 330.588C446.442 330.948 446.562 331.296 446.666 331.632H450.662V333.516H449.57V332.628H442.322ZM444.89 335.508H443.846V334.812H441.182V333.84H443.846V333.048L444.89 333.084V333.84H447.014V333.048L448.034 333.084V333.84H450.758V334.812H448.034V335.508H447.014V334.812H444.89V335.508ZM449.63 335.772V339.24H448.49V336.732H443.33L443.318 339.216H442.178V335.772H449.63ZM451.106 339.072C451.074 339.416 451.026 339.744 450.962 340.056C450.906 340.336 450.826 340.548 450.722 340.692C450.626 340.844 450.47 340.952 450.254 341.016C450.046 341.088 449.746 341.136 449.354 341.16C449.138 341.176 448.798 341.184 448.334 341.184C447.862 341.184 447.518 341.176 447.302 341.16C446.918 341.144 446.622 341.1 446.414 341.028C446.214 340.956 446.066 340.824 445.97 340.632C445.874 340.448 445.826 340.176 445.826 339.816V339.36C445.498 339.824 444.978 340.228 444.266 340.572C443.562 340.924 442.59 341.26 441.35 341.58L440.834 340.512C441.946 340.272 442.814 340.024 443.438 339.768C444.07 339.512 444.522 339.228 444.794 338.916C445.074 338.604 445.238 338.224 445.286 337.776L445.322 337.056L446.45 337.092C446.434 337.284 446.418 337.436 446.402 337.548C446.402 337.596 446.394 337.676 446.378 337.788C446.362 337.932 446.346 338.044 446.33 338.124L446.954 338.148V339.552C446.954 339.728 446.974 339.856 447.014 339.936C447.054 340.016 447.122 340.072 447.218 340.104C447.322 340.128 447.486 340.148 447.71 340.164C447.838 340.172 448.05 340.176 448.346 340.176C448.65 340.176 448.866 340.172 448.994 340.164C449.242 340.156 449.426 340.132 449.546 340.092C449.666 340.052 449.75 339.996 449.798 339.924C449.846 339.852 449.886 339.744 449.918 339.6C449.982 339.232 450.014 338.92 450.014 338.664L451.106 339.072ZM460.903 330.672V331.968H462.931V332.928H460.903V334.032H459.883V332.928H458.251V334.032H457.231V332.928H455.611V334.032H454.603V332.928H452.563V331.968H454.603V330.624L455.611 330.672V331.968H457.231V330.624L458.251 330.672V331.968H459.883V330.624L460.903 330.672ZM454.003 336.564H452.995V334.416H462.523V336.564H461.491V335.376H454.003V336.564ZM458.251 335.76V336.66H461.491V339.156C461.491 339.524 461.455 339.8 461.383 339.984C461.311 340.16 461.179 340.288 460.987 340.368C460.803 340.456 460.515 340.524 460.123 340.572L459.475 340.632L459.127 339.648L459.787 339.6C460.075 339.568 460.259 339.516 460.339 339.444C460.427 339.364 460.471 339.228 460.471 339.036V337.62H458.251V341.364H457.231V337.62H455.047V340.584H454.027V336.66H457.231V335.724L458.251 335.76Z" fill="#191919"/>
<path id="&#231;&#187;&#143;&#229;&#186;&#166;" d="M194.108 340.212V331.884H195.452V340.212H194.108ZM200.038 331.884C200.838 331.884 201.466 331.98 201.922 332.172C202.378 332.356 202.702 332.644 202.894 333.036C203.086 333.428 203.182 333.952 203.182 334.608C203.182 335.288 203.074 335.832 202.858 336.24C202.65 336.648 202.314 336.944 201.85 337.128C201.394 337.312 200.79 337.404 200.038 337.404H198.886V340.212H197.542V331.884H200.038ZM199.894 336.288C200.39 336.288 200.77 336.24 201.034 336.144C201.306 336.04 201.502 335.872 201.622 335.64C201.742 335.4 201.802 335.06 201.802 334.62C201.802 334.212 201.742 333.892 201.622 333.66C201.502 333.428 201.302 333.26 201.022 333.156C200.75 333.052 200.374 333 199.894 333H198.886V336.288H199.894ZM204.506 335.988C206.162 335.516 207.53 334.884 208.61 334.092H204.926V333.168H207.434C207.218 332.92 206.93 332.636 206.57 332.316C206.218 331.988 205.91 331.72 205.646 331.512L206.294 330.78C206.574 330.98 206.91 331.252 207.302 331.596C207.694 331.932 208.002 332.22 208.226 332.46L207.662 333.168H209.138V330.624L210.218 330.672V333.168H211.718L211.142 332.532C211.414 332.316 211.738 332.032 212.114 331.68C212.49 331.32 212.794 331.016 213.026 330.768L213.77 331.476C213.546 331.708 213.25 331.992 212.882 332.328C212.522 332.664 212.202 332.944 211.922 333.168H214.466V334.092H210.218V336.12H209.138V334.944C208.618 335.344 208.034 335.704 207.386 336.024C206.746 336.336 205.914 336.684 204.89 337.068L204.506 335.988ZM210.638 334.284C212.614 334.996 213.986 335.528 214.754 335.88L214.442 336.9C213.962 336.66 213.31 336.368 212.486 336.024C211.662 335.68 210.942 335.396 210.326 335.172L210.638 334.284ZM210.398 338.208C210.79 338.72 211.374 339.176 212.15 339.576C212.934 339.976 213.882 340.268 214.994 340.452L214.682 341.628C213.466 341.308 212.446 340.94 211.622 340.524C210.806 340.116 210.182 339.632 209.75 339.072C209.39 339.616 208.806 340.08 207.998 340.464C207.19 340.848 206.09 341.22 204.698 341.58L204.326 340.452C206.822 339.972 208.35 339.224 208.91 338.208H204.95V337.248H209.126V336.444L210.242 336.492V337.248H214.454V338.208H210.398ZM223.771 337.068L223.447 336.06L224.227 336C224.443 335.976 224.603 335.948 224.707 335.916C224.811 335.876 224.883 335.812 224.923 335.724C224.971 335.636 224.995 335.5 224.995 335.316V330.78L226.027 330.828V335.592C226.027 335.952 225.983 336.224 225.895 336.408C225.807 336.592 225.659 336.728 225.451 336.816C225.251 336.896 224.947 336.956 224.539 336.996L223.771 337.068ZM216.475 337.056C216.907 336.608 217.219 336.228 217.411 335.916C217.603 335.596 217.727 335.236 217.783 334.836H216.427V333.876H217.855V333.516V332.196H216.751V331.2H222.403V332.196H221.311V333.876H222.643V334.836H221.311V336.96H220.279V334.836H218.827C218.763 335.412 218.619 335.908 218.395 336.324C218.179 336.74 217.819 337.192 217.315 337.68L216.475 337.056ZM223.051 331.404L224.059 331.44V335.592H223.051V331.404ZM218.887 332.196V333.528V333.876H220.279V332.196H218.887ZM222.091 338.76V340.128H226.771V341.112H216.283V340.128H220.999V338.76H217.507V337.8H220.999V337.068L222.091 337.116V337.8H225.571V338.76H222.091Z" fill="#191919"/>
</g>
<g id="Group 1321316535">
<rect id="Rectangle 4_3" x="174.846" y="201.673" width="397.085" height="53.9082" rx="7.5" fill="white" stroke="#F7F6F6"/>
<rect id="Rectangle 34625649_3" x="184.829" y="210.409" width="142.51" height="37.6853" rx="7.5" fill="#EBEFF8" stroke="#F7F6F6"/>
<path id="101.4433_2" d="M419.681 231.644V224.516L417.629 224.912V223.82L420.089 223.316H421.013V231.644H419.681ZM424.002 227.48C424.002 226.384 424.118 225.524 424.35 224.9C424.59 224.268 424.918 223.828 425.334 223.58C425.758 223.324 426.278 223.196 426.894 223.196C427.518 223.196 428.038 223.32 428.454 223.568C428.878 223.816 429.206 224.256 429.438 224.888C429.67 225.512 429.786 226.376 429.786 227.48C429.786 228.584 429.67 229.452 429.438 230.084C429.206 230.708 428.878 231.144 428.454 231.392C428.038 231.64 427.518 231.764 426.894 231.764C426.278 231.764 425.758 231.64 425.334 231.392C424.918 231.144 424.59 230.708 424.35 230.084C424.118 229.452 424.002 228.584 424.002 227.48ZM428.466 227.48C428.466 226.656 428.41 226.016 428.298 225.56C428.194 225.104 428.03 224.784 427.806 224.6C427.582 224.416 427.278 224.324 426.894 224.324C426.518 224.324 426.218 224.416 425.994 224.6C425.77 224.784 425.602 225.104 425.49 225.56C425.386 226.016 425.334 226.656 425.334 227.48C425.334 228.312 425.386 228.956 425.49 229.412C425.602 229.868 425.77 230.188 425.994 230.372C426.218 230.556 426.518 230.648 426.894 230.648C427.278 230.648 427.582 230.556 427.806 230.372C428.03 230.188 428.194 229.868 428.298 229.412C428.41 228.956 428.466 228.312 428.466 227.48ZM433.627 231.644V224.516L431.575 224.912V223.82L434.035 223.316H434.959V231.644H433.627ZM437.266 230.84C437.266 230.584 437.29 230.396 437.338 230.276C437.386 230.156 437.47 230.076 437.59 230.036C437.71 229.996 437.894 229.976 438.142 229.976C438.382 229.976 438.562 229.996 438.682 230.036C438.802 230.076 438.886 230.156 438.934 230.276C438.99 230.396 439.018 230.584 439.018 230.84C439.018 231.096 438.99 231.284 438.934 231.404C438.886 231.524 438.802 231.604 438.682 231.644C438.562 231.692 438.382 231.716 438.142 231.716C437.894 231.716 437.71 231.692 437.59 231.644C437.47 231.604 437.386 231.524 437.338 231.404C437.29 231.284 437.266 231.096 437.266 230.84ZM446.452 228.572V229.688H445.492V231.644H444.244V229.688H440.392V228.332L443.932 223.316H445.492V228.572H446.452ZM441.508 228.572H444.244V224.672H444.172L441.508 228.5V228.572ZM453.424 228.572V229.688H452.464V231.644H451.216V229.688H447.364V228.332L450.904 223.316H452.464V228.572H453.424ZM448.48 228.572H451.216V224.672H451.144L448.48 228.5V228.572ZM454.781 231.608V230.456C455.333 230.592 455.945 230.66 456.617 230.66C457.257 230.66 457.757 230.556 458.117 230.348C458.485 230.14 458.669 229.78 458.669 229.268C458.669 228.748 458.485 228.384 458.117 228.176C457.749 227.96 457.177 227.852 456.401 227.852H455.753V226.844H456.389C457.069 226.844 457.589 226.732 457.949 226.508C458.317 226.276 458.501 225.936 458.501 225.488C458.501 225.056 458.361 224.748 458.081 224.564C457.809 224.372 457.389 224.276 456.821 224.276C456.565 224.276 456.281 224.3 455.969 224.348C455.665 224.388 455.393 224.444 455.153 224.516V223.436C455.369 223.372 455.641 223.316 455.969 223.268C456.297 223.22 456.617 223.196 456.929 223.196C457.865 223.196 458.569 223.372 459.041 223.724C459.521 224.076 459.761 224.64 459.761 225.416C459.761 225.912 459.641 226.312 459.401 226.616C459.161 226.912 458.805 227.132 458.333 227.276V227.348C458.885 227.452 459.297 227.672 459.569 228.008C459.841 228.344 459.977 228.784 459.977 229.328C459.977 230.952 458.873 231.764 456.665 231.764C455.937 231.764 455.309 231.712 454.781 231.608ZM461.754 231.608V230.456C462.306 230.592 462.918 230.66 463.59 230.66C464.23 230.66 464.73 230.556 465.09 230.348C465.458 230.14 465.642 229.78 465.642 229.268C465.642 228.748 465.458 228.384 465.09 228.176C464.722 227.96 464.15 227.852 463.374 227.852H462.726V226.844H463.362C464.042 226.844 464.562 226.732 464.922 226.508C465.29 226.276 465.474 225.936 465.474 225.488C465.474 225.056 465.334 224.748 465.054 224.564C464.782 224.372 464.362 224.276 463.794 224.276C463.538 224.276 463.254 224.3 462.942 224.348C462.638 224.388 462.366 224.444 462.126 224.516V223.436C462.342 223.372 462.614 223.316 462.942 223.268C463.27 223.22 463.59 223.196 463.902 223.196C464.838 223.196 465.542 223.372 466.014 223.724C466.494 224.076 466.734 224.64 466.734 225.416C466.734 225.912 466.614 226.312 466.374 226.616C466.134 226.912 465.778 227.132 465.306 227.276V227.348C465.858 227.452 466.27 227.672 466.542 228.008C466.814 228.344 466.95 228.784 466.95 229.328C466.95 230.952 465.846 231.764 463.638 231.764C462.91 231.764 462.282 231.712 461.754 231.608Z" fill="#191919"/>
<path id="&#231;&#187;&#143;&#229;&#186;&#166;_2" d="M193.892 226.592L193.64 225.584C193.768 225.536 193.86 225.488 193.916 225.44C193.972 225.392 194.032 225.324 194.096 225.236C194.32 224.94 194.6 224.484 194.936 223.868C195.272 223.244 195.564 222.64 195.812 222.056L196.748 222.44C196.54 222.952 196.272 223.504 195.944 224.096C195.616 224.688 195.328 225.148 195.08 225.476L196.4 225.404C196.688 224.916 196.94 224.468 197.156 224.06L198.044 224.54C197.724 225.148 197.304 225.852 196.784 226.652C196.264 227.444 195.864 228.016 195.584 228.368L196.376 228.248L197.54 228.068L197.552 229.148C197.248 229.188 196.82 229.248 196.268 229.328C195.716 229.4 195.232 229.468 194.816 229.532L194.18 229.652L193.928 228.608C194.112 228.544 194.244 228.488 194.324 228.44C194.404 228.384 194.488 228.296 194.576 228.176C194.848 227.84 195.248 227.256 195.776 226.424L195.392 226.448C194.928 226.472 194.592 226.5 194.384 226.532L193.892 226.592ZM197.288 226.892C198.144 226.54 198.996 226.076 199.844 225.5C200.692 224.924 201.344 224.348 201.8 223.772H198.092V222.704H203.204V223.712C202.764 224.304 202.272 224.848 201.728 225.344C202.2 225.584 202.692 225.852 203.204 226.148C203.724 226.436 204.14 226.684 204.452 226.892L203.912 227.864C203.568 227.608 203.104 227.308 202.52 226.964C201.936 226.62 201.392 226.316 200.888 226.052C199.976 226.772 198.968 227.376 197.864 227.864L197.288 226.892ZM203.456 229.148H201.308V231.332H204.092V232.328H197.504V231.332H200.264V229.148H198.14V228.092H203.456V229.148ZM197.252 230.888L197.276 231.5L195.452 231.836L193.616 232.16L193.484 231.104C193.78 231.064 194.408 230.956 195.368 230.78C196.336 230.604 196.956 230.484 197.228 230.42L197.252 230.888ZM207.457 224.108V227.048C207.457 228.04 207.409 228.864 207.313 229.52C207.225 230.176 207.089 230.756 206.905 231.26C206.721 231.756 206.461 232.312 206.125 232.928L205.177 232.4C205.521 231.776 205.777 231.232 205.945 230.768C206.113 230.296 206.229 229.76 206.293 229.16C206.365 228.552 206.401 227.744 206.401 226.736V223.136H210.817C210.681 222.704 210.569 222.376 210.481 222.152L211.585 221.96C211.737 222.352 211.873 222.744 211.993 223.136H215.773V224.108H207.457ZM213.961 226.16V227.828H209.233V226.16H207.757V225.236H209.233V224.396L210.289 224.432V225.236H212.893V224.396L213.961 224.432V225.236H215.737V226.16H213.961ZM212.893 226.94V226.16H210.289V226.94H212.893ZM215.749 232.82C214.781 232.644 213.965 232.468 213.301 232.292C212.637 232.124 212.041 231.916 211.513 231.668C210.513 232.1 209.165 232.504 207.469 232.88L207.025 231.872C208.393 231.656 209.533 231.388 210.445 231.068C209.805 230.628 209.173 230.056 208.549 229.352H208.033V228.476H214.753V229.364C214.153 230.068 213.453 230.644 212.653 231.092C213.469 231.356 214.617 231.58 216.097 231.764L215.749 232.82ZM209.821 229.352C210.381 229.904 210.945 230.328 211.513 230.624C212.241 230.272 212.841 229.848 213.313 229.352H209.821Z" fill="#191919"/>
</g>
<g id="Group 1321316536">
<rect id="Rectangle 4_4" x="174.846" y="255.333" width="397.085" height="53.9082" rx="7.5" fill="#FCFCFC" stroke="#F7F6F6"/>
<rect id="Rectangle 34625649_4" x="184.829" y="262.82" width="142.51" height="37.6853" rx="7.5" fill="#EBEFF8" stroke="#F7F6F6"/>
<path id="3.4433" d="M419.765 284.02V282.868C420.317 283.004 420.929 283.072 421.601 283.072C422.241 283.072 422.741 282.968 423.101 282.76C423.469 282.552 423.653 282.192 423.653 281.68C423.653 281.16 423.469 280.796 423.101 280.588C422.733 280.372 422.161 280.264 421.385 280.264H420.737V279.256H421.373C422.053 279.256 422.573 279.144 422.933 278.92C423.301 278.688 423.485 278.348 423.485 277.9C423.485 277.468 423.345 277.16 423.065 276.976C422.793 276.784 422.373 276.688 421.805 276.688C421.549 276.688 421.265 276.712 420.953 276.76C420.649 276.8 420.377 276.856 420.137 276.928V275.848C420.353 275.784 420.625 275.728 420.953 275.68C421.281 275.632 421.601 275.608 421.913 275.608C422.849 275.608 423.553 275.784 424.025 276.136C424.505 276.488 424.745 277.052 424.745 277.828C424.745 278.324 424.625 278.724 424.385 279.028C424.145 279.324 423.789 279.544 423.317 279.688V279.76C423.869 279.864 424.281 280.084 424.553 280.42C424.825 280.756 424.961 281.196 424.961 281.74C424.961 283.364 423.857 284.176 421.649 284.176C420.921 284.176 420.293 284.124 419.765 284.02ZM426.905 283.252C426.905 282.996 426.929 282.808 426.977 282.688C427.025 282.568 427.109 282.488 427.229 282.448C427.349 282.408 427.533 282.388 427.781 282.388C428.021 282.388 428.201 282.408 428.321 282.448C428.441 282.488 428.525 282.568 428.573 282.688C428.629 282.808 428.657 282.996 428.657 283.252C428.657 283.508 428.629 283.696 428.573 283.816C428.525 283.936 428.441 284.016 428.321 284.056C428.201 284.104 428.021 284.128 427.781 284.128C427.533 284.128 427.349 284.104 427.229 284.056C427.109 284.016 427.025 283.936 426.977 283.816C426.929 283.696 426.905 283.508 426.905 283.252ZM436.091 280.984V282.1H435.131V284.056H433.883V282.1H430.031V280.744L433.571 275.728H435.131V280.984H436.091ZM431.147 280.984H433.883V277.084H433.811L431.147 280.912V280.984ZM443.064 280.984V282.1H442.104V284.056H440.856V282.1H437.004V280.744L440.544 275.728H442.104V280.984H443.064ZM438.12 280.984H440.856V277.084H440.784L438.12 280.912V280.984ZM444.421 284.02V282.868C444.973 283.004 445.585 283.072 446.257 283.072C446.897 283.072 447.397 282.968 447.757 282.76C448.125 282.552 448.309 282.192 448.309 281.68C448.309 281.16 448.125 280.796 447.757 280.588C447.389 280.372 446.817 280.264 446.041 280.264H445.393V279.256H446.029C446.709 279.256 447.229 279.144 447.589 278.92C447.957 278.688 448.141 278.348 448.141 277.9C448.141 277.468 448.001 277.16 447.721 276.976C447.449 276.784 447.029 276.688 446.461 276.688C446.205 276.688 445.921 276.712 445.609 276.76C445.305 276.8 445.033 276.856 444.793 276.928V275.848C445.009 275.784 445.281 275.728 445.609 275.68C445.937 275.632 446.257 275.608 446.569 275.608C447.505 275.608 448.209 275.784 448.681 276.136C449.161 276.488 449.401 277.052 449.401 277.828C449.401 278.324 449.281 278.724 449.041 279.028C448.801 279.324 448.445 279.544 447.973 279.688V279.76C448.525 279.864 448.937 280.084 449.209 280.42C449.481 280.756 449.617 281.196 449.617 281.74C449.617 283.364 448.513 284.176 446.305 284.176C445.577 284.176 444.949 284.124 444.421 284.02ZM451.393 284.02V282.868C451.945 283.004 452.557 283.072 453.229 283.072C453.869 283.072 454.369 282.968 454.729 282.76C455.097 282.552 455.281 282.192 455.281 281.68C455.281 281.16 455.097 280.796 454.729 280.588C454.361 280.372 453.789 280.264 453.013 280.264H452.365V279.256H453.001C453.681 279.256 454.201 279.144 454.561 278.92C454.929 278.688 455.113 278.348 455.113 277.9C455.113 277.468 454.973 277.16 454.693 276.976C454.421 276.784 454.001 276.688 453.433 276.688C453.177 276.688 452.893 276.712 452.581 276.76C452.277 276.8 452.005 276.856 451.765 276.928V275.848C451.981 275.784 452.253 275.728 452.581 275.68C452.909 275.632 453.229 275.608 453.541 275.608C454.477 275.608 455.181 275.784 455.653 276.136C456.133 276.488 456.373 277.052 456.373 277.828C456.373 278.324 456.253 278.724 456.013 279.028C455.773 279.324 455.417 279.544 454.945 279.688V279.76C455.497 279.864 455.909 280.084 456.181 280.42C456.453 280.756 456.589 281.196 456.589 281.74C456.589 283.364 455.485 284.176 453.277 284.176C452.549 284.176 451.921 284.124 451.393 284.02Z" fill="#191919"/>
<path id="&#231;&#186;&#172;&#229;&#186;&#166;" d="M196.401 278.92L196.185 277.864C196.361 277.792 196.497 277.688 196.593 277.552C196.777 277.336 197.045 276.9 197.397 276.244C197.749 275.588 198.037 274.972 198.261 274.396L199.233 274.852C199.001 275.388 198.737 275.928 198.441 276.472C198.145 277.008 197.885 277.408 197.661 277.672L198.837 277.612C199.133 277.076 199.325 276.72 199.413 276.544L200.289 277.12C199.953 277.752 199.569 278.408 199.137 279.088C198.713 279.76 198.353 280.28 198.057 280.648L199.761 280.42L199.773 281.524L198.933 281.644L197.373 281.884C197.181 281.908 196.953 281.952 196.689 282.016L196.449 280.792C196.633 280.744 196.761 280.692 196.833 280.636C196.913 280.58 196.997 280.484 197.085 280.348C197.405 279.932 197.761 279.4 198.153 278.752L197.673 278.788L196.893 278.848C196.773 278.848 196.609 278.872 196.401 278.92ZM206.421 276.904H203.217V278.128H205.953V279.16H203.217V280.396H206.181C206.181 280.58 206.165 280.944 206.133 281.488C206.109 282.024 206.085 282.452 206.061 282.772C206.037 283.14 205.969 283.42 205.857 283.612C205.753 283.804 205.597 283.94 205.389 284.02C205.189 284.092 204.901 284.152 204.525 284.2L203.997 284.272L203.649 283.18L204.201 283.12C204.425 283.096 204.589 283.068 204.693 283.036C204.797 282.996 204.873 282.936 204.921 282.856C204.969 282.776 205.005 282.648 205.029 282.472C205.053 282.288 205.077 281.948 205.101 281.452H203.217V285.22H202.149V281.452H200.085V280.396H202.149V279.16H200.493V278.128H202.149V276.904H200.265V275.848H202.149V274.408L203.217 274.456V275.848H206.421V276.904ZM200.421 283.12L200.505 283.72C198.313 284.096 196.857 284.352 196.137 284.488L195.981 283.408C196.373 283.352 197.101 283.228 198.165 283.036C199.237 282.836 199.969 282.692 200.361 282.604L200.421 283.12ZM209.953 276.52V279.46C209.953 280.452 209.905 281.276 209.809 281.932C209.721 282.588 209.585 283.168 209.401 283.672C209.217 284.168 208.957 284.724 208.621 285.34L207.673 284.812C208.017 284.188 208.273 283.644 208.441 283.18C208.609 282.708 208.725 282.172 208.789 281.572C208.861 280.964 208.897 280.156 208.897 279.148V275.548H213.313C213.177 275.116 213.065 274.788 212.977 274.564L214.081 274.372C214.233 274.764 214.369 275.156 214.489 275.548H218.269V276.52H209.953ZM216.457 278.572V280.24H211.729V278.572H210.253V277.648H211.729V276.808L212.785 276.844V277.648H215.389V276.808L216.457 276.844V277.648H218.233V278.572H216.457ZM215.389 279.352V278.572H212.785V279.352H215.389ZM218.245 285.232C217.277 285.056 216.461 284.88 215.797 284.704C215.133 284.536 214.537 284.328 214.009 284.08C213.009 284.512 211.661 284.916 209.965 285.292L209.521 284.284C210.889 284.068 212.029 283.8 212.941 283.48C212.301 283.04 211.669 282.468 211.045 281.764H210.529V280.888H217.249V281.776C216.649 282.48 215.949 283.056 215.149 283.504C215.965 283.768 217.113 283.992 218.593 284.176L218.245 285.232ZM212.317 281.764C212.877 282.316 213.441 282.74 214.009 283.036C214.737 282.684 215.337 282.26 215.809 281.764H212.317Z" fill="#191919"/>
</g>
<g id="Group 1321316537_2">
<rect id="Rectangle 4_5" x="174.846" y="365.15" width="397.085" height="53.9082" rx="7.5" fill="#FCFCFC" stroke="#F7F6F6"/>
<rect id="Rectangle 34625649_5" x="184.829" y="372.637" width="142.51" height="37.6853" rx="7.5" fill="#EBEFF8" stroke="#F7F6F6"/>
<path id="3.4433_2" d="M422.177 393.873V386.745L420.125 387.141V386.049L422.585 385.545H423.509V393.873H422.177ZM426.701 387.717C426.701 386.869 426.845 386.277 427.133 385.941C427.421 385.597 427.849 385.425 428.417 385.425C428.993 385.425 429.425 385.597 429.713 385.941C430.009 386.277 430.157 386.869 430.157 387.717C430.157 388.565 430.009 389.157 429.713 389.493C429.425 389.829 428.993 389.997 428.417 389.997C427.849 389.997 427.421 389.829 427.133 389.493C426.845 389.157 426.701 388.565 426.701 387.717ZM428.057 393.873L432.713 385.545H433.649L428.981 393.873H428.057ZM429.245 387.717C429.245 387.301 429.217 386.985 429.161 386.769C429.113 386.545 429.029 386.389 428.909 386.301C428.797 386.213 428.633 386.169 428.417 386.169C428.217 386.169 428.057 386.213 427.937 386.301C427.825 386.389 427.741 386.545 427.685 386.769C427.637 386.993 427.613 387.309 427.613 387.717C427.613 388.125 427.637 388.441 427.685 388.665C427.741 388.889 427.825 389.049 427.937 389.145C428.057 389.233 428.217 389.277 428.417 389.277C428.633 389.277 428.797 389.233 428.909 389.145C429.029 389.049 429.113 388.893 429.161 388.677C429.217 388.453 429.245 388.133 429.245 387.717ZM431.561 391.713C431.561 390.865 431.705 390.273 431.993 389.937C432.289 389.593 432.721 389.421 433.289 389.421C433.865 389.421 434.297 389.593 434.585 389.937C434.881 390.273 435.029 390.865 435.029 391.713C435.029 392.561 434.881 393.153 434.585 393.489C434.297 393.825 433.865 393.993 433.289 393.993C432.721 393.993 432.289 393.825 431.993 393.489C431.705 393.153 431.561 392.561 431.561 391.713ZM434.105 391.713C434.105 391.305 434.077 390.989 434.021 390.765C433.973 390.541 433.889 390.385 433.769 390.297C433.657 390.209 433.497 390.165 433.289 390.165C433.081 390.165 432.921 390.209 432.809 390.297C432.697 390.385 432.613 390.541 432.557 390.765C432.509 390.989 432.485 391.305 432.485 391.713C432.485 392.121 432.509 392.437 432.557 392.661C432.613 392.885 432.697 393.045 432.809 393.141C432.921 393.229 433.081 393.273 433.289 393.273C433.497 393.273 433.657 393.229 433.769 393.141C433.889 393.045 433.973 392.889 434.021 392.673C434.077 392.449 434.105 392.129 434.105 391.713ZM447.296 394.125L446.672 395.109C445.616 394.429 444.732 393.717 444.02 392.973C443.284 393.757 442.288 394.505 441.032 395.217L440.42 394.281C441.628 393.657 442.604 392.957 443.348 392.181C442.732 391.373 442.256 390.469 441.92 389.469C441.8 390.493 441.576 391.417 441.248 392.241C440.92 393.065 440.432 393.929 439.784 394.833L438.992 394.245V395.025H437.984V389.733C437.632 390.605 437.192 391.461 436.664 392.301L435.98 391.449C436.356 390.889 436.724 390.249 437.084 389.529C437.444 388.809 437.732 388.113 437.948 387.441H436.568V386.457H437.984V384.237L438.992 384.285V386.457H440.336V387.441H438.992V388.665L439.316 388.377C439.508 388.585 439.74 388.865 440.012 389.217C440.284 389.561 440.488 389.849 440.624 390.081L439.88 390.753C439.672 390.369 439.376 389.925 438.992 389.421V394.101C439.504 393.413 439.904 392.765 440.192 392.157C440.48 391.541 440.692 390.893 440.828 390.213C440.972 389.533 441.064 388.729 441.104 387.801L441.152 385.857H439.892V384.825H445.736V385.821L444.824 387.837H446.384V388.833C445.936 390.169 445.376 391.285 444.704 392.181C445.36 392.861 446.224 393.509 447.296 394.125ZM444.02 391.401C444.556 390.673 444.996 389.817 445.34 388.833H443.72V387.921L444.644 385.857H442.124L442.088 386.889C442.288 387.825 442.544 388.661 442.856 389.397C443.176 390.133 443.564 390.801 444.02 391.401ZM450.204 386.337V389.277C450.204 390.269 450.156 391.093 450.06 391.749C449.972 392.405 449.836 392.985 449.652 393.489C449.468 393.985 449.208 394.541 448.872 395.157L447.924 394.629C448.268 394.005 448.524 393.461 448.692 392.997C448.86 392.525 448.976 391.989 449.04 391.389C449.112 390.781 449.148 389.973 449.148 388.965V385.365H453.564C453.428 384.933 453.316 384.605 453.228 384.381L454.332 384.189C454.484 384.581 454.62 384.973 454.74 385.365H458.52V386.337H450.204ZM456.708 388.389V390.057H451.98V388.389H450.504V387.465H451.98V386.625L453.036 386.661V387.465H455.64V386.625L456.708 386.661V387.465H458.484V388.389H456.708ZM455.64 389.169V388.389H453.036V389.169H455.64ZM458.496 395.049C457.528 394.873 456.712 394.697 456.048 394.521C455.384 394.353 454.788 394.145 454.26 393.897C453.26 394.329 451.912 394.733 450.216 395.109L449.772 394.101C451.14 393.885 452.28 393.617 453.192 393.297C452.552 392.857 451.92 392.285 451.296 391.581H450.78V390.705H457.5V391.593C456.9 392.297 456.2 392.873 455.4 393.321C456.216 393.585 457.364 393.809 458.844 393.993L458.496 395.049ZM452.568 391.581C453.128 392.133 453.692 392.557 454.26 392.853C454.988 392.501 455.588 392.077 456.06 391.581H452.568ZM460.361 388.701L460.109 387.729C460.269 387.641 460.417 387.521 460.553 387.369C460.737 387.137 460.993 386.693 461.321 386.037C461.657 385.381 461.933 384.773 462.149 384.213L463.061 384.573C462.789 385.181 462.497 385.785 462.185 386.385C461.873 386.985 461.625 387.389 461.441 387.597L462.677 387.537C462.973 386.993 463.185 386.577 463.313 386.289L464.165 386.709C463.845 387.349 463.449 388.069 462.977 388.869C462.513 389.669 462.165 390.217 461.933 390.513C462.197 390.457 462.629 390.389 463.229 390.309L463.829 390.213L463.841 391.221C463.521 391.269 463.105 391.333 462.593 391.413C462.089 391.493 461.645 391.565 461.261 391.629C461.069 391.653 460.869 391.697 460.661 391.761L460.361 390.765C460.505 390.709 460.609 390.653 460.673 390.597C460.737 390.533 460.821 390.437 460.925 390.309C461.165 389.997 461.553 389.405 462.089 388.533L461.537 388.569L460.817 388.629C460.641 388.645 460.489 388.669 460.361 388.701ZM470.693 392.649C470.677 393.081 470.637 393.473 470.573 393.825C470.525 394.089 470.457 394.293 470.369 394.437C470.281 394.581 470.145 394.685 469.961 394.749C469.777 394.821 469.517 394.861 469.181 394.869C469.045 394.877 468.833 394.881 468.545 394.881C468.257 394.881 468.045 394.877 467.909 394.869C467.565 394.853 467.297 394.801 467.105 394.713C466.913 394.633 466.773 394.489 466.685 394.281C466.605 394.081 466.565 393.793 466.565 393.417V391.485H464.417V387.561L465.425 387.609V390.417H466.565V386.805H464.189V385.713H466.565V384.249L467.573 384.285V385.713H470.393V386.805H467.573V390.417H468.797V387.573L469.793 387.621V391.485H467.573V393.093C467.573 393.301 467.589 393.453 467.621 393.549C467.661 393.645 467.721 393.709 467.801 393.741C467.889 393.773 468.025 393.793 468.209 393.801C468.433 393.817 468.665 393.817 468.905 393.801C469.113 393.785 469.261 393.765 469.349 393.741C469.437 393.709 469.497 393.653 469.529 393.573C469.569 393.493 469.605 393.357 469.637 393.165C469.685 392.909 469.709 392.617 469.709 392.289L470.693 392.649ZM464.477 393.021L464.513 393.609C464.513 393.609 463.953 393.689 462.833 393.849C461.553 394.025 460.633 394.161 460.073 394.257L459.929 393.177C460.481 393.105 461.249 392.997 462.233 392.853C463.225 392.701 463.965 392.577 464.453 392.481L464.477 393.021ZM482.445 389.229V390.153H481.329V392.481H478.437V393.513C478.437 393.849 478.389 394.105 478.293 394.281C478.205 394.465 478.049 394.597 477.825 394.677C477.609 394.757 477.281 394.817 476.841 394.857L476.145 394.917L475.809 393.909L476.589 393.837C476.845 393.821 477.029 393.797 477.141 393.765C477.253 393.725 477.325 393.669 477.357 393.597C477.389 393.517 477.405 393.385 477.405 393.201V392.481H474.753V391.509H477.405V390.153H474.393V389.229H477.405V388.029H475.185V387.789L474.381 387.093C475.437 386.037 476.189 384.997 476.637 383.973L477.729 384.225C477.577 384.545 477.441 384.809 477.321 385.017H480.501V385.845L479.421 387.117H481.329V389.229H482.445ZM473.193 388.077C473.065 387.677 472.853 387.137 472.557 386.457C472.269 385.777 472.025 385.253 471.825 384.885L472.773 384.465C472.981 384.825 473.229 385.317 473.517 385.941C473.805 386.565 474.033 387.097 474.201 387.537L473.193 388.077ZM476.733 385.941C476.469 386.333 476.165 386.725 475.821 387.117H478.137L479.157 385.941H476.733ZM480.333 388.029H478.437V389.229H480.333V388.029ZM473.757 389.445L474.297 389.625C474.209 390.049 473.977 390.841 473.601 392.001C473.233 393.153 472.965 393.917 472.797 394.293L471.741 393.933C471.917 393.557 472.193 392.797 472.569 391.653C472.953 390.509 473.189 389.725 473.277 389.301L473.757 389.445ZM478.437 391.509H480.333V390.153H478.437V391.509Z" fill="#01AA44"/>
<path id="&#231;&#186;&#172;&#229;&#186;&#166;_2" d="M202.977 384.105C203.353 385.145 203.857 386.033 204.489 386.769C205.121 387.497 205.961 388.189 207.009 388.845L206.385 389.889C205.265 389.153 204.369 388.385 203.697 387.585C203.025 386.777 202.445 385.745 201.957 384.489L202.977 384.105ZM200.841 384.705C200.497 385.489 200.085 386.205 199.605 386.853C199.133 387.493 198.565 388.117 197.901 388.725H204.705C204.673 389.373 204.621 390.169 204.549 391.113C204.485 392.049 204.429 392.749 204.381 393.213C204.333 393.629 204.245 393.941 204.117 394.149C203.997 394.365 203.817 394.517 203.577 394.605C203.337 394.701 202.989 394.765 202.533 394.797L201.429 394.881L201.069 393.777L202.185 393.705C202.473 393.681 202.685 393.645 202.821 393.597C202.965 393.541 203.065 393.453 203.121 393.333C203.185 393.205 203.233 393.009 203.265 392.745C203.305 392.297 203.345 391.789 203.385 391.221C203.433 390.645 203.469 390.177 203.493 389.817H200.421L200.385 390.453C200.337 391.189 200.213 391.817 200.013 392.337C199.813 392.849 199.477 393.337 199.005 393.801C198.541 394.257 197.881 394.733 197.025 395.229L196.209 394.329C196.993 393.921 197.585 393.537 197.985 393.177C198.393 392.817 198.681 392.433 198.849 392.025C199.025 391.617 199.153 391.089 199.233 390.441L199.293 389.817H197.769V388.845C197.417 389.149 197.029 389.465 196.605 389.793L195.933 388.833C196.805 388.233 197.569 387.545 198.225 386.769C198.889 385.993 199.409 385.165 199.785 384.285L200.841 384.705ZM212.749 386.577V387.957H211.717V385.569H214.441C214.353 385.257 214.225 384.861 214.057 384.381L215.113 384.225C215.273 384.649 215.425 385.097 215.569 385.569H218.221V387.957H217.213V386.577H212.749ZM211.285 389.853C211.141 389.925 210.853 390.057 210.421 390.249V393.693C210.421 394.045 210.381 394.305 210.301 394.473C210.221 394.649 210.081 394.773 209.881 394.845C209.689 394.917 209.389 394.969 208.981 395.001L208.477 395.049L208.177 394.005L208.765 393.957C208.965 393.941 209.105 393.917 209.185 393.885C209.273 393.861 209.333 393.813 209.365 393.741C209.397 393.661 209.413 393.533 209.413 393.357V390.669C208.845 390.901 208.369 391.077 207.985 391.197L207.745 390.141C208.217 389.997 208.773 389.789 209.413 389.517V387.417H208.105V386.349H209.413V384.249L210.421 384.285V386.349H211.393V387.417H210.421V389.085C210.621 388.997 210.829 388.901 211.045 388.797L211.129 389.193L211.285 389.853ZM211.393 389.445C211.817 389.189 212.257 388.873 212.713 388.497C213.177 388.113 213.573 387.737 213.901 387.369L214.585 388.113C214.241 388.473 213.833 388.845 213.361 389.229C212.897 389.613 212.429 389.969 211.957 390.297L211.393 389.445ZM215.821 387.381C216.197 387.629 216.681 387.977 217.273 388.425C217.873 388.865 218.317 389.213 218.605 389.469L218.041 390.405C217.705 390.085 217.245 389.697 216.661 389.241C216.077 388.777 215.605 388.429 215.245 388.197L215.821 387.381ZM217.705 391.461H215.461V393.561H218.557V394.557H211.285V393.561H214.345V391.461H212.089V390.465H217.705V391.461ZM222.786 384.417C222.578 385.193 222.318 385.985 222.006 386.793V394.977H220.962V389.013C220.658 389.557 220.374 390.025 220.11 390.417L219.414 389.457C219.894 388.753 220.33 387.941 220.722 387.021C221.122 386.101 221.438 385.157 221.67 384.189L222.786 384.417ZM229.398 387.033V393.681H230.454V394.605H222.426V393.681H223.434V387.033H225.822V386.109H223.002V385.149H225.822V384.213L226.926 384.261V385.149H230.022V386.109H226.926V387.033H229.398ZM228.306 388.737V387.957H224.514V388.737H228.306ZM224.514 390.357H228.306V389.577H224.514V390.357ZM228.306 392.001V391.197H224.514V392.001H228.306ZM228.306 392.829H224.514V393.681H228.306V392.829Z" fill="#191919"/>
</g>
</g>
</g>
</g>
<defs>
<filter id="filter0_f_2372_2063" x="28.374" y="-4.60889" width="539.988" height="539.989" filterUnits="userSpaceOnUse" color-interpolation-filters="sRGB">
<feFlood flood-opacity="0" result="BackgroundImageFix"/>
<feBlend mode="normal" in="SourceGraphic" in2="BackgroundImageFix" result="shape"/>
<feGaussianBlur stdDeviation="62" result="effect1_foregroundBlur_2372_2063"/>
</filter>
<filter id="filter1_f_2372_2063" x="270.4" y="-58.4648" width="510.79" height="510.79" filterUnits="userSpaceOnUse" color-interpolation-filters="sRGB">
<feFlood flood-opacity="0" result="BackgroundImageFix"/>
<feBlend mode="normal" in="SourceGraphic" in2="BackgroundImageFix" result="shape"/>
<feGaussianBlur stdDeviation="62" result="effect1_foregroundBlur_2372_2063"/>
</filter>
<filter id="filter2_f_2372_2063" x="28.376" y="74.5527" width="539.988" height="539.988" filterUnits="userSpaceOnUse" color-interpolation-filters="sRGB">
<feFlood flood-opacity="0" result="BackgroundImageFix"/>
<feBlend mode="normal" in="SourceGraphic" in2="BackgroundImageFix" result="shape"/>
<feGaussianBlur stdDeviation="62" result="effect1_foregroundBlur_2372_2063"/>
</filter>
<filter id="filter3_f_2372_2063" x="270.401" y="157.607" width="510.79" height="510.79" filterUnits="userSpaceOnUse" color-interpolation-filters="sRGB">
<feFlood flood-opacity="0" result="BackgroundImageFix"/>
<feBlend mode="normal" in="SourceGraphic" in2="BackgroundImageFix" result="shape"/>
<feGaussianBlur stdDeviation="62" result="effect1_foregroundBlur_2372_2063"/>
</filter>
<filter id="filter4_d_2372_2063" x="0.265625" y="71.0596" width="747.575" height="475.523" filterUnits="userSpaceOnUse" color-interpolation-filters="sRGB">
<feFlood flood-opacity="0" result="BackgroundImageFix"/>
<feColorMatrix in="SourceAlpha" type="matrix" values="0 0 0 0 0 0 0 0 0 0 0 0 0 0 0 0 0 0 127 0" result="hardAlpha"/>
<feOffset dy="4"/>
<feGaussianBlur stdDeviation="42"/>
<feComposite in2="hardAlpha" operator="out"/>
<feColorMatrix type="matrix" values="0 0 0 0 0.00392157 0 0 0 0 0.666667 0 0 0 0 0.266667 0 0 0 0.16 0"/>
<feBlend mode="normal" in2="BackgroundImageFix" result="effect1_dropShadow_2372_2063"/>
<feBlend mode="normal" in="SourceGraphic" in2="effect1_dropShadow_2372_2063" result="shape"/>
</filter>
<filter id="filter5_d_2372_2063" x="378.316" y="53.8999" width="385.799" height="221.766" filterUnits="userSpaceOnUse" color-interpolation-filters="sRGB">
<feFlood flood-opacity="0" result="BackgroundImageFix"/>
<feColorMatrix in="SourceAlpha" type="matrix" values="0 0 0 0 0 0 0 0 0 0 0 0 0 0 0 0 0 0 127 0" result="hardAlpha"/>
<feOffset dy="4"/>
<feGaussianBlur stdDeviation="17"/>
<feComposite in2="hardAlpha" operator="out"/>
<feColorMatrix type="matrix" values="0 0 0 0 0 0 0 0 0 0.497526 0 0 0 0 0.197244 0 0 0 0.12 0"/>
<feBlend mode="normal" in2="BackgroundImageFix" result="effect1_dropShadow_2372_2063"/>
<feBlend mode="normal" in="SourceGraphic" in2="effect1_dropShadow_2372_2063" result="shape"/>
</filter>
<linearGradient id="paint0_linear_2372_2063" x1="393.751" y1="0" x2="393.751" y2="304.966" gradientUnits="userSpaceOnUse">
<stop stop-color="white"/>
<stop offset="1" stop-color="#F2FFF7"/>
</linearGradient>
<linearGradient id="paint1_linear_2372_2063" x1="341.302" y1="0" x2="341.302" y2="304.966" gradientUnits="userSpaceOnUse">
<stop stop-color="white"/>
<stop offset="1" stop-color="#F2FFF7"/>
</linearGradient>
</defs>
</svg>
