<svg width="221" height="52" viewBox="0 0 221 52" fill="none" xmlns="http://www.w3.org/2000/svg">
<g id="Group 1000002863">
<g id="logo.P_W2krwE 1" clip-path="url(#clip0_6795_41594)">
<g id="Clip path group">
<mask id="mask0_6795_41594" style="mask-type:luminance" maskUnits="userSpaceOnUse" x="11" y="9" width="200" height="35">
<g id="clip0_7849_24869">
<path id="Vector" d="M211 9H11V44H211V9Z" fill="white"/>
</g>
</mask>
<g mask="url(#mask0_6795_41594)">
<g id="Group">
<path id="Vector_2" d="M67.4468 17.584H71.0648V28.6044C71.0648 29.8417 70.7668 30.9244 70.1707 31.8525C69.5801 32.7805 68.7531 33.5041 67.6891 34.0234C66.6252 34.5371 65.3856 34.794 63.9707 34.794C62.5503 34.794 61.3083 34.5371 60.2444 34.0234C59.1805 33.5041 58.3531 32.7805 57.7629 31.8525C57.1723 30.9244 56.877 29.8417 56.877 28.6044V17.584H60.495V28.2978C60.495 28.9441 60.637 29.5186 60.9213 30.0213C61.2107 30.524 61.6174 30.9189 62.1409 31.2061C62.6648 31.4934 63.2746 31.637 63.9707 31.637C64.6727 31.637 65.2829 31.4934 65.8009 31.2061C66.3244 30.9189 66.7283 30.524 67.0123 30.0213C67.3021 29.5186 67.4468 28.9441 67.4468 28.2978V17.584Z" fill="#9198A9"/>
<path id="Vector_3" d="M67.4468 17.584H71.0648V28.6044C71.0648 29.8417 70.7668 30.9244 70.1707 31.8525C69.5801 32.7805 68.7531 33.5041 67.6891 34.0234C66.6252 34.5371 65.3856 34.794 63.9707 34.794C62.5503 34.794 61.3083 34.5371 60.2444 34.0234C59.1805 33.5041 58.3531 32.7805 57.7629 31.8525C57.1723 30.9244 56.877 29.8417 56.877 28.6044V17.584H60.495V28.2978C60.495 28.9441 60.637 29.5186 60.9213 30.0213C61.2107 30.524 61.6174 30.9189 62.1409 31.2061C62.6648 31.4934 63.2746 31.637 63.9707 31.637C64.6727 31.637 65.2829 31.4934 65.8009 31.2061C66.3244 30.9189 66.7283 30.524 67.0123 30.0213C67.3021 29.5186 67.4468 28.9441 67.4468 28.2978V17.584Z" fill="#9198A9"/>
<path id="Vector_4" d="M77.5323 27.1961V34.5541H73.9727V21.8268H77.3653V24.0724H77.5155C77.7998 23.3321 78.2759 22.7466 78.9445 22.3157C79.6127 21.8793 80.4233 21.6611 81.3759 21.6611C82.2672 21.6611 83.0441 21.8544 83.7072 22.2412C84.37 22.6278 84.8853 23.1802 85.2527 23.8983C85.6206 24.6109 85.8045 25.4616 85.8045 26.4504V34.5541H82.2449V27.0801C82.2504 26.3013 82.05 25.6936 81.6433 25.2572C81.2367 24.8153 80.6767 24.5944 79.9637 24.5944C79.4845 24.5944 79.0614 24.6966 78.6935 24.9009C78.3316 25.1053 78.0476 25.4036 77.8414 25.7958C77.641 26.1825 77.5378 26.6493 77.5323 27.1961Z" fill="#9198A9"/>
<path id="Vector_5" d="M77.5323 27.1961V34.5541H73.9727V21.8268H77.3653V24.0724H77.5155C77.7998 23.3321 78.2759 22.7466 78.9445 22.3157C79.6127 21.8793 80.4233 21.6611 81.3759 21.6611C82.2672 21.6611 83.0441 21.8544 83.7072 22.2412C84.37 22.6278 84.8853 23.1802 85.2527 23.8983C85.6206 24.6109 85.8045 25.4616 85.8045 26.4504V34.5541H82.2449V27.0801C82.2504 26.3013 82.05 25.6936 81.6433 25.2572C81.2367 24.8153 80.6767 24.5944 79.9637 24.5944C79.4845 24.5944 79.0614 24.6966 78.6935 24.9009C78.3316 25.1053 78.0476 25.4036 77.8414 25.7958C77.641 26.1825 77.5378 26.6493 77.5323 27.1961Z" fill="#9198A9"/>
<path id="Vector_6" d="M93.3403 34.7609C92.3654 34.7609 91.4826 34.5122 90.6916 34.0151C89.9061 33.5124 89.2822 32.775 88.8199 31.8027C88.363 30.825 88.1348 29.6263 88.1348 28.2066C88.1348 26.7483 88.3716 25.5358 88.845 24.5691C89.3183 23.5969 89.9477 22.8705 90.7332 22.3899C91.5242 21.9038 92.3905 21.6607 93.332 21.6607C94.0505 21.6607 94.6493 21.7822 95.1285 22.0253C95.6128 22.2628 96.003 22.5611 96.2983 22.9202C96.5991 23.2737 96.8273 23.6217 96.9834 23.9642H97.092V17.584H100.643V34.5537H97.1336V32.5153H96.9834C96.8163 32.8689 96.5795 33.2196 96.2732 33.5677C95.9724 33.9102 95.5795 34.1946 95.0948 34.4211C94.6159 34.6476 94.0308 34.7609 93.3403 34.7609ZM94.4681 31.9519C95.0418 31.9519 95.5265 31.7972 95.9222 31.4879C96.3234 31.173 96.6297 30.7338 96.8414 30.1704C97.0587 29.607 97.1669 28.9469 97.1669 28.19C97.1669 27.4333 97.0614 26.7759 96.8497 26.218C96.6379 25.6601 96.3316 25.2292 95.9305 24.9254C95.5293 24.6216 95.0418 24.4697 94.4681 24.4697C93.8834 24.4697 93.3905 24.6271 92.9893 24.942C92.5881 25.2568 92.2846 25.6932 92.0787 26.2511C91.8724 26.8091 91.7693 27.4553 91.7693 28.19C91.7693 28.9303 91.8724 29.5849 92.0787 30.1538C92.2901 30.7173 92.594 31.1592 92.9893 31.4796C93.3905 31.7945 93.8834 31.9519 94.4681 31.9519Z" fill="#9198A9"/>
<path id="Vector_7" d="M93.3403 34.7609C92.3654 34.7609 91.4826 34.5122 90.6916 34.0151C89.9061 33.5124 89.2822 32.775 88.8199 31.8027C88.363 30.825 88.1348 29.6263 88.1348 28.2066C88.1348 26.7483 88.3716 25.5358 88.845 24.5691C89.3183 23.5969 89.9477 22.8705 90.7332 22.3899C91.5242 21.9038 92.3905 21.6607 93.332 21.6607C94.0505 21.6607 94.6493 21.7822 95.1285 22.0253C95.6128 22.2628 96.003 22.5611 96.2983 22.9202C96.5991 23.2737 96.8273 23.6217 96.9834 23.9642H97.092V17.584H100.643V34.5537H97.1336V32.5153H96.9834C96.8163 32.8689 96.5795 33.2196 96.2732 33.5677C95.9724 33.9102 95.5795 34.1946 95.0948 34.4211C94.6159 34.6476 94.0308 34.7609 93.3403 34.7609ZM94.4681 31.9519C95.0418 31.9519 95.5265 31.7972 95.9222 31.4879C96.3234 31.173 96.6297 30.7338 96.8414 30.1704C97.0587 29.607 97.1669 28.9469 97.1669 28.19C97.1669 27.4333 97.0614 26.7759 96.8497 26.218C96.6379 25.6601 96.3316 25.2292 95.9305 24.9254C95.5293 24.6216 95.0418 24.4697 94.4681 24.4697C93.8834 24.4697 93.3905 24.6271 92.9893 24.942C92.5881 25.2568 92.2846 25.6932 92.0787 26.2511C91.8724 26.8091 91.7693 27.4553 91.7693 28.19C91.7693 28.9303 91.8724 29.5849 92.0787 30.1538C92.2901 30.7173 92.594 31.1592 92.9893 31.4796C93.3905 31.7945 93.8834 31.9519 94.4681 31.9519Z" fill="#9198A9"/>
<path id="Vector_8" d="M109.42 34.8027C108.099 34.8027 106.963 34.5376 106.01 34.0072C105.064 33.4714 104.334 32.7146 103.821 31.7369C103.309 30.7536 103.053 29.5908 103.053 28.2485C103.053 26.9393 103.309 25.7903 103.821 24.8015C104.334 23.8127 105.055 23.0421 105.986 22.4897C106.921 21.9373 108.019 21.6611 109.277 21.6611C110.124 21.6611 110.912 21.7965 111.642 22.0671C112.377 22.3323 113.018 22.7328 113.564 23.2686C114.116 23.8044 114.545 24.4784 114.851 25.2904C115.157 26.0969 115.31 27.0415 115.31 28.1242V29.0937H104.473V26.9062H111.96C111.96 26.398 111.848 25.9477 111.626 25.5555C111.403 25.1633 111.094 24.8567 110.698 24.6358C110.308 24.4093 109.854 24.296 109.336 24.296C108.796 24.296 108.317 24.4203 107.899 24.6689C107.487 24.912 107.164 25.2407 106.93 25.655C106.696 26.0637 106.576 26.5195 106.57 27.0222V29.1019C106.57 29.7317 106.687 30.2758 106.921 30.7343C107.161 31.1928 107.498 31.5463 107.932 31.7949C108.367 32.0435 108.882 32.1677 109.478 32.1677C109.873 32.1677 110.236 32.1125 110.564 32.002C110.893 31.8916 111.174 31.7259 111.408 31.5049C111.642 31.2839 111.821 31.0133 111.943 30.6928L115.235 30.9083C115.068 31.6927 114.725 32.3777 114.207 32.9632C113.695 33.5432 113.032 33.9962 112.219 34.3221C111.411 34.6425 110.478 34.8027 109.42 34.8027Z" fill="#9198A9"/>
<path id="Vector_9" d="M109.42 34.8027C108.099 34.8027 106.963 34.5376 106.01 34.0072C105.064 33.4714 104.334 32.7146 103.821 31.7369C103.309 30.7536 103.053 29.5908 103.053 28.2485C103.053 26.9393 103.309 25.7903 103.821 24.8015C104.334 23.8127 105.055 23.0421 105.986 22.4897C106.921 21.9373 108.019 21.6611 109.277 21.6611C110.124 21.6611 110.912 21.7965 111.642 22.0671C112.377 22.3323 113.018 22.7328 113.564 23.2686C114.116 23.8044 114.545 24.4784 114.851 25.2904C115.157 26.0969 115.31 27.0415 115.31 28.1242V29.0937H104.473V26.9062H111.96C111.96 26.398 111.848 25.9477 111.626 25.5555C111.403 25.1633 111.094 24.8567 110.698 24.6358C110.308 24.4093 109.854 24.296 109.336 24.296C108.796 24.296 108.317 24.4203 107.899 24.6689C107.487 24.912 107.164 25.2407 106.93 25.655C106.696 26.0637 106.576 26.5195 106.57 27.0222V29.1019C106.57 29.7317 106.687 30.2758 106.921 30.7343C107.161 31.1928 107.498 31.5463 107.932 31.7949C108.367 32.0435 108.882 32.1677 109.478 32.1677C109.873 32.1677 110.236 32.1125 110.564 32.002C110.893 31.8916 111.174 31.7259 111.408 31.5049C111.642 31.2839 111.821 31.0133 111.943 30.6928L115.235 30.9083C115.068 31.6927 114.725 32.3777 114.207 32.9632C113.695 33.5432 113.032 33.9962 112.219 34.3221C111.411 34.6425 110.478 34.8027 109.42 34.8027Z" fill="#9198A9"/>
<path id="Vector_10" d="M124.459 21.8266V24.4781H116.729V21.8266H124.459ZM118.484 18.7773H122.044V30.6429C122.044 30.9688 122.094 31.2229 122.194 31.4052C122.294 31.5819 122.434 31.7062 122.612 31.7781C122.796 31.8499 123.008 31.8858 123.247 31.8858C123.414 31.8858 123.581 31.872 123.748 31.8444C123.915 31.8112 124.044 31.7863 124.133 31.7698L124.692 34.3964C124.514 34.4517 124.264 34.5152 123.94 34.587C123.617 34.6643 123.225 34.7113 122.762 34.7279C121.904 34.761 121.152 34.6478 120.506 34.3881C119.866 34.1285 119.367 33.7253 119.011 33.1784C118.654 32.6315 118.479 31.941 118.484 31.1069V18.7773Z" fill="#9198A9"/>
<path id="Vector_11" d="M124.459 21.8266V24.4781H116.729V21.8266H124.459ZM118.484 18.7773H122.044V30.6429C122.044 30.9688 122.094 31.2229 122.194 31.4052C122.294 31.5819 122.434 31.7062 122.612 31.7781C122.796 31.8499 123.008 31.8858 123.247 31.8858C123.414 31.8858 123.581 31.872 123.748 31.8444C123.915 31.8112 124.044 31.7863 124.133 31.7698L124.692 34.3964C124.514 34.4517 124.264 34.5152 123.94 34.587C123.617 34.6643 123.225 34.7113 122.762 34.7279C121.904 34.761 121.152 34.6478 120.506 34.3881C119.866 34.1285 119.367 33.7253 119.011 33.1784C118.654 32.6315 118.479 31.941 118.484 31.1069V18.7773Z" fill="#9198A9"/>
<path id="Vector_12" d="M132.488 34.8027C131.168 34.8027 130.032 34.5376 129.079 34.0072C128.132 33.4714 127.402 32.7146 126.89 31.7369C126.377 30.7536 126.121 29.5908 126.121 28.2485C126.121 26.9393 126.377 25.7903 126.89 24.8015C127.402 23.8127 128.123 23.0421 129.054 22.4897C129.99 21.9373 131.087 21.6611 132.346 21.6611C133.193 21.6611 133.981 21.7965 134.711 22.0671C135.446 22.3323 136.087 22.7328 136.632 23.2686C137.184 23.8044 137.613 24.4784 137.919 25.2904C138.225 26.0969 138.379 27.0415 138.379 28.1242V29.0937H127.541V26.9062H135.028C135.028 26.398 134.917 25.9477 134.694 25.5555C134.471 25.1633 134.162 24.8567 133.767 24.6358C133.376 24.4093 132.923 24.296 132.405 24.296C131.864 24.296 131.385 24.4203 130.967 24.6689C130.555 24.912 130.232 25.2407 129.998 25.655C129.764 26.0637 129.644 26.5195 129.639 27.0222V29.1019C129.639 29.7317 129.756 30.2758 129.99 30.7343C130.229 31.1928 130.566 31.5463 131.001 31.7949C131.435 32.0435 131.951 32.1677 132.547 32.1677C132.942 32.1677 133.304 32.1125 133.633 32.002C133.961 31.8916 134.243 31.7259 134.477 31.5049C134.711 31.2839 134.889 31.0133 135.011 30.6928L138.303 30.9083C138.136 31.6927 137.794 32.3777 137.276 32.9632C136.763 33.5432 136.1 33.9962 135.287 34.3221C134.48 34.6425 133.547 34.8027 132.488 34.8027Z" fill="#9198A9"/>
<path id="Vector_13" d="M132.488 34.8027C131.168 34.8027 130.032 34.5376 129.079 34.0072C128.132 33.4714 127.402 32.7146 126.89 31.7369C126.377 30.7536 126.121 29.5908 126.121 28.2485C126.121 26.9393 126.377 25.7903 126.89 24.8015C127.402 23.8127 128.123 23.0421 129.054 22.4897C129.99 21.9373 131.087 21.6611 132.346 21.6611C133.193 21.6611 133.981 21.7965 134.711 22.0671C135.446 22.3323 136.087 22.7328 136.632 23.2686C137.184 23.8044 137.613 24.4784 137.919 25.2904C138.225 26.0969 138.379 27.0415 138.379 28.1242V29.0937H127.541V26.9062H135.028C135.028 26.398 134.917 25.9477 134.694 25.5555C134.471 25.1633 134.162 24.8567 133.767 24.6358C133.376 24.4093 132.923 24.296 132.405 24.296C131.864 24.296 131.385 24.4203 130.967 24.6689C130.555 24.912 130.232 25.2407 129.998 25.655C129.764 26.0637 129.644 26.5195 129.639 27.0222V29.1019C129.639 29.7317 129.756 30.2758 129.99 30.7343C130.229 31.1928 130.566 31.5463 131.001 31.7949C131.435 32.0435 131.951 32.1677 132.547 32.1677C132.942 32.1677 133.304 32.1125 133.633 32.002C133.961 31.8916 134.243 31.7259 134.477 31.5049C134.711 31.2839 134.889 31.0133 135.011 30.6928L138.303 30.9083C138.136 31.6927 137.794 32.3777 137.276 32.9632C136.763 33.5432 136.1 33.9962 135.287 34.3221C134.48 34.6425 133.547 34.8027 132.488 34.8027Z" fill="#9198A9"/>
<path id="Vector_14" d="M146.5 34.8027C145.186 34.8027 144.055 34.5265 143.108 33.9741C142.167 33.4162 141.443 32.6428 140.936 31.654C140.435 30.6652 140.184 29.5273 140.184 28.2402C140.184 26.9365 140.437 25.7931 140.944 24.8098C141.457 23.821 142.184 23.0504 143.125 22.498C144.066 21.9401 145.186 21.6611 146.484 21.6611C147.604 21.6611 148.584 21.8627 149.425 22.266C150.266 22.6692 150.932 23.2355 151.422 23.9646C151.912 24.6938 152.182 25.55 152.233 26.5333H148.873C148.779 25.898 148.528 25.387 148.122 25.0004C147.72 24.6082 147.194 24.4121 146.542 24.4121C145.991 24.4121 145.509 24.5612 145.097 24.8595C144.69 25.1523 144.373 25.5804 144.144 26.1439C143.916 26.7073 143.802 27.3895 143.802 28.1905C143.802 29.0025 143.913 29.693 144.136 30.262C144.364 30.8309 144.685 31.2646 145.097 31.5629C145.509 31.8612 145.991 32.0103 146.542 32.0103C146.949 32.0103 147.314 31.9275 147.637 31.7617C147.966 31.596 148.236 31.3557 148.448 31.0409C148.665 30.7205 148.807 30.3365 148.873 29.8891H152.233C152.177 30.8613 151.909 31.7175 151.43 32.4578C150.957 33.1925 150.302 33.7669 149.467 34.1813C148.631 34.5955 147.642 34.8027 146.5 34.8027Z" fill="#9198A9"/>
<path id="Vector_15" d="M146.5 34.8027C145.186 34.8027 144.055 34.5265 143.108 33.9741C142.167 33.4162 141.443 32.6428 140.936 31.654C140.435 30.6652 140.184 29.5273 140.184 28.2402C140.184 26.9365 140.437 25.7931 140.944 24.8098C141.457 23.821 142.184 23.0504 143.125 22.498C144.066 21.9401 145.186 21.6611 146.484 21.6611C147.604 21.6611 148.584 21.8627 149.425 22.266C150.266 22.6692 150.932 23.2355 151.422 23.9646C151.912 24.6938 152.182 25.55 152.233 26.5333H148.873C148.779 25.898 148.528 25.387 148.122 25.0004C147.72 24.6082 147.194 24.4121 146.542 24.4121C145.991 24.4121 145.509 24.5612 145.097 24.8595C144.69 25.1523 144.373 25.5804 144.144 26.1439C143.916 26.7073 143.802 27.3895 143.802 28.1905C143.802 29.0025 143.913 29.693 144.136 30.262C144.364 30.8309 144.685 31.2646 145.097 31.5629C145.509 31.8612 145.991 32.0103 146.542 32.0103C146.949 32.0103 147.314 31.9275 147.637 31.7617C147.966 31.596 148.236 31.3557 148.448 31.0409C148.665 30.7205 148.807 30.3365 148.873 29.8891H152.233C152.177 30.8613 151.909 31.7175 151.43 32.4578C150.957 33.1925 150.302 33.7669 149.467 34.1813C148.631 34.5955 147.642 34.8027 146.5 34.8027Z" fill="#9198A9"/>
<path id="Vector_16" d="M161.338 21.8266V24.4781H153.609V21.8266H161.338ZM155.364 18.7773H158.923V30.6429C158.923 30.9688 158.974 31.2229 159.074 31.4052C159.174 31.5819 159.313 31.7062 159.492 31.7781C159.676 31.8499 159.887 31.8858 160.127 31.8858C160.294 31.8858 160.461 31.872 160.628 31.8444C160.795 31.8112 160.923 31.7863 161.013 31.7698L161.572 34.3964C161.394 34.4517 161.143 34.5152 160.82 34.587C160.497 34.6643 160.105 34.7113 159.642 34.7279C158.784 34.761 158.032 34.6478 157.386 34.3881C156.745 34.1285 156.247 33.7253 155.891 33.1784C155.534 32.6315 155.358 31.941 155.364 31.1069V18.7773Z" fill="#9198A9"/>
<path id="Vector_17" d="M161.338 21.8266V24.4781H153.609V21.8266H161.338ZM155.364 18.7773H158.923V30.6429C158.923 30.9688 158.974 31.2229 159.074 31.4052C159.174 31.5819 159.313 31.7062 159.492 31.7781C159.676 31.8499 159.887 31.8858 160.127 31.8858C160.294 31.8858 160.461 31.872 160.628 31.8444C160.795 31.8112 160.923 31.7863 161.013 31.7698L161.572 34.3964C161.394 34.4517 161.143 34.5152 160.82 34.587C160.497 34.6643 160.105 34.7113 159.642 34.7279C158.784 34.761 158.032 34.6478 157.386 34.3881C156.745 34.1285 156.247 33.7253 155.891 33.1784C155.534 32.6315 155.358 31.941 155.364 31.1069V18.7773Z" fill="#9198A9"/>
<path id="Vector_18" d="M167.316 34.7944C166.497 34.7944 165.768 34.6536 165.127 34.3718C164.486 34.0846 163.979 33.662 163.606 33.1041C163.239 32.5406 163.055 31.8391 163.055 30.9994C163.055 30.2924 163.186 29.6985 163.448 29.2179C163.709 28.7374 164.066 28.3507 164.517 28.0579C164.968 27.7651 165.481 27.5442 166.055 27.395C166.634 27.2459 167.241 27.1409 167.876 27.0801C168.623 27.0028 169.224 26.931 169.681 26.8647C170.137 26.7929 170.469 26.6879 170.675 26.5499C170.881 26.4118 170.984 26.2074 170.984 25.9367V25.887C170.984 25.3622 170.817 24.9562 170.483 24.6689C170.154 24.3817 169.686 24.2381 169.079 24.2381C168.439 24.2381 167.929 24.3789 167.55 24.6606C167.172 24.9369 166.921 25.2849 166.798 25.7047L163.506 25.4395C163.673 24.6662 164.002 23.9978 164.492 23.4343C164.982 22.8654 165.614 22.429 166.389 22.1252C167.168 21.8158 168.071 21.6611 169.096 21.6611C169.809 21.6611 170.491 21.744 171.143 21.9097C171.801 22.0754 172.383 22.3323 172.89 22.6803C173.402 23.0283 173.806 23.4758 174.101 24.0226C174.396 24.564 174.544 25.213 174.544 25.9698V34.5541H171.168V32.7892H171.068C170.862 33.1869 170.586 33.5377 170.241 33.8415C169.895 34.1398 169.48 34.3746 168.996 34.5458C168.511 34.7115 167.951 34.7944 167.316 34.7944ZM168.335 32.3583C168.859 32.3583 169.322 32.2561 169.723 32.0517C170.124 31.8419 170.439 31.5601 170.667 31.2066C170.895 30.853 171.01 30.4525 171.01 30.0051V28.6545C170.898 28.7263 170.745 28.7926 170.55 28.8534C170.361 28.9086 170.146 28.9611 169.906 29.0108C169.667 29.055 169.427 29.0964 169.188 29.1351C168.948 29.1682 168.731 29.1986 168.536 29.2262C168.118 29.287 167.754 29.3836 167.441 29.5162C167.13 29.6488 166.887 29.8283 166.715 30.0548C166.542 30.2758 166.455 30.552 166.455 30.8834C166.455 31.364 166.631 31.7314 166.982 31.9855C167.339 32.234 167.79 32.3583 168.335 32.3583Z" fill="#9198A9"/>
<path id="Vector_19" d="M167.316 34.7944C166.497 34.7944 165.768 34.6536 165.127 34.3718C164.486 34.0846 163.979 33.662 163.606 33.1041C163.239 32.5406 163.055 31.8391 163.055 30.9994C163.055 30.2924 163.186 29.6985 163.448 29.2179C163.709 28.7374 164.066 28.3507 164.517 28.0579C164.968 27.7651 165.481 27.5442 166.055 27.395C166.634 27.2459 167.241 27.1409 167.876 27.0801C168.623 27.0028 169.224 26.931 169.681 26.8647C170.137 26.7929 170.469 26.6879 170.675 26.5499C170.881 26.4118 170.984 26.2074 170.984 25.9367V25.887C170.984 25.3622 170.817 24.9562 170.483 24.6689C170.154 24.3817 169.686 24.2381 169.079 24.2381C168.439 24.2381 167.929 24.3789 167.55 24.6606C167.172 24.9369 166.921 25.2849 166.798 25.7047L163.506 25.4395C163.673 24.6662 164.002 23.9978 164.492 23.4343C164.982 22.8654 165.614 22.429 166.389 22.1252C167.168 21.8158 168.071 21.6611 169.096 21.6611C169.809 21.6611 170.491 21.744 171.143 21.9097C171.801 22.0754 172.383 22.3323 172.89 22.6803C173.402 23.0283 173.806 23.4758 174.101 24.0226C174.396 24.564 174.544 25.213 174.544 25.9698V34.5541H171.168V32.7892H171.068C170.862 33.1869 170.586 33.5377 170.241 33.8415C169.895 34.1398 169.48 34.3746 168.996 34.5458C168.511 34.7115 167.951 34.7944 167.316 34.7944ZM168.335 32.3583C168.859 32.3583 169.322 32.2561 169.723 32.0517C170.124 31.8419 170.439 31.5601 170.667 31.2066C170.895 30.853 171.01 30.4525 171.01 30.0051V28.6545C170.898 28.7263 170.745 28.7926 170.55 28.8534C170.361 28.9086 170.146 28.9611 169.906 29.0108C169.667 29.055 169.427 29.0964 169.188 29.1351C168.948 29.1682 168.731 29.1986 168.536 29.2262C168.118 29.287 167.754 29.3836 167.441 29.5162C167.13 29.6488 166.887 29.8283 166.715 30.0548C166.542 30.2758 166.455 30.552 166.455 30.8834C166.455 31.364 166.631 31.7314 166.982 31.9855C167.339 32.234 167.79 32.3583 168.335 32.3583Z" fill="#9198A9"/>
<path id="Vector_20" d="M177.371 34.5537V17.584H180.93V23.9642H181.039C181.195 23.6217 181.42 23.2737 181.716 22.9202C182.017 22.5611 182.407 22.2628 182.886 22.0253C183.37 21.7822 183.972 21.6607 184.69 21.6607C185.626 21.6607 186.489 21.9038 187.281 22.3899C188.072 22.8705 188.704 23.5969 189.177 24.5691C189.651 25.5358 189.888 26.7483 189.888 28.2066C189.888 29.6263 189.657 30.825 189.194 31.8027C188.737 32.775 188.113 33.5124 187.322 34.0151C186.537 34.5122 185.657 34.7609 184.682 34.7609C183.991 34.7609 183.404 34.6476 182.919 34.4211C182.44 34.1946 182.047 33.9102 181.741 33.5677C181.435 33.2196 181.2 32.8689 181.039 32.5153H180.88V34.5537H177.371ZM180.855 28.19C180.855 28.9469 180.961 29.607 181.173 30.1704C181.384 30.7338 181.691 31.173 182.092 31.4879C182.493 31.7972 182.98 31.9519 183.554 31.9519C184.133 31.9519 184.624 31.7945 185.025 31.4796C185.426 31.1592 185.729 30.7173 185.935 30.1538C186.147 29.5849 186.253 28.9303 186.253 28.19C186.253 27.4553 186.15 26.8091 185.944 26.2511C185.738 25.6932 185.434 25.2568 185.033 24.942C184.632 24.6271 184.139 24.4697 183.554 24.4697C182.975 24.4697 182.484 24.6216 182.084 24.9254C181.688 25.2292 181.384 25.6601 181.173 26.218C180.961 26.7759 180.855 27.4333 180.855 28.19Z" fill="#9198A9"/>
<path id="Vector_21" d="M177.371 34.5537V17.584H180.93V23.9642H181.039C181.195 23.6217 181.42 23.2737 181.716 22.9202C182.017 22.5611 182.407 22.2628 182.886 22.0253C183.37 21.7822 183.972 21.6607 184.69 21.6607C185.626 21.6607 186.489 21.9038 187.281 22.3899C188.072 22.8705 188.704 23.5969 189.177 24.5691C189.651 25.5358 189.888 26.7483 189.888 28.2066C189.888 29.6263 189.657 30.825 189.194 31.8027C188.737 32.775 188.113 33.5124 187.322 34.0151C186.537 34.5122 185.657 34.7609 184.682 34.7609C183.991 34.7609 183.404 34.6476 182.919 34.4211C182.44 34.1946 182.047 33.9102 181.741 33.5677C181.435 33.2196 181.2 32.8689 181.039 32.5153H180.88V34.5537H177.371ZM180.855 28.19C180.855 28.9469 180.961 29.607 181.173 30.1704C181.384 30.7338 181.691 31.173 182.092 31.4879C182.493 31.7972 182.98 31.9519 183.554 31.9519C184.133 31.9519 184.624 31.7945 185.025 31.4796C185.426 31.1592 185.729 30.7173 185.935 30.1538C186.147 29.5849 186.253 28.9303 186.253 28.19C186.253 27.4553 186.15 26.8091 185.944 26.2511C185.738 25.6932 185.434 25.2568 185.033 24.942C184.632 24.6271 184.139 24.4697 183.554 24.4697C182.975 24.4697 182.484 24.6216 182.084 24.9254C181.688 25.2292 181.384 25.6601 181.173 26.218C180.961 26.7759 180.855 27.4333 180.855 28.19Z" fill="#9198A9"/>
<path id="Vector_22" d="M195.825 17.584V34.5537H192.266V17.584H195.825Z" fill="#9198A9"/>
<path id="Vector_23" d="M195.825 17.584V34.5537H192.266V17.584H195.825Z" fill="#9198A9"/>
<path id="Vector_24" d="M204.523 34.8027C203.203 34.8027 202.067 34.5376 201.114 34.0072C200.167 33.4714 199.437 32.7146 198.925 31.7369C198.413 30.7536 198.156 29.5908 198.156 28.2485C198.156 26.9393 198.413 25.7903 198.925 24.8015C199.437 23.8127 200.159 23.0421 201.089 22.4897C202.025 21.9373 203.122 21.6611 204.381 21.6611C205.228 21.6611 206.016 21.7965 206.746 22.0671C207.481 22.3323 208.122 22.7328 208.668 23.2686C209.219 23.8044 209.648 24.4784 209.955 25.2904C210.261 26.0969 210.414 27.0415 210.414 28.1242V29.0937H199.577V26.9062H207.063C207.063 26.398 206.952 25.9477 206.729 25.5555C206.506 25.1633 206.197 24.8567 205.802 24.6358C205.412 24.4093 204.958 24.296 204.44 24.296C203.899 24.296 203.421 24.4203 203.003 24.6689C202.59 24.912 202.267 25.2407 202.033 25.655C201.799 26.0637 201.68 26.5195 201.674 27.0222V29.1019C201.674 29.7317 201.791 30.2758 202.025 30.7343C202.264 31.1928 202.602 31.5463 203.036 31.7949C203.47 32.0435 203.986 32.1677 204.582 32.1677C204.977 32.1677 205.339 32.1125 205.668 32.002C205.997 31.8916 206.278 31.7259 206.512 31.5049C206.746 31.2839 206.924 31.0133 207.047 30.6928L210.339 30.9083C210.172 31.6927 209.829 32.3777 209.311 32.9632C208.799 33.5432 208.136 33.9962 207.322 34.3221C206.515 34.6425 205.582 34.8027 204.523 34.8027Z" fill="#9198A9"/>
<path id="Vector_25" d="M204.523 34.8027C203.203 34.8027 202.067 34.5376 201.114 34.0072C200.167 33.4714 199.437 32.7146 198.925 31.7369C198.413 30.7536 198.156 29.5908 198.156 28.2485C198.156 26.9393 198.413 25.7903 198.925 24.8015C199.437 23.8127 200.159 23.0421 201.089 22.4897C202.025 21.9373 203.122 21.6611 204.381 21.6611C205.228 21.6611 206.016 21.7965 206.746 22.0671C207.481 22.3323 208.122 22.7328 208.668 23.2686C209.219 23.8044 209.648 24.4784 209.955 25.2904C210.261 26.0969 210.414 27.0415 210.414 28.1242V29.0937H199.577V26.9062H207.063C207.063 26.398 206.952 25.9477 206.729 25.5555C206.506 25.1633 206.197 24.8567 205.802 24.6358C205.412 24.4093 204.958 24.296 204.44 24.296C203.899 24.296 203.421 24.4203 203.003 24.6689C202.59 24.912 202.267 25.2407 202.033 25.655C201.799 26.0637 201.68 26.5195 201.674 27.0222V29.1019C201.674 29.7317 201.791 30.2758 202.025 30.7343C202.264 31.1928 202.602 31.5463 203.036 31.7949C203.47 32.0435 203.986 32.1677 204.582 32.1677C204.977 32.1677 205.339 32.1125 205.668 32.002C205.997 31.8916 206.278 31.7259 206.512 31.5049C206.746 31.2839 206.924 31.0133 207.047 30.6928L210.339 30.9083C210.172 31.6927 209.829 32.3777 209.311 32.9632C208.799 33.5432 208.136 33.9962 207.322 34.3221C206.515 34.6425 205.582 34.8027 204.523 34.8027Z" fill="#9198A9"/>
<g id="Group_2" opacity="0.5">
<path id="Vector_26" d="M27.3501 9.08476C26.8855 8.87076 26.3242 9.07666 26.1087 9.53728C23.1369 15.8002 21.9308 22.3568 23.3066 29.5963C23.4628 29.9523 23.8438 30.1767 24.2109 30.1374C24.3274 30.1294 24.4286 30.1038 24.5474 30.0631C25.0099 29.8501 25.2325 29.2915 25.0175 28.8327C23.9118 22.5139 25.1617 15.9083 27.8222 10.3336C28.0225 9.8555 27.8146 9.29876 27.3501 9.08476Z" fill="#9198A9"/>
<path id="Vector_27" d="M28.2039 15.2876C27.0357 19.2916 26.5698 23.4281 26.8262 27.6495C26.8541 28.1769 27.3068 28.5542 27.8233 28.5093C28.355 28.4818 28.7352 28.0331 28.6897 27.5208C28.4497 23.5305 28.8861 19.5724 30.0047 15.7947C30.1567 15.2967 29.8629 14.783 29.3607 14.632C28.8737 14.4985 28.3559 14.7896 28.2039 15.2876Z" fill="#9198A9"/>
<path id="Vector_28" d="M35.2997 10.6964C34.7951 10.4136 34.1527 10.6041 33.8993 11.121C32.5133 13.9478 30.3089 19.1834 30.8157 27.4108L30.831 27.4283C30.8786 28.3675 30.5005 29.2433 29.7437 29.862C29.0022 30.4983 28.0409 30.7411 27.1129 30.5266C26.6083 30.4082 26.1058 30.7168 26.0019 31.2347C25.8828 31.7351 26.1943 32.2336 26.7165 32.3368C27.1729 32.4353 27.6341 32.4685 28.0823 32.4515C29.1305 32.3791 30.1366 31.9753 30.9816 31.2809C32.1798 30.2835 32.8159 28.8188 32.7121 27.2845C32.7121 27.2845 32.6968 27.267 32.7145 27.2518C32.2477 19.5352 34.2864 14.6764 35.6916 12.0846C35.9593 11.591 35.7917 10.9722 35.2997 10.6964Z" fill="#9198A9"/>
<path id="Vector_29" d="M22.7418 9.84608C22.2454 9.65396 21.685 9.89682 21.4895 10.3883C20.7232 12.0171 20.2691 13.6698 20.0256 15.5395C19.9573 16.0633 20.3342 16.5152 20.8504 16.5632C21.3784 16.6311 21.8339 16.2575 21.882 15.7455C22.1838 14.0589 22.5877 13.0457 23.2997 11.0377C23.4702 10.5569 23.2205 10.0314 22.7418 9.84608Z" fill="#9198A9"/>
<path id="Vector_30" d="M14.7852 35.8782C14.3761 36.1896 14.2866 36.776 14.6008 37.1819C15.3072 38.1114 16.1152 38.9794 17.0103 39.7362C17.2018 39.9077 17.4631 39.9837 17.7284 39.9615C17.9607 39.938 18.1798 39.832 18.3527 39.6422C18.6984 39.2627 18.656 38.671 18.2731 38.328C17.4902 37.6577 16.7614 36.8747 16.1329 36.0631C15.7856 35.6559 15.1943 35.5668 14.7852 35.8782Z" fill="#9198A9"/>
<path id="Vector_31" d="M40.6818 36.0878C40.271 35.7738 39.6762 35.8353 39.3598 36.2425C35.2147 41.4378 27.4586 43.268 21.3174 40.4587C20.84 40.2426 20.2937 40.4517 20.076 40.9251C19.8583 41.3985 20.0695 41.9403 20.5469 42.1564C27.4053 45.261 36.156 43.2694 40.8551 37.3826C41.1549 36.9916 41.0926 36.4017 40.6818 36.0878Z" fill="#9198A9"/>
<path id="Vector_32" d="M12.939 18.2917C12.516 18.2501 12.1164 18.497 11.9885 18.8989C10.6658 23.0568 10.596 28.6316 12.2339 33.2273C12.3811 33.6109 12.7329 33.8403 13.1159 33.8427C13.2326 33.842 13.3352 33.8229 13.4237 33.7853C13.913 33.6203 14.171 33.0768 14.0044 32.5914C12.4537 28.3174 12.8241 23.6701 13.7617 19.4286C13.8826 18.8817 13.5008 18.3469 12.939 18.2917Z" fill="#9198A9"/>
<path id="Vector_33" d="M42.9657 18.2917C43.3886 18.2501 43.7882 18.497 43.9161 18.8989C45.2388 23.0568 45.3086 28.6316 43.6708 33.2273C43.5235 33.6109 43.1717 33.8403 42.7888 33.8427C42.672 33.842 42.5694 33.8229 42.4809 33.7853C41.9916 33.6203 41.7336 33.0768 41.9003 32.5914C43.4509 28.3174 43.0805 23.6701 42.1429 19.4286C42.022 18.8817 42.4039 18.3469 42.9657 18.2917Z" fill="#9198A9"/>
<path id="Vector_34" d="M38.8783 12.6609C38.4195 12.4274 37.8466 12.598 37.6111 13.0533C37.3052 13.4765 36.8726 14.498 36.7708 15.1013C36.6963 15.3462 36.7389 15.613 36.8726 15.8413C36.9934 16.0395 37.1837 16.1905 37.4306 16.2643C37.9244 16.4118 38.4455 16.1207 38.5944 15.6308C38.7316 15.1795 38.9693 14.4195 39.2863 13.948C39.6033 13.4765 39.3372 12.8944 38.8783 12.6609Z" fill="#9198A9"/>
<path id="Vector_35" d="M17.5947 12.2466C17.1059 12.0836 16.5651 12.337 16.4007 12.822C16.1619 13.2857 15.8877 14.6742 15.8778 15.2858C15.841 15.539 15.9232 15.7965 16.0898 16.0025C16.239 16.1805 16.4499 16.3017 16.7052 16.3382C17.2156 16.411 17.6872 16.0461 17.7607 15.5396C17.8285 15.073 18.0278 14.0174 18.1917 13.4589C18.3557 12.9004 18.0836 12.4096 17.5947 12.2466Z" fill="#9198A9"/>
<path id="Vector_36" d="M31.5737 9.57692C31.1148 9.34346 30.542 9.51399 30.3065 9.96927C30.0005 10.3925 29.5679 11.4141 29.4661 12.0173C29.3917 12.2623 29.4342 12.529 29.5679 12.7573C29.6887 12.9555 29.879 13.1065 30.1259 13.1803C30.6197 13.3278 31.1409 13.0367 31.2898 12.5468C31.4269 12.0955 31.6646 11.3355 31.9816 10.864C32.2986 10.3925 32.0325 9.81038 31.5737 9.57692Z" fill="#9198A9"/>
<path id="Vector_37" d="M42.5346 15.7555C42.5346 16.2763 42.1089 16.6985 41.5837 16.6985C41.0585 16.6985 40.6328 16.2763 40.6328 15.7555C40.6328 15.2347 41.0585 14.8125 41.5837 14.8125C42.1089 14.8125 42.5346 15.2347 42.5346 15.7555Z" fill="#9198A9"/>
</g>
<path id="Vector_38" d="M15.3164 27.393C15.3164 30.1577 16.3989 32.1557 17.9747 33.4804C20.7166 35.7854 24.9275 36.1285 28.1427 34.6392C28.0059 34.6469 27.8681 34.6508 27.7294 34.6508C23.7185 34.6508 20.467 31.4014 20.467 27.393L20.467 18.5831C20.467 18.0189 20.0058 17.5615 19.4369 17.5615C17.1612 17.5615 15.3164 19.391 15.3164 21.6477V27.393Z" fill="#9198A9"/>
<path id="Vector_39" d="M17.7773 34.8068C20.0406 37.8365 23.6564 39.7982 27.7307 39.7982C34.5862 39.7982 40.1437 34.2442 40.1437 27.393V18.5831C40.1437 18.0189 39.6825 17.5615 39.1135 17.5615C36.8379 17.5615 34.993 19.391 34.993 21.6477V27.393C34.993 35.7604 24.0453 39.2774 17.7773 34.8068Z" fill="#9198A9"/>
</g>
</g>
</g>
</g>
</g>
<defs>
<clipPath id="clip0_6795_41594">
<rect width="200" height="35" fill="white" transform="translate(11 9)"/>
</clipPath>
</defs>
</svg>
