<svg width="197" height="52" viewBox="0 0 197 52" fill="none" xmlns="http://www.w3.org/2000/svg">
<g id="Group 4528">
<g id="mlogo.80e02913954185729616ab6a1c6ae12d (1) 1" clip-path="url(#clip0_6795_40669)">
<g id="&#229;&#155;&#190;&#229;&#177;&#130; 2">
<g id="&#229;&#155;&#190;&#229;&#177;&#130; 1">
<path id="&#232;&#183;&#175;&#229;&#190;&#132; 1" fill-rule="evenodd" clip-rule="evenodd" d="M149.766 30.9527C148.558 30.6917 149.273 30.2954 149.084 29.2678C148.919 28.3577 148.115 27.4647 148.139 26.791C148.205 24.9685 150.481 25.1061 151.86 25.6622C152.195 25.8737 152.476 26.1621 152.682 26.5047C153.313 27.44 154.062 28.8045 153.083 29.8745C152.66 30.3127 152.142 30.6431 151.571 30.8391C151 31.0351 150.393 31.0914 149.797 31.0033" fill="#9198A9"/>
<path id="&#232;&#183;&#175;&#229;&#190;&#132; 2" fill-rule="evenodd" clip-rule="evenodd" d="M136.044 29.0566L135.93 29.006V28.6104C137.192 27.8705 138.413 27.0577 139.586 26.1759C140.592 25.4895 141.328 24.4597 141.664 23.2693C139.313 24.0612 137.088 25.7973 134.657 26.0072C133.718 25.6797 132.815 25.2534 131.962 24.735V24.6003C130.672 23.7579 130.557 22.6291 131.962 22.1488C134.427 22.705 138.154 20.9107 140.465 20.0089C141.327 19.7147 142.141 19.2888 142.88 18.7455C143.422 15.4344 143.069 12.1069 143.258 8.93934C144.079 6.63949 145.443 8.198 146.823 9.35087C146.922 9.53606 147.233 9.74652 147.511 10.1933H147.651C148.234 11.154 148.396 11.5919 147.486 12.4861C146.86 14.0909 146.58 15.8157 146.665 17.542C148.308 17.2975 149.359 15.7895 151.315 15.756C151.567 16.1497 151.662 16.6285 151.577 17.0919C151.493 17.5553 151.237 17.9671 150.863 18.2411C149.442 18.9401 147.897 19.5638 146.287 20.3134C145.946 22.1468 145.201 23.8761 144.108 25.3693C143.754 25.783 143.366 26.1662 142.95 26.5151C141.983 27.2098 140.935 27.776 139.829 28.2C138.611 28.6401 137.345 28.9224 136.059 29.0401" fill="#9198A9"/>
<path id="&#232;&#183;&#175;&#229;&#190;&#132; 3" fill-rule="evenodd" clip-rule="evenodd" d="M105.839 34.71C104.686 33.9966 103.711 33.019 102.988 31.854C103.095 31.5336 103.202 31.2138 103.325 30.9133C106.118 28.9187 108.769 26.7249 111.261 24.3483C112.017 23.1607 112.995 21.922 113.808 20.751C113.849 20.7228 113.897 20.7055 113.947 20.7004C113.944 20.6583 113.944 20.616 113.947 20.574C114.646 20.0178 114.941 19.8685 115.533 20.7845C115.582 21.5593 114.235 22.3765 113.816 23.1014C113.29 24.4747 112.691 25.8727 112.009 27.3137C111.588 27.8363 111.219 28.4007 110.908 28.9986C110.021 29.8653 109.3 30.8938 108.78 32.0315C107.959 32.5454 107.548 34.1121 106.505 34.66C106.285 34.6719 106.065 34.6972 105.848 34.7359" fill="#9198A9"/>
<path id="&#232;&#183;&#175;&#229;&#190;&#132; 4" fill-rule="evenodd" clip-rule="evenodd" d="M122.015 24.8598C120.322 24.784 119.846 23.6805 118.926 22.6693C118.926 22.2143 119.164 21.945 119.205 21.6246C119.448 21.5909 119.681 21.5017 119.887 21.3636C120.593 21.2625 120.848 21.3048 121.612 21.2542C122.589 21.0267 125.078 19.266 125.917 20.0244C126.04 22.1302 123.805 24.2366 122.014 24.8598" fill="#9198A9"/>
<path id="&#232;&#183;&#175;&#229;&#190;&#132; 5" fill-rule="evenodd" clip-rule="evenodd" d="M109.034 21.5408C108.393 20.9594 108.262 18.2803 108.213 17.4379C108.689 15.947 110.162 15.8876 111.384 16.8564C112.361 18.1704 113.027 18.7183 112 20.2263C111.203 21.021 110.145 21.4808 109.034 21.5149" fill="#9198A9"/>
<path id="&#232;&#183;&#175;&#229;&#190;&#132; 6" fill-rule="evenodd" clip-rule="evenodd" d="M121.598 20.2452C121.426 19.4027 122.515 17.7172 122.206 17.2716C121.795 17.3304 121.384 17.4909 120.949 17.5162C119.93 17.0106 118.813 15.7384 119.224 14.7613C119.969 13.9188 119.683 14.1146 120.867 14.037C121.984 13.5232 123.103 13.0258 124.235 12.529C126.133 12.1669 127.004 13.2345 127.119 15.1405C126.707 16.3256 126.052 17.406 125.197 18.3081C124.195 18.8724 123.282 19.4956 122.371 20.1111C122.112 20.1292 121.856 20.1743 121.607 20.2458" fill="#9198A9"/>
<path id="&#232;&#183;&#175;&#229;&#190;&#132; 7" fill-rule="evenodd" clip-rule="evenodd" d="M111.186 14.742C110.785 14.3799 110.948 14.1859 111.186 13.8155C111.137 13.0154 110.67 12.3663 110.619 11.5997C110.874 10.1847 110.619 9.67083 111.753 8.98828C112.64 9.39275 115.729 11.0101 115.039 12.7879C114.038 13.8735 112.698 14.5649 111.251 14.742" fill="#9198A9"/>
<path id="&#232;&#183;&#175;&#229;&#190;&#132; 8" fill-rule="evenodd" clip-rule="evenodd" d="M71.1709 36.0678C69.3306 35.3435 67.7312 31.6115 69.9469 30.6932C69.9798 30.5265 70.0514 30.3705 70.1559 30.2384C70.2603 30.1064 70.3944 30.0022 70.5466 29.9348C70.543 29.8871 70.543 29.8391 70.5466 29.7914C72.3296 28.0224 73.4956 25.5791 74.9994 23.5996C75.3852 22.8583 75.591 22.1422 76.4126 21.9147C76.8316 22.2857 76.6837 23.1364 76.5685 23.7848C76.7491 23.9536 77.39 23.8272 77.7678 23.709C79.0084 22.6055 80.6268 21.6449 81.8755 20.4908C81.9414 19.9265 81.9987 19.3621 82.0893 18.8059C81.2185 19.0164 78.3841 19.6989 79.0663 18.0564C80.1264 17.6266 81.7442 16.6919 82.3525 15.5284C82.6236 14.332 82.4671 13.0004 83.0588 12.1586C84.2501 11.5266 85.6627 13.0686 85.9012 14.3926C86.3776 15.235 87.8727 14.1821 86.0158 16.8694C85.6214 17.1633 85.638 17.7119 85.712 18.3603H86.1225C87.206 17.5372 88.3302 16.7719 89.4906 16.0675C89.6956 14.4609 90.168 12.9023 90.8871 11.4596C92.0452 10.6171 93.6143 11.5272 94.7402 12.4537C95.5619 12.3658 96.334 12.0083 96.9417 11.4343C97.2279 11.3401 97.5302 11.3085 97.8291 11.3414C98.0692 11.7996 98.1935 12.3122 98.1909 12.8323C97.6405 14.5848 92.7446 15.1574 93.6888 17.1963C94.5103 17.1375 94.8308 16.1851 95.1513 15.5114C96.1041 14.9893 98.1743 15.6207 99.1683 16.3538C100.286 17.7436 99.4229 18.2157 98.1909 19.0916C98.0596 19.2768 97.9363 19.4708 97.8291 19.656C97.7472 22.4527 97.7472 22.4527 97.8291 26.244C97.4981 27.1293 96.9886 27.933 96.334 28.6027V28.7202H96.1287C95.6523 29.5627 94.4857 30.4051 93.8121 29.5627C93.8121 26.4468 93.968 23.2193 93.8614 20.2957C93.8096 20.3036 93.7595 20.3207 93.7134 20.3462C93.4916 21.8624 92.0131 24.7102 90.7478 25.6449C90.2189 25.688 89.6909 25.5513 89.2453 25.2559C88.7997 24.9605 88.4614 24.5228 88.2826 24.0106C88.4059 23.699 88.6266 23.6314 88.8743 23.4127C89.5313 22.0311 89.3329 19.4867 89.3329 18.1304C88.3801 18.2739 86.7863 20.4726 86.0468 21.2898C85.5704 21.6855 85.0854 22.0735 84.6176 22.4691C84.2805 23.6232 84.0179 24.7619 83.7221 25.9965C83.4675 26.5438 83.213 27.1253 82.9498 27.6814H82.8186C82.3748 28.4457 80.9376 30.4616 80.0828 29.1976V28.7008C80.8135 27.585 81.2468 26.2925 81.3395 24.9518C80.1814 25.3475 79.4092 26.4345 78.2437 26.5103C77.6267 26.3959 77.0271 26.1982 76.4607 25.9224C76.4572 25.8776 76.4572 25.8326 76.4607 25.7878C76.1741 25.6026 75.8874 25.3498 75.7154 25.4168C75.5016 26.0823 75.2964 26.7813 75.0991 27.4745C73.9176 30.025 72.9584 32.6778 72.2327 35.4017C71.9683 35.7359 71.5948 35.9604 71.1812 36.0337" fill="#9198A9"/>
<path id="&#232;&#183;&#175;&#229;&#190;&#132; 9" fill-rule="evenodd" clip-rule="evenodd" d="M73.4614 21.2013C73.0997 20.6622 73.5434 19.9631 73.56 19.3394C72.993 17.5786 72.5413 16.2647 73.634 14.782L74.1597 14.7314C75.1439 15.5421 76.0194 16.4824 76.7636 17.5281C77.5851 19.6339 74.948 20.5775 73.4775 21.1924" fill="#9198A9"/>
<path id="&#232;&#183;&#175;&#229;&#190;&#132; 10" fill-rule="evenodd" clip-rule="evenodd" d="M75.1149 14.3905C74.6797 14.2388 74.6878 14.1377 74.6058 13.986C74.811 13.5563 75.0071 13.3035 74.9263 12.8655C73.8748 11.1806 73.9322 8.65323 75.7478 7.86133C76.2815 7.92894 76.2901 8.39044 76.5693 9.13354C77.752 10.3129 79.9518 11.7703 77.8673 13.3458C76.9884 13.7415 76.0327 14.0513 75.1562 14.3652" fill="#9198A9"/>
<path id="&#232;&#183;&#175;&#229;&#190;&#132; 11" fill-rule="evenodd" clip-rule="evenodd" d="M162.853 20.8519C161.21 20.3299 161.514 17.5597 161.793 16.4374C162.993 15.6538 164.57 17.2799 164.66 18.7302C164.347 20.3223 164.364 20.5586 162.852 20.8531" fill="#9198A9"/>
<path id="&#232;&#183;&#175;&#229;&#190;&#132; 12" fill-rule="evenodd" clip-rule="evenodd" d="M171.748 33.6339L171.609 33.5498C169.577 33.716 167.534 33.458 165.603 32.7914C165.529 32.6616 165.495 32.5118 165.505 32.3617C166.614 31.6962 168.182 31.8814 169.037 30.6768C169.193 29.8442 169.243 28.9945 169.185 28.1488C167.098 28.2752 165.981 29.8337 164.33 30.4063C162.917 30.4904 160.395 29.1764 159.984 28.0224C159.984 26.1605 160.362 26.9948 162.309 26.8766C164.626 26.4557 166.942 25.0823 169.185 24.08C169.401 23.8718 169.654 23.7087 169.93 23.5996C170.423 22.0494 170.752 21.7713 172.346 21.4597C172.962 21.1393 172.962 21.1393 174.761 20.0276C174.802 19.8419 174.854 19.6591 174.917 19.4802C172.19 19.8171 169.987 22.0835 167.808 23.5744C166.931 23.8377 165.99 23.7562 165.168 23.3457C164.692 23.4133 161.981 23.9101 163.295 22.7983C164.117 22.4779 164.716 21.88 165.571 21.4926C167.616 20.0858 169.985 18.8724 172.192 17.5755C172.184 17.3452 172.11 17.1225 171.979 16.9352C171.982 16.5614 172.057 16.1919 172.201 15.8482C171.79 15.9999 171.675 15.9658 171.593 16.2862C170.287 16.8741 169.728 18.0975 168.635 16.8083C168.538 17.3624 168.262 17.8672 167.853 18.2426C167.444 18.618 166.924 18.8426 166.376 18.8806C165.209 18.2657 165.177 16.2603 164.971 15.3338C164.889 15.2162 164.725 14.4408 164.404 13.5395C163.871 12.4361 162.893 11.1974 163.545 10.1697C164.366 9.64766 164.711 9.45366 165.417 10.6077C166.161 11.1583 166.827 11.8111 167.397 12.5478H167.528C167.898 13.5672 168.81 14.9064 168.711 16.2039C169.327 15.8329 170.198 15.1086 169.746 14.3085C168.736 13.7524 169.311 12.7835 170.018 12.4272C170.401 12.4572 170.787 12.443 171.168 12.3849C171.174 12.311 171.163 12.2367 171.136 12.1679C171.109 12.0991 171.066 12.0379 171.012 11.9893C170.19 11.6859 170.33 11.4837 170.553 10.7764C170.342 10.7109 170.147 10.6001 169.98 10.4515C169.814 10.3029 169.68 10.1197 169.587 9.91418C169.495 9.70862 169.446 9.48531 169.444 9.25899C169.442 9.03267 169.487 8.80848 169.576 8.60121C172.435 7.8681 172.435 7.8681 173.765 7.43011C174.657 6.29665 175.618 3.219 177.343 3.75811C177.96 4.56228 178.254 5.57792 178.164 6.59706C177.896 7.02111 177.691 7.48404 177.556 7.97039H178.072C179.264 7.36368 179.814 6.63939 180.538 8.45894C181.696 9.09916 182.107 8.92925 181.671 10.6494C180.849 12.3767 179.929 14.2215 179.001 15.957C178.989 16.0349 178.989 16.1142 179.001 16.1921C179.215 16.2313 179.428 16.2819 179.642 16.3438C179.761 17.2341 179.802 18.1334 179.765 19.0311C179.05 20.1181 178.122 20.1181 177.005 20.2692C175.551 21.0105 174.245 21.6255 172.897 22.4597C172.866 22.7689 172.897 23.0815 172.988 23.378H175.102C175.882 23.9001 175.817 25.3575 175.331 26.2087C174.638 26.2572 173.963 26.4576 173.352 26.7966C173.278 27.1929 173.204 27.5968 173.138 28.0095C173.187 29.5598 173.96 33.3082 171.733 33.6621M176.191 14.5501C176.548 14.2538 176.836 13.8788 177.032 13.4529C177.228 13.0271 177.328 12.5614 177.325 12.0904C176.672 11.6429 175.888 11.4433 175.107 11.526C174.896 12.099 174.62 12.6448 174.285 13.1521L174.507 13.2532C174.434 13.2722 174.365 13.3036 174.302 13.3461C174.31 13.3925 174.324 13.4377 174.343 13.4808C174.476 13.4743 174.605 13.4309 174.716 13.3552C174.827 13.2796 174.916 13.1744 174.974 13.051C176.074 12.8658 176.099 13.2703 176.017 14.4749C176.067 14.4935 176.114 14.5191 176.157 14.5507" fill="#9198A9"/>
<path id="&#232;&#183;&#175;&#229;&#190;&#132; 13" d="M74.3906 43.2003L77.6194 39.1144H74.6452V38.4736H78.5063V39.0968L75.2775 43.1909H78.5063V43.8376H74.3906V43.2003Z" fill="#9198A9"/>
<path id="&#232;&#183;&#175;&#229;&#190;&#132; 14" d="M80.1172 38.4736H80.8235V40.6724H83.5512V38.4736H84.2661V43.84H83.5512V41.312H80.8235V43.84H80.1172V38.4736Z" fill="#9198A9"/>
<path id="&#232;&#183;&#175;&#229;&#190;&#132; 15" d="M86.1719 43.84V38.4736H90.0003V39.1139H86.8782V40.7564H89.7286V41.3967H86.8782V43.1909H90.0313V43.8376L86.1719 43.84Z" fill="#9198A9"/>
<path id="&#232;&#183;&#175;&#229;&#190;&#132; 16" d="M93.6646 38.4736H94.3709V42.332C94.4022 42.7767 94.2603 43.216 93.9764 43.5537C93.8336 43.7018 93.6614 43.8168 93.4715 43.891C93.2816 43.9651 93.0785 43.9966 92.8757 43.9834C92.6699 43.9975 92.4634 43.969 92.2686 43.8995C92.0738 43.83 91.8946 43.721 91.7417 43.5789C91.6063 43.4331 91.5031 43.2591 91.4393 43.0686C91.3754 42.8782 91.3525 42.6758 91.372 42.4755V42.1045H92.0375V42.4755C92.02 42.7136 92.0936 42.9493 92.2428 43.1327C92.3169 43.2138 92.4077 43.2769 92.5085 43.3176C92.6093 43.3583 92.7177 43.3754 92.8258 43.3679C92.9419 43.3688 93.0568 43.3445 93.163 43.2966C93.2693 43.2486 93.3644 43.1782 93.4421 43.0898C93.5979 42.8702 93.6761 42.6027 93.664 42.3314L93.6646 38.4736Z" fill="#9198A9"/>
<path id="&#232;&#183;&#175;&#229;&#190;&#132; 17" d="M96.3184 38.4736H97.0247V43.84H96.3184V38.4736Z" fill="#9198A9"/>
<path id="&#232;&#183;&#175;&#229;&#190;&#132; 18" d="M100.491 38.4736H101.313L103.194 43.8317H102.43L101.879 42.2814H99.7925L99.2421 43.8317H98.5117L100.491 38.4736ZM100.023 41.6412H101.665L100.843 39.2573L100.023 41.6412Z" fill="#9198A9"/>
<path id="&#232;&#183;&#175;&#229;&#190;&#132; 19" d="M105.238 43.84H104.557V38.4736H105.403L108.023 42.8288V38.4736H108.707V43.84H107.935L105.241 39.4595L105.238 43.84Z" fill="#9198A9"/>
<path id="&#232;&#183;&#175;&#229;&#190;&#132; 20" d="M113.065 43.9856C112.732 43.9976 112.401 43.9335 112.096 43.7979C111.79 43.6624 111.518 43.4588 111.299 43.2019C110.837 42.6308 110.6 41.9039 110.633 41.1631C110.594 40.4129 110.838 39.676 111.315 39.1055C111.737 38.6596 112.302 38.3851 112.906 38.3325C113.509 38.2799 114.111 38.4527 114.601 38.8192C114.799 38.9676 114.966 39.1564 115.09 39.3738C115.215 39.5911 115.294 39.8324 115.324 40.0826H114.642C114.619 39.9146 114.562 39.7532 114.476 39.6083C114.39 39.4635 114.276 39.3382 114.141 39.2401C113.827 39.0362 113.46 38.9363 113.09 38.9538C112.851 38.9472 112.614 38.9987 112.398 39.1042C112.182 39.2097 111.994 39.366 111.849 39.5605C111.544 40.0372 111.381 40.5951 111.381 41.1655C111.381 41.7358 111.544 42.2937 111.849 42.7704C112.005 42.9626 112.203 43.1146 112.427 43.214C112.652 43.3135 112.895 43.3577 113.139 43.343C113.387 43.3497 113.634 43.2985 113.86 43.1935C114.086 43.0884 114.286 42.9321 114.445 42.7363C114.498 42.6739 114.545 42.6062 114.585 42.5341C114.655 42.4114 114.705 42.2777 114.733 42.1384C114.771 41.9814 114.79 41.82 114.79 41.6581V41.5905H113.147V40.9779H115.431V43.8169H114.987L114.823 43.1432C114.618 43.3979 114.359 43.6011 114.065 43.7369C113.772 43.8728 113.452 43.9378 113.13 43.9268" fill="#9198A9"/>
<path id="&#232;&#183;&#175;&#229;&#190;&#132; 21" d="M124.422 41.8698C124.448 42.1536 124.413 42.4398 124.32 42.7082C124.226 42.9765 124.076 43.2204 123.88 43.4225C123.684 43.6245 123.446 43.7798 123.185 43.8772C122.924 43.9747 122.645 44.0119 122.368 43.9863C122.09 44.0048 121.811 43.9668 121.547 43.8742C121.284 43.7817 121.041 43.6366 120.832 43.4472C120.646 43.2342 120.503 42.9849 120.413 42.7142C120.322 42.4435 120.286 42.157 120.306 41.8716V38.5H121.012V41.8698C120.982 42.2801 121.105 42.6869 121.356 43.0074C121.635 43.2575 121.993 43.3954 122.363 43.3954C122.733 43.3954 123.091 43.2575 123.369 43.0074C123.621 42.6869 123.744 42.2801 123.713 41.8698V38.5H124.42L124.422 41.8698Z" fill="#9198A9"/>
<path id="&#232;&#183;&#175;&#229;&#190;&#132; 22" d="M127.108 43.84H126.42V38.4736H127.274L129.895 42.8288V38.4736H130.576V43.84H129.804L127.11 39.4595L127.108 43.84Z" fill="#9198A9"/>
<path id="&#232;&#183;&#175;&#229;&#190;&#132; 23" d="M132.521 38.4736H133.228V43.84H132.521V38.4736Z" fill="#9198A9"/>
<path id="&#232;&#183;&#175;&#229;&#190;&#132; 24" d="M134.607 38.4736H135.396L136.899 43.0592L138.395 38.4736H139.183L137.279 43.84H136.515L134.607 38.4736Z" fill="#9198A9"/>
<path id="&#232;&#183;&#175;&#229;&#190;&#132; 25" d="M140.539 43.84V38.4736H144.359V39.1139H141.245V40.7564H144.088V41.3967H141.245V43.1909H144.398V43.8376L140.539 43.84Z" fill="#9198A9"/>
<path id="&#232;&#183;&#175;&#229;&#190;&#132; 26" d="M146.289 38.476H148.754C149.206 38.4418 149.654 38.5733 150.019 38.847C150.17 38.9807 150.287 39.1487 150.363 39.3375C150.439 39.5263 150.47 39.7306 150.455 39.934C150.467 40.192 150.408 40.4481 150.284 40.6732C150.16 40.8982 149.978 41.083 149.756 41.2062L149.88 41.265C150.037 41.3618 150.165 41.5003 150.252 41.6659C150.339 41.8314 150.381 42.0179 150.373 42.2057V43.1828C150.37 43.3038 150.392 43.4241 150.439 43.5355C150.485 43.6166 150.558 43.6789 150.644 43.7119V43.8294H149.773C149.737 43.7179 149.717 43.6013 149.716 43.4838C149.721 43.2779 149.707 43.072 149.674 42.8688V42.4479C149.687 42.1867 149.602 41.9303 149.436 41.7318C149.223 41.5708 148.96 41.4959 148.696 41.5214H147.053V43.8294H146.346L146.289 38.476ZM146.995 40.8941H148.745C149.004 40.9151 149.262 40.837 149.468 40.6748C149.55 40.58 149.611 40.469 149.649 40.3488C149.688 40.2286 149.701 40.1016 149.69 39.9758C149.701 39.8524 149.685 39.7281 149.644 39.6116C149.603 39.4951 149.537 39.3895 149.451 39.302C149.235 39.134 148.966 39.0556 148.696 39.0828H146.995V40.8941Z" fill="#9198A9"/>
<path id="&#232;&#183;&#175;&#229;&#190;&#132; 27" d="M155.53 40.023C155.521 39.8713 155.481 39.7232 155.414 39.5883C155.346 39.4533 155.251 39.3344 155.135 39.2393C154.868 39.0449 154.545 38.9497 154.218 38.9695C153.897 38.9452 153.577 39.0277 153.306 39.2046C153.205 39.2866 153.124 39.3918 153.07 39.5118C153.015 39.6318 152.99 39.7632 152.994 39.8954C152.989 39.9849 153.005 40.0743 153.043 40.1554C153.08 40.2364 153.137 40.3064 153.208 40.3587C153.463 40.5059 153.741 40.6084 154.029 40.662L154.942 40.8895C155.331 40.9556 155.694 41.1371 155.985 41.4116C156.207 41.6879 156.319 42.0402 156.297 42.3975C156.305 42.6206 156.26 42.8423 156.165 43.0433C156.071 43.2444 155.93 43.4189 155.755 43.5515C155.332 43.8588 154.819 44.0103 154.301 43.9813C153.726 44.0174 153.158 43.8412 152.699 43.4845C152.512 43.3234 152.364 43.1202 152.266 42.8909C152.167 42.6615 152.122 42.4121 152.132 42.1618V42.1194H152.814C152.813 42.2923 152.85 42.4632 152.923 42.6193C152.995 42.7754 153.101 42.9126 153.233 43.0207C153.555 43.2484 153.943 43.3582 154.334 43.3323C154.677 43.3594 155.021 43.2801 155.32 43.1047C155.428 43.0321 155.516 42.9317 155.575 42.8136C155.634 42.6955 155.662 42.5636 155.656 42.431C155.664 42.3246 155.648 42.2177 155.61 42.1185C155.571 42.0194 155.511 41.9304 155.435 41.8584C155.162 41.6875 154.861 41.5703 154.547 41.5127L153.635 41.2852C153.269 41.2244 152.926 41.0645 152.641 40.8219C152.54 40.7086 152.463 40.5755 152.414 40.4307C152.364 40.286 152.344 40.1325 152.354 39.9795C152.343 39.7496 152.383 39.5201 152.471 39.3084C152.56 39.0968 152.694 38.9085 152.863 38.7578C153.253 38.4388 153.745 38.2798 154.243 38.3116C154.749 38.2814 155.248 38.4399 155.648 38.7578C155.821 38.9139 155.96 39.1055 156.056 39.3204C156.153 39.5352 156.204 39.7684 156.206 40.0048L155.53 40.023Z" fill="#9198A9"/>
<path id="&#232;&#183;&#175;&#229;&#190;&#132; 28" d="M158.037 38.4736H158.743V43.84H158.037V38.4736Z" fill="#9198A9"/>
<path id="&#232;&#183;&#175;&#229;&#190;&#132; 29" d="M162.006 39.1139H160.229V38.4736H164.475V39.1139H162.709V43.84H162.003L162.006 39.1139Z" fill="#9198A9"/>
<path id="&#232;&#183;&#175;&#229;&#190;&#132; 30" d="M167.681 41.6918L165.709 38.4736H166.531L168.034 41.0768L169.537 38.4736H170.358L168.387 41.7V43.84H167.681V41.6918Z" fill="#9198A9"/>
<path id="&#232;&#183;&#175;&#229;&#190;&#132; 31" d="M36.4624 1.52539C41.0719 1.52539 45.5779 2.92709 49.4106 5.55323C53.2433 8.17938 56.2305 11.912 57.9945 16.2791C59.7585 20.6462 60.22 25.4517 59.3207 30.0878C58.4215 34.7239 56.2018 38.9824 52.9423 42.3249C49.6829 45.6673 45.5302 47.9436 41.0092 48.8658C36.4883 49.7879 31.8022 49.3146 27.5435 47.5057C23.2849 45.6968 19.645 42.6335 17.084 38.7032C14.5231 34.7729 13.1563 30.1521 13.1562 25.4252C13.1563 19.0866 15.6117 13.0076 19.9825 8.52548C24.3532 4.0434 30.2812 1.52539 36.4624 1.52539ZM36.4624 2.4772C32.0365 2.4772 27.7099 3.82307 24.0299 6.34463C20.3498 8.86619 17.4816 12.4502 15.7878 16.6434C14.0941 20.8366 13.6509 25.4506 14.5144 29.9021C15.3779 34.3536 17.5092 38.4425 20.6388 41.6519C23.7684 44.8612 27.7558 47.0468 32.0967 47.9322C36.4376 48.8177 40.937 48.3632 45.0261 46.6264C49.1151 44.8895 52.6101 41.9482 55.069 38.1744C57.5279 34.4006 58.8404 29.9639 58.8404 25.4252C58.8404 19.339 56.4827 13.5021 52.286 9.19851C48.0893 4.89492 42.3974 2.4772 36.4624 2.4772Z" fill="#9198A9"/>
<path id="&#232;&#183;&#175;&#229;&#190;&#132; 32" d="M28.2703 35.6082C26.8003 34.3537 25.6169 32.7835 24.8036 31.0085C23.7814 28.7705 23.3922 26.2833 23.6802 23.8297C23.9681 21.376 24.9217 19.0545 26.4325 17.1291C27.9432 15.2037 29.9506 13.7517 32.2262 12.9382C34.5018 12.1246 36.9544 11.9823 39.305 12.5272C41.6556 13.0722 43.8099 14.2827 45.5229 16.021C47.2359 17.7592 48.4389 19.9556 48.995 22.3602C49.5512 24.7648 49.4381 27.2812 48.6688 29.6232C47.8994 31.9652 46.5046 34.0388 44.643 35.6082L44.3719 35.2208C46.1626 33.706 47.503 31.7063 48.2406 29.4492C48.9782 27.192 49.0835 24.7679 48.5444 22.4524C48.0053 20.137 46.8435 18.0231 45.1911 16.3511C43.5387 14.6791 41.462 13.516 39.1971 12.9942C36.9322 12.4723 34.5699 12.6126 32.3788 13.399C30.1878 14.1855 28.2558 15.5866 26.8027 17.443C25.3495 19.2994 24.4335 21.5367 24.1586 23.9005C23.8838 26.2643 24.2612 28.6597 25.2479 30.8145C26.0287 32.513 27.1613 34.0165 28.5667 35.2202L28.2703 35.6082Z" fill="#9198A9"/>
<path id="&#232;&#183;&#175;&#229;&#190;&#132; 33" fill-rule="evenodd" clip-rule="evenodd" d="M16.5078 33.4059L15.6289 30.9879L16.1053 30.8192L20.131 31.4512L19.5216 29.7498L19.998 29.5811L20.8006 31.7968L20.3162 31.9656L16.2945 31.3336L16.9825 33.2372L16.5078 33.4059Z" fill="#9198A9"/>
<path id="&#232;&#183;&#175;&#229;&#190;&#132; 34" fill-rule="evenodd" clip-rule="evenodd" d="M18.0362 36.7062L17.8 36.2176L19.6919 35.2235L19.0876 34.0183L17.1957 35.0207L16.9492 34.5403L20.999 32.4004L21.2455 32.8889L19.5394 33.7831L20.139 34.9795L21.848 34.0865L22.0865 34.5668L18.0362 36.7062Z" fill="#9198A9"/>
<path id="&#232;&#183;&#175;&#229;&#190;&#132; 35" fill-rule="evenodd" clip-rule="evenodd" d="M19.9574 39.3341L18.5195 37.2706L22.3147 34.8525L23.6866 36.8161L23.2676 37.0771L22.2242 35.5862L21.0415 36.3358L22.0029 37.7091L21.5838 37.979L20.6235 36.6051L19.2671 37.4728L20.3759 39.0648L19.9574 39.3341Z" fill="#9198A9"/>
<path id="&#232;&#183;&#175;&#229;&#190;&#132; 36" fill-rule="evenodd" clip-rule="evenodd" d="M23.1856 42.5668L22.7012 42.1553L25.5023 38.6338L25.9787 39.0453L23.1856 42.5668Z" fill="#9198A9"/>
<path id="&#232;&#183;&#175;&#229;&#190;&#132; 37" fill-rule="evenodd" clip-rule="evenodd" d="M25.3554 44.1161L25.9224 42.8692L25.2344 42.3554L24.1991 43.383L23.7227 43.0126L27.0088 39.6934L27.6744 40.1049L25.9161 44.4853L25.3554 44.1161ZM26.1769 42.2625L26.8586 40.6534L26.7926 40.5946L25.6099 41.8333L26.1769 42.2625Z" fill="#9198A9"/>
<path id="&#232;&#183;&#175;&#229;&#190;&#132; 38" fill-rule="evenodd" clip-rule="evenodd" d="M28.6345 45.7558L28.0515 45.4695L28.3954 42.236L27.0975 44.9568L26.5059 44.6787L28.5594 40.5088L29.0931 40.7616L28.8466 43.8363L30.1858 41.3007L30.6789 41.5112L28.6345 45.7558Z" fill="#9198A9"/>
<path id="&#232;&#183;&#175;&#229;&#190;&#132; 39" fill-rule="evenodd" clip-rule="evenodd" d="M31.6982 46.6885L31.3123 46.5621V46.1917C31.2086 46.2771 31.0829 46.3298 30.9506 46.3434C30.8015 46.3671 30.6491 46.3526 30.5069 46.3011C30.3406 46.2398 30.1907 46.1392 30.0694 46.0074C29.9481 45.8756 29.8587 45.7164 29.8086 45.5427C29.6497 44.987 29.6817 44.3922 29.8992 43.8578C30.0266 43.2553 30.3104 42.6993 30.7207 42.2487C30.9054 42.0799 31.1304 41.9645 31.3729 41.9142C31.6153 41.8639 31.8665 41.8805 32.1006 41.9624C32.5936 42.1223 32.9221 42.7372 32.7742 43.5885L32.1826 43.5462C32.2812 43.1758 32.2319 42.6056 31.8868 42.4933C31.744 42.4424 31.5898 42.4361 31.4436 42.4752C31.2974 42.5142 31.1657 42.5968 31.0652 42.7126C30.7923 43.106 30.595 43.5491 30.4839 44.0183C30.3221 44.4352 30.2737 44.8893 30.344 45.3322C30.3649 45.4476 30.4145 45.5555 30.4879 45.6455C30.5613 45.7355 30.6561 45.8046 30.7631 45.846C30.8499 45.8799 30.9436 45.8907 31.0355 45.8774C31.1274 45.8642 31.2145 45.8273 31.2888 45.7702C31.4819 45.5916 31.6166 45.3564 31.6747 45.0965L31.7566 44.8266L31.0572 44.5997L31.1971 44.1294L32.3471 44.5168L31.6982 46.6885Z" fill="#9198A9"/>
<path id="&#232;&#183;&#175;&#229;&#190;&#132; 40" fill-rule="evenodd" clip-rule="evenodd" d="M37.752 45.6615C37.7617 46.02 37.6451 46.37 37.4235 46.6474C37.3009 46.7725 37.1521 46.8671 36.9883 46.9241C36.8245 46.981 36.6503 46.9988 36.4788 46.976C36.3043 46.9848 36.1302 46.9529 35.9695 46.8829C35.8088 46.8128 35.6655 46.7064 35.5506 46.5716C35.3486 46.2772 35.2553 45.9188 35.2875 45.5604L35.3861 42.3857H35.9284L35.8298 45.5868C35.8041 45.8229 35.8655 46.0603 36.0018 46.2523C36.0639 46.3235 36.1398 46.3806 36.2248 46.4198C36.3097 46.4589 36.4017 46.4794 36.4948 46.4799C36.587 46.4865 36.6796 46.4726 36.766 46.4391C36.8525 46.4056 36.9309 46.3533 36.9959 46.2859C37.1456 46.1065 37.2221 45.8749 37.2097 45.6392L37.3083 42.4645H37.8587L37.752 45.6615Z" fill="#9198A9"/>
<path id="&#232;&#183;&#175;&#229;&#190;&#132; 41" fill-rule="evenodd" clip-rule="evenodd" d="M40.8674 46.5031L40.3743 46.5871L38.8379 43.5459L39.0764 46.8064L38.4933 46.8905L38.1562 42.3161L38.8218 42.2573L40.0951 44.3866L39.8589 42.0938L40.3434 42.0098L40.8674 46.5031Z" fill="#9198A9"/>
<path id="&#232;&#183;&#175;&#229;&#190;&#132; 42" fill-rule="evenodd" clip-rule="evenodd" d="M42.5259 46.0314L41.9589 46.2078L40.7676 41.8785L41.3409 41.7021L42.5259 46.0314Z" fill="#9198A9"/>
<path id="&#232;&#183;&#175;&#229;&#190;&#132; 43" fill-rule="evenodd" clip-rule="evenodd" d="M44.0704 40.5449L44.7933 45.3216L44.2349 45.6079L41.7617 41.5473L42.3041 41.3121L44.0211 44.0835L43.5447 40.7813L44.0704 40.5449Z" fill="#9198A9"/>
<path id="&#232;&#183;&#175;&#229;&#190;&#132; 44" fill-rule="evenodd" clip-rule="evenodd" d="M48.6542 43.2516L46.576 44.4056L44.3086 40.4126L46.2882 39.3174L46.5347 39.7636L45.0229 40.5978L45.7304 41.8365L47.1189 41.0723L47.3734 41.5102L45.9843 42.2804L46.7869 43.7043L48.3973 42.8113L48.6542 43.2516Z" fill="#9198A9"/>
<path id="&#232;&#183;&#175;&#229;&#190;&#132; 45" fill-rule="evenodd" clip-rule="evenodd" d="M51.0264 41.5497L50.5678 41.9453L48.9247 40.5808L48.5057 40.9682L49.5984 42.4844L49.1397 42.9812L46.4688 39.1322L47.2903 38.5091C47.5614 38.2925 47.9001 38.1847 48.2431 38.2057C48.407 38.2082 48.5685 38.2458 48.7174 38.3161C48.8662 38.3865 48.9991 38.488 49.1074 38.6141C49.2157 38.7402 49.2971 38.8882 49.3463 39.0485C49.3955 39.2088 49.4115 39.3779 49.3931 39.5449C49.3925 39.7596 49.3592 39.9728 49.2945 40.1769L51.0264 41.5497ZM48.1428 38.8371C47.8057 38.7442 47.5431 39.0135 47.3212 39.2081L48.2104 40.415C48.4618 40.2744 48.6696 40.0642 48.8101 39.8083C48.8365 39.7011 48.8405 39.5894 48.8218 39.4805C48.8031 39.3716 48.7621 39.268 48.7016 39.1764C48.641 39.0849 48.5623 39.0076 48.4705 38.9495C48.3788 38.8914 48.276 38.8539 48.1691 38.8395" fill="#9198A9"/>
<path id="&#232;&#183;&#175;&#229;&#190;&#132; 46" fill-rule="evenodd" clip-rule="evenodd" d="M52.4647 37.833C52.68 37.9793 52.8471 38.189 52.9442 38.4345C53.0412 38.6799 53.0637 38.9497 53.0086 39.2085C52.9535 39.4673 52.8234 39.703 52.6354 39.8846C52.4474 40.0662 52.2102 40.1853 51.955 40.2263C51.653 40.2677 51.3459 40.2118 51.0761 40.0664L51.2814 39.5779C51.4729 39.6505 51.6776 39.6792 51.8811 39.6619C52.0277 39.6439 52.1653 39.5796 52.2749 39.4781C52.3845 39.3766 52.4607 39.2428 52.4931 39.095C52.5256 38.9473 52.5126 38.7928 52.4559 38.653C52.3993 38.5131 52.3018 38.3946 52.1769 38.3139C52.0036 38.2015 51.7957 38.1595 51.5938 38.1963C51.0601 38.2551 50.715 38.6666 50.1233 38.7101C49.8316 38.7382 49.5409 38.6467 49.3147 38.4557C49.0885 38.2647 48.9451 37.9897 48.916 37.6907C48.8594 37.3639 48.9271 37.0273 49.1052 36.7501C49.1924 36.618 49.3045 36.5052 49.4349 36.4182C49.5653 36.3312 49.7113 36.2718 49.8644 36.2435C50.0175 36.2153 50.1745 36.2187 50.3263 36.2536C50.4781 36.2885 50.6216 36.3541 50.7482 36.4467L50.543 36.9435C50.3851 36.8544 50.2031 36.821 50.0249 36.8484C49.8468 36.8758 49.6823 36.9625 49.5569 37.0952C49.5066 37.1659 49.4711 37.2466 49.4527 37.3321C49.4344 37.4176 49.4335 37.5061 49.4503 37.592C49.456 37.6728 49.4779 37.7515 49.5146 37.8232C49.5514 37.8949 49.6022 37.9581 49.6639 38.0087C49.7256 38.0593 49.7968 38.0963 49.8731 38.1174C49.9494 38.1384 50.0291 38.1431 50.1073 38.1311C50.6806 38.0552 51.0687 37.5667 51.6437 37.592C51.9458 37.5981 52.2416 37.6822 52.5037 37.8365" fill="#9198A9"/>
<path id="&#232;&#183;&#175;&#229;&#190;&#132; 47" fill-rule="evenodd" clip-rule="evenodd" d="M54.4269 37.2455L54.0984 37.6665L50.2539 35.1973L50.591 34.7764L54.4269 37.2455Z" fill="#9198A9"/>
<path id="&#232;&#183;&#175;&#229;&#190;&#132; 48" fill-rule="evenodd" clip-rule="evenodd" d="M52.4898 32.2595L52.0707 33.0684L55.6933 35.2589L55.4468 35.7222L51.8242 33.5417L51.3971 34.3418L50.9453 34.0708L52.038 31.9902L52.4898 32.2595Z" fill="#9198A9"/>
<path id="&#232;&#183;&#175;&#229;&#190;&#132; 49" fill-rule="evenodd" clip-rule="evenodd" d="M53.1555 29.1924L55.3655 31.2142L56.8441 31.8732L56.6635 32.3788L55.2996 31.8397L52.1465 31.7638L52.3024 31.2418L54.5039 31.2753L52.9416 29.8073L53.1555 29.1924Z" fill="#9198A9"/>
<path id="&#232;&#183;&#175;&#229;&#190;&#132; 50" fill-rule="evenodd" clip-rule="evenodd" d="M22.8497 40.5382C22.5709 40.8774 22.1781 41.0969 21.7489 41.1531C21.5762 41.1563 21.4047 41.1212 21.2464 41.0502C21.0881 40.9792 20.9466 40.8739 20.8317 40.7416C20.7125 40.6219 20.618 40.4788 20.554 40.3208C20.49 40.1628 20.4577 39.9932 20.459 39.8221C20.4628 39.6298 20.5136 39.4416 20.6069 39.2748L21.108 39.5864C21.0691 39.665 21.0466 39.7511 21.0421 39.8392C21.0354 39.925 21.0466 40.0114 21.0749 40.0925C21.1033 40.1736 21.1482 40.2476 21.2066 40.3095C21.2719 40.3887 21.3538 40.4519 21.4463 40.4942C21.5387 40.5366 21.6392 40.557 21.7403 40.5541C22.0052 40.4915 22.2422 40.3403 22.414 40.1243L24.6567 37.875L25.0672 38.3048L22.8497 40.5382Z" fill="#9198A9"/>
<path id="&#232;&#183;&#175;&#229;&#190;&#132; 51" fill-rule="evenodd" clip-rule="evenodd" d="M30.4092 39.7459L28.832 38.7606L28.9719 38.5161L29.5452 38.8782L30.4625 37.1933L29.8892 36.8311L30.0124 36.6119C30.1719 36.7214 30.3504 36.7987 30.5382 36.8394C30.6021 36.8477 30.667 36.8371 30.7252 36.8087C30.7835 36.7804 30.8325 36.7355 30.8667 36.6795L31.2284 36.907L29.9901 39.1228L30.5571 39.4849L30.4092 39.7459ZM35.0351 38.7436C35.0475 38.6791 35.0417 38.6124 35.0185 38.5511C34.9952 38.4899 34.9555 38.4368 34.9038 38.3979C34.7572 38.2806 34.5801 38.2102 34.3947 38.1957C34.2194 38.1518 34.0363 38.1518 33.861 38.1957C33.7988 38.2156 33.7426 38.2516 33.698 38.3004C33.6534 38.3491 33.6219 38.4088 33.6064 38.4737C33.5972 38.5176 33.5975 38.563 33.6074 38.6067C33.6173 38.6504 33.6366 38.6914 33.6638 38.7265C33.7368 38.8197 33.8296 38.8946 33.9349 38.9458C33.9842 38.9458 34.0662 39.0217 34.1814 39.0722C34.285 39.1249 34.3921 39.1699 34.5019 39.2068C34.6436 39.1654 34.7751 39.0937 34.8877 38.9964C34.9623 38.9141 35.0135 38.8124 35.0357 38.7024M34.8304 40.1263C34.8437 40.0783 34.8468 40.028 34.8397 39.9786C34.8326 39.9293 34.8154 39.882 34.7891 39.84C34.6878 39.7256 34.5647 39.6338 34.4274 39.5702L34.1889 39.4608L33.8449 39.3091C33.6916 39.3418 33.5481 39.4111 33.4258 39.5114C33.3303 39.5989 33.2617 39.7131 33.2286 39.84C33.2114 39.9232 33.2168 40.0097 33.2443 40.09C33.2718 40.1702 33.3203 40.2412 33.3846 40.295C33.5355 40.4398 33.7291 40.5287 33.9349 40.5478C34.1281 40.5916 34.3289 40.5853 34.5191 40.5296C34.5939 40.5006 34.6598 40.4518 34.7101 40.3882C34.7605 40.3246 34.7935 40.2484 34.8058 40.1675M33.8443 40.8665C33.6529 40.8436 33.4653 40.7954 33.286 40.723C33.135 40.6696 32.9956 40.5865 32.8755 40.4785C32.7777 40.3982 32.7013 40.2939 32.6536 40.1751C32.6209 40.0623 32.6209 39.9422 32.6536 39.8294C32.6768 39.6736 32.7559 39.5323 32.8755 39.4332C33.0523 39.3103 33.2551 39.2323 33.4671 39.2057C33.3111 39.124 33.1718 39.0124 33.0566 38.877C33.0164 38.824 32.988 38.7626 32.9732 38.6971C32.9585 38.6316 32.9578 38.5636 32.9712 38.4978C33.0008 38.3824 33.0598 38.2771 33.1421 38.1927C33.2244 38.1083 33.327 38.0479 33.4396 38.0175C33.7478 37.9058 34.0788 37.8768 34.401 37.9335C34.7232 37.9631 35.0321 38.0793 35.2965 38.2703C35.3875 38.3288 35.4594 38.4137 35.5033 38.5141C35.5472 38.6146 35.561 38.7262 35.543 38.8347C35.5061 38.9772 35.4217 39.102 35.3045 39.1874C35.1432 39.3034 34.9573 39.3785 34.7622 39.4067C34.9527 39.4932 35.1255 39.6161 35.2713 39.7689C35.3229 39.8306 35.3595 39.9041 35.378 39.9832C35.3966 40.0623 35.3965 40.1448 35.3779 40.2239C35.3437 40.3522 35.2785 40.4697 35.1883 40.5653C35.0981 40.661 34.9859 40.7318 34.8619 40.7712C34.5296 40.9017 34.1688 40.9367 33.8185 40.8724M39.1915 39.1287C39.1988 38.9676 39.1708 38.8068 39.1095 38.6583C39.0664 38.5439 38.9922 38.4445 38.8956 38.372C38.8186 38.3151 38.7324 38.2724 38.6411 38.2456C38.5509 38.2364 38.4601 38.2364 38.3699 38.2456C38.1727 38.2321 37.9773 38.292 37.8196 38.4144C37.7503 38.4735 37.6956 38.5486 37.66 38.6335C37.6243 38.7183 37.6087 38.8107 37.6143 38.9029C37.6077 39.0084 37.6306 39.1136 37.6803 39.2063C37.7341 39.2938 37.811 39.3639 37.9021 39.4085C37.9763 39.4488 38.0572 39.4745 38.1406 39.4843C38.3663 39.4968 38.5927 39.4798 38.8142 39.4338C38.9384 39.411 39.0597 39.3743 39.176 39.3244C39.1805 39.2993 39.1805 39.2737 39.176 39.2486C39.1804 39.2123 39.1804 39.1755 39.176 39.1392M37.0238 38.8947C37.0256 38.7528 37.0623 38.6137 37.1305 38.4902C37.2062 38.3689 37.3034 38.2632 37.4171 38.1786C37.548 38.0881 37.6922 38.0198 37.8442 37.9764C38.0107 37.9331 38.1816 37.9108 38.3533 37.9099C38.5307 37.909 38.7074 37.9317 38.879 37.9775C39.0233 38.0164 39.1593 38.0822 39.2803 38.1716C39.4259 38.2731 39.5423 38.4128 39.6174 38.576C39.7053 38.7794 39.7474 39.0004 39.7407 39.2227C39.7407 39.4524 39.7019 39.6803 39.626 39.8964C39.5505 40.0965 39.4331 40.2771 39.282 40.4256C39.1123 40.5777 38.9138 40.6923 38.699 40.7624C38.4325 40.844 38.1555 40.8836 37.8775 40.88H37.4011V40.509C37.472 40.5392 37.5467 40.559 37.6229 40.5678H37.9188C38.2284 40.5857 38.535 40.4967 38.7896 40.315C38.895 40.2309 38.9812 40.1242 39.0422 40.0023C39.1032 39.8805 39.1375 39.7464 39.1427 39.6095C39.0053 39.6737 38.8623 39.7245 38.7156 39.7612C38.5703 39.7965 38.4213 39.8135 38.2719 39.8118C38.1297 39.8211 37.987 39.8211 37.8448 39.8118C37.7132 39.786 37.5859 39.7406 37.467 39.6772C37.329 39.612 37.2104 39.5106 37.123 39.3832C37.0465 39.2507 37.0068 39.0992 37.0084 38.9452M43.0956 36.5019L42.989 39.4502L42.5538 39.7365V36.9493L40.9085 37.7924L40.7606 37.4637L42.872 36.335L43.0956 36.5019Z" fill="#9198A9"/>
<path id="&#232;&#183;&#175;&#229;&#190;&#132; 52" fill-rule="evenodd" clip-rule="evenodd" d="M44.0688 12.5694C43.7249 12.4007 43.9622 12.3343 43.9868 12.0133C44.0115 11.6923 43.8223 11.4066 43.8802 11.2131C44.0281 10.684 44.7017 10.8845 45.0549 11.1543C45.1357 11.2426 45.1946 11.3495 45.2269 11.4659C45.3501 11.7863 45.4734 12.2408 45.1122 12.4771C44.9569 12.5737 44.782 12.6323 44.6011 12.6485C44.4202 12.6646 44.238 12.6377 44.0688 12.57" fill="#9198A9"/>
<path id="&#232;&#183;&#175;&#229;&#190;&#132; 53" fill-rule="evenodd" clip-rule="evenodd" d="M40.1486 10.9911C40.144 10.9548 40.144 10.918 40.1486 10.8818C40.5735 10.7564 40.9905 10.6044 41.3972 10.4267C41.7464 10.3068 42.0394 10.0575 42.2188 9.72771C41.4791 9.91313 40.7208 10.0092 39.9594 10.014C39.7075 9.84564 39.471 9.65397 39.2531 9.44141C38.9407 9.09572 38.982 8.75886 39.4337 8.72535C40.1154 9.07103 41.3479 8.81823 42.0869 8.72535C42.3696 8.70953 42.6475 8.6439 42.9084 8.53134C43.2345 7.59311 43.509 6.63686 43.7306 5.6671C44.125 5.05216 44.4288 5.60831 44.7573 6.05453C44.7573 6.11332 44.8479 6.19797 44.9052 6.34848C45.0119 6.67711 45.0285 6.81174 44.7 7.01398C44.4005 7.44068 44.1958 7.92952 44.1003 8.44609C44.6094 8.49665 45.0176 8.12569 45.5955 8.26091C45.6439 8.39503 45.6393 8.54328 45.5825 8.67392C45.5257 8.80457 45.4213 8.90722 45.2916 8.95992C44.8152 9.06927 44.3222 9.13629 43.7885 9.23799C43.5629 9.75745 43.2226 10.216 42.7944 10.5772C42.6557 10.6701 42.5102 10.7519 42.3592 10.8218C42.0256 10.953 41.6781 11.0436 41.3239 11.0916C40.9339 11.1431 40.5391 11.1431 40.1492 11.0916" fill="#9198A9"/>
<path id="&#232;&#183;&#175;&#229;&#190;&#132; 54" fill-rule="evenodd" clip-rule="evenodd" d="M28.765 14.3973C28.3366 14.3198 27.9317 14.1411 27.5823 13.8752C27.5741 13.7659 27.5741 13.656 27.5823 13.5466C28.1942 12.606 28.7431 11.6239 29.2254 10.6071C29.316 10.1609 29.4639 9.66649 29.5785 9.21734C29.7265 8.96454 29.8004 8.88047 30.0796 9.08271C30.1862 9.31022 29.8744 9.72293 29.8331 9.99277C29.8434 10.4852 29.8214 10.9778 29.7672 11.4672C29.707 11.6825 29.6631 11.9023 29.6359 12.1245C29.4678 12.4923 29.3705 12.89 29.3492 13.2956C29.144 13.5566 29.2179 14.0704 28.9634 14.3656L28.7742 14.4667" fill="#9198A9"/>
<path id="&#232;&#183;&#175;&#229;&#190;&#132; 55" fill-rule="evenodd" clip-rule="evenodd" d="M32.5362 9.46279C32.0203 9.64797 31.7147 9.3699 31.3535 9.18471C31.2876 9.05008 31.3535 8.93192 31.3535 8.83197C31.4247 8.79675 31.4844 8.74123 31.5255 8.67206C31.7307 8.55449 31.8122 8.53744 32.0346 8.4275C32.257 8.31756 32.8561 7.40809 33.1927 7.53448C33.2818 7.88258 33.2712 8.24967 33.162 8.59171C33.0528 8.93375 32.8496 9.23621 32.5769 9.46279" fill="#9198A9"/>
<path id="&#232;&#183;&#175;&#229;&#190;&#132; 56" fill-rule="evenodd" clip-rule="evenodd" d="M28.2385 10.0443C27.9754 9.94319 27.6309 9.20185 27.5156 8.90732C27.5156 8.40172 27.9261 8.20184 28.4031 8.34293C28.8468 8.62101 29.118 8.70508 28.9861 9.29474C28.8355 9.62966 28.5703 9.89633 28.2408 10.0443" fill="#9198A9"/>
<path id="&#232;&#183;&#175;&#229;&#190;&#132; 57" fill-rule="evenodd" clip-rule="evenodd" d="M31.8613 8.12784C31.7134 7.90033 31.8613 7.28538 31.6968 7.15899C31.5821 7.2266 31.4749 7.32771 31.3528 7.3865C30.983 7.3865 30.5312 7.10843 30.5312 6.76333C30.5312 6.41824 30.5886 6.51054 30.9326 6.3424L31.7547 5.49759C32.2804 5.16072 32.6668 5.37119 32.9213 5.93557C32.9324 6.34245 32.8595 6.74714 32.7075 7.12313C32.469 7.40943 32.2723 7.71102 32.0665 7.96558C31.9931 8.00671 31.9217 8.05164 31.8527 8.10021" fill="#9198A9"/>
<path id="&#232;&#183;&#175;&#229;&#190;&#132; 58" fill-rule="evenodd" clip-rule="evenodd" d="M28.1003 7.72426C27.9444 7.66547 27.9444 7.58963 27.9937 7.4209C27.879 7.18574 27.6652 7.04994 27.5666 6.82301C27.476 6.35975 27.3372 6.24158 27.5666 5.89648C27.887 5.89648 29.0044 6.02288 28.9797 6.64605C28.8084 7.09569 28.4842 7.46656 28.0671 7.69016" fill="#9198A9"/>
<path id="&#232;&#183;&#175;&#229;&#190;&#132; 59" fill-rule="evenodd" clip-rule="evenodd" d="M22.3723 23.4795C21.8878 23.8252 20.7292 23.5971 20.8771 22.8916C20.8398 22.8521 20.8127 22.8036 20.7984 22.7506C20.7841 22.6976 20.783 22.6418 20.7951 22.5882C20.5985 21.8507 20.3543 21.1274 20.0642 20.423C19.9495 20.2037 19.8097 20.0273 19.8997 19.7828C20.0642 19.7405 20.2368 19.9262 20.3761 20.0609C20.442 20.0609 20.524 19.8586 20.5567 19.7405C20.5074 19.2519 20.5567 18.6787 20.4747 18.1737C20.3514 18.0644 20.2282 17.9544 20.1129 17.8368C20.0143 18.0896 19.7024 18.9239 19.425 18.4771C19.5335 18.0627 19.5135 17.624 19.3676 17.2219C19.1211 16.9609 18.7846 16.7757 18.6797 16.4806C18.721 16.069 19.3367 15.975 19.6904 16.1349C19.9771 16.1349 19.9771 15.6058 20.2981 16.5305C20.2981 16.674 20.446 16.7751 20.6105 16.8509L20.6845 16.758C20.6602 16.3457 20.6602 15.9323 20.6845 15.5199C20.332 15.2009 20.0363 14.8213 19.8108 14.3982C19.8108 13.9685 20.2872 13.7157 20.6983 13.5558C20.8158 13.3348 20.8591 13.0802 20.8215 12.8315C20.8517 12.743 20.8961 12.6604 20.9528 12.5869C21.1032 12.6098 21.2465 12.6675 21.3719 12.7556C21.7004 13.1854 21.0101 14.5164 21.6585 14.6257C21.7818 14.3982 21.6092 14.1625 21.5106 13.9791C21.5106 13.6504 22.0363 13.2377 22.3895 13.1366C22.9054 13.086 22.8739 13.3894 22.8825 13.8421L22.9565 14.0273C23.6135 14.5158 23.6135 14.5158 24.5256 15.1478C24.6809 15.3811 24.7873 15.645 24.838 15.9226C24.9613 16.1837 24.9693 16.6217 24.6574 16.6558C23.9121 16.1419 23.1703 15.5523 22.4394 15.072C22.4358 15.0886 22.4358 15.1059 22.4394 15.1225C22.8528 15.5774 23.1221 16.1501 23.2116 16.7651C23.1317 16.9082 23.0075 17.0199 22.8587 17.0825C22.7099 17.1451 22.545 17.1551 22.3901 17.1108C22.356 17.0343 22.3418 16.95 22.3488 16.8662C22.0202 16.4557 21.6189 16.1126 21.1661 15.855C21.0348 16.1161 21.2893 16.8915 21.3713 17.2113V17.7675C21.5932 18.0455 21.815 18.3066 22.0593 18.6099L22.3385 19.0902V19.1326C22.4451 19.3677 22.6824 20.0679 22.2398 20.0732C22.1957 20.0502 22.1544 20.0219 22.1166 19.9891C21.9712 19.6087 21.7303 19.2744 21.4183 19.0203C21.3117 19.373 21.4183 19.7534 21.2624 20.0567C21.1333 20.1937 20.987 20.3123 20.8272 20.4095C20.7839 20.4095 20.7414 20.4212 20.7039 20.4434C20.6664 20.4656 20.6352 20.4975 20.6134 20.5359C20.7367 20.6958 20.868 20.8727 20.9992 21.0326C21.4158 21.7593 21.8916 22.4484 22.4216 23.0926C22.4652 23.2122 22.4652 23.344 22.4216 23.4636" fill="#9198A9"/>
<path id="&#232;&#183;&#175;&#229;&#190;&#132; 60" fill-rule="evenodd" clip-rule="evenodd" d="M19.2104 20.4042C19.0132 20.4042 18.9238 20.1767 18.7753 20.0674C18.2593 19.9157 17.8718 19.8064 17.6992 19.2837L17.7732 19.1403C18.142 19.0303 18.5227 18.9681 18.9066 18.9551C19.5555 19.1068 19.3337 19.9322 19.2351 20.4042" fill="#9198A9"/>
<path id="&#232;&#183;&#175;&#229;&#190;&#132; 61" fill-rule="evenodd" clip-rule="evenodd" d="M17.8566 18.8454C17.7419 18.9294 17.7253 18.9042 17.6674 18.9042C17.6095 18.9042 17.5768 18.6849 17.4536 18.6343C16.8866 18.6343 16.2955 18.1793 16.3935 17.5814C16.5002 17.455 16.6154 17.5308 16.8287 17.5814C17.3131 17.4803 18.036 17.1769 18.0607 17.9688C18.0072 18.2533 17.9391 18.5347 17.8566 18.8119" fill="#9198A9"/>
<path id="&#232;&#183;&#175;&#229;&#190;&#132; 62" d="M47.4064 19.5968H41.7383C40.0952 19.5968 39.2731 21.2817 38.6081 22.7562L37.6553 20.5575L39.2571 19.9507C38.3203 19.0407 35.3959 18.5357 35.0101 19.9084L34.3216 22.7568C33.7792 21.4763 33.007 19.5974 31.2739 19.5974H25.5215C26.2668 20.9537 26.984 21.4422 29.6291 21.3247L29.9731 22.26H27.074C27.8955 23.8738 28.4298 23.9437 30.7625 23.8738L31.2556 24.9943L28.9716 25.0784C29.4646 26.2242 29.9823 26.7127 31.9372 26.6199L32.3231 27.6393H30.508C31.1896 28.7933 31.5267 29.3242 32.9732 29.1896L33.359 30.2678H32.0937C32.2295 30.6863 32.4914 31.0499 32.8418 31.3058C33.1922 31.5617 33.6128 31.6969 34.0429 31.6916C34.7309 31.801 34.8645 33.132 34.0429 33.5617L36.5081 37.6224L38.9733 33.5617C38.1517 33.132 38.267 31.801 38.9733 31.6916C39.4034 31.6969 39.824 31.5617 40.1744 31.3058C40.5248 31.0499 40.7867 30.6863 40.9225 30.2678H39.5775L39.9634 29.1896C41.4012 29.3159 41.7406 28.7939 42.4285 27.6393H40.6123L40.9982 26.6534C42.9531 26.7463 43.4633 26.2489 43.9558 25.1119L41.6804 25.0278L42.1734 23.9073C44.5067 23.9749 44.9992 23.9073 45.862 22.29H42.9537L43.3068 21.3546C45.952 21.4722 46.6669 20.9837 47.4145 19.6274" fill="#9198A9"/>
<path id="&#232;&#183;&#175;&#229;&#190;&#132; 63" d="M56.0379 16.8162V16.7657C56.1199 16.5552 56.1118 16.4717 56.0952 16.4371C56.0215 16.3762 55.9339 16.3357 55.8407 16.3195H55.6354V16.2607C55.6091 16.2286 55.5786 16.2003 55.5448 16.1766L55.4382 16.1343L55.5781 16.0249C55.6662 15.9493 55.7663 15.8897 55.8739 15.8486H55.9312C56.1344 15.6654 56.2609 15.4089 56.2844 15.1325C56.2445 15.087 56.1947 15.0518 56.139 15.0298C56.0833 15.0078 56.0233 14.9997 55.9639 15.0061C55.7399 15.0303 55.5194 15.0812 55.3069 15.1578C55.1619 15.2099 55.0137 15.2521 54.8632 15.2842H54.8139C54.4521 15.1078 54.4361 15.099 53.6805 14.6963C53.6232 14.7303 53.5795 14.784 53.5572 14.848C53.5315 14.9047 53.5182 14.9665 53.5182 15.029C53.5182 15.0916 53.5315 15.1534 53.5572 15.2101L53.6232 15.2607L53.4426 15.3618H53.4013L53.352 15.4123C53.346 15.4458 53.346 15.48 53.352 15.5135V15.5975C53.3514 15.6293 53.3446 15.6607 53.3319 15.6897C53.3192 15.7187 53.3009 15.7447 53.278 15.7663V15.8592L53.1714 15.7751C53.0789 15.7025 52.991 15.6239 52.9083 15.5399H52.8177C52.7841 15.5393 52.7508 15.5457 52.7198 15.5587C52.6887 15.5718 52.6606 15.5912 52.6371 15.6158C52.6371 15.6158 52.6371 15.7169 52.6371 15.8009V15.8433C52.6371 15.9526 52.5224 16.1372 52.1853 16.1466H52.0134C51.9728 16.1369 51.9306 16.1369 51.8901 16.1466C51.8901 16.3818 51.9887 16.3994 52.2341 16.4406C52.3397 16.4508 52.4442 16.4705 52.5465 16.4994H52.6199C52.6697 16.5048 52.7177 16.5221 52.7598 16.5499L52.9404 16.6175H52.9977L52.7758 16.7269C52.6928 16.7655 52.6176 16.8198 52.554 16.8868C52.538 16.9591 52.504 17.0259 52.4554 17.0808V17.1314H52.3648L51.8803 17.005L51.6258 16.9374C51.1821 16.8198 50.6317 16.6675 50.114 16.5846C49.9977 16.5389 49.8764 16.5077 49.7529 16.4917H49.5063V16.5676C49.5921 16.6362 49.6827 16.6981 49.7775 16.7528V16.7921C49.8558 17.0263 50.017 17.2216 50.2293 17.3395L50.8209 17.4235C51.474 17.4386 52.1117 17.6305 52.6692 17.9797L52.8005 18.0555H52.8418L52.6446 18.1567C52.5892 18.1837 52.5391 18.2207 52.4966 18.266H52.4307C52.1522 18.2169 51.8776 18.1465 51.6092 18.0555C51.5033 17.9395 51.3575 17.8702 51.2027 17.8623C51.048 17.8544 50.8962 17.9085 50.7796 18.0132H50.681C50.5959 17.9846 50.5074 17.9676 50.4179 17.9626L49.8755 17.7775C49.3288 17.6196 48.8041 17.3902 48.3145 17.0949C48.2026 16.9992 48.1008 16.8919 48.0106 16.7745C48.0106 16.7745 47.9693 16.7239 47.9533 16.7239V16.6652C47.8836 16.7131 47.82 16.7697 47.7641 16.8339C47.7479 17.067 47.7773 17.3012 47.8507 17.5225C47.924 17.7438 48.0398 17.9478 48.1912 18.1226C48.3711 18.1947 48.5584 18.2456 48.7496 18.2742C49.1107 18.3138 49.4544 18.4537 49.7437 18.6787H49.8343L49.7523 18.7963C49.6392 18.9404 49.5126 19.073 49.3745 19.1919L49.3005 19.2172C49.2585 19.2492 49.22 19.2859 49.1859 19.3266H48.9806C48.7561 19.3074 48.5396 19.2321 48.35 19.1073C48.2882 19.0682 48.222 19.037 48.1528 19.0144V19.0849C48.4252 19.5597 48.7813 19.9784 49.2031 20.3195V20.3783C49.255 20.4104 49.3144 20.4279 49.3751 20.4289C49.7035 20.4289 50.0567 19.9586 50.3198 19.5864L50.4844 19.376H50.5503C50.7968 19.1819 50.8134 19.1737 50.8048 19.1655L50.9447 19.216C51.1337 19.2769 51.3134 19.3648 51.4785 19.4771C51.6757 19.3842 51.8798 19.1831 51.8563 18.9632L51.7657 18.8539L51.4039 18.5253H51.3466V18.4159C51.3921 18.3193 51.4565 18.2332 51.5358 18.1631H51.6178C51.9709 18.2472 52.2834 18.3483 52.6692 18.4665L53.0063 18.5841L53.0883 18.6428C53.2369 18.791 53.4319 18.8806 53.6386 18.8956C53.6795 18.9024 53.7211 18.9024 53.7619 18.8956C53.9271 18.7407 54.0658 18.5585 54.1724 18.3565C54.1065 18.2554 54.0738 18.2301 54.0657 18.2301L54.1231 18.1543C54.1517 18.1237 54.185 18.098 54.2217 18.0785C54.795 17.8933 55.413 17.6575 55.8647 17.497C56.1439 17.3207 56.1686 17.303 56.07 17.042C56.0523 16.9841 56.0303 16.9277 56.0041 16.8733M53.786 17.219L53.8766 17.1349C53.9998 17.0173 54.0571 16.9585 54.0738 16.8997C54.0904 16.8409 54.0738 16.8492 53.9832 16.8068H53.8926C53.855 16.8078 53.8177 16.8 53.7835 16.7838C53.7493 16.7677 53.7192 16.7438 53.6954 16.714V16.5117L53.8187 16.4694C53.987 16.4286 54.1498 16.3664 54.3031 16.2842V16.2254L54.3851 16.3012C54.6001 16.4748 54.7508 16.7185 54.8122 16.992V17.0426C54.708 17.1575 54.5803 17.2473 54.4383 17.3055C54.2962 17.3638 54.1433 17.389 53.9906 17.3795H53.9167V17.2531H53.8594L53.786 17.219Z" fill="#9198A9"/>
<path id="&#232;&#183;&#175;&#229;&#190;&#132; 64" d="M51.3975 16.135C51.2702 16.1376 51.1458 16.0962 51.0443 16.0174C51.0372 15.873 51.0582 15.7286 51.1061 15.5926C51.1541 15.4567 51.228 15.3319 51.3235 15.2255C51.3728 15.1497 51.4141 15.0991 51.4468 15.0403V14.9816L51.4961 14.8887C51.5574 14.7681 51.6123 14.6443 51.6606 14.5177C51.6835 14.4543 51.7027 14.3895 51.718 14.3237C51.8085 13.9616 51.8739 13.7358 52.0551 13.677C52.2362 13.6182 52.2603 13.7193 52.2935 13.7699C52.3268 13.8205 52.2935 13.8963 52.2935 14.0309V14.0815C52.3028 14.1399 52.3028 14.1995 52.2935 14.2579C52.3221 14.4675 52.3221 14.6802 52.2935 14.8898V15.0074C52.2793 15.0789 52.2602 15.1492 52.2362 15.2179C52.1777 15.4852 52.0565 15.7338 51.8831 15.9422L51.8011 16.0098H51.7518C51.6383 16.0908 51.5036 16.1348 51.3654 16.1362L51.3975 16.135Z" fill="#9198A9"/>
<path id="&#232;&#183;&#175;&#229;&#190;&#132; 65" d="M51.3986 16.1245C51.5332 16.1173 51.6636 16.0737 51.7764 15.9981H51.8257L51.9077 15.9305C52.0798 15.7257 52.1982 15.4792 52.2517 15.2145C52.2796 15.1472 52.2989 15.0764 52.309 15.004V14.9199C52.3423 14.7107 52.3423 14.4972 52.309 14.2879V14.1028V14.0522C52.3337 13.9698 52.3337 13.8818 52.309 13.7994C52.309 13.7488 52.2104 13.7318 52.0797 13.7065C51.949 13.6812 51.8412 13.9928 51.7592 14.3297C51.7667 14.4075 51.7464 14.4855 51.7019 14.549C51.6365 14.6655 51.579 14.7865 51.5299 14.9111L51.4806 15.0122V15.071C51.4456 15.1348 51.4074 15.1966 51.3659 15.2562C51.218 15.4755 51.0128 15.77 51.0793 16.0311C51.1794 16.1057 51.2995 16.1468 51.4233 16.1486" fill="#9198A9"/>
<path id="&#232;&#183;&#175;&#229;&#190;&#132; 66" d="M50.1243 15.8465C50.0197 15.8307 49.9209 15.7871 49.8377 15.7201C49.6485 15.2739 50.3307 14.7795 50.411 14.7178C50.461 14.7289 50.5072 14.7534 50.5448 14.789C50.5824 14.8246 50.61 14.8698 50.6248 14.92C50.659 15.0424 50.6657 15.1712 50.6443 15.2967C50.623 15.4221 50.5742 15.541 50.5016 15.6443C50.2883 15.7877 50.2063 15.8465 50.1243 15.8465Z" fill="#9198A9"/>
<path id="&#232;&#183;&#175;&#229;&#190;&#132; 67" d="M50.125 15.7959C50.199 15.7959 50.2896 15.7371 50.4868 15.5937C50.5595 15.492 50.6091 15.3749 50.6318 15.2509C50.6545 15.127 50.6498 14.9994 50.6181 14.8776C50.6023 14.8317 50.5762 14.7903 50.5419 14.7566C50.5077 14.7229 50.4662 14.6979 50.4209 14.6836C50.3389 14.7424 49.6653 15.2397 49.8476 15.6695C49.9283 15.7359 50.0245 15.7795 50.1268 15.7959" fill="#9198A9"/>
</g>
</g>
</g>
</g>
<defs>
<clipPath id="clip0_6795_40669">
<rect width="168.686" height="47.7996" fill="white" transform="translate(13.1562 1.52539)"/>
</clipPath>
</defs>
</svg>
