<svg width="64" height="64" viewBox="0 0 64 64" fill="none" xmlns="http://www.w3.org/2000/svg">
<g id="&#229;&#185;&#191;&#229;&#145;&#138;_ad 1">
<path id="Vector" d="M32 58.6668C46.7276 58.6668 58.6666 46.7278 58.6666 32.0002C58.6666 17.2726 46.7276 5.3335 32 5.3335C17.2724 5.3335 5.33331 17.2726 5.33331 32.0002C5.33331 46.7278 17.2724 58.6668 32 58.6668Z" stroke="#191919" stroke-width="3" stroke-linecap="round" stroke-linejoin="round"/>
<path id="Vector_2" d="M50.6667 50.6665L46.6667 46.6665" stroke="#191919" stroke-width="3" stroke-linecap="round" stroke-linejoin="round"/>
<path id="Vector_3" d="M13.3333 13.3335L17.3333 17.3335" stroke="#191919" stroke-width="3" stroke-linecap="round" stroke-linejoin="round"/>
<path id="Vector_4" d="M20.1409 37.0832L24 23.5765L27.8591 37.0832H20.1409Z" stroke="#191919" stroke-width="0.5"/>
<path id="Vector_5" d="M18.6667 41.3332L19.8095 37.3332M19.8095 37.3332L24 22.6665L28.1906 37.3332M19.8095 37.3332H28.1906M29.3334 41.3332L28.1906 37.3332" stroke="#191919" stroke-width="3" stroke-linecap="round" stroke-linejoin="round"/>
<path id="Vector_6" d="M46.6667 31.9998C46.6667 38.6665 41.8911 41.3332 36 41.3332V22.6665C41.8911 22.6665 46.6667 25.3332 46.6667 31.9998Z" stroke="#191919" stroke-width="3" stroke-linecap="round" stroke-linejoin="round"/>
</g>
</svg>
