<svg width="33" height="32" viewBox="0 0 33 32" fill="none" xmlns="http://www.w3.org/2000/svg">
<g id="&#230;&#148;&#175;&#228;&#187;&#152;&#229;&#174;&#157;">
<g id="Group 1321316504">
<rect id="Rectangle 34625681" x="0.618896" width="32" height="32" rx="8" fill="#008CFF"/>
<path id="Vector" d="M25.09 22.8864C22.0604 21.5319 19.9037 20.5408 18.6199 19.9134C16.6676 22.3302 14.615 23.7895 11.536 23.7895C8.45703 23.7895 6.39323 21.8514 6.63866 19.4688C6.80599 17.9069 7.85463 15.3532 12.395 15.7978C14.7935 16.0259 15.8867 16.4819 17.8501 17.1431C18.3521 16.1969 18.776 15.148 19.0884 14.0422H10.4093V13.1644H14.6931V11.5911H9.46104V10.6221H14.6931V8.35341C14.6931 8.35341 14.7377 8 15.1281 8H17.27V10.6335H22.8479V11.6025H17.27V13.1758H21.8215C21.4088 14.92 20.7729 16.5161 19.9809 17.9069C20.6924 18.1657 22.905 18.8699 26.6189 20.0195C25.9157 21.048 25.9157 21.7605 25.09 22.8864ZM11.179 22.2846C13.187 22.2846 15.117 21.042 16.7011 18.9329C14.4588 17.8271 12.5958 17.2799 10.5097 17.2799C8.6913 17.2799 7.74307 18.4199 7.57573 19.2977C7.4084 20.1756 7.92156 22.2846 11.179 22.2846Z" fill="white"/>
</g>
</g>
</svg>
