<svg width="849" height="608" viewBox="0 0 849 608" fill="none" xmlns="http://www.w3.org/2000/svg">
<g id="Group 1321316509">
<g id="&#233;&#157;&#153;&#230;&#128;&#129;" opacity="0.6">
<g id="Rectangle 45" filter="url(#filter0_d_3028_44417)">
<rect x="501" y="442" width="260" height="88" rx="44" fill="white"/>
</g>
<g id="IND 1" clip-path="url(#clip0_3028_44417)">
<g id="IND">
<path id="Vector" d="M549 510C562.255 510 573 499.255 573 486C573 472.745 562.255 462 549 462C535.745 462 525 472.745 525 486C525 499.255 535.745 510 549 510Z" fill="white"/>
<path id="Vector_2" d="M549 462C539.485 462 531.262 467.537 527.381 475.565H570.618C566.737 467.537 558.515 462 549 462Z" fill="#FF9811"/>
<path id="Vector_3" d="M549 510C558.515 510 566.737 504.462 570.618 496.435H527.381C531.262 504.462 539.485 510 549 510Z" fill="#6DA544"/>
<path id="Vector_4" d="M549 494.348C553.61 494.348 557.348 490.61 557.348 486C557.348 481.39 553.61 477.652 549 477.652C544.39 477.652 540.652 481.39 540.652 486C540.652 490.61 544.39 494.348 549 494.348Z" fill="#0052B4"/>
<path id="Vector_5" d="M548.999 491.218C551.881 491.218 554.216 488.882 554.216 486C554.216 483.119 551.881 480.783 548.999 480.783C546.118 480.783 543.782 483.119 543.782 486C543.782 488.882 546.118 491.218 548.999 491.218Z" fill="white"/>
<path id="Vector_6" d="M549 479.562L550.609 483.213L554.575 482.781L552.219 486L554.575 489.219L550.609 488.788L549 492.438L547.39 488.788L543.424 489.219L545.78 486L543.424 482.781L547.39 483.212L549 479.562Z" fill="#0052B4"/>
</g>
</g>
<path id="130.188.240.**" d="M594.4 493V481.12L590.98 481.78V479.96L595.08 479.12H596.62V493H594.4ZM602.001 492.94V491.02C602.921 491.247 603.941 491.36 605.061 491.36C606.128 491.36 606.961 491.187 607.561 490.84C608.174 490.493 608.481 489.893 608.481 489.04C608.481 488.173 608.174 487.567 607.561 487.22C606.948 486.86 605.994 486.68 604.701 486.68H603.621V485H604.681C605.814 485 606.681 484.813 607.281 484.44C607.894 484.053 608.201 483.487 608.201 482.74C608.201 482.02 607.968 481.507 607.501 481.2C607.048 480.88 606.348 480.72 605.401 480.72C604.974 480.72 604.501 480.76 603.981 480.84C603.474 480.907 603.021 481 602.621 481.12V479.32C602.981 479.213 603.434 479.12 603.981 479.04C604.528 478.96 605.061 478.92 605.581 478.92C607.141 478.92 608.314 479.213 609.101 479.8C609.901 480.387 610.301 481.327 610.301 482.62C610.301 483.447 610.101 484.113 609.701 484.62C609.301 485.113 608.708 485.48 607.921 485.72V485.84C608.841 486.013 609.528 486.38 609.981 486.94C610.434 487.5 610.661 488.233 610.661 489.14C610.661 491.847 608.821 493.2 605.141 493.2C603.928 493.2 602.881 493.113 602.001 492.94ZM613.222 486.06C613.222 484.233 613.416 482.8 613.802 481.76C614.202 480.707 614.749 479.973 615.442 479.56C616.149 479.133 617.016 478.92 618.042 478.92C619.082 478.92 619.949 479.127 620.642 479.54C621.349 479.953 621.896 480.687 622.282 481.74C622.669 482.78 622.862 484.22 622.862 486.06C622.862 487.9 622.669 489.347 622.282 490.4C621.896 491.44 621.349 492.167 620.642 492.58C619.949 492.993 619.082 493.2 618.042 493.2C617.016 493.2 616.149 492.993 615.442 492.58C614.749 492.167 614.202 491.44 613.802 490.4C613.416 489.347 613.222 487.9 613.222 486.06ZM620.662 486.06C620.662 484.687 620.569 483.62 620.382 482.86C620.209 482.1 619.936 481.567 619.562 481.26C619.189 480.953 618.682 480.8 618.042 480.8C617.416 480.8 616.916 480.953 616.542 481.26C616.169 481.567 615.889 482.1 615.702 482.86C615.529 483.62 615.442 484.687 615.442 486.06C615.442 487.447 615.529 488.52 615.702 489.28C615.889 490.04 616.169 490.573 616.542 490.88C616.916 491.187 617.416 491.34 618.042 491.34C618.682 491.34 619.189 491.187 619.562 490.88C619.936 490.573 620.209 490.04 620.382 489.28C620.569 488.52 620.662 487.447 620.662 486.06ZM625.523 491.66C625.523 491.233 625.563 490.92 625.643 490.72C625.723 490.52 625.863 490.387 626.063 490.32C626.263 490.253 626.57 490.22 626.983 490.22C627.383 490.22 627.683 490.253 627.883 490.32C628.083 490.387 628.223 490.52 628.303 490.72C628.397 490.92 628.443 491.233 628.443 491.66C628.443 492.087 628.397 492.4 628.303 492.6C628.223 492.8 628.083 492.933 627.883 493C627.683 493.08 627.383 493.12 626.983 493.12C626.57 493.12 626.263 493.08 626.063 493C625.863 492.933 625.723 492.8 625.643 492.6C625.563 492.4 625.523 492.087 625.523 491.66ZM632.701 493V481.12L629.281 481.78V479.96L633.381 479.12H634.921V493H632.701ZM639.862 489.34C639.862 487.62 640.655 486.46 642.242 485.86V485.78C641.629 485.487 641.149 485.093 640.802 484.6C640.469 484.107 640.302 483.447 640.302 482.62C640.302 481.46 640.669 480.553 641.402 479.9C642.149 479.233 643.255 478.9 644.722 478.9C646.189 478.9 647.289 479.233 648.022 479.9C648.755 480.553 649.122 481.46 649.122 482.62C649.122 483.447 648.955 484.113 648.622 484.62C648.302 485.113 647.802 485.5 647.122 485.78V485.86C647.882 486.1 648.482 486.493 648.922 487.04C649.362 487.573 649.582 488.347 649.582 489.36C649.582 490.653 649.162 491.62 648.322 492.26C647.495 492.9 646.295 493.22 644.722 493.22C643.162 493.22 641.962 492.9 641.122 492.26C640.282 491.607 639.862 490.633 639.862 489.34ZM647.162 482.8C647.162 482.107 646.955 481.573 646.542 481.2C646.129 480.827 645.522 480.64 644.722 480.64C643.082 480.64 642.262 481.36 642.262 482.8C642.262 484.293 643.082 485.04 644.722 485.04C645.575 485.04 646.195 484.84 646.582 484.44C646.969 484.027 647.162 483.48 647.162 482.8ZM647.542 489.2C647.542 487.52 646.602 486.68 644.722 486.68C643.775 486.68 643.069 486.887 642.602 487.3C642.135 487.713 641.902 488.347 641.902 489.2C641.902 489.92 642.129 490.473 642.582 490.86C643.049 491.247 643.762 491.44 644.722 491.44C645.669 491.44 646.375 491.247 646.842 490.86C647.309 490.46 647.542 489.907 647.542 489.2ZM651.483 489.34C651.483 487.62 652.276 486.46 653.863 485.86V485.78C653.25 485.487 652.77 485.093 652.423 484.6C652.09 484.107 651.923 483.447 651.923 482.62C651.923 481.46 652.29 480.553 653.023 479.9C653.77 479.233 654.876 478.9 656.343 478.9C657.81 478.9 658.91 479.233 659.643 479.9C660.376 480.553 660.743 481.46 660.743 482.62C660.743 483.447 660.576 484.113 660.243 484.62C659.923 485.113 659.423 485.5 658.743 485.78V485.86C659.503 486.1 660.103 486.493 660.543 487.04C660.983 487.573 661.203 488.347 661.203 489.36C661.203 490.653 660.783 491.62 659.943 492.26C659.116 492.9 657.916 493.22 656.343 493.22C654.783 493.22 653.583 492.9 652.743 492.26C651.903 491.607 651.483 490.633 651.483 489.34ZM658.783 482.8C658.783 482.107 658.576 481.573 658.163 481.2C657.75 480.827 657.143 480.64 656.343 480.64C654.703 480.64 653.883 481.36 653.883 482.8C653.883 484.293 654.703 485.04 656.343 485.04C657.196 485.04 657.816 484.84 658.203 484.44C658.59 484.027 658.783 483.48 658.783 482.8ZM659.163 489.2C659.163 487.52 658.223 486.68 656.343 486.68C655.396 486.68 654.69 486.887 654.223 487.3C653.756 487.713 653.523 488.347 653.523 489.2C653.523 489.92 653.75 490.473 654.203 490.86C654.67 491.247 655.383 491.44 656.343 491.44C657.29 491.44 657.996 491.247 658.463 490.86C658.93 490.46 659.163 489.907 659.163 489.2ZM663.824 491.66C663.824 491.233 663.864 490.92 663.944 490.72C664.024 490.52 664.164 490.387 664.364 490.32C664.564 490.253 664.871 490.22 665.284 490.22C665.684 490.22 665.984 490.253 666.184 490.32C666.384 490.387 666.524 490.52 666.604 490.72C666.697 490.92 666.744 491.233 666.744 491.66C666.744 492.087 666.697 492.4 666.604 492.6C666.524 492.8 666.384 492.933 666.184 493C665.984 493.08 665.684 493.12 665.284 493.12C664.871 493.12 664.564 493.08 664.364 493C664.164 492.933 664.024 492.8 663.944 492.6C663.864 492.4 663.824 492.087 663.824 491.66ZM669.495 490.84C671.335 489.387 672.728 488.207 673.675 487.3C674.621 486.38 675.275 485.607 675.635 484.98C675.995 484.34 676.175 483.693 676.175 483.04C676.175 481.507 675.255 480.74 673.415 480.74C672.441 480.74 671.441 480.88 670.415 481.16V479.3C671.375 479.047 672.488 478.92 673.755 478.92C675.221 478.92 676.355 479.247 677.155 479.9C677.955 480.54 678.355 481.533 678.355 482.88C678.355 483.707 678.195 484.467 677.875 485.16C677.568 485.853 677.028 486.6 676.255 487.4C675.495 488.187 674.381 489.167 672.915 490.34L672.075 491V491.16H678.835V493H669.495V490.84ZM690.756 487.88V489.74H689.156V493H687.076V489.74H680.656V487.48L686.556 479.12H689.156V487.88H690.756ZM682.516 487.88H687.076V481.38H686.956L682.516 487.76V487.88ZM692.617 486.06C692.617 484.233 692.81 482.8 693.197 481.76C693.597 480.707 694.143 479.973 694.837 479.56C695.543 479.133 696.41 478.92 697.437 478.92C698.477 478.92 699.343 479.127 700.037 479.54C700.743 479.953 701.29 480.687 701.677 481.74C702.063 482.78 702.257 484.22 702.257 486.06C702.257 487.9 702.063 489.347 701.677 490.4C701.29 491.44 700.743 492.167 700.037 492.58C699.343 492.993 698.477 493.2 697.437 493.2C696.41 493.2 695.543 492.993 694.837 492.58C694.143 492.167 693.597 491.44 693.197 490.4C692.81 489.347 692.617 487.9 692.617 486.06ZM700.057 486.06C700.057 484.687 699.963 483.62 699.777 482.86C699.603 482.1 699.33 481.567 698.957 481.26C698.583 480.953 698.077 480.8 697.437 480.8C696.81 480.8 696.31 480.953 695.937 481.26C695.563 481.567 695.283 482.1 695.097 482.86C694.923 483.62 694.837 484.687 694.837 486.06C694.837 487.447 694.923 488.52 695.097 489.28C695.283 490.04 695.563 490.573 695.937 490.88C696.31 491.187 696.81 491.34 697.437 491.34C698.077 491.34 698.583 491.187 698.957 490.88C699.33 490.573 699.603 490.04 699.777 489.28C699.963 488.52 700.057 487.447 700.057 486.06ZM704.918 491.66C704.918 491.233 704.958 490.92 705.038 490.72C705.118 490.52 705.258 490.387 705.458 490.32C705.658 490.253 705.964 490.22 706.378 490.22C706.778 490.22 707.078 490.253 707.278 490.32C707.478 490.387 707.618 490.52 707.698 490.72C707.791 490.92 707.838 491.233 707.838 491.66C707.838 492.087 707.791 492.4 707.698 492.6C707.618 492.8 707.478 492.933 707.278 493C707.078 493.08 706.778 493.12 706.378 493.12C705.964 493.12 705.658 493.08 705.458 493C705.258 492.933 705.118 492.8 705.038 492.6C704.958 492.4 704.918 492.087 704.918 491.66ZM712.548 485.06L710.948 483.9L712.748 481.86L710.088 481.3L710.708 479.42L713.188 480.52L712.908 477.8H714.908L714.608 480.52L717.108 479.42L717.728 481.3L715.048 481.86L716.868 483.9L715.288 485.06L713.908 482.68L712.548 485.06ZM721.396 485.06L719.796 483.9L721.596 481.86L718.936 481.3L719.556 479.42L722.036 480.52L721.756 477.8H723.756L723.456 480.52L725.956 479.42L726.576 481.3L723.896 481.86L725.716 483.9L724.136 485.06L722.756 482.68L721.396 485.06Z" fill="#999999"/>
</g>
<g id="&#233;&#157;&#153;&#230;&#128;&#129;_2" opacity="0.6">
<g id="Rectangle 45_2" filter="url(#filter1_d_3028_44417)">
<rect x="86" y="70" width="260" height="88" rx="44" fill="white"/>
</g>
<g id="DEU">
<path id="Vector_7" d="M111.491 122.348C114.882 131.487 123.68 138 133.999 138C144.318 138 153.115 131.487 156.506 122.348L133.999 120.261L111.491 122.348Z" fill="#FFDA44"/>
<path id="Vector_2_2" d="M133.999 90C123.68 90 114.882 96.513 111.491 105.652L133.999 107.739L156.506 105.652C153.115 96.513 144.318 90 133.999 90Z" fill="black"/>
<path id="Vector_3_2" d="M111.493 105.652C110.528 108.253 110 111.064 110 114C110 116.936 110.528 119.747 111.493 122.348H156.508C157.473 119.747 158.001 116.936 158.001 114C158.001 111.064 157.473 108.253 156.508 105.652H111.493Z" fill="#D80027"/>
</g>
<g id="hk 1" clip-path="url(#clip1_3028_44417)">
<g id="hk">
<g id="Clip path group">
<mask id="mask0_3028_44417" style="mask-type:luminance" maskUnits="userSpaceOnUse" x="110" y="90" width="48" height="48">
<g id="clip0_726_8860">
<path id="Vector_8" d="M158 114C158 100.745 147.255 90 134 90C120.745 90 110 100.745 110 114C110 127.255 120.745 138 134 138C147.255 138 158 127.255 158 114Z" fill="white"/>
</g>
</mask>
<g mask="url(#mask0_3028_44417)">
<g id="Group">
<path id="Vector_9" d="M158 114C158 100.745 147.255 90 134 90C120.745 90 110 100.745 110 114C110 127.255 120.745 138 134 138C147.255 138 158 127.255 158 114Z" fill="white"/>
<path id="Vector_10" d="M173.609 141.338H97.2671V87.8965H173.609V141.338Z" fill="#D80027"/>
<path id="Vector_2_3" d="M134.353 113.761C134.353 113.761 128.967 111.444 129.739 105.432C130.48 102.541 131.806 100.568 134.196 99.4929C135.323 99.1485 136.472 98.9919 137.641 98.8979C137.328 99.1902 137.077 99.4825 136.941 99.8374C136.691 100.505 136.879 101.132 137.223 101.768C137.651 102.499 137.912 103.25 137.996 104.232C138.074 104.9 137.974 105.578 137.707 106.195C137.439 106.813 137.013 107.349 136.472 107.749C135.783 108.282 134.969 108.469 134.301 109.075C133.779 109.576 133.466 110.087 133.361 110.964C133.34 112.644 133.789 112.885 134.353 113.761Z" fill="white"/>
<path id="Vector_3_3" d="M134.635 104.022L134.979 104.596L134.353 104.335L133.863 104.857L133.946 104.179L133.32 103.918L133.998 103.761L134.082 103.093L134.426 103.667L135.115 103.511" fill="#D80027"/>
<path id="Vector_4_2" d="M134.812 113.364C134.812 113.364 135.438 107.529 141.419 106.506C144.404 106.381 146.68 107.059 148.412 109.043C149.07 110.013 149.55 111.067 149.978 112.153C149.613 111.944 149.268 111.788 148.872 111.767C148.172 111.715 147.619 112.08 147.118 112.591C146.533 113.239 145.804 113.74 144.989 114.053C144.373 114.325 143.697 114.429 143.028 114.356C142.359 114.283 141.721 114.034 141.179 113.635C140.469 113.124 140.052 112.403 139.279 111.944C138.652 111.571 137.908 111.445 137.192 111.589C135.574 112.069 135.49 112.57 134.812 113.364Z" fill="white"/>
<path id="Vector_5_2" d="M144.206 110.786L143.757 111.277L143.82 110.598L143.193 110.285L143.851 110.181L143.914 109.481L144.268 110.108L144.936 109.982L144.488 110.473L144.832 111.099" fill="#D80027"/>
<path id="Vector_6_2" d="M135.208 113.783C135.208 113.783 140.948 112.53 143.808 117.884C144.883 120.671 144.956 123.041 143.631 125.306C142.921 126.245 142.065 127.028 141.178 127.79C141.261 127.372 141.293 126.997 141.188 126.621C141.021 125.932 140.499 125.525 139.852 125.212C139.049 124.861 138.341 124.324 137.786 123.646C137.335 123.149 137.024 122.541 136.883 121.885C136.742 121.23 136.776 120.548 136.982 119.909C137.232 119.074 137.786 118.448 137.974 117.571C138.13 116.86 138.014 116.115 137.65 115.484C136.679 114.106 136.178 114.179 135.208 113.783Z" fill="white"/>
<path id="Vector_8_2" d="M140.635 121.881L140.019 121.61L140.698 121.453L140.781 120.754L141.105 121.349L141.783 121.192L141.313 121.714L141.626 122.309L141.021 122.038L140.551 122.57" fill="#D80027"/>
<path id="Vector_9_2" d="M135.083 114.376C135.083 114.376 137.891 119.532 133.569 123.77C131.19 125.586 128.935 126.327 126.388 125.691C125.292 125.273 124.301 124.678 123.309 124.031C123.727 124 124.113 123.927 124.447 123.718C125.052 123.363 125.292 122.747 125.418 122.048C125.526 121.176 125.841 120.342 126.336 119.616C126.686 119.043 127.181 118.572 127.771 118.252C128.361 117.931 129.026 117.771 129.697 117.789C130.574 117.8 131.325 118.165 132.223 118.102C132.943 118.008 133.507 117.81 134.143 117.184C135.187 115.879 134.978 115.409 135.083 114.366V114.376Z" fill="white"/>
<path id="Vector_11" d="M128.831 121.862L128.925 121.194L129.269 121.789L129.958 121.684L129.478 122.165L129.822 122.76L129.186 122.457L128.706 122.937L128.789 122.269L128.152 121.966" fill="#D80027"/>
<path id="Vector_12" d="M134.445 114.263C134.445 114.263 130.52 118.626 125.072 115.974C122.567 114.336 121.126 112.446 120.886 109.837C120.918 108.658 121.137 107.53 121.419 106.393C121.596 106.768 121.794 107.102 122.097 107.353C122.629 107.802 123.297 107.822 124.007 107.708C124.859 107.521 125.743 107.543 126.585 107.77C127.244 107.909 127.855 108.22 128.356 108.671C128.856 109.122 129.228 109.697 129.435 110.338C129.717 111.163 129.623 111.998 129.988 112.822C130.301 113.469 130.677 113.929 131.481 114.325C133.067 114.878 133.432 114.524 134.445 114.273V114.263Z" fill="white"/>
<path id="Vector_14" d="M125.313 110.859L125.971 110.724L125.522 111.246L125.845 111.862L125.24 111.569L124.791 112.091L124.864 111.381L124.249 111.089L124.906 110.953L124.979 110.244" fill="#D80027"/>
</g>
</g>
</g>
</g>
</g>
<path id="93.0.187 .120.18" d="M176.84 119.36C178.453 119.36 179.727 118.98 180.66 118.22C181.593 117.46 182.127 116.44 182.26 115.16H182.18C181.9 115.44 181.507 115.68 181 115.88C180.493 116.08 179.947 116.18 179.36 116.18C178 116.18 176.94 115.813 176.18 115.08C175.433 114.347 175.06 113.247 175.06 111.78C175.06 110.327 175.453 109.153 176.24 108.26C177.027 107.367 178.193 106.92 179.74 106.92C181.18 106.92 182.327 107.36 183.18 108.24C184.033 109.12 184.46 110.573 184.46 112.6C184.46 115.373 183.853 117.507 182.64 119C181.427 120.48 179.493 121.22 176.84 121.22V119.36ZM182.4 111.98C182.4 110.94 182.173 110.133 181.72 109.56C181.28 108.987 180.627 108.7 179.76 108.7C178.893 108.7 178.227 108.967 177.76 109.5C177.307 110.033 177.08 110.793 177.08 111.78C177.08 112.687 177.307 113.373 177.76 113.84C178.213 114.307 178.82 114.54 179.58 114.54C180.54 114.54 181.247 114.313 181.7 113.86C182.167 113.407 182.4 112.78 182.4 111.98ZM187.001 120.94V119.02C187.921 119.247 188.941 119.36 190.061 119.36C191.128 119.36 191.961 119.187 192.561 118.84C193.174 118.493 193.481 117.893 193.481 117.04C193.481 116.173 193.174 115.567 192.561 115.22C191.948 114.86 190.994 114.68 189.701 114.68H188.621V113H189.681C190.814 113 191.681 112.813 192.281 112.44C192.894 112.053 193.201 111.487 193.201 110.74C193.201 110.02 192.968 109.507 192.501 109.2C192.048 108.88 191.348 108.72 190.401 108.72C189.974 108.72 189.501 108.76 188.981 108.84C188.474 108.907 188.021 109 187.621 109.12V107.32C187.981 107.213 188.434 107.12 188.981 107.04C189.528 106.96 190.061 106.92 190.581 106.92C192.141 106.92 193.314 107.213 194.101 107.8C194.901 108.387 195.301 109.327 195.301 110.62C195.301 111.447 195.101 112.113 194.701 112.62C194.301 113.113 193.708 113.48 192.921 113.72V113.84C193.841 114.013 194.528 114.38 194.981 114.94C195.434 115.5 195.661 116.233 195.661 117.14C195.661 119.847 193.821 121.2 190.141 121.2C188.928 121.2 187.881 121.113 187.001 120.94ZM198.902 119.66C198.902 119.233 198.942 118.92 199.022 118.72C199.102 118.52 199.242 118.387 199.442 118.32C199.642 118.253 199.949 118.22 200.362 118.22C200.762 118.22 201.062 118.253 201.262 118.32C201.462 118.387 201.602 118.52 201.682 118.72C201.776 118.92 201.822 119.233 201.822 119.66C201.822 120.087 201.776 120.4 201.682 120.6C201.602 120.8 201.462 120.933 201.262 121C201.062 121.08 200.762 121.12 200.362 121.12C199.949 121.12 199.642 121.08 199.442 121C199.242 120.933 199.102 120.8 199.022 120.6C198.942 120.4 198.902 120.087 198.902 119.66ZM204.453 114.06C204.453 112.233 204.646 110.8 205.033 109.76C205.433 108.707 205.979 107.973 206.673 107.56C207.379 107.133 208.246 106.92 209.273 106.92C210.313 106.92 211.179 107.127 211.873 107.54C212.579 107.953 213.126 108.687 213.513 109.74C213.899 110.78 214.093 112.22 214.093 114.06C214.093 115.9 213.899 117.347 213.513 118.4C213.126 119.44 212.579 120.167 211.873 120.58C211.179 120.993 210.313 121.2 209.273 121.2C208.246 121.2 207.379 120.993 206.673 120.58C205.979 120.167 205.433 119.44 205.033 118.4C204.646 117.347 204.453 115.9 204.453 114.06ZM211.893 114.06C211.893 112.687 211.799 111.62 211.613 110.86C211.439 110.1 211.166 109.567 210.793 109.26C210.419 108.953 209.913 108.8 209.273 108.8C208.646 108.8 208.146 108.953 207.773 109.26C207.399 109.567 207.119 110.1 206.933 110.86C206.759 111.62 206.673 112.687 206.673 114.06C206.673 115.447 206.759 116.52 206.933 117.28C207.119 118.04 207.399 118.573 207.773 118.88C208.146 119.187 208.646 119.34 209.273 119.34C209.913 119.34 210.419 119.187 210.793 118.88C211.166 118.573 211.439 118.04 211.613 117.28C211.799 116.52 211.893 115.447 211.893 114.06ZM216.754 119.66C216.754 119.233 216.794 118.92 216.874 118.72C216.954 118.52 217.094 118.387 217.294 118.32C217.494 118.253 217.8 118.22 218.214 118.22C218.614 118.22 218.914 118.253 219.114 118.32C219.314 118.387 219.454 118.52 219.534 118.72C219.627 118.92 219.674 119.233 219.674 119.66C219.674 120.087 219.627 120.4 219.534 120.6C219.454 120.8 219.314 120.933 219.114 121C218.914 121.08 218.614 121.12 218.214 121.12C217.8 121.12 217.494 121.08 217.294 121C217.094 120.933 216.954 120.8 216.874 120.6C216.794 120.4 216.754 120.087 216.754 119.66ZM223.931 121V109.12L220.511 109.78V107.96L224.611 107.12H226.151V121H223.931ZM231.092 117.34C231.092 115.62 231.886 114.46 233.472 113.86V113.78C232.859 113.487 232.379 113.093 232.032 112.6C231.699 112.107 231.532 111.447 231.532 110.62C231.532 109.46 231.899 108.553 232.632 107.9C233.379 107.233 234.486 106.9 235.952 106.9C237.419 106.9 238.519 107.233 239.252 107.9C239.986 108.553 240.352 109.46 240.352 110.62C240.352 111.447 240.186 112.113 239.852 112.62C239.532 113.113 239.032 113.5 238.352 113.78V113.86C239.112 114.1 239.712 114.493 240.152 115.04C240.592 115.573 240.812 116.347 240.812 117.36C240.812 118.653 240.392 119.62 239.552 120.26C238.726 120.9 237.526 121.22 235.952 121.22C234.392 121.22 233.192 120.9 232.352 120.26C231.512 119.607 231.092 118.633 231.092 117.34ZM238.392 110.8C238.392 110.107 238.186 109.573 237.772 109.2C237.359 108.827 236.752 108.64 235.952 108.64C234.312 108.64 233.492 109.36 233.492 110.8C233.492 112.293 234.312 113.04 235.952 113.04C236.806 113.04 237.426 112.84 237.812 112.44C238.199 112.027 238.392 111.48 238.392 110.8ZM238.772 117.2C238.772 115.52 237.832 114.68 235.952 114.68C235.006 114.68 234.299 114.887 233.832 115.3C233.366 115.713 233.132 116.347 233.132 117.2C233.132 117.92 233.359 118.473 233.812 118.86C234.279 119.247 234.992 119.44 235.952 119.44C236.899 119.44 237.606 119.247 238.072 118.86C238.539 118.46 238.772 117.907 238.772 117.2ZM244.373 121L250.093 109H242.853V107.12H252.073V109.26L246.653 121H244.373ZM260.191 119.66C260.191 119.233 260.231 118.92 260.311 118.72C260.391 118.52 260.531 118.387 260.731 118.32C260.931 118.253 261.238 118.22 261.651 118.22C262.051 118.22 262.351 118.253 262.551 118.32C262.751 118.387 262.891 118.52 262.971 118.72C263.065 118.92 263.111 119.233 263.111 119.66C263.111 120.087 263.065 120.4 262.971 120.6C262.891 120.8 262.751 120.933 262.551 121C262.351 121.08 262.051 121.12 261.651 121.12C261.238 121.12 260.931 121.08 260.731 121C260.531 120.933 260.391 120.8 260.311 120.6C260.231 120.4 260.191 120.087 260.191 119.66ZM267.369 121V109.12L263.949 109.78V107.96L268.049 107.12H269.589V121H267.369ZM274.69 118.84C276.53 117.387 277.923 116.207 278.87 115.3C279.817 114.38 280.47 113.607 280.83 112.98C281.19 112.34 281.37 111.693 281.37 111.04C281.37 109.507 280.45 108.74 278.61 108.74C277.637 108.74 276.637 108.88 275.61 109.16V107.3C276.57 107.047 277.683 106.92 278.95 106.92C280.417 106.92 281.55 107.247 282.35 107.9C283.15 108.54 283.55 109.533 283.55 110.88C283.55 111.707 283.39 112.467 283.07 113.16C282.763 113.853 282.223 114.6 281.45 115.4C280.69 116.187 279.577 117.167 278.11 118.34L277.27 119V119.16H284.03V121H274.69V118.84ZM286.191 114.06C286.191 112.233 286.384 110.8 286.771 109.76C287.171 108.707 287.718 107.973 288.411 107.56C289.118 107.133 289.984 106.92 291.011 106.92C292.051 106.92 292.918 107.127 293.611 107.54C294.318 107.953 294.864 108.687 295.251 109.74C295.638 110.78 295.831 112.22 295.831 114.06C295.831 115.9 295.638 117.347 295.251 118.4C294.864 119.44 294.318 120.167 293.611 120.58C292.918 120.993 292.051 121.2 291.011 121.2C289.984 121.2 289.118 120.993 288.411 120.58C287.718 120.167 287.171 119.44 286.771 118.4C286.384 117.347 286.191 115.9 286.191 114.06ZM293.631 114.06C293.631 112.687 293.538 111.62 293.351 110.86C293.178 110.1 292.904 109.567 292.531 109.26C292.158 108.953 291.651 108.8 291.011 108.8C290.384 108.8 289.884 108.953 289.511 109.26C289.138 109.567 288.858 110.1 288.671 110.86C288.498 111.62 288.411 112.687 288.411 114.06C288.411 115.447 288.498 116.52 288.671 117.28C288.858 118.04 289.138 118.573 289.511 118.88C289.884 119.187 290.384 119.34 291.011 119.34C291.651 119.34 292.158 119.187 292.531 118.88C292.904 118.573 293.178 118.04 293.351 117.28C293.538 116.52 293.631 115.447 293.631 114.06ZM298.492 119.66C298.492 119.233 298.532 118.92 298.612 118.72C298.692 118.52 298.832 118.387 299.032 118.32C299.232 118.253 299.539 118.22 299.952 118.22C300.352 118.22 300.652 118.253 300.852 118.32C301.052 118.387 301.192 118.52 301.272 118.72C301.365 118.92 301.412 119.233 301.412 119.66C301.412 120.087 301.365 120.4 301.272 120.6C301.192 120.8 301.052 120.933 300.852 121C300.652 121.08 300.352 121.12 299.952 121.12C299.539 121.12 299.232 121.08 299.032 121C298.832 120.933 298.692 120.8 298.612 120.6C298.532 120.4 298.492 120.087 298.492 119.66ZM305.67 121V109.12L302.25 109.78V107.96L306.35 107.12H307.89V121H305.67ZM312.831 117.34C312.831 115.62 313.624 114.46 315.211 113.86V113.78C314.597 113.487 314.117 113.093 313.771 112.6C313.437 112.107 313.271 111.447 313.271 110.62C313.271 109.46 313.637 108.553 314.371 107.9C315.117 107.233 316.224 106.9 317.691 106.9C319.157 106.9 320.257 107.233 320.991 107.9C321.724 108.553 322.091 109.46 322.091 110.62C322.091 111.447 321.924 112.113 321.591 112.62C321.271 113.113 320.771 113.5 320.091 113.78V113.86C320.851 114.1 321.451 114.493 321.891 115.04C322.331 115.573 322.551 116.347 322.551 117.36C322.551 118.653 322.131 119.62 321.291 120.26C320.464 120.9 319.264 121.22 317.691 121.22C316.131 121.22 314.931 120.9 314.091 120.26C313.251 119.607 312.831 118.633 312.831 117.34ZM320.131 110.8C320.131 110.107 319.924 109.573 319.511 109.2C319.097 108.827 318.491 108.64 317.691 108.64C316.051 108.64 315.231 109.36 315.231 110.8C315.231 112.293 316.051 113.04 317.691 113.04C318.544 113.04 319.164 112.84 319.551 112.44C319.937 112.027 320.131 111.48 320.131 110.8ZM320.511 117.2C320.511 115.52 319.571 114.68 317.691 114.68C316.744 114.68 316.037 114.887 315.571 115.3C315.104 115.713 314.871 116.347 314.871 117.2C314.871 117.92 315.097 118.473 315.551 118.86C316.017 119.247 316.731 119.44 317.691 119.44C318.637 119.44 319.344 119.247 319.811 118.86C320.277 118.46 320.511 117.907 320.511 117.2Z" fill="#999999"/>
</g>
<g id="Frame 36">
<g id="Group 1321316505">
<g id="Rectangle 34625670" filter="url(#filter2_d_3028_44417)">
<rect x="186" y="112" width="476" height="84" rx="29" fill="white"/>
</g>
<circle id="Ellipse 24" cx="234" cy="155" r="24" stroke="#E7F6FC" stroke-width="2"/>
<circle id="Ellipse 25" cx="234" cy="155" r="15" fill="#E7F6FC"/>
<rect id="Rectangle 34625671" x="269" y="138" width="227" height="32" rx="5" fill="#E7F6FC"/>
<rect id="Rectangle 34625672" x="590" y="138" width="52" height="32" rx="5" fill="#E7F6FC"/>
<rect id="Rectangle 34625673" x="522" y="138" width="52" height="32" rx="5" fill="#E7F6FC"/>
</g>
<g id="Group 1321316506">
<g id="Rectangle 34625670_2" filter="url(#filter3_d_3028_44417)">
<rect x="186" y="208" width="476" height="84" rx="29" fill="white"/>
</g>
<circle id="Ellipse 24_2" cx="234" cy="251" r="24" stroke="#E7F6FC" stroke-width="2"/>
<circle id="Ellipse 25_2" cx="234" cy="251" r="15" fill="#E7F6FC"/>
<rect id="Rectangle 34625671_2" x="269" y="234" width="227" height="32" rx="5" fill="#E7F6FC"/>
<rect id="Rectangle 34625672_2" x="590" y="234" width="52" height="32" rx="5" fill="#E7F6FC"/>
<rect id="Rectangle 34625673_2" x="522" y="234" width="52" height="32" rx="5" fill="#E7F6FC"/>
</g>
<g id="Group 1321316507">
<g id="Rectangle 34625670_3" filter="url(#filter4_d_3028_44417)">
<rect x="186" y="304" width="476" height="84" rx="29" fill="white"/>
</g>
<circle id="Ellipse 24_3" cx="234" cy="347" r="24" stroke="#E7F6FC" stroke-width="2"/>
<circle id="Ellipse 25_3" cx="234" cy="347" r="15" fill="#E7F6FC"/>
<rect id="Rectangle 34625671_3" x="269" y="330" width="227" height="32" rx="5" fill="#E7F6FC"/>
<rect id="Rectangle 34625672_3" x="590" y="330" width="52" height="32" rx="5" fill="#E7F6FC"/>
<rect id="Rectangle 34625673_3" x="522" y="330" width="52" height="32" rx="5" fill="#E7F6FC"/>
</g>
<g id="Group 1321316508">
<g id="Rectangle 34625670_4" filter="url(#filter5_d_3028_44417)">
<rect x="186" y="400" width="476" height="84" rx="29" fill="white"/>
</g>
<circle id="Ellipse 24_4" cx="234" cy="443" r="24" stroke="#E7F6FC" stroke-width="2"/>
<circle id="Ellipse 25_4" cx="234" cy="443" r="15" fill="#E7F6FC"/>
<rect id="Rectangle 34625671_4" x="269" y="426" width="227" height="32" rx="5" fill="#E7F6FC"/>
<rect id="Rectangle 34625672_4" x="590" y="426" width="52" height="32" rx="5" fill="#E7F6FC"/>
<rect id="Rectangle 34625673_4" x="522" y="426" width="52" height="32" rx="5" fill="#E7F6FC"/>
</g>
</g>
<g id="&#233;&#157;&#153;&#230;&#128;&#129;_3">
<g id="Rectangle 45_3" filter="url(#filter6_d_3028_44417)">
<rect x="74" y="264" width="310" height="98" rx="49" fill="white"/>
</g>
<g id="DEU_2">
<path id="Vector_13" d="M103.927 323.782C108.307 335.587 119.67 343.999 132.998 343.999C146.327 343.999 157.69 335.587 162.07 323.782L132.998 321.087L103.927 323.782Z" fill="#FFDA44"/>
<path id="Vector_2_4" d="M132.998 282C119.67 282 108.307 290.413 103.927 302.218L132.998 304.913L162.07 302.218C157.69 290.413 146.327 282 132.998 282Z" fill="black"/>
<path id="Vector_3_4" d="M103.929 302.217C102.683 305.577 102.001 309.208 102.001 313C102.001 316.791 102.683 320.422 103.929 323.782H162.072C163.318 320.422 164 316.791 164 313C164 309.208 163.318 305.577 162.072 302.217H103.929Z" fill="#D80027"/>
</g>
<g id="GBR 2" clip-path="url(#clip2_3028_44417)">
<g id="Clip path group_2">
<mask id="mask1_3028_44417" style="mask-type:luminance" maskUnits="userSpaceOnUse" x="101" y="282" width="65" height="64">
<g id="clip0_746_3809">
<path id="Vector_15" d="M165.572 282H101.428V346H165.572V282Z" fill="white"/>
</g>
</mask>
<g mask="url(#mask1_3028_44417)">
<g id="GBR">
<path id="Vector_16" d="M133.5 346C151.213 346 165.572 331.673 165.572 314C165.572 296.327 151.213 282 133.5 282C115.787 282 101.428 296.327 101.428 314C101.428 331.673 115.787 346 133.5 346Z" fill="#F0F0F0"/>
<path id="Vector_2_5" d="M108.057 294.518C105.539 297.788 103.638 301.558 102.532 305.652H119.217L108.057 294.518ZM164.466 305.653C163.36 301.558 161.461 297.788 158.942 294.518L147.782 305.653H164.466ZM102.532 322.348C103.638 326.443 105.538 330.212 108.057 333.482L119.216 322.348H102.532ZM153.025 288.615C149.748 286.102 145.97 284.206 141.866 283.103V299.75L153.025 288.615ZM113.973 339.385C117.251 341.898 121.028 343.794 125.132 344.898V328.251L113.973 339.385ZM125.132 283.103C121.028 284.206 117.25 286.102 113.973 288.615L125.132 299.749V283.103ZM141.866 344.898C145.97 343.794 149.748 341.898 153.025 339.385L141.866 328.251V344.898ZM147.782 322.348L158.942 333.482C161.461 330.212 163.361 326.443 164.466 322.348H147.782Z" fill="#0052B4"/>
<path id="Vector_3_5" d="M165.301 309.825H137.684V282.271C136.314 282.093 134.918 282 133.5 282C132.082 282 130.686 282.093 129.316 282.271V309.826H101.699C101.521 311.193 101.428 312.585 101.428 314C101.428 315.415 101.521 316.807 101.699 318.175H129.316V345.73C130.704 345.91 132.101 346 133.5 346C134.899 346 136.296 345.91 137.683 345.729V318.174H165.301C165.482 316.79 165.572 315.396 165.572 314C165.572 312.604 165.482 311.21 165.301 309.826V309.825ZM141.867 322.347L156.179 336.628C156.837 335.971 157.465 335.285 158.064 334.573L145.811 322.348L141.867 322.348L141.867 322.347ZM125.133 322.347L110.821 336.628C111.479 337.284 112.167 337.911 112.88 338.509L125.133 326.283V322.348V322.347ZM125.133 305.651L110.821 291.373C110.163 292.029 109.535 292.715 108.936 293.427L121.189 305.652H125.133L125.133 305.651ZM141.867 305.651L156.179 291.373C155.521 290.716 154.833 290.089 154.12 289.492L141.867 301.717V305.652V305.651Z" fill="#D80027"/>
</g>
</g>
</g>
</g>
<path id="120.187.120.**" d="M188.48 322V307.744L184.376 308.536V306.352L189.296 305.344H191.144V322H188.48ZM197.265 319.408C199.473 317.664 201.145 316.248 202.281 315.16C203.417 314.056 204.201 313.128 204.633 312.376C205.065 311.608 205.281 310.832 205.281 310.048C205.281 308.208 204.177 307.288 201.969 307.288C200.801 307.288 199.601 307.456 198.369 307.792V305.56C199.521 305.256 200.857 305.104 202.377 305.104C204.137 305.104 205.497 305.496 206.457 306.28C207.417 307.048 207.897 308.24 207.897 309.856C207.897 310.848 207.705 311.76 207.321 312.592C206.953 313.424 206.305 314.32 205.377 315.28C204.465 316.224 203.129 317.4 201.369 318.808L200.361 319.6V319.792H208.473V322H197.265V319.408ZM211.067 313.672C211.067 311.48 211.299 309.76 211.763 308.512C212.243 307.248 212.899 306.368 213.731 305.872C214.579 305.36 215.619 305.104 216.851 305.104C218.099 305.104 219.139 305.352 219.971 305.848C220.819 306.344 221.475 307.224 221.939 308.488C222.403 309.736 222.635 311.464 222.635 313.672C222.635 315.88 222.403 317.616 221.939 318.88C221.475 320.128 220.819 321 219.971 321.496C219.139 321.992 218.099 322.24 216.851 322.24C215.619 322.24 214.579 321.992 213.731 321.496C212.899 321 212.243 320.128 211.763 318.88C211.299 317.616 211.067 315.88 211.067 313.672ZM219.995 313.672C219.995 312.024 219.883 310.744 219.659 309.832C219.451 308.92 219.123 308.28 218.675 307.912C218.227 307.544 217.619 307.36 216.851 307.36C216.099 307.36 215.499 307.544 215.051 307.912C214.603 308.28 214.267 308.92 214.043 309.832C213.835 310.744 213.731 312.024 213.731 313.672C213.731 315.336 213.835 316.624 214.043 317.536C214.267 318.448 214.603 319.088 215.051 319.456C215.499 319.824 216.099 320.008 216.851 320.008C217.619 320.008 218.227 319.824 218.675 319.456C219.123 319.088 219.451 318.448 219.659 317.536C219.883 316.624 219.995 315.336 219.995 313.672ZM225.828 320.392C225.828 319.88 225.876 319.504 225.972 319.264C226.068 319.024 226.236 318.864 226.476 318.784C226.716 318.704 227.084 318.664 227.58 318.664C228.06 318.664 228.42 318.704 228.66 318.784C228.9 318.864 229.068 319.024 229.164 319.264C229.276 319.504 229.332 319.88 229.332 320.392C229.332 320.904 229.276 321.28 229.164 321.52C229.068 321.76 228.9 321.92 228.66 322C228.42 322.096 228.06 322.144 227.58 322.144C227.084 322.144 226.716 322.096 226.476 322C226.236 321.92 226.068 321.76 225.972 321.52C225.876 321.28 225.828 320.904 225.828 320.392ZM234.441 322V307.744L230.337 308.536V306.352L235.257 305.344H237.105V322H234.441ZM243.034 317.608C243.034 315.544 243.986 314.152 245.89 313.432V313.336C245.154 312.984 244.578 312.512 244.162 311.92C243.762 311.328 243.562 310.536 243.562 309.544C243.562 308.152 244.002 307.064 244.882 306.28C245.778 305.48 247.106 305.08 248.866 305.08C250.626 305.08 251.946 305.48 252.826 306.28C253.706 307.064 254.146 308.152 254.146 309.544C254.146 310.536 253.946 311.336 253.546 311.944C253.162 312.536 252.562 313 251.746 313.336V313.432C252.658 313.72 253.378 314.192 253.906 314.848C254.434 315.488 254.698 316.416 254.698 317.632C254.698 319.184 254.194 320.344 253.186 321.112C252.194 321.88 250.754 322.264 248.866 322.264C246.994 322.264 245.554 321.88 244.546 321.112C243.538 320.328 243.034 319.16 243.034 317.608ZM251.794 309.76C251.794 308.928 251.546 308.288 251.05 307.84C250.554 307.392 249.826 307.168 248.866 307.168C246.898 307.168 245.914 308.032 245.914 309.76C245.914 311.552 246.898 312.448 248.866 312.448C249.89 312.448 250.634 312.208 251.098 311.728C251.562 311.232 251.794 310.576 251.794 309.76ZM252.25 317.44C252.25 315.424 251.122 314.416 248.866 314.416C247.73 314.416 246.882 314.664 246.322 315.16C245.762 315.656 245.482 316.416 245.482 317.44C245.482 318.304 245.754 318.968 246.298 319.432C246.858 319.896 247.714 320.128 248.866 320.128C250.002 320.128 250.85 319.896 251.41 319.432C251.97 318.952 252.25 318.288 252.25 317.44ZM258.972 322L265.836 307.6H257.148V305.344H268.212V307.912L261.708 322H258.972ZM267.945 320.392C267.945 319.88 267.993 319.504 268.089 319.264C268.185 319.024 268.353 318.864 268.593 318.784C268.833 318.704 269.201 318.664 269.697 318.664C270.177 318.664 270.537 318.704 270.777 318.784C271.017 318.864 271.185 319.024 271.281 319.264C271.393 319.504 271.449 319.88 271.449 320.392C271.449 320.904 271.393 321.28 271.281 321.52C271.185 321.76 271.017 321.92 270.777 322C270.537 322.096 270.177 322.144 269.697 322.144C269.201 322.144 268.833 322.096 268.593 322C268.353 321.92 268.185 321.76 268.089 321.52C267.993 321.28 267.945 320.904 267.945 320.392ZM276.558 322V307.744L272.454 308.536V306.352L277.374 305.344H279.222V322H276.558ZM285.343 319.408C287.551 317.664 289.223 316.248 290.359 315.16C291.495 314.056 292.279 313.128 292.711 312.376C293.143 311.608 293.359 310.832 293.359 310.048C293.359 308.208 292.255 307.288 290.047 307.288C288.879 307.288 287.679 307.456 286.447 307.792V305.56C287.599 305.256 288.935 305.104 290.455 305.104C292.215 305.104 293.575 305.496 294.535 306.28C295.495 307.048 295.975 308.24 295.975 309.856C295.975 310.848 295.783 311.76 295.399 312.592C295.031 313.424 294.383 314.32 293.455 315.28C292.543 316.224 291.207 317.4 289.447 318.808L288.439 319.6V319.792H296.551V322H285.343V319.408ZM299.145 313.672C299.145 311.48 299.377 309.76 299.841 308.512C300.321 307.248 300.977 306.368 301.809 305.872C302.657 305.36 303.697 305.104 304.929 305.104C306.177 305.104 307.217 305.352 308.049 305.848C308.897 306.344 309.553 307.224 310.017 308.488C310.481 309.736 310.713 311.464 310.713 313.672C310.713 315.88 310.481 317.616 310.017 318.88C309.553 320.128 308.897 321 308.049 321.496C307.217 321.992 306.177 322.24 304.929 322.24C303.697 322.24 302.657 321.992 301.809 321.496C300.977 321 300.321 320.128 299.841 318.88C299.377 317.616 299.145 315.88 299.145 313.672ZM308.073 313.672C308.073 312.024 307.961 310.744 307.737 309.832C307.529 308.92 307.201 308.28 306.753 307.912C306.305 307.544 305.697 307.36 304.929 307.36C304.177 307.36 303.577 307.544 303.129 307.912C302.681 308.28 302.345 308.92 302.121 309.832C301.913 310.744 301.809 312.024 301.809 313.672C301.809 315.336 301.913 316.624 302.121 317.536C302.345 318.448 302.681 319.088 303.129 319.456C303.577 319.824 304.177 320.008 304.929 320.008C305.697 320.008 306.305 319.824 306.753 319.456C307.201 319.088 307.529 318.448 307.737 317.536C307.961 316.624 308.073 315.336 308.073 313.672ZM313.906 320.392C313.906 319.88 313.954 319.504 314.05 319.264C314.146 319.024 314.314 318.864 314.554 318.784C314.794 318.704 315.162 318.664 315.658 318.664C316.138 318.664 316.498 318.704 316.738 318.784C316.978 318.864 317.146 319.024 317.242 319.264C317.354 319.504 317.41 319.88 317.41 320.392C317.41 320.904 317.354 321.28 317.242 321.52C317.146 321.76 316.978 321.92 316.738 322C316.498 322.096 316.138 322.144 315.658 322.144C315.162 322.144 314.794 322.096 314.554 322C314.314 321.92 314.146 321.76 314.05 321.52C313.954 321.28 313.906 320.904 313.906 320.392ZM323.063 312.472L321.143 311.08L323.303 308.632L320.111 307.96L320.855 305.704L323.831 307.024L323.495 303.76H325.895L325.535 307.024L328.535 305.704L329.279 307.96L326.063 308.632L328.247 311.08L326.351 312.472L324.695 309.616L323.063 312.472ZM333.68 312.472L331.76 311.08L333.92 308.632L330.728 307.96L331.472 305.704L334.448 307.024L334.112 303.76H336.512L336.152 307.024L339.152 305.704L339.896 307.96L336.68 308.632L338.864 311.08L336.968 312.472L335.312 309.616L333.68 312.472Z" fill="#999999"/>
</g>
<g id="&#233;&#157;&#153;&#230;&#128;&#129;_4">
<g id="Rectangle 45_4" filter="url(#filter7_d_3028_44417)">
<rect x="465" y="154" width="310" height="98" rx="49" fill="white"/>
</g>
<g id="DEU_3">
<path id="Vector_17" d="M494.926 213.782C499.306 225.586 510.669 233.999 523.997 233.999C537.326 233.999 548.689 225.586 553.069 213.782L523.997 211.086L494.926 213.782Z" fill="#FFDA44"/>
<path id="Vector_2_6" d="M523.997 172C510.669 172 499.306 180.412 494.926 192.217L523.997 194.912L553.069 192.217C548.689 180.412 537.326 172 523.997 172Z" fill="black"/>
<path id="Vector_3_6" d="M494.928 192.217C493.682 195.576 493 199.207 493 202.999C493 206.791 493.682 210.422 494.928 213.781H553.071C554.317 210.422 554.999 206.791 554.999 202.999C554.999 199.207 554.317 195.576 553.071 192.217H494.928Z" fill="#D80027"/>
</g>
<path id="172.48.120.**" d="M579.48 212V197.744L575.376 198.536V196.352L580.296 195.344H582.144V212H579.48ZM590.065 212L596.929 197.6H588.241V195.344H599.305V197.912L592.801 212H590.065ZM602.211 209.408C604.419 207.664 606.091 206.248 607.227 205.16C608.363 204.056 609.147 203.128 609.579 202.376C610.011 201.608 610.227 200.832 610.227 200.048C610.227 198.208 609.123 197.288 606.915 197.288C605.747 197.288 604.547 197.456 603.315 197.792V195.56C604.467 195.256 605.803 195.104 607.323 195.104C609.083 195.104 610.443 195.496 611.403 196.28C612.363 197.048 612.843 198.24 612.843 199.856C612.843 200.848 612.651 201.76 612.267 202.592C611.899 203.424 611.251 204.32 610.323 205.28C609.411 206.224 608.075 207.4 606.315 208.808L605.307 209.6V209.792H613.419V212H602.211V209.408ZM616.828 210.392C616.828 209.88 616.876 209.504 616.972 209.264C617.068 209.024 617.236 208.864 617.476 208.784C617.716 208.704 618.084 208.664 618.58 208.664C619.06 208.664 619.42 208.704 619.66 208.784C619.9 208.864 620.068 209.024 620.164 209.264C620.276 209.504 620.332 209.88 620.332 210.392C620.332 210.904 620.276 211.28 620.164 211.52C620.068 211.76 619.9 211.92 619.66 212C619.42 212.096 619.06 212.144 618.58 212.144C618.084 212.144 617.716 212.096 617.476 212C617.236 211.92 617.068 211.76 616.972 211.52C616.876 211.28 616.828 210.904 616.828 210.392ZM635.201 205.856V208.088H633.281V212H630.785V208.088H623.081V205.376L630.161 195.344H633.281V205.856H635.201ZM625.312 205.856H630.785V198.056H630.641L625.312 205.712V205.856ZM637.386 207.608C637.386 205.544 638.338 204.152 640.242 203.432V203.336C639.506 202.984 638.93 202.512 638.514 201.92C638.114 201.328 637.914 200.536 637.914 199.544C637.914 198.152 638.354 197.064 639.234 196.28C640.13 195.48 641.458 195.08 643.218 195.08C644.978 195.08 646.298 195.48 647.178 196.28C648.058 197.064 648.498 198.152 648.498 199.544C648.498 200.536 648.298 201.336 647.898 201.944C647.514 202.536 646.914 203 646.098 203.336V203.432C647.01 203.72 647.73 204.192 648.258 204.848C648.786 205.488 649.05 206.416 649.05 207.632C649.05 209.184 648.546 210.344 647.538 211.112C646.546 211.88 645.106 212.264 643.218 212.264C641.346 212.264 639.906 211.88 638.898 211.112C637.89 210.328 637.386 209.16 637.386 207.608ZM646.146 199.76C646.146 198.928 645.898 198.288 645.402 197.84C644.906 197.392 644.178 197.168 643.218 197.168C641.25 197.168 640.266 198.032 640.266 199.76C640.266 201.552 641.25 202.448 643.218 202.448C644.242 202.448 644.986 202.208 645.45 201.728C645.914 201.232 646.146 200.576 646.146 199.76ZM646.602 207.44C646.602 205.424 645.474 204.416 643.218 204.416C642.082 204.416 641.234 204.664 640.674 205.16C640.114 205.656 639.834 206.416 639.834 207.44C639.834 208.304 640.106 208.968 640.65 209.432C641.21 209.896 642.066 210.128 643.218 210.128C644.354 210.128 645.202 209.896 645.762 209.432C646.322 208.952 646.602 208.288 646.602 207.44ZM652.195 210.392C652.195 209.88 652.243 209.504 652.339 209.264C652.435 209.024 652.603 208.864 652.843 208.784C653.083 208.704 653.451 208.664 653.947 208.664C654.427 208.664 654.787 208.704 655.027 208.784C655.267 208.864 655.435 209.024 655.531 209.264C655.643 209.504 655.699 209.88 655.699 210.392C655.699 210.904 655.643 211.28 655.531 211.52C655.435 211.76 655.267 211.92 655.027 212C654.787 212.096 654.427 212.144 653.947 212.144C653.451 212.144 653.083 212.096 652.843 212C652.603 211.92 652.435 211.76 652.339 211.52C652.243 211.28 652.195 210.904 652.195 210.392ZM660.808 212V197.744L656.704 198.536V196.352L661.624 195.344H663.472V212H660.808ZM669.593 209.408C671.801 207.664 673.473 206.248 674.609 205.16C675.745 204.056 676.529 203.128 676.961 202.376C677.393 201.608 677.609 200.832 677.609 200.048C677.609 198.208 676.505 197.288 674.297 197.288C673.129 197.288 671.929 197.456 670.697 197.792V195.56C671.849 195.256 673.185 195.104 674.705 195.104C676.465 195.104 677.825 195.496 678.785 196.28C679.745 197.048 680.225 198.24 680.225 199.856C680.225 200.848 680.033 201.76 679.649 202.592C679.281 203.424 678.633 204.32 677.705 205.28C676.793 206.224 675.457 207.4 673.697 208.808L672.689 209.6V209.792H680.801V212H669.593V209.408ZM683.395 203.672C683.395 201.48 683.627 199.76 684.091 198.512C684.571 197.248 685.227 196.368 686.059 195.872C686.907 195.36 687.947 195.104 689.179 195.104C690.427 195.104 691.467 195.352 692.299 195.848C693.147 196.344 693.803 197.224 694.267 198.488C694.731 199.736 694.963 201.464 694.963 203.672C694.963 205.88 694.731 207.616 694.267 208.88C693.803 210.128 693.147 211 692.299 211.496C691.467 211.992 690.427 212.24 689.179 212.24C687.947 212.24 686.907 211.992 686.059 211.496C685.227 211 684.571 210.128 684.091 208.88C683.627 207.616 683.395 205.88 683.395 203.672ZM692.323 203.672C692.323 202.024 692.211 200.744 691.987 199.832C691.779 198.92 691.451 198.28 691.003 197.912C690.555 197.544 689.947 197.36 689.179 197.36C688.427 197.36 687.827 197.544 687.379 197.912C686.931 198.28 686.595 198.92 686.371 199.832C686.163 200.744 686.059 202.024 686.059 203.672C686.059 205.336 686.163 206.624 686.371 207.536C686.595 208.448 686.931 209.088 687.379 209.456C687.827 209.824 688.427 210.008 689.179 210.008C689.947 210.008 690.555 209.824 691.003 209.456C691.451 209.088 691.779 208.448 691.987 207.536C692.211 206.624 692.323 205.336 692.323 203.672ZM698.156 210.392C698.156 209.88 698.204 209.504 698.3 209.264C698.396 209.024 698.564 208.864 698.804 208.784C699.044 208.704 699.412 208.664 699.908 208.664C700.388 208.664 700.748 208.704 700.988 208.784C701.228 208.864 701.396 209.024 701.492 209.264C701.604 209.504 701.66 209.88 701.66 210.392C701.66 210.904 701.604 211.28 701.492 211.52C701.396 211.76 701.228 211.92 700.988 212C700.748 212.096 700.388 212.144 699.908 212.144C699.412 212.144 699.044 212.096 698.804 212C698.564 211.92 698.396 211.76 698.3 211.52C698.204 211.28 698.156 210.904 698.156 210.392ZM707.313 202.472L705.393 201.08L707.553 198.632L704.361 197.96L705.105 195.704L708.081 197.024L707.745 193.76H710.145L709.785 197.024L712.785 195.704L713.529 197.96L710.313 198.632L712.497 201.08L710.601 202.472L708.945 199.616L707.313 202.472ZM717.93 202.472L716.01 201.08L718.17 198.632L714.978 197.96L715.722 195.704L718.698 197.024L718.362 193.76H720.762L720.402 197.024L723.402 195.704L724.146 197.96L720.93 198.632L723.114 201.08L721.218 202.472L719.562 199.616L717.93 202.472Z" fill="#999999"/>
</g>
</g>
<defs>
<filter id="filter0_d_3028_44417" x="427" y="372" width="408" height="236" filterUnits="userSpaceOnUse" color-interpolation-filters="sRGB">
<feFlood flood-opacity="0" result="BackgroundImageFix"/>
<feColorMatrix in="SourceAlpha" type="matrix" values="0 0 0 0 0 0 0 0 0 0 0 0 0 0 0 0 0 0 127 0" result="hardAlpha"/>
<feOffset dy="4"/>
<feGaussianBlur stdDeviation="37"/>
<feComposite in2="hardAlpha" operator="out"/>
<feColorMatrix type="matrix" values="0 0 0 0 0.0819556 0 0 0 0 0.372968 0 0 0 0 0.489373 0 0 0 0.13 0"/>
<feBlend mode="normal" in2="BackgroundImageFix" result="effect1_dropShadow_3028_44417"/>
<feBlend mode="normal" in="SourceGraphic" in2="effect1_dropShadow_3028_44417" result="shape"/>
</filter>
<filter id="filter1_d_3028_44417" x="12" y="0" width="408" height="236" filterUnits="userSpaceOnUse" color-interpolation-filters="sRGB">
<feFlood flood-opacity="0" result="BackgroundImageFix"/>
<feColorMatrix in="SourceAlpha" type="matrix" values="0 0 0 0 0 0 0 0 0 0 0 0 0 0 0 0 0 0 127 0" result="hardAlpha"/>
<feOffset dy="4"/>
<feGaussianBlur stdDeviation="37"/>
<feComposite in2="hardAlpha" operator="out"/>
<feColorMatrix type="matrix" values="0 0 0 0 0.0819556 0 0 0 0 0.372968 0 0 0 0 0.489373 0 0 0 0.13 0"/>
<feBlend mode="normal" in2="BackgroundImageFix" result="effect1_dropShadow_3028_44417"/>
<feBlend mode="normal" in="SourceGraphic" in2="effect1_dropShadow_3028_44417" result="shape"/>
</filter>
<filter id="filter2_d_3028_44417" x="112" y="42" width="624" height="232" filterUnits="userSpaceOnUse" color-interpolation-filters="sRGB">
<feFlood flood-opacity="0" result="BackgroundImageFix"/>
<feColorMatrix in="SourceAlpha" type="matrix" values="0 0 0 0 0 0 0 0 0 0 0 0 0 0 0 0 0 0 127 0" result="hardAlpha"/>
<feOffset dy="4"/>
<feGaussianBlur stdDeviation="37"/>
<feComposite in2="hardAlpha" operator="out"/>
<feColorMatrix type="matrix" values="0 0 0 0 0.0819556 0 0 0 0 0.372968 0 0 0 0 0.489373 0 0 0 0.13 0"/>
<feBlend mode="normal" in2="BackgroundImageFix" result="effect1_dropShadow_3028_44417"/>
<feBlend mode="normal" in="SourceGraphic" in2="effect1_dropShadow_3028_44417" result="shape"/>
</filter>
<filter id="filter3_d_3028_44417" x="112" y="138" width="624" height="232" filterUnits="userSpaceOnUse" color-interpolation-filters="sRGB">
<feFlood flood-opacity="0" result="BackgroundImageFix"/>
<feColorMatrix in="SourceAlpha" type="matrix" values="0 0 0 0 0 0 0 0 0 0 0 0 0 0 0 0 0 0 127 0" result="hardAlpha"/>
<feOffset dy="4"/>
<feGaussianBlur stdDeviation="37"/>
<feComposite in2="hardAlpha" operator="out"/>
<feColorMatrix type="matrix" values="0 0 0 0 0.0819556 0 0 0 0 0.372968 0 0 0 0 0.489373 0 0 0 0.13 0"/>
<feBlend mode="normal" in2="BackgroundImageFix" result="effect1_dropShadow_3028_44417"/>
<feBlend mode="normal" in="SourceGraphic" in2="effect1_dropShadow_3028_44417" result="shape"/>
</filter>
<filter id="filter4_d_3028_44417" x="112" y="234" width="624" height="232" filterUnits="userSpaceOnUse" color-interpolation-filters="sRGB">
<feFlood flood-opacity="0" result="BackgroundImageFix"/>
<feColorMatrix in="SourceAlpha" type="matrix" values="0 0 0 0 0 0 0 0 0 0 0 0 0 0 0 0 0 0 127 0" result="hardAlpha"/>
<feOffset dy="4"/>
<feGaussianBlur stdDeviation="37"/>
<feComposite in2="hardAlpha" operator="out"/>
<feColorMatrix type="matrix" values="0 0 0 0 0.0819556 0 0 0 0 0.372968 0 0 0 0 0.489373 0 0 0 0.13 0"/>
<feBlend mode="normal" in2="BackgroundImageFix" result="effect1_dropShadow_3028_44417"/>
<feBlend mode="normal" in="SourceGraphic" in2="effect1_dropShadow_3028_44417" result="shape"/>
</filter>
<filter id="filter5_d_3028_44417" x="112" y="330" width="624" height="232" filterUnits="userSpaceOnUse" color-interpolation-filters="sRGB">
<feFlood flood-opacity="0" result="BackgroundImageFix"/>
<feColorMatrix in="SourceAlpha" type="matrix" values="0 0 0 0 0 0 0 0 0 0 0 0 0 0 0 0 0 0 127 0" result="hardAlpha"/>
<feOffset dy="4"/>
<feGaussianBlur stdDeviation="37"/>
<feComposite in2="hardAlpha" operator="out"/>
<feColorMatrix type="matrix" values="0 0 0 0 0.0819556 0 0 0 0 0.372968 0 0 0 0 0.489373 0 0 0 0.13 0"/>
<feBlend mode="normal" in2="BackgroundImageFix" result="effect1_dropShadow_3028_44417"/>
<feBlend mode="normal" in="SourceGraphic" in2="effect1_dropShadow_3028_44417" result="shape"/>
</filter>
<filter id="filter6_d_3028_44417" x="0" y="194" width="458" height="246" filterUnits="userSpaceOnUse" color-interpolation-filters="sRGB">
<feFlood flood-opacity="0" result="BackgroundImageFix"/>
<feColorMatrix in="SourceAlpha" type="matrix" values="0 0 0 0 0 0 0 0 0 0 0 0 0 0 0 0 0 0 127 0" result="hardAlpha"/>
<feOffset dy="4"/>
<feGaussianBlur stdDeviation="37"/>
<feComposite in2="hardAlpha" operator="out"/>
<feColorMatrix type="matrix" values="0 0 0 0 0.0819556 0 0 0 0 0.372968 0 0 0 0 0.489373 0 0 0 0.13 0"/>
<feBlend mode="normal" in2="BackgroundImageFix" result="effect1_dropShadow_3028_44417"/>
<feBlend mode="normal" in="SourceGraphic" in2="effect1_dropShadow_3028_44417" result="shape"/>
</filter>
<filter id="filter7_d_3028_44417" x="391" y="84" width="458" height="246" filterUnits="userSpaceOnUse" color-interpolation-filters="sRGB">
<feFlood flood-opacity="0" result="BackgroundImageFix"/>
<feColorMatrix in="SourceAlpha" type="matrix" values="0 0 0 0 0 0 0 0 0 0 0 0 0 0 0 0 0 0 127 0" result="hardAlpha"/>
<feOffset dy="4"/>
<feGaussianBlur stdDeviation="37"/>
<feComposite in2="hardAlpha" operator="out"/>
<feColorMatrix type="matrix" values="0 0 0 0 0.0819556 0 0 0 0 0.372968 0 0 0 0 0.489373 0 0 0 0.13 0"/>
<feBlend mode="normal" in2="BackgroundImageFix" result="effect1_dropShadow_3028_44417"/>
<feBlend mode="normal" in="SourceGraphic" in2="effect1_dropShadow_3028_44417" result="shape"/>
</filter>
<clipPath id="clip0_3028_44417">
<rect width="48" height="48" fill="white" transform="translate(525 462)"/>
</clipPath>
<clipPath id="clip1_3028_44417">
<rect width="48" height="48" fill="white" transform="translate(110 90)"/>
</clipPath>
<clipPath id="clip2_3028_44417">
<rect width="65" height="64" fill="white" transform="translate(101 282)"/>
</clipPath>
</defs>
</svg>
