<svg width="708" height="417" viewBox="0 0 708 417" fill="none" xmlns="http://www.w3.org/2000/svg">
<g id="&#229;&#155;&#190;&#231;&#137;&#135;">
<path id="Rectangle 34625639" d="M633 40C633 17.9086 615.092 0 593 0H213C124.635 0 53.0002 71.6344 53.0002 160V359C53.0002 381.091 70.9089 399 93.0002 399H593C615.092 399 633 381.091 633 359V40Z" fill="#01AA44"/>
<g id="Mask group">
<mask id="mask0_2393_3640" style="mask-type:alpha" maskUnits="userSpaceOnUse" x="53" y="0" width="581" height="399">
<path id="Rectangle 34625640" d="M633 40C633 17.9086 615.092 0 593 0H213C124.635 0 53.0001 71.6344 53.0001 160V359C53.0001 381.091 70.9088 399 93.0001 399H593C615.092 399 633 381.091 633 359V40Z" fill="white"/>
</mask>
<g mask="url(#mask0_2393_3640)">
<g id="&#232;&#163;&#133;&#233;&#165;&#176;">
<g id="Frame 33">
<rect id="Rectangle 34625667" x="53.5001" y="-20.5001" width="107" height="107" rx="22.5" stroke="white" stroke-opacity="0.07" stroke-width="3"/>
<rect id="Rectangle 34625670" x="183.5" y="-20.5001" width="107" height="107" rx="22.5" stroke="white" stroke-opacity="0.1" stroke-width="3"/>
<rect id="Rectangle 34625671" x="313.5" y="-20.5001" width="107" height="107" rx="22.5" stroke="white" stroke-opacity="0.1" stroke-width="3"/>
<rect id="Rectangle 34625666" x="443.5" y="-20.5001" width="107" height="107" rx="22.5" stroke="white" stroke-opacity="0.1" stroke-width="3"/>
<rect id="Rectangle 34625668" x="573.5" y="-20.5001" width="107" height="107" rx="22.5" stroke="white" stroke-opacity="0.1" stroke-width="3"/>
</g>
<g id="Frame 34" opacity="0.5">
<rect id="Rectangle 34625667_2" x="34.5001" y="119.5" width="107" height="107" rx="22.5" stroke="white" stroke-opacity="0.3" stroke-width="3"/>
<rect id="Rectangle 34625670_2" x="164.5" y="119.5" width="107" height="107" rx="22.5" stroke="white" stroke-width="3"/>
<rect id="Rectangle 34625671_2" x="294.5" y="119.5" width="107" height="107" rx="22.5" stroke="white" stroke-width="3"/>
<rect id="Rectangle 34625666_2" x="424.5" y="119.5" width="107" height="107" rx="22.5" stroke="white" stroke-width="3"/>
<rect id="Rectangle 34625668_2" x="554.5" y="119.5" width="107" height="107" rx="22.5" stroke="white" stroke-width="3"/>
</g>
<g id="Frame 35">
<rect id="Rectangle 34625667_3" x="24.5001" y="259.5" width="107" height="107" rx="22.5" stroke="white" stroke-opacity="0.17" stroke-width="3"/>
<rect id="Rectangle 34625666_3" x="154.5" y="259.5" width="107" height="107" rx="22.5" stroke="white" stroke-opacity="0.17" stroke-width="3"/>
<rect id="Rectangle 34625668_3" x="284.5" y="259.5" width="107" height="107" rx="22.5" stroke="white" stroke-opacity="0.17" stroke-width="3"/>
<rect id="Rectangle 34625669" x="414.5" y="259.5" width="107" height="107" rx="22.5" stroke="white" stroke-opacity="0.17" stroke-width="3"/>
</g>
</g>
</g>
</g>
<g id="&#231;&#179;&#187;&#231;&#187;&#159;">
<mask id="mask1_2393_3640" style="mask-type:alpha" maskUnits="userSpaceOnUse" x="85" y="18" width="531" height="359">
<path id="Rectangle 65" d="M85.0001 34.9999C85.0001 26.1633 92.1636 18.9999 101 18.9999H599C607.837 18.9999 615 26.1633 615 34.9999V361C615 369.836 607.837 377 599 377H101C92.1636 377 85.0001 369.836 85.0001 361V34.9999Z" fill="#C7D8B6"/>
</mask>
<g mask="url(#mask1_2393_3640)">
<g id="Group 1321316470">
<path id="Rectangle 34625646" d="M117 77.9999C117 69.1633 124.164 61.9999 133 61.9999H567C575.837 61.9999 583 69.1633 583 77.9999V351C583 359.836 575.837 367 567 367H133C124.164 367 117 359.836 117 351V77.9999Z" fill="#F8F8F8"/>
<g id="Group 1321316510">
<rect id="Rectangle 4" x="234.325" y="100.626" width="310.535" height="57.36" rx="8" fill="white"/>
<rect id="Rectangle 34625659" x="488" y="118" width="45" height="22" rx="8" fill="#01AA44"/>
<rect id="Rectangle 34625654" x="234.325" y="165.898" width="310.535" height="63.2938" rx="8" fill="white"/>
<path id="Rectangle 34625648" d="M153.23 108.626C153.23 104.208 156.812 100.626 161.23 100.626H218.414C222.832 100.626 226.414 104.208 226.414 108.626V341.934H153.23V108.626Z" fill="white"/>
<rect id="Rectangle 34625658" x="234.325" y="237.103" width="310.535" height="106.808" rx="8" fill="white"/>
<rect id="Rectangle 34625660" x="244" y="274" width="288" height="62" rx="8" fill="#FAFAFA"/>
<rect id="Rectangle 34625661" x="244" y="249" width="138" height="16" rx="3" fill="#FAFAFA"/>
<rect id="Rectangle 34625662" x="394" y="249" width="138" height="16" rx="3" fill="#FAFAFA"/>
<rect id="Rectangle 34625649" x="163.12" y="157.986" width="53.4042" height="13.8455" rx="5" fill="#E9FCF0" fill-opacity="0.7"/>
<rect id="Rectangle 34625655" x="246.193" y="179.743" width="90.9849" height="37.5807" rx="2" fill="url(#paint0_linear_2393_3640)"/>
<rect id="Rectangle 34625656" x="345.09" y="179.743" width="89.007" height="37.5807" rx="2" fill="url(#paint1_linear_2393_3640)"/>
<rect id="Rectangle 34625657" x="442.008" y="179.743" width="90.9849" height="37.5807" rx="2" fill="url(#paint2_linear_2393_3640)"/>
<g id="Rectangle 34625652" filter="url(#filter0_d_2393_3640)">
<rect x="146" y="113" width="85" height="33" rx="8" fill="white"/>
</g>
<g id="logo">
<g id="Group 1">
<path id="&#231;&#159;&#169;&#229;&#189;&#162; 17" d="M164.712 124.246H160.902V126.793H164.712V124.246Z" fill="#58DA8C"/>
<path id="&#231;&#159;&#169;&#229;&#189;&#162; 18" d="M166.405 120H158.264L159.209 120.955V121.91V123.821H166.405V120Z" fill="#58DA8C"/>
<path id="&#229;&#135;&#143;&#229;&#142;&#187;&#233;&#161;&#182;&#229;&#177;&#130;" fill-rule="evenodd" clip-rule="evenodd" d="M162.384 127.324H170.479C173.548 127.324 176.035 129.819 176.035 132.896V133.427C176.035 136.505 173.548 139 170.479 139H162.384V135.709H170.268C171.524 135.709 172.543 134.688 172.543 133.427C172.543 132.167 171.524 131.145 170.268 131.145H162.384V127.324Z" fill="#01AA44"/>
<path id="&#229;&#135;&#143;&#229;&#142;&#187;&#233;&#161;&#182;&#229;&#177;&#130;_2" fill-rule="evenodd" clip-rule="evenodd" d="M166.405 120H168.998C172.066 120 174.553 122.495 174.553 125.573C174.553 128.65 172.066 131.145 168.998 131.145H160.902V127.324H169.315C170.28 127.324 171.061 126.54 171.061 125.573C171.061 124.605 170.28 123.821 169.315 123.821H166.405V120Z" fill="#58DA8C"/>
<path id="&#231;&#159;&#169;&#229;&#189;&#162; 16" d="M164.712 127.324H160.902V139H162.807H163.759C163.762 139 163.764 138.999 163.766 138.997L164.236 138.528C164.541 138.225 164.712 137.813 164.712 137.383V127.324Z" fill="#58DA8C"/>
</g>
<g id="Group 6">
<path id="Vector" d="M204.677 124.348C204.781 124.348 204.866 124.433 204.866 124.537V135.975C204.866 136.079 204.781 136.164 204.677 136.164H202.687C202.583 136.164 202.498 136.079 202.498 135.975V130.209V127.279V125.813V124.892L201.935 124.348H204.677Z" fill="black"/>
<path id="Vector_2" d="M182.746 124.348C182.851 124.348 182.935 124.433 182.935 124.537V135.975C182.935 136.079 182.851 136.164 182.746 136.164H180.757C180.653 136.164 180.568 136.079 180.568 135.975V130.209V127.279V125.813V124.892L180.005 124.348H182.746Z" fill="black"/>
<path id="Vector_3" d="M209.498 124.348C209.602 124.348 209.687 124.433 209.687 124.537V135.519C209.687 135.569 209.667 135.617 209.631 135.652L209.175 136.109C209.139 136.144 209.091 136.164 209.041 136.164H208.503H207.508C207.404 136.164 207.319 136.079 207.319 135.975V130.209V127.279V125.813V124.892L206.756 124.348H209.498Z" fill="black"/>
<path id="Vector_4" d="M199.745 134.38C200.051 134.38 200.312 134.357 200.527 134.312V136.08C200.13 136.136 199.745 136.164 199.371 136.164C198.6 136.164 197.999 136.08 197.568 135.912C197.149 135.743 196.843 135.446 196.65 135.019C196.457 134.593 196.361 133.981 196.361 133.185V128.774H196.355V126.973H196.361V125.896V124.887L195.791 124.348H198.468C198.572 124.348 198.657 124.433 198.657 124.537V126.973H200.612V128.774H198.657V132.999C198.657 133.381 198.685 133.667 198.742 133.858C198.798 134.049 198.9 134.183 199.048 134.262C199.206 134.34 199.439 134.38 199.745 134.38Z" fill="black"/>
<path id="Vector_5" d="M191.443 127.751H193.806V131.769V133.966V135.33C193.806 135.38 193.786 135.428 193.751 135.463L193.105 136.109C193.07 136.144 193.022 136.164 192.972 136.164H192.624H191.443V127.751Z" fill="black"/>
<path id="Vector_6" d="M191.443 124.537C191.443 124.433 191.528 124.348 191.632 124.348H193.617C193.721 124.348 193.806 124.433 193.806 124.537V126.522C193.806 126.627 193.721 126.711 193.617 126.711H191.632C191.528 126.711 191.443 126.627 191.443 126.522V124.537Z" fill="black"/>
<path id="Rectangle 3 (Stroke)" fill-rule="evenodd" clip-rule="evenodd" d="M185.393 126.617H182.841V128.885H185.393C186.02 128.885 186.527 128.378 186.527 127.751C186.527 127.125 186.02 126.617 185.393 126.617ZM180.572 124.348V131.154H185.393C187.273 131.154 188.796 129.631 188.796 127.751C188.796 125.872 187.273 124.348 185.393 124.348H180.572Z" fill="black"/>
<path id="Rectangle 5 (Stroke)" fill-rule="evenodd" clip-rule="evenodd" d="M211.624 126.711H209.687V130.209H211.624C212.59 130.209 213.373 129.426 213.373 128.46C213.373 127.494 212.59 126.711 211.624 126.711ZM207.323 124.348V132.572H211.624C213.895 132.572 215.736 130.731 215.736 128.46C215.736 126.189 213.895 124.348 211.624 124.348H207.323Z" fill="black"/>
<path id="Rectangle 4 (Stroke)" fill-rule="evenodd" clip-rule="evenodd" d="M185.724 131.154H182.841V133.895H185.724C186.481 133.895 187.095 133.282 187.095 132.525C187.095 131.768 186.481 131.154 185.724 131.154ZM180.572 128.885V136.164H185.724C187.734 136.164 189.363 134.535 189.363 132.525C189.363 130.515 187.734 128.885 185.724 128.885H180.572Z" fill="black"/>
</g>
</g>
<rect id="Rectangle 34625650" x="163.12" y="183.699" width="53.4042" height="13.8455" rx="5" fill="#E9FCF0" fill-opacity="0.7"/>
<rect id="Rectangle 34625651" x="163.12" y="209.412" width="53.4042" height="13.8455" rx="5" fill="#E9FCF0" fill-opacity="0.7"/>
<rect id="Rectangle 34625653" x="163.12" y="235.125" width="53.4042" height="13.8455" rx="5" fill="#E9FCF0" fill-opacity="0.7"/>
<path id="120.187.***.***" d="M253.48 138V123.744L249.376 124.536V122.352L254.296 121.344H256.144V138H253.48ZM262.265 135.408C264.473 133.664 266.145 132.248 267.281 131.16C268.417 130.056 269.201 129.128 269.633 128.376C270.065 127.608 270.281 126.832 270.281 126.048C270.281 124.208 269.177 123.288 266.969 123.288C265.801 123.288 264.601 123.456 263.369 123.792V121.56C264.521 121.256 265.857 121.104 267.377 121.104C269.137 121.104 270.497 121.496 271.457 122.28C272.417 123.048 272.897 124.24 272.897 125.856C272.897 126.848 272.705 127.76 272.321 128.592C271.953 129.424 271.305 130.32 270.377 131.28C269.465 132.224 268.129 133.4 266.369 134.808L265.361 135.6V135.792H273.473V138H262.265V135.408ZM276.067 129.672C276.067 127.48 276.299 125.76 276.763 124.512C277.243 123.248 277.899 122.368 278.731 121.872C279.579 121.36 280.619 121.104 281.851 121.104C283.099 121.104 284.139 121.352 284.971 121.848C285.819 122.344 286.475 123.224 286.939 124.488C287.403 125.736 287.635 127.464 287.635 129.672C287.635 131.88 287.403 133.616 286.939 134.88C286.475 136.128 285.819 137 284.971 137.496C284.139 137.992 283.099 138.24 281.851 138.24C280.619 138.24 279.579 137.992 278.731 137.496C277.899 137 277.243 136.128 276.763 134.88C276.299 133.616 276.067 131.88 276.067 129.672ZM284.995 129.672C284.995 128.024 284.883 126.744 284.659 125.832C284.451 124.92 284.123 124.28 283.675 123.912C283.227 123.544 282.619 123.36 281.851 123.36C281.099 123.36 280.499 123.544 280.051 123.912C279.603 124.28 279.267 124.92 279.043 125.832C278.835 126.744 278.731 128.024 278.731 129.672C278.731 131.336 278.835 132.624 279.043 133.536C279.267 134.448 279.603 135.088 280.051 135.456C280.499 135.824 281.099 136.008 281.851 136.008C282.619 136.008 283.227 135.824 283.675 135.456C284.123 135.088 284.451 134.448 284.659 133.536C284.883 132.624 284.995 131.336 284.995 129.672ZM290.828 136.392C290.828 135.88 290.876 135.504 290.972 135.264C291.068 135.024 291.236 134.864 291.476 134.784C291.716 134.704 292.084 134.664 292.58 134.664C293.06 134.664 293.42 134.704 293.66 134.784C293.9 134.864 294.068 135.024 294.164 135.264C294.276 135.504 294.332 135.88 294.332 136.392C294.332 136.904 294.276 137.28 294.164 137.52C294.068 137.76 293.9 137.92 293.66 138C293.42 138.096 293.06 138.144 292.58 138.144C292.084 138.144 291.716 138.096 291.476 138C291.236 137.92 291.068 137.76 290.972 137.52C290.876 137.28 290.828 136.904 290.828 136.392ZM299.441 138V123.744L295.337 124.536V122.352L300.257 121.344H302.105V138H299.441ZM308.034 133.608C308.034 131.544 308.986 130.152 310.89 129.432V129.336C310.154 128.984 309.578 128.512 309.162 127.92C308.762 127.328 308.562 126.536 308.562 125.544C308.562 124.152 309.002 123.064 309.882 122.28C310.778 121.48 312.106 121.08 313.866 121.08C315.626 121.08 316.946 121.48 317.826 122.28C318.706 123.064 319.146 124.152 319.146 125.544C319.146 126.536 318.946 127.336 318.546 127.944C318.162 128.536 317.562 129 316.746 129.336V129.432C317.658 129.72 318.378 130.192 318.906 130.848C319.434 131.488 319.698 132.416 319.698 133.632C319.698 135.184 319.194 136.344 318.186 137.112C317.194 137.88 315.754 138.264 313.866 138.264C311.994 138.264 310.554 137.88 309.546 137.112C308.538 136.328 308.034 135.16 308.034 133.608ZM316.794 125.76C316.794 124.928 316.546 124.288 316.05 123.84C315.554 123.392 314.826 123.168 313.866 123.168C311.898 123.168 310.914 124.032 310.914 125.76C310.914 127.552 311.898 128.448 313.866 128.448C314.89 128.448 315.634 128.208 316.098 127.728C316.562 127.232 316.794 126.576 316.794 125.76ZM317.25 133.44C317.25 131.424 316.122 130.416 313.866 130.416C312.73 130.416 311.882 130.664 311.322 131.16C310.762 131.656 310.482 132.416 310.482 133.44C310.482 134.304 310.754 134.968 311.298 135.432C311.858 135.896 312.714 136.128 313.866 136.128C315.002 136.128 315.85 135.896 316.41 135.432C316.97 134.952 317.25 134.288 317.25 133.44ZM323.972 138L330.836 123.6H322.148V121.344H333.212V123.912L326.708 138H323.972ZM332.945 136.392C332.945 135.88 332.993 135.504 333.089 135.264C333.185 135.024 333.353 134.864 333.593 134.784C333.833 134.704 334.201 134.664 334.697 134.664C335.177 134.664 335.537 134.704 335.777 134.784C336.017 134.864 336.185 135.024 336.281 135.264C336.393 135.504 336.449 135.88 336.449 136.392C336.449 136.904 336.393 137.28 336.281 137.52C336.185 137.76 336.017 137.92 335.777 138C335.537 138.096 335.177 138.144 334.697 138.144C334.201 138.144 333.833 138.096 333.593 138C333.353 137.92 333.185 137.76 333.089 137.52C332.993 137.28 332.945 136.904 332.945 136.392ZM342.102 128.472L340.182 127.08L342.342 124.632L339.15 123.96L339.894 121.704L342.87 123.024L342.534 119.76H344.934L344.574 123.024L347.574 121.704L348.318 123.96L345.102 124.632L347.286 127.08L345.39 128.472L343.734 125.616L342.102 128.472ZM352.719 128.472L350.799 127.08L352.959 124.632L349.767 123.96L350.511 121.704L353.487 123.024L353.151 119.76H355.551L355.191 123.024L358.191 121.704L358.935 123.96L355.719 124.632L357.903 127.08L356.007 128.472L354.351 125.616L352.719 128.472ZM363.336 128.472L361.416 127.08L363.576 124.632L360.384 123.96L361.128 121.704L364.104 123.024L363.768 119.76H366.168L365.808 123.024L368.808 121.704L369.552 123.96L366.336 124.632L368.52 127.08L366.624 128.472L364.968 125.616L363.336 128.472ZM372.273 136.392C372.273 135.88 372.321 135.504 372.417 135.264C372.513 135.024 372.681 134.864 372.921 134.784C373.161 134.704 373.529 134.664 374.025 134.664C374.505 134.664 374.865 134.704 375.105 134.784C375.345 134.864 375.513 135.024 375.609 135.264C375.721 135.504 375.777 135.88 375.777 136.392C375.777 136.904 375.721 137.28 375.609 137.52C375.513 137.76 375.345 137.92 375.105 138C374.865 138.096 374.505 138.144 374.025 138.144C373.529 138.144 373.161 138.096 372.921 138C372.681 137.92 372.513 137.76 372.417 137.52C372.321 137.28 372.273 136.904 372.273 136.392ZM381.43 128.472L379.51 127.08L381.67 124.632L378.478 123.96L379.222 121.704L382.198 123.024L381.862 119.76H384.262L383.902 123.024L386.902 121.704L387.646 123.96L384.43 124.632L386.614 127.08L384.718 128.472L383.062 125.616L381.43 128.472ZM392.047 128.472L390.127 127.08L392.287 124.632L389.095 123.96L389.839 121.704L392.815 123.024L392.479 119.76H394.879L394.519 123.024L397.519 121.704L398.263 123.96L395.047 124.632L397.231 127.08L395.335 128.472L393.679 125.616L392.047 128.472ZM402.664 128.472L400.744 127.08L402.904 124.632L399.712 123.96L400.456 121.704L403.432 123.024L403.096 119.76H405.496L405.136 123.024L408.136 121.704L408.88 123.96L405.664 124.632L407.848 127.08L405.952 128.472L404.296 125.616L402.664 128.472Z" fill="#191919"/>
</g>
<g id="Group 1321316469">
<circle id="Ellipse 15" cx="139.307" cy="82.8796" r="4.94483" fill="#FF3E3E"/>
<circle id="Ellipse 16" cx="163.043" cy="82.8796" r="4.94483" fill="#FFC83E"/>
<circle id="Ellipse 17" cx="186.778" cy="82.8796" r="4.94483" fill="#3DCD85"/>
</g>
</g>
</g>
</g>
<g id="&#233;&#157;&#153;&#230;&#128;&#129;">
<g id="Rectangle 45" filter="url(#filter1_d_2393_3640)">
<rect x="74.0001" y="262" width="260" height="77" rx="38.5" fill="white"/>
</g>
<g id="DEU">
<path id="Vector_7" d="M96.3622 308.972C99.7814 318.247 108.652 324.857 119.057 324.857C129.462 324.857 138.332 318.247 141.751 308.972L119.057 306.854L96.3622 308.972Z" fill="#FFDA44"/>
<path id="Vector_2_2" d="M119.057 276.143C108.652 276.143 99.7814 282.753 96.3622 292.028L119.057 294.146L141.751 292.028C138.332 282.753 129.462 276.143 119.057 276.143Z" fill="black"/>
<path id="Vector_3_2" d="M96.3642 292.028C95.3915 294.667 94.859 297.52 94.859 300.5C94.859 303.479 95.3915 306.332 96.3642 308.971H141.753C142.726 306.332 143.259 303.479 143.259 300.5C143.259 297.52 142.726 294.667 141.753 292.028H96.3642Z" fill="#D80027"/>
</g>
<g id="USA 1" clip-path="url(#clip0_2393_3640)">
<g id="Clip path group">
<mask id="mask2_2393_3640" style="mask-type:luminance" maskUnits="userSpaceOnUse" x="95" y="276" width="49" height="48">
<g id="clip0_5956_34377">
<path id="Vector_8" d="M143 276H95.0001V324H143V276Z" fill="white"/>
</g>
</mask>
<g mask="url(#mask2_2393_3640)">
<g id="Group">
<path id="Vector_9" d="M119 324C132.255 324 143 313.255 143 300C143 286.745 132.255 276 119 276C105.745 276 95.0001 286.745 95.0001 300C95.0001 313.255 105.745 324 119 324Z" fill="#F0F0F0"/>
<path id="Vector_10" d="M117.957 299.999H143C143.001 297.885 142.723 295.779 142.173 293.738H117.957V299.999ZM117.957 287.477H139.478C138.01 285.084 136.136 282.965 133.94 281.216H117.957V287.477ZM119 323.999C124.649 323.999 129.84 322.047 133.94 318.781H104.061C108.16 322.047 113.352 323.999 119 323.999ZM98.5227 312.521H139.478C140.657 310.596 141.572 308.492 142.173 306.26H95.827C96.4286 308.492 97.3432 310.596 98.5227 312.521Z" fill="#D80027"/>
<path id="Vector_11" d="M106.117 279.748H108.305L106.27 281.226L107.047 283.617L105.013 282.139L102.979 283.617L103.65 281.551C101.859 283.044 100.289 284.791 98.995 286.739H99.6958L98.4008 287.68C98.1989 288.017 98.0052 288.359 97.8201 288.706L98.4385 290.609L97.2848 289.771C96.9979 290.378 96.7357 290.999 96.4999 291.634L97.1812 293.731H99.6958L97.6614 295.209L98.4386 297.6L96.4042 296.122L95.1857 297.007C95.0622 298 95.0002 299 95.0001 300H119V276C114.259 276 109.839 277.375 106.117 279.748ZM107.047 297.6L105.013 296.122L102.978 297.6L103.756 295.208L101.721 293.73H104.236L105.013 291.339L105.79 293.73H108.304L106.27 295.208L107.047 297.6ZM106.27 288.217L107.047 290.609L105.013 289.131L102.978 290.609L103.756 288.217L101.721 286.739H104.236L105.013 284.348L105.79 286.739H108.304L106.27 288.217ZM115.656 297.6L113.622 296.122L111.587 297.6L112.364 295.208L110.33 293.73H112.845L113.622 291.339L114.398 293.73H116.913L114.879 295.208L115.656 297.6ZM114.879 288.217L115.656 290.609L113.622 289.131L111.587 290.609L112.364 288.217L110.33 286.739H112.845L113.622 284.348L114.398 286.739H116.913L114.879 288.217ZM114.879 281.226L115.656 283.617L113.622 282.139L111.587 283.617L112.364 281.226L110.33 279.748H112.845L113.622 277.356L114.398 279.748H116.913L114.879 281.226Z" fill="#0052B4"/>
</g>
</g>
</g>
</g>
<path id="93.217.***.**" d="M156.124 306.196C157.899 306.196 159.299 305.778 160.326 304.942C161.353 304.106 161.939 302.984 162.086 301.576H161.998C161.69 301.884 161.257 302.148 160.7 302.368C160.143 302.588 159.541 302.698 158.896 302.698C157.4 302.698 156.234 302.295 155.398 301.488C154.577 300.681 154.166 299.471 154.166 297.858C154.166 296.259 154.599 294.969 155.464 293.986C156.329 293.003 157.613 292.512 159.314 292.512C160.898 292.512 162.159 292.996 163.098 293.964C164.037 294.932 164.506 296.531 164.506 298.76C164.506 301.811 163.839 304.157 162.504 305.8C161.169 307.428 159.043 308.242 156.124 308.242V306.196ZM162.24 298.078C162.24 296.934 161.991 296.047 161.492 295.416C161.008 294.785 160.289 294.47 159.336 294.47C158.383 294.47 157.649 294.763 157.136 295.35C156.637 295.937 156.388 296.773 156.388 297.858C156.388 298.855 156.637 299.611 157.136 300.124C157.635 300.637 158.302 300.894 159.138 300.894C160.194 300.894 160.971 300.645 161.47 300.146C161.983 299.647 162.24 298.958 162.24 298.078ZM167.301 307.934V305.822C168.313 306.071 169.435 306.196 170.667 306.196C171.841 306.196 172.757 306.005 173.417 305.624C174.092 305.243 174.429 304.583 174.429 303.644C174.429 302.691 174.092 302.023 173.417 301.642C172.743 301.246 171.694 301.048 170.271 301.048H169.083V299.2H170.249C171.496 299.2 172.449 298.995 173.109 298.584C173.784 298.159 174.121 297.535 174.121 296.714C174.121 295.922 173.865 295.357 173.351 295.02C172.853 294.668 172.083 294.492 171.041 294.492C170.572 294.492 170.051 294.536 169.479 294.624C168.922 294.697 168.423 294.8 167.983 294.932V292.952C168.379 292.835 168.878 292.732 169.479 292.644C170.081 292.556 170.667 292.512 171.239 292.512C172.955 292.512 174.246 292.835 175.111 293.48C175.991 294.125 176.431 295.159 176.431 296.582C176.431 297.491 176.211 298.225 175.771 298.782C175.331 299.325 174.679 299.728 173.813 299.992V300.124C174.825 300.315 175.581 300.718 176.079 301.334C176.578 301.95 176.827 302.757 176.827 303.754C176.827 306.731 174.803 308.22 170.755 308.22C169.421 308.22 168.269 308.125 167.301 307.934ZM180.393 306.526C180.393 306.057 180.437 305.712 180.525 305.492C180.613 305.272 180.767 305.125 180.987 305.052C181.207 304.979 181.544 304.942 181.999 304.942C182.439 304.942 182.769 304.979 182.989 305.052C183.209 305.125 183.363 305.272 183.451 305.492C183.553 305.712 183.605 306.057 183.605 306.526C183.605 306.995 183.553 307.34 183.451 307.56C183.363 307.78 183.209 307.927 182.989 308C182.769 308.088 182.439 308.132 181.999 308.132C181.544 308.132 181.207 308.088 180.987 308C180.767 307.927 180.613 307.78 180.525 307.56C180.437 307.34 180.393 306.995 180.393 306.526ZM186.63 305.624C188.654 304.025 190.187 302.727 191.228 301.73C192.269 300.718 192.988 299.867 193.384 299.178C193.78 298.474 193.978 297.763 193.978 297.044C193.978 295.357 192.966 294.514 190.942 294.514C189.871 294.514 188.771 294.668 187.642 294.976V292.93C188.698 292.651 189.923 292.512 191.316 292.512C192.929 292.512 194.176 292.871 195.056 293.59C195.936 294.294 196.376 295.387 196.376 296.868C196.376 297.777 196.2 298.613 195.848 299.376C195.511 300.139 194.917 300.96 194.066 301.84C193.23 302.705 192.005 303.783 190.392 305.074L189.468 305.8V305.976H196.904V308H186.63V305.624ZM204.143 308V294.932L200.381 295.658V293.656L204.891 292.732H206.585V308H204.143ZM213.846 308L220.138 294.8H212.174V292.732H222.316V295.086L216.354 308H213.846ZM222.072 306.526C222.072 306.057 222.116 305.712 222.204 305.492C222.292 305.272 222.446 305.125 222.666 305.052C222.886 304.979 223.224 304.942 223.678 304.942C224.118 304.942 224.448 304.979 224.668 305.052C224.888 305.125 225.042 305.272 225.13 305.492C225.233 305.712 225.284 306.057 225.284 306.526C225.284 306.995 225.233 307.34 225.13 307.56C225.042 307.78 224.888 307.927 224.668 308C224.448 308.088 224.118 308.132 223.678 308.132C223.224 308.132 222.886 308.088 222.666 308C222.446 307.927 222.292 307.78 222.204 307.56C222.116 307.34 222.072 306.995 222.072 306.526ZM230.466 299.266L228.706 297.99L230.686 295.746L227.76 295.13L228.442 293.062L231.17 294.272L230.862 291.28H233.062L232.732 294.272L235.482 293.062L236.164 295.13L233.216 295.746L235.218 297.99L233.48 299.266L231.962 296.648L230.466 299.266ZM240.198 299.266L238.438 297.99L240.418 295.746L237.492 295.13L238.174 293.062L240.902 294.272L240.594 291.28H242.794L242.464 294.272L245.214 293.062L245.896 295.13L242.948 295.746L244.95 297.99L243.212 299.266L241.694 296.648L240.198 299.266ZM249.931 299.266L248.171 297.99L250.151 295.746L247.225 295.13L247.907 293.062L250.635 294.272L250.327 291.28H252.527L252.197 294.272L254.947 293.062L255.629 295.13L252.681 295.746L254.683 297.99L252.945 299.266L251.427 296.648L249.931 299.266ZM258.123 306.526C258.123 306.057 258.167 305.712 258.255 305.492C258.343 305.272 258.497 305.125 258.717 305.052C258.937 304.979 259.274 304.942 259.729 304.942C260.169 304.942 260.499 304.979 260.719 305.052C260.939 305.125 261.093 305.272 261.181 305.492C261.284 305.712 261.335 306.057 261.335 306.526C261.335 306.995 261.284 307.34 261.181 307.56C261.093 307.78 260.939 307.927 260.719 308C260.499 308.088 260.169 308.132 259.729 308.132C259.274 308.132 258.937 308.088 258.717 308C258.497 307.927 258.343 307.78 258.255 307.56C258.167 307.34 258.123 306.995 258.123 306.526ZM266.517 299.266L264.757 297.99L266.737 295.746L263.811 295.13L264.493 293.062L267.221 294.272L266.913 291.28H269.113L268.783 294.272L271.533 293.062L272.215 295.13L269.267 295.746L271.269 297.99L269.531 299.266L268.013 296.648L266.517 299.266ZM276.249 299.266L274.489 297.99L276.469 295.746L273.543 295.13L274.225 293.062L276.953 294.272L276.645 291.28H278.845L278.515 294.272L281.265 293.062L281.947 295.13L278.999 295.746L281.001 297.99L279.263 299.266L277.745 296.648L276.249 299.266Z" fill="#999999"/>
</g>
<g id="&#233;&#157;&#153;&#230;&#128;&#129;_2">
<g id="Rectangle 45_2" filter="url(#filter2_d_2393_3640)">
<rect x="374" y="235" width="260" height="77" rx="38.5" fill="white"/>
</g>
<g id="DEU_2">
<path id="Vector_12" d="M396.362 281.972C399.781 291.247 408.652 297.857 419.057 297.857C429.462 297.857 438.332 291.247 441.751 281.972L419.057 279.854L396.362 281.972Z" fill="#FFDA44"/>
<path id="Vector_2_3" d="M419.057 249.143C408.652 249.143 399.781 255.753 396.362 265.028L419.057 267.146L441.751 265.028C438.332 255.753 429.462 249.143 419.057 249.143Z" fill="black"/>
<path id="Vector_3_3" d="M396.364 265.028C395.391 267.667 394.859 270.52 394.859 273.5C394.859 276.479 395.391 279.332 396.364 281.971H441.753C442.726 279.332 443.258 276.479 443.258 273.5C443.258 270.52 442.726 267.667 441.753 265.028H396.364Z" fill="#D80027"/>
</g>
<path id="122.117.***.**" d="M458.94 281V267.932L455.178 268.658V266.656L459.688 265.732H461.382V281H458.94ZM466.993 278.624C469.017 277.025 470.55 275.727 471.591 274.73C472.633 273.718 473.351 272.867 473.747 272.178C474.143 271.474 474.341 270.763 474.341 270.044C474.341 268.357 473.329 267.514 471.305 267.514C470.235 267.514 469.135 267.668 468.005 267.976V265.93C469.061 265.651 470.286 265.512 471.679 265.512C473.293 265.512 474.539 265.871 475.419 266.59C476.299 267.294 476.739 268.387 476.739 269.868C476.739 270.777 476.563 271.613 476.211 272.376C475.874 273.139 475.28 273.96 474.429 274.84C473.593 275.705 472.369 276.783 470.755 278.074L469.831 278.8V278.976H477.267V281H466.993V278.624ZM479.776 278.624C481.8 277.025 483.333 275.727 484.374 274.73C485.416 273.718 486.134 272.867 486.53 272.178C486.926 271.474 487.124 270.763 487.124 270.044C487.124 268.357 486.112 267.514 484.088 267.514C483.018 267.514 481.918 267.668 480.788 267.976V265.93C481.844 265.651 483.069 265.512 484.462 265.512C486.076 265.512 487.322 265.871 488.202 266.59C489.082 267.294 489.522 268.387 489.522 269.868C489.522 270.777 489.346 271.613 488.994 272.376C488.657 273.139 488.063 273.96 487.212 274.84C486.376 275.705 485.152 276.783 483.538 278.074L482.614 278.8V278.976H490.05V281H479.776V278.624ZM493.176 279.526C493.176 279.057 493.22 278.712 493.308 278.492C493.396 278.272 493.55 278.125 493.77 278.052C493.99 277.979 494.327 277.942 494.782 277.942C495.222 277.942 495.552 277.979 495.772 278.052C495.992 278.125 496.146 278.272 496.234 278.492C496.336 278.712 496.388 279.057 496.388 279.526C496.388 279.995 496.336 280.34 496.234 280.56C496.146 280.78 495.992 280.927 495.772 281C495.552 281.088 495.222 281.132 494.782 281.132C494.327 281.132 493.99 281.088 493.77 281C493.55 280.927 493.396 280.78 493.308 280.56C493.22 280.34 493.176 279.995 493.176 279.526ZM501.071 281V267.932L497.309 268.658V266.656L501.819 265.732H503.513V281H501.071ZM513.854 281V267.932L510.092 268.658V266.656L514.602 265.732H516.296V281H513.854ZM523.557 281L529.849 267.8H521.885V265.732H532.027V268.086L526.065 281H523.557ZM531.783 279.526C531.783 279.057 531.827 278.712 531.915 278.492C532.003 278.272 532.157 278.125 532.377 278.052C532.597 277.979 532.934 277.942 533.389 277.942C533.829 277.942 534.159 277.979 534.379 278.052C534.599 278.125 534.753 278.272 534.841 278.492C534.944 278.712 534.995 279.057 534.995 279.526C534.995 279.995 534.944 280.34 534.841 280.56C534.753 280.78 534.599 280.927 534.379 281C534.159 281.088 533.829 281.132 533.389 281.132C532.934 281.132 532.597 281.088 532.377 281C532.157 280.927 532.003 280.78 531.915 280.56C531.827 280.34 531.783 279.995 531.783 279.526ZM540.177 272.266L538.417 270.99L540.397 268.746L537.471 268.13L538.153 266.062L540.881 267.272L540.573 264.28H542.773L542.443 267.272L545.193 266.062L545.875 268.13L542.927 268.746L544.929 270.99L543.191 272.266L541.673 269.648L540.177 272.266ZM549.909 272.266L548.149 270.99L550.129 268.746L547.203 268.13L547.885 266.062L550.613 267.272L550.305 264.28H552.505L552.175 267.272L554.925 266.062L555.607 268.13L552.659 268.746L554.661 270.99L552.923 272.266L551.405 269.648L549.909 272.266ZM559.641 272.266L557.881 270.99L559.861 268.746L556.935 268.13L557.617 266.062L560.345 267.272L560.037 264.28H562.237L561.907 267.272L564.657 266.062L565.339 268.13L562.391 268.746L564.393 270.99L562.655 272.266L561.137 269.648L559.641 272.266ZM567.834 279.526C567.834 279.057 567.878 278.712 567.966 278.492C568.054 278.272 568.208 278.125 568.428 278.052C568.648 277.979 568.985 277.942 569.44 277.942C569.88 277.942 570.21 277.979 570.43 278.052C570.65 278.125 570.804 278.272 570.892 278.492C570.994 278.712 571.046 279.057 571.046 279.526C571.046 279.995 570.994 280.34 570.892 280.56C570.804 280.78 570.65 280.927 570.43 281C570.21 281.088 569.88 281.132 569.44 281.132C568.985 281.132 568.648 281.088 568.428 281C568.208 280.927 568.054 280.78 567.966 280.56C567.878 280.34 567.834 279.995 567.834 279.526ZM576.227 272.266L574.467 270.99L576.447 268.746L573.521 268.13L574.203 266.062L576.931 267.272L576.623 264.28H578.823L578.493 267.272L581.243 266.062L581.925 268.13L578.977 268.746L580.979 270.99L579.241 272.266L577.723 269.648L576.227 272.266ZM585.96 272.266L584.2 270.99L586.18 268.746L583.254 268.13L583.936 266.062L586.664 267.272L586.356 264.28H588.556L588.226 267.272L590.976 266.062L591.658 268.13L588.71 268.746L590.712 270.99L588.974 272.266L587.456 269.648L585.96 272.266Z" fill="#999999"/>
</g>
<g id="&#229;&#156;&#134;&#233;&#161;&#182;_dome 2">
<path id="Vector 29" d="M41.8033 12.3328L30.4896 23.6465L42.5104 35.6673" stroke="#01AA44" stroke-width="6"/>
<path id="Vector 30" d="M76.1968 12.3328L87.5105 23.6465L75.4897 35.6673" stroke="#01AA44" stroke-width="6"/>
</g>
</g>
<defs>
<filter id="filter0_d_2393_3640" x="132" y="103" width="113" height="61" filterUnits="userSpaceOnUse" color-interpolation-filters="sRGB">
<feFlood flood-opacity="0" result="BackgroundImageFix"/>
<feColorMatrix in="SourceAlpha" type="matrix" values="0 0 0 0 0 0 0 0 0 0 0 0 0 0 0 0 0 0 127 0" result="hardAlpha"/>
<feOffset dy="4"/>
<feGaussianBlur stdDeviation="7"/>
<feComposite in2="hardAlpha" operator="out"/>
<feColorMatrix type="matrix" values="0 0 0 0 0.00392157 0 0 0 0 0.666667 0 0 0 0 0.266667 0 0 0 0.12 0"/>
<feBlend mode="normal" in2="BackgroundImageFix" result="effect1_dropShadow_2393_3640"/>
<feBlend mode="normal" in="SourceGraphic" in2="effect1_dropShadow_2393_3640" result="shape"/>
</filter>
<filter id="filter1_d_2393_3640" x="0.00012207" y="192" width="408" height="225" filterUnits="userSpaceOnUse" color-interpolation-filters="sRGB">
<feFlood flood-opacity="0" result="BackgroundImageFix"/>
<feColorMatrix in="SourceAlpha" type="matrix" values="0 0 0 0 0 0 0 0 0 0 0 0 0 0 0 0 0 0 127 0" result="hardAlpha"/>
<feOffset dy="4"/>
<feGaussianBlur stdDeviation="37"/>
<feComposite in2="hardAlpha" operator="out"/>
<feColorMatrix type="matrix" values="0 0 0 0 0.0819556 0 0 0 0 0.372968 0 0 0 0 0.489373 0 0 0 0.13 0"/>
<feBlend mode="normal" in2="BackgroundImageFix" result="effect1_dropShadow_2393_3640"/>
<feBlend mode="normal" in="SourceGraphic" in2="effect1_dropShadow_2393_3640" result="shape"/>
</filter>
<filter id="filter2_d_2393_3640" x="300" y="165" width="408" height="225" filterUnits="userSpaceOnUse" color-interpolation-filters="sRGB">
<feFlood flood-opacity="0" result="BackgroundImageFix"/>
<feColorMatrix in="SourceAlpha" type="matrix" values="0 0 0 0 0 0 0 0 0 0 0 0 0 0 0 0 0 0 127 0" result="hardAlpha"/>
<feOffset dy="4"/>
<feGaussianBlur stdDeviation="37"/>
<feComposite in2="hardAlpha" operator="out"/>
<feColorMatrix type="matrix" values="0 0 0 0 0.0819556 0 0 0 0 0.372968 0 0 0 0 0.489373 0 0 0 0.13 0"/>
<feBlend mode="normal" in2="BackgroundImageFix" result="effect1_dropShadow_2393_3640"/>
<feBlend mode="normal" in="SourceGraphic" in2="effect1_dropShadow_2393_3640" result="shape"/>
</filter>
<linearGradient id="paint0_linear_2393_3640" x1="255.231" y1="163.094" x2="273.196" y2="212.367" gradientUnits="userSpaceOnUse">
<stop stop-color="#C1F6D6"/>
<stop offset="1" stop-color="#F7FFD5"/>
</linearGradient>
<linearGradient id="paint1_linear_2393_3640" x1="353.931" y1="163.094" x2="372.199" y2="212.109" gradientUnits="userSpaceOnUse">
<stop stop-color="#C1F6D6"/>
<stop offset="1" stop-color="#F7FFD5"/>
</linearGradient>
<linearGradient id="paint2_linear_2393_3640" x1="451.047" y1="163.094" x2="469.011" y2="212.367" gradientUnits="userSpaceOnUse">
<stop stop-color="#C1F6D6"/>
<stop offset="1" stop-color="#F7FFD5"/>
</linearGradient>
<clipPath id="clip0_2393_3640">
<rect width="48" height="48" fill="white" transform="translate(95.0001 276)"/>
</clipPath>
</defs>
</svg>
