<svg width="64" height="64" viewBox="0 0 64 64" fill="none" xmlns="http://www.w3.org/2000/svg">
<g id="&#230;&#137;&#152;&#232;&#181;&#183;_hold-interface 1" clip-path="url(#clip0_3366_2522)">
<path id="Vector" d="M26.6666 43.9998L34.6666 46.6665C34.6666 46.6665 54.6666 42.6665 57.3333 42.6665C59.9999 42.6665 59.9999 45.3332 57.3333 47.9998C54.6666 50.6665 45.3333 58.6665 37.3333 58.6665C29.3333 58.6665 23.9999 54.6665 18.6666 54.6665C13.3333 54.6665 -0.000244141 54.6665 -0.000244141 54.6665" stroke="#191919" stroke-width="3" stroke-linecap="round" stroke-linejoin="round"/>
<path id="Vector_2" d="M-4.66675 38.6667C-0.000244141 40.5 6.36949 37.6729 6.99976 37.1426C9.90268 34.7002 14.2846 32 18.6666 32C23.9999 32 36.6666 37.3333 38.6666 40C40.6666 42.6667 34.6666 46.6667 34.6666 46.6667" stroke="#191919" stroke-width="3" stroke-linecap="round" stroke-linejoin="round"/>
<path id="Vector_3" d="M52.0001 20H38.6667C36.4576 20 34.6667 21.7909 34.6667 24C34.6667 26.2091 36.4576 28 38.6667 28H52.0001C54.2092 28 56.0001 26.2091 56.0001 24C56.0001 21.7909 54.2092 20 52.0001 20Z" stroke="#191919" stroke-width="3"/>
<path id="Vector_4" d="M34.6667 12H56.0001" stroke="#191919" stroke-width="3" stroke-linecap="round"/>
</g>
<defs>
<clipPath id="clip0_3366_2522">
<rect width="64" height="64" fill="white"/>
</clipPath>
</defs>
</svg>
