<svg width="146" height="48" viewBox="0 0 146 48" fill="none" xmlns="http://www.w3.org/2000/svg">
<g id="logo">
<g id="Group 1">
<path id="&#231;&#159;&#169;&#229;&#189;&#162; 17" d="M16.6928 10.7261H7.06848V17.1618H16.6928V10.7261Z" fill="#58DA8C"/>
<path id="&#231;&#159;&#169;&#229;&#189;&#162; 18" d="M20.9703 0H0.402954L2.79101 2.41341V4.82681V9.65363H20.9703V0Z" fill="#58DA8C"/>
<path id="&#229;&#135;&#143;&#229;&#142;&#187;&#233;&#161;&#182;&#229;&#177;&#130;" fill-rule="evenodd" clip-rule="evenodd" d="M10.8113 18.5029H31.263C39.0146 18.5029 45.2985 24.8059 45.2985 32.5811V33.9219C45.2985 41.6971 39.0146 48.0001 31.263 48.0001H10.8113V39.6873H30.7283C33.9027 39.6873 36.4762 37.106 36.4762 33.9219C36.4762 30.7378 33.9027 28.1566 30.7283 28.1566H10.8113V18.5029Z" fill="#01AA44"/>
<path id="&#229;&#135;&#143;&#229;&#142;&#187;&#233;&#161;&#182;&#229;&#177;&#130;_2" fill-rule="evenodd" clip-rule="evenodd" d="M20.9703 0H27.5202C35.2718 0 41.5557 6.30302 41.5557 14.0782C41.5557 21.8534 35.2718 28.1564 27.5202 28.1564H7.06848V18.5028H28.3222C30.7585 18.5028 32.7334 16.5219 32.7334 14.0782C32.7334 11.6345 30.7585 9.65363 28.3222 9.65363H20.9703V0Z" fill="#58DA8C"/>
<path id="&#231;&#159;&#169;&#229;&#189;&#162; 16" d="M16.6928 18.5029H7.06848V48.0001H11.8806H14.2867C14.2925 48.0001 14.298 47.9978 14.3021 47.9938L16.1044 46.1983C16.4811 45.823 16.6928 45.3132 16.6928 44.7814V18.5029Z" fill="#58DA8C"/>
</g>
<g id="Group 6">
<path id="Vector" d="M117.657 10.9849C117.92 10.9849 118.134 11.1987 118.134 11.4625V40.358C118.134 40.6218 117.92 40.8356 117.657 40.8356H112.631C112.367 40.8356 112.153 40.6218 112.153 40.358V25.791V18.388V14.6864V12.3589L110.731 10.9849H117.657Z" fill="#191919"/>
<path id="Vector_2" d="M62.2537 10.9849C62.5175 10.9849 62.7314 11.1987 62.7314 11.4625V40.358C62.7314 40.6218 62.5175 40.8356 62.2537 40.8356H57.2279C56.9641 40.8356 56.7502 40.6218 56.7502 40.358V25.791V18.388V14.6864V12.3589L55.3284 10.9849H62.2537Z" fill="#191919"/>
<path id="Vector_3" d="M129.836 10.9849C130.1 10.9849 130.313 11.1987 130.313 11.4625V39.2049C130.313 39.3316 130.263 39.4531 130.174 39.5427L129.02 40.6957C128.931 40.7853 128.809 40.8356 128.683 40.8356H127.323H124.81C124.546 40.8356 124.332 40.6218 124.332 40.358V25.791V18.388V14.6864V12.3589L122.91 10.9849H129.836Z" fill="#191919"/>
<path id="Vector_4" d="M105.197 36.3278C105.971 36.3278 106.629 36.2711 107.173 36.1577V40.623C106.171 40.7647 105.197 40.8356 104.252 40.8356C102.305 40.8356 100.787 40.623 99.6988 40.1977C98.6392 39.7724 97.866 39.0211 97.3791 37.9438C96.8923 36.8665 96.6489 35.3213 96.6489 33.3084V22.1665H96.6328V17.6161H96.6489V14.8944V12.3457L95.209 10.9849H101.97C102.234 10.9849 102.448 11.1987 102.448 11.4625V17.6161H107.388V22.1665H102.448V32.8406C102.448 33.8046 102.52 34.5275 102.663 35.0095C102.806 35.4914 103.064 35.8317 103.436 36.0301C103.837 36.2286 104.424 36.3278 105.197 36.3278Z" fill="#191919"/>
<path id="Vector_5" d="M84.2239 19.582H90.194V29.7313V35.2835V38.7275C90.194 38.8542 90.1437 38.9756 90.0541 39.0652L88.4235 40.6959C88.3339 40.7854 88.2124 40.8358 88.0857 40.8358H87.209H84.2239V19.582Z" fill="#191919"/>
<path id="Vector_6" d="M84.2239 11.4625C84.2239 11.1987 84.4377 10.9849 84.7015 10.9849H89.7164C89.9802 10.9849 90.194 11.1987 90.194 11.4625V16.4774C90.194 16.7412 89.9802 16.955 89.7164 16.955H84.7015C84.4377 16.955 84.2239 16.7412 84.2239 16.4774V11.4625Z" fill="#191919"/>
<path id="Rectangle 3 (Stroke)" fill-rule="evenodd" clip-rule="evenodd" d="M68.9403 16.7162H62.4926V22.4475H68.9403C70.523 22.4475 71.806 21.1645 71.806 19.5819C71.806 17.9992 70.523 16.7162 68.9403 16.7162ZM56.7612 10.9849V28.1789H68.9403C73.6883 28.1789 77.5373 24.3299 77.5373 19.5819C77.5373 14.8339 73.6883 10.9849 68.9403 10.9849H56.7612Z" fill="#191919"/>
<path id="Rectangle 5 (Stroke)" fill-rule="evenodd" clip-rule="evenodd" d="M135.209 16.955H130.313V25.7908H135.209C137.649 25.7908 139.627 23.8129 139.627 21.3729C139.627 18.933 137.649 16.955 135.209 16.955ZM124.343 10.9849V31.761H135.209C140.946 31.761 145.597 27.1101 145.597 21.3729C145.597 15.6358 140.946 10.9849 135.209 10.9849H124.343Z" fill="#191919"/>
<path id="Rectangle 4 (Stroke)" fill-rule="evenodd" clip-rule="evenodd" d="M69.7762 28.1791H62.4926V35.1045H69.7762C71.6885 35.1045 73.2388 33.5542 73.2388 31.6418C73.2388 29.7294 71.6885 28.1791 69.7762 28.1791ZM56.7612 22.4478V40.8358H69.7762C74.8539 40.8358 78.9702 36.7195 78.9702 31.6418C78.9702 26.5641 74.8539 22.4478 69.7762 22.4478H56.7612Z" fill="#191919"/>
</g>
</g>
</svg>
