<svg width="64" height="64" viewBox="0 0 64 64" fill="none" xmlns="http://www.w3.org/2000/svg">
<g id="&#229;&#184;&#130;&#229;&#156;&#186;&#229;&#136;&#134;&#230;&#158;&#144;_market-analysis 1">
<path id="Vector" d="M58.6667 14.6665C58.6667 12.4574 56.8759 10.6665 54.6667 10.6665H9.33333C7.12419 10.6665 5.33333 12.4574 5.33333 14.6665V26.6665H58.6667V14.6665Z" stroke="#333333" stroke-width="3" stroke-linecap="round" stroke-linejoin="round"/>
<path id="Vector_2" d="M58.6667 24V49.3333C58.6667 51.5425 56.8759 53.3333 54.6667 53.3333H16" stroke="#333333" stroke-width="3" stroke-linecap="round" stroke-linejoin="round"/>
<path id="Vector_3" d="M25.4824 18.6665H49.4824" stroke="#333333" stroke-width="3" stroke-linecap="round" stroke-linejoin="round"/>
<path id="Vector_4" d="M14.8144 18.6665H17.4811" stroke="#333333" stroke-width="3" stroke-linecap="round" stroke-linejoin="round"/>
<path id="Vector_5" d="M5.33333 24V36" stroke="#333333" stroke-width="3" stroke-linecap="round" stroke-linejoin="round"/>
<g id="Group 1321316500">
<path id="Vector_6" d="M19 47.6665C14.5817 47.6665 11 44.0848 11 39.6665C11 35.2482 14.5817 31.6665 19 31.6665C23.4183 31.6665 27 35.2482 27 39.6665C27 44.0848 23.4183 47.6665 19 47.6665Z" stroke="#333333" stroke-width="3"/>
<path id="Vector_7" d="M12.3333 45L5.66659 50.3333" stroke="#333333" stroke-width="3" stroke-linecap="round" stroke-linejoin="round"/>
</g>
</g>
</svg>
