<svg width="64" height="64" viewBox="0 0 64 64" fill="none" xmlns="http://www.w3.org/2000/svg">
<g id="&#228;&#191;&#161;&#230;&#129;&#175;&#229;&#174;&#137;&#229;&#133;&#168;_message-security 1">
<path id="Vector" d="M34 49.3335H28L14.6666 56.0002V49.3335H5.33331V9.3335H58.6666V24.0002" stroke="#333333" stroke-width="3" stroke-linecap="round" stroke-linejoin="round"/>
<g id="&#232;&#174;&#190;&#231;&#189;&#174;_setting-two 1">
<path id="Vector_2" d="M46.1419 49.5854C44.4664 49.0866 42.9749 48.1604 41.7939 46.9333C42.2345 46.4111 42.5 45.7365 42.5 44.9998C42.5 43.343 41.1569 41.9998 39.5 41.9998C39.3998 41.9998 39.3007 42.0048 39.203 42.0144C39.0699 41.3636 39 40.6899 39 39.9998C39 38.9545 39.1604 37.9467 39.4579 36.9995C39.4719 36.9997 39.4859 36.9998 39.5 36.9998C41.1569 36.9998 42.5 35.6567 42.5 33.9998C42.5 33.5242 42.3893 33.0744 42.1923 32.6748C43.3487 31.5995 44.7602 30.7948 46.326 30.3613C46.8222 31.3339 47.8333 31.9998 49 31.9998C50.1667 31.9998 51.1778 31.3339 51.674 30.3613C53.2398 30.7948 54.6512 31.5995 55.8077 32.6748C55.6107 33.0744 55.5 33.5242 55.5 33.9998C55.5 35.6567 56.8432 36.9998 58.5 36.9998C58.5141 36.9998 58.5281 36.9997 58.5421 36.9995C58.8396 37.9467 59 38.9545 59 39.9998C59 40.6899 58.9301 41.3636 58.797 42.0144C58.6993 42.0048 58.6002 41.9998 58.5 41.9998C56.8432 41.9998 55.5 43.343 55.5 44.9998C55.5 45.7365 55.7655 46.4111 56.2061 46.9333C55.0251 48.1604 53.5336 49.0866 51.8581 49.5854C51.4714 48.3758 50.338 47.4998 49 47.4998C47.662 47.4998 46.5286 48.3758 46.1419 49.5854Z" stroke="#333333" stroke-width="2.5" stroke-linejoin="round"/>
<path id="Vector_3" d="M49 43.5C50.933 43.5 52.5 41.933 52.5 40C52.5 38.067 50.933 36.5 49 36.5C47.067 36.5 45.5 38.067 45.5 40C45.5 41.933 47.067 43.5 49 43.5Z" stroke="#333333" stroke-width="2.5" stroke-linejoin="round"/>
</g>
<path id="Vector_4" d="M16 20H20H24" stroke="#333333" stroke-width="3" stroke-linecap="round" stroke-linejoin="round"/>
<path id="Vector_5" d="M16 28H24H32" stroke="#333333" stroke-width="3" stroke-linecap="round" stroke-linejoin="round"/>
</g>
</svg>
