<svg width="24" height="25" viewBox="0 0 24 25" fill="none" xmlns="http://www.w3.org/2000/svg">
<g id="Group 1321316449">
<rect id="Rectangle 67" y="0.5" width="24" height="24" rx="4" fill="#4658FF"/>
<path id="Vector" d="M5 20.5V9.83333L12 4.5L19 9.83333V20.5" stroke="white" stroke-width="1.5" stroke-linecap="round" stroke-linejoin="round"/>
<g id="&#230;&#151;&#139;&#232;&#189;&#172;_one-third-rotation 1" clip-path="url(#clip0_1199_1653)">
<path id="Vector_2" d="M14.5 18.3364C13.8036 18.8566 12.938 19.1666 12 19.1666C10.4577 19.1666 9.11117 18.3287 8.39075 17.0833H10.125" stroke="white" stroke-width="1.5" stroke-linecap="round" stroke-linejoin="round"/>
<path id="Vector_3" d="M13.6666 11.1799C15.1382 11.8229 16.1666 13.2913 16.1666 14.9999C16.1666 15.7588 15.9637 16.4704 15.6092 17.0832L14.767 15.6249" stroke="white" stroke-width="1.5" stroke-linecap="round" stroke-linejoin="round"/>
<path id="Vector_4" d="M7.85395 15.4166C7.84034 15.2795 7.83337 15.1405 7.83337 14.9999C7.83337 12.6987 9.69885 10.8333 12 10.8333L11.1579 12.2916" stroke="white" stroke-width="1.5" stroke-linecap="round" stroke-linejoin="round"/>
</g>
</g>
<defs>
<clipPath id="clip0_1199_1653">
<rect width="10" height="10" fill="white" transform="translate(7 10)"/>
</clipPath>
</defs>
</svg>
