<svg width="24" height="25" viewBox="0 0 24 25" fill="none" xmlns="http://www.w3.org/2000/svg">
<g id="Group 1321316498">
<rect id="Rectangle 67" y="0.5" width="24" height="24" rx="4" fill="#01AA44"/>
<g id="&#230;&#151;&#139;&#232;&#189;&#172;_one-third-rotation 1">
<path id="Vector" d="M16.5 18.5056C15.2466 19.4421 13.6884 20 12 20C9.22399 20 6.80018 18.4918 5.50342 16.25H8.62504" stroke="white" stroke-width="1.5" stroke-linecap="round" stroke-linejoin="round"/>
<path id="Vector_2" d="M15 5.62402C17.6489 6.78136 19.5 9.42448 19.5 12.5C19.5 13.8661 19.1348 15.1468 18.4967 16.25L16.9808 13.625" stroke="white" stroke-width="1.5" stroke-linecap="round" stroke-linejoin="round"/>
<path id="Vector_3" d="M4.53703 13.25C4.51254 13.0033 4.5 12.7531 4.5 12.5C4.5 8.35786 7.85786 5 12 5L10.4841 7.625" stroke="white" stroke-width="1.5" stroke-linecap="round" stroke-linejoin="round"/>
<path id="Vector_4" d="M12 14.75C13.2426 14.75 14.25 13.7426 14.25 12.5C14.25 11.2574 13.2426 10.25 12 10.25C10.7574 10.25 9.75 11.2574 9.75 12.5C9.75 13.7426 10.7574 14.75 12 14.75Z" stroke="white" stroke-width="1.5" stroke-linecap="round" stroke-linejoin="round"/>
</g>
</g>
</svg>
