<svg width="416" height="168" viewBox="0 0 416 168" fill="none" xmlns="http://www.w3.org/2000/svg">
<g id="&#229;&#173;&#144;&#232;&#180;&#166;&#229;&#143;&#183;">
<mask id="mask0_3374_8873" style="mask-type:alpha" maskUnits="userSpaceOnUse" x="0" y="0" width="416" height="168">
<rect id="Rectangle 64" x="0.5" y="0.5" width="415" height="167" rx="15.5" fill="white" stroke="#EBEFF8"/>
</mask>
<g mask="url(#mask0_3374_8873)">
<g id="Group 1321316521">
<circle id="Ellipse 26" cx="209" cy="38" r="38" fill="#F5F7F9"/>
<circle id="Ellipse 27" cx="209" cy="37.9999" r="26.6" fill="white"/>
</g>
<path id="Vector 25" d="M91 110V98C91 93.0294 95.0294 89 100 89H199C203.971 89 208 84.9706 208 80V76" stroke="#C2C2C2" stroke-dasharray="2 2"/>
<path id="Vector 26" d="M315 110V98C315 93.0294 310.971 89 306 89H217C212.029 89 208 84.9706 208 80V76" stroke="#C2C2C2" stroke-dasharray="2 2"/>
<g id="Mask group">
<g id="Frame 38">
<g id="Group 1321316516">
<rect id="Rectangle 34625676" x="48" y="99" width="76" height="49" rx="4" fill="#F5F7F9"/>
<g id="&#231;&#148;&#168;&#230;&#136;&#183;&#229;&#174;&#154;&#228;&#189;&#141;_user-positioning 1">
<path id="Vector" d="M85.9999 123.86C87.8161 123.86 89.2884 122.409 89.2884 120.618C89.2884 118.827 87.8161 117.375 85.9999 117.375C84.1838 117.375 82.7115 118.827 82.7115 120.618C82.7115 122.409 84.1838 123.86 85.9999 123.86Z" stroke="#18D2AB" stroke-width="1.5" stroke-linecap="round" stroke-linejoin="round"/>
<path id="Vector_2" d="M92.5769 131.427C92.5769 127.845 89.6323 124.941 86 124.941C82.3676 124.941 79.423 127.845 79.423 131.427" stroke="#18D2AB" stroke-width="1.5" stroke-linecap="round" stroke-linejoin="round"/>
<path id="Vector_3" d="M92.5769 114.133H96.9615V118.456" stroke="#18D2AB" stroke-width="1.5" stroke-linecap="round" stroke-linejoin="round"/>
<path id="Vector_4" d="M79.4231 114.133H75.0385V118.456" stroke="#18D2AB" stroke-width="1.5" stroke-linecap="round" stroke-linejoin="round"/>
<path id="Vector_5" d="M92.5769 135.75H96.9615V131.427" stroke="#18D2AB" stroke-width="1.5" stroke-linecap="round" stroke-linejoin="round"/>
<path id="Vector_6" d="M79.4231 135.75H75.0385V131.427" stroke="#18D2AB" stroke-width="1.5" stroke-linecap="round" stroke-linejoin="round"/>
</g>
</g>
<g id="Group 1321316517">
<rect id="Rectangle 34625676_2" x="126" y="99" width="76" height="49" rx="4" fill="#F5F7F9"/>
<g id="&#231;&#148;&#168;&#230;&#136;&#183;&#229;&#174;&#154;&#228;&#189;&#141;_user-positioning 1_2">
<path id="Vector_7" d="M164 123.86C165.816 123.86 167.288 122.409 167.288 120.618C167.288 118.827 165.816 117.375 164 117.375C162.184 117.375 160.711 118.827 160.711 120.618C160.711 122.409 162.184 123.86 164 123.86Z" stroke="#18D2AB" stroke-width="1.5" stroke-linecap="round" stroke-linejoin="round"/>
<path id="Vector_8" d="M170.577 131.427C170.577 127.845 167.632 124.941 164 124.941C160.368 124.941 157.423 127.845 157.423 131.427" stroke="#18D2AB" stroke-width="1.5" stroke-linecap="round" stroke-linejoin="round"/>
<path id="Vector_9" d="M170.577 114.133H174.962V118.456" stroke="#18D2AB" stroke-width="1.5" stroke-linecap="round" stroke-linejoin="round"/>
<path id="Vector_10" d="M157.423 114.133H153.038V118.456" stroke="#18D2AB" stroke-width="1.5" stroke-linecap="round" stroke-linejoin="round"/>
<path id="Vector_11" d="M170.577 135.75H174.962V131.427" stroke="#18D2AB" stroke-width="1.5" stroke-linecap="round" stroke-linejoin="round"/>
<path id="Vector_12" d="M157.423 135.75H153.038V131.427" stroke="#18D2AB" stroke-width="1.5" stroke-linecap="round" stroke-linejoin="round"/>
</g>
</g>
<g id="Group 1321316518">
<rect id="Rectangle 34625676_3" x="204" y="99" width="76" height="49" rx="4" fill="#F5F7F9"/>
<g id="&#231;&#148;&#168;&#230;&#136;&#183;&#229;&#174;&#154;&#228;&#189;&#141;_user-positioning 1_3">
<path id="Vector_13" d="M242 123.86C243.816 123.86 245.288 122.409 245.288 120.618C245.288 118.827 243.816 117.375 242 117.375C240.184 117.375 238.712 118.827 238.712 120.618C238.712 122.409 240.184 123.86 242 123.86Z" stroke="#18D2AB" stroke-width="1.5" stroke-linecap="round" stroke-linejoin="round"/>
<path id="Vector_14" d="M248.577 131.427C248.577 127.845 245.632 124.941 242 124.941C238.368 124.941 235.423 127.845 235.423 131.427" stroke="#18D2AB" stroke-width="1.5" stroke-linecap="round" stroke-linejoin="round"/>
<path id="Vector_15" d="M248.577 114.133H252.962V118.456" stroke="#18D2AB" stroke-width="1.5" stroke-linecap="round" stroke-linejoin="round"/>
<path id="Vector_16" d="M235.423 114.133H231.038V118.456" stroke="#18D2AB" stroke-width="1.5" stroke-linecap="round" stroke-linejoin="round"/>
<path id="Vector_17" d="M248.577 135.75H252.962V131.427" stroke="#18D2AB" stroke-width="1.5" stroke-linecap="round" stroke-linejoin="round"/>
<path id="Vector_18" d="M235.423 135.75H231.038V131.427" stroke="#18D2AB" stroke-width="1.5" stroke-linecap="round" stroke-linejoin="round"/>
</g>
</g>
<g id="Group 1321316519">
<rect id="Rectangle 34625676_4" x="282" y="99" width="76" height="49" rx="4" fill="#F5F7F9"/>
<g id="&#231;&#148;&#168;&#230;&#136;&#183;&#229;&#174;&#154;&#228;&#189;&#141;_user-positioning 1_4">
<path id="Vector_19" d="M320 123.86C321.816 123.86 323.288 122.409 323.288 120.618C323.288 118.827 321.816 117.375 320 117.375C318.184 117.375 316.712 118.827 316.712 120.618C316.712 122.409 318.184 123.86 320 123.86Z" stroke="#18D2AB" stroke-width="1.5" stroke-linecap="round" stroke-linejoin="round"/>
<path id="Vector_20" d="M326.577 131.427C326.577 127.845 323.632 124.941 320 124.941C316.368 124.941 313.423 127.845 313.423 131.427" stroke="#18D2AB" stroke-width="1.5" stroke-linecap="round" stroke-linejoin="round"/>
<path id="Vector_21" d="M326.577 114.133H330.962V118.456" stroke="#18D2AB" stroke-width="1.5" stroke-linecap="round" stroke-linejoin="round"/>
<path id="Vector_22" d="M313.423 114.133H309.038V118.456" stroke="#18D2AB" stroke-width="1.5" stroke-linecap="round" stroke-linejoin="round"/>
<path id="Vector_23" d="M326.577 135.75H330.962V131.427" stroke="#18D2AB" stroke-width="1.5" stroke-linecap="round" stroke-linejoin="round"/>
<path id="Vector_24" d="M313.423 135.75H309.038V131.427" stroke="#18D2AB" stroke-width="1.5" stroke-linecap="round" stroke-linejoin="round"/>
</g>
</g>
</g>
</g>
</g>
<g id="&#231;&#148;&#168;&#230;&#136;&#183;&#229;&#174;&#154;&#228;&#189;&#141;_user-positioning 1_5" clip-path="url(#clip0_3374_8873)">
<g id="logo">
<g id="Group 1">
<rect id="Rectangle 34625638" x="195" y="23" width="103" height="40" fill="white"/>
<g id="logo_2">
<path id="&#231;&#159;&#169;&#229;&#189;&#162; 17" d="M205.302 32.363H200.397V35.5809H205.302V32.363Z" fill="#58DA8C"/>
<path id="&#231;&#159;&#169;&#229;&#189;&#162; 18" d="M207.482 27H197L198.217 28.2067V29.4134V31.8268H207.482V27Z" fill="#58DA8C"/>
<path id="&#229;&#135;&#143;&#229;&#142;&#187;&#233;&#161;&#182;&#229;&#177;&#130;" fill-rule="evenodd" clip-rule="evenodd" d="M202.305 36.2515H212.728C216.679 36.2515 219.882 39.403 219.882 43.2906V43.961C219.882 47.8486 216.679 51.0001 212.728 51.0001H202.305V46.8436H212.456C214.074 46.8436 215.385 45.553 215.385 43.961C215.385 42.3689 214.074 41.0783 212.456 41.0783H202.305V36.2515Z" fill="#01AA44"/>
<path id="&#229;&#135;&#143;&#229;&#142;&#187;&#233;&#161;&#182;&#229;&#177;&#130;_2" fill-rule="evenodd" clip-rule="evenodd" d="M207.482 27H210.821C214.771 27 217.974 30.1515 217.974 34.0391C217.974 37.9267 214.771 41.0782 210.821 41.0782H200.397V36.2514H211.229C212.471 36.2514 213.478 35.261 213.478 34.0391C213.478 32.8173 212.471 31.8268 211.229 31.8268H207.482V27Z" fill="#58DA8C"/>
<path id="&#231;&#159;&#169;&#229;&#189;&#162; 16" d="M205.302 36.2515H200.397V51.0001H202.85H204.076C204.079 51.0001 204.082 50.9989 204.084 50.9969L204.7 50.3945C205.085 50.0182 205.302 49.5025 205.302 48.9642V36.2515Z" fill="#58DA8C"/>
</g>
</g>
</g>
</g>
</g>
<defs>
<clipPath id="clip0_3374_8873">
<rect width="26.3077" height="25.9412" fill="white" transform="translate(196.846 26.9707)"/>
</clipPath>
</defs>
</svg>
