<svg width="36" height="36" viewBox="0 0 36 36" fill="none" xmlns="http://www.w3.org/2000/svg">
<g id="&#229;&#190;&#174;&#228;&#191;&#161; 1">
<circle id="Ellipse 1" cx="18" cy="18" r="17" fill="#0ECE6B"/>
<path id="Vector" d="M21.9452 14.9464C22.1628 14.9464 22.3803 14.9664 22.5967 14.9854C22.0146 12.284 19.0944 10.2656 15.7679 10.2656C12.048 10.2787 9 12.7928 9 15.9852C9 17.8256 10.016 19.3436 11.7038 20.5188L11.0225 22.5349L13.3916 21.3608C14.2403 21.5268 14.9216 21.6929 15.7595 21.6929C15.977 21.6929 16.1839 21.6834 16.3906 21.6643C16.2563 21.2059 16.1867 20.7309 16.1839 20.2532C16.1934 17.3264 18.7298 14.9475 21.9465 14.9475L21.9453 14.9464H21.9452ZM18.3043 13.1272C18.8183 13.1272 19.153 13.4592 19.153 13.9691C19.153 14.4672 18.8183 14.8111 18.3043 14.8111C17.801 14.8111 17.2883 14.4779 17.2883 13.9691C17.2883 13.4592 17.801 13.1272 18.3043 13.1272ZM13.5673 14.8111C13.0653 14.8111 12.5513 14.4779 12.5513 13.9691C12.5513 13.4592 13.0653 13.1272 13.5673 13.1272C14.0705 13.1272 14.416 13.4592 14.416 13.9691C14.416 14.4672 14.0813 14.8111 13.5673 14.8111ZM28.125 20.1832C28.125 17.5007 25.4212 15.308 22.3707 15.308C19.1541 15.308 16.6177 17.5007 16.6177 20.1832C16.6177 22.8752 19.1541 25.0596 22.3707 25.0596C23.0425 25.0596 23.7238 24.8935 24.404 24.7263L26.2591 25.7344L25.7463 24.0598C27.109 23.0329 28.125 21.6904 28.125 20.1832ZM20.506 19.3412C20.1714 19.3412 19.8247 19.0091 19.8247 18.6653C19.8247 18.3332 20.1714 17.9894 20.506 17.9894C21.02 17.9894 21.3548 18.3226 21.3548 18.6653C21.3548 19.0092 21.02 19.3412 20.506 19.3412ZM24.2271 19.3412C23.8912 19.3412 23.5553 19.0091 23.5553 18.6653C23.5553 18.3332 23.89 17.9894 24.2271 17.9894C24.7399 17.9894 25.0757 18.3226 25.0757 18.6653C25.0757 19.0092 24.7399 19.3412 24.2271 19.3412Z" fill="white"/>
</g>
</svg>
