<svg width="1920" height="490" viewBox="0 0 1920 490" fill="none" xmlns="http://www.w3.org/2000/svg">
<g id="Group 1321316566">
<rect id="&#230;&#149;&#180;&#228;&#184;&#170;" width="1920" height="490" transform="matrix(1 0 0 -1 0 490)" fill="url(#paint0_linear_2803_29974)" fill-opacity="0.4"/>
<g id="Mask group">
<mask id="mask0_2803_29974" style="mask-type:alpha" maskUnits="userSpaceOnUse" x="0" y="0" width="1920" height="483">
<rect id="&#229;&#164;&#135;&#233;&#128;&#137;" width="1920" height="483" transform="matrix(1 0 0 -1 0 483)" fill="url(#paint1_linear_2803_29974)"/>
</mask>
<g mask="url(#mask0_2803_29974)">
<g id="Ellipse 13" filter="url(#filter0_f_2803_29974)">
<circle cx="225" cy="225" r="225" transform="matrix(1 0 0 -1 151 286)" fill="#F8CFA2" fill-opacity="0.12"/>
</g>
<g id="Ellipse 12" filter="url(#filter1_f_2803_29974)">
<circle cx="155" cy="155" r="155" transform="matrix(1 0 0 -1 1337 428)" fill="#F8CFA2" fill-opacity="0.17"/>
</g>
<g id="Ellipse 14" filter="url(#filter2_f_2803_29974)">
<circle cx="168" cy="168" r="168" transform="matrix(1 0 0 -1 502 348)" fill="#F8CFA2" fill-opacity="0.27"/>
</g>
<g id="Group 1321316424">
<rect id="Rectangle 34625618" width="111.788" height="957.603" transform="matrix(-0.59021 -0.80725 -0.79276 0.609533 1988.42 21.2263)" fill="white" fill-opacity="0.4"/>
<rect id="Rectangle 34625619" width="111.788" height="899.121" transform="matrix(-0.59021 -0.80725 -0.79276 0.609533 1905.77 -13.759)" fill="white" fill-opacity="0.4"/>
</g>
<g id="Group 1321316425">
<rect id="Rectangle 34625618_2" width="111.788" height="957.603" transform="matrix(0.59021 -0.80725 0.79276 0.609533 -80 21.2263)" fill="white" fill-opacity="0.4"/>
<rect id="Rectangle 34625619_2" width="111.788" height="899.121" transform="matrix(0.59021 -0.80725 0.79276 0.609533 2.65039 -13.759)" fill="white" fill-opacity="0.4"/>
</g>
</g>
</g>
<rect id="&#229;&#164;&#135;&#233;&#128;&#137;_2" width="1920" height="85" transform="matrix(1 0 0 -1 0 490)" fill="url(#paint2_linear_2803_29974)"/>
</g>
<defs>
<filter id="filter0_f_2803_29974" x="27" y="-288" width="698" height="698" filterUnits="userSpaceOnUse" color-interpolation-filters="sRGB">
<feFlood flood-opacity="0" result="BackgroundImageFix"/>
<feBlend mode="normal" in="SourceGraphic" in2="BackgroundImageFix" result="shape"/>
<feGaussianBlur stdDeviation="62" result="effect1_foregroundBlur_2803_29974"/>
</filter>
<filter id="filter1_f_2803_29974" x="1213" y="-6" width="558" height="558" filterUnits="userSpaceOnUse" color-interpolation-filters="sRGB">
<feFlood flood-opacity="0" result="BackgroundImageFix"/>
<feBlend mode="normal" in="SourceGraphic" in2="BackgroundImageFix" result="shape"/>
<feGaussianBlur stdDeviation="62" result="effect1_foregroundBlur_2803_29974"/>
</filter>
<filter id="filter2_f_2803_29974" x="378" y="-112" width="584" height="584" filterUnits="userSpaceOnUse" color-interpolation-filters="sRGB">
<feFlood flood-opacity="0" result="BackgroundImageFix"/>
<feBlend mode="normal" in="SourceGraphic" in2="BackgroundImageFix" result="shape"/>
<feGaussianBlur stdDeviation="62" result="effect1_foregroundBlur_2803_29974"/>
</filter>
<linearGradient id="paint0_linear_2803_29974" x1="14.5" y1="462.114" x2="1943.68" y2="213.946" gradientUnits="userSpaceOnUse">
<stop stop-color="#FFCB94"/>
<stop offset="0.495" stop-color="#FFEFD8"/>
<stop offset="1" stop-color="#FFC993"/>
</linearGradient>
<linearGradient id="paint1_linear_2803_29974" x1="960" y1="0" x2="960" y2="483" gradientUnits="userSpaceOnUse">
<stop stop-color="white"/>
<stop offset="1" stop-color="#F8CFA2"/>
</linearGradient>
<linearGradient id="paint2_linear_2803_29974" x1="960" y1="0" x2="960" y2="85" gradientUnits="userSpaceOnUse">
<stop stop-color="#FFFCF4"/>
<stop offset="1" stop-color="#FFFCF4" stop-opacity="0"/>
</linearGradient>
</defs>
</svg>
