<svg width="64" height="64" viewBox="0 0 64 64" fill="none" xmlns="http://www.w3.org/2000/svg">
<g id="&#230;&#144;&#156;&#231;&#180;&#162;&#229;&#188;&#149;&#230;&#147;&#142;_seo 1">
<path id="Vector" d="M56.4898 10.6665H7.51024C6.30799 10.6665 5.33337 11.6411 5.33337 12.8434V51.1563C5.33337 52.3586 6.30799 53.3332 7.51024 53.3332H56.4898C57.6921 53.3332 58.6667 52.3586 58.6667 51.1563V12.8434C58.6667 11.6411 57.6921 10.6665 56.4898 10.6665Z" stroke="#333333" stroke-width="3"/>
<path id="Vector_2" d="M21.3334 25.264C18.6667 21.3333 13.9971 23.9168 14.3319 27.9584C14.6667 32 20 32 20.3331 36.0416C20.6663 40.0832 16 42.6667 13.3334 38.736" stroke="#333333" stroke-width="3" stroke-linecap="round" stroke-linejoin="round"/>
<path id="Vector_3" d="M34.6667 24H29.3334V41.3333H34.6667" stroke="#333333" stroke-width="3" stroke-linecap="round" stroke-linejoin="round"/>
<path id="Vector_4" d="M29.3334 33.3335H34.6667" stroke="#333333" stroke-width="3" stroke-linecap="round" stroke-linejoin="round"/>
<path id="Vector_5" d="M50.6666 28C50.6666 25.7909 48.8758 24 46.6666 24C44.4575 24 42.6666 25.7909 42.6666 28V37.3333C42.6666 39.5425 44.4575 41.3333 46.6666 41.3333C48.8758 41.3333 50.6666 39.5425 50.6666 37.3333V28Z" stroke="#333333" stroke-width="3" stroke-linecap="round" stroke-linejoin="round"/>
</g>
</svg>
