<svg width="18" height="17" viewBox="0 0 18 17" fill="none" xmlns="http://www.w3.org/2000/svg">
<path id="Star 4" d="M8.05544 0.717388C8.36673 -0.178172 9.63327 -0.178173 9.94456 0.717388L11.3578 4.78304C11.4951 5.17811 11.8638 5.44598 12.282 5.4545L16.5853 5.5422C17.5333 5.56152 17.9247 6.76606 17.1691 7.33887L13.7392 9.93927C13.4059 10.192 13.265 10.6254 13.3862 11.0257L14.6326 15.1456C14.9071 16.0531 13.8825 16.7975 13.1042 16.256L9.57118 13.7975C9.22786 13.5586 8.77214 13.5586 8.42882 13.7975L4.89577 16.256C4.11753 16.7975 3.09288 16.0531 3.36743 15.1456L4.61385 11.0257C4.73496 10.6254 4.59414 10.192 4.26084 9.93927L0.830882 7.33887C0.0753496 6.76606 0.46673 5.56152 1.41465 5.5422L5.71803 5.4545C6.1362 5.44598 6.50489 5.17811 6.64222 4.78304L8.05544 0.717388Z" fill="#FF3922"/>
</svg>
