<svg width="36" height="36" viewBox="0 0 36 36" fill="none" xmlns="http://www.w3.org/2000/svg">
<g id="&#231;&#148;&#181;&#230;&#138;&#165;&#231;&#164;&#190;&#231;&#190;&#164; 1">
<path id="Vector" d="M23.627 25.576L26.4473 12.5932C26.6964 11.4482 26.0249 11.0002 25.2556 11.2816L8.66785 17.5206C7.5348 17.9507 7.55435 18.5695 8.4766 18.85L12.7198 20.142L22.5739 14.0909C23.0345 13.7908 23.4578 13.96 23.1119 14.2609L15.1406 21.2852L14.8329 25.5582C14.9982 25.5593 15.1615 25.5228 15.3106 25.4514C15.4596 25.3799 15.5904 25.2755 15.6931 25.146L17.7671 23.1978L22.0681 26.2892C22.8561 26.7193 23.4128 26.4949 23.6236 25.5769H23.627V25.576ZM35 18C35 27.3891 27.3891 35 18 35C8.6109 35 1 27.3891 1 18C1 8.6109 8.6109 1 18 1C27.3891 1 35 8.6109 35 18Z" fill="#2EA3E1"/>
</g>
</svg>
