<svg width="24" height="24" viewBox="0 0 24 24" fill="none" xmlns="http://www.w3.org/2000/svg">
<g id="Group 1321316557">
<g id="&#228;&#184;&#173;&#232;&#139;&#177;">
<path id="Vector" d="M6 15V17C6 18.0544 6.81588 18.9182 7.85074 18.9945L8 19H11V21H8C5.79086 21 4 19.2091 4 17V15H6ZM19 10L23.4 21H21.245L20.044 18H15.954L14.755 21H12.601L17 10H19ZM18 12.8852L16.753 16H19.245L18 12.8852ZM9 2V4H13V11H9V14H7V11H3V4H7V2H9ZM18 3C20.2091 3 22 4.79086 22 7V9H20V7C20 5.89543 19.1046 5 18 5H15V3H18ZM7 6H5V9H7V6ZM11 6H9V9H11V6Z" fill="#191919"/>
<path id="Vector_2" d="M9 2V4H13V11H9V14H7V11H3V4H7V2H9ZM7 6H5V9H7V6ZM11 6H9V9H11V6Z" fill="#191919"/>
<path id="Vector_3" d="M19 10L23.4 21H21.245L20.044 18H15.954L14.755 21H12.601L17 10H19ZM18 12.8852L16.753 16H19.245L18 12.8852Z" fill="#01AA44"/>
</g>
</g>
</svg>
