<svg width="47" height="30" viewBox="0 0 47 30" fill="none" xmlns="http://www.w3.org/2000/svg">
<g id="Group 1321316586">
<path id="Vector" d="M9.18512 0.877659C7.86207 1.04422 6.53906 2.13937 6.10595 3.40088C5.81736 4.18646 0.645137 26.4667 0.621321 26.8715C0.573129 28.0378 1.24664 28.8948 2.35316 29.1091C2.76221 29.2043 15.8967 29.2043 16.3298 29.1091C17.5806 28.8709 18.7593 27.895 19.1924 26.7049C19.3608 26.2526 24.7012 3.54388 24.7012 3.16292C24.7734 2.09164 24.1237 1.21089 23.0895 0.901475C22.8488 0.854046 9.73849 0.806312 9.18507 0.877609L9.18512 0.877659Z" fill="#E60012"/>
<path id="Vector_2" d="M21.4294 0.877659C20.1064 1.04422 18.7834 2.13937 18.3505 3.40088C18.0857 4.18646 12.8898 26.4667 12.8898 26.8715C12.8415 28.0378 13.5151 28.8948 14.6218 29.1091C15.0306 29.2043 28.1651 29.2043 28.5982 29.1091C29.8492 28.8709 31.0279 27.895 31.4608 26.7049C31.6293 26.2526 36.9695 3.54388 36.9695 3.16292C37.0418 2.09164 36.3923 1.21089 35.3579 0.901475C35.0931 0.854046 21.9828 0.806362 21.4294 0.877659Z" fill="#00508E"/>
<path id="Vector_3" d="M34.2033 0.877871C32.8802 1.04443 31.557 2.13958 31.1241 3.40109C30.8595 4.18668 25.6634 26.4669 25.6634 26.8717C25.6154 28.038 26.289 28.895 27.3954 29.1093C27.8044 29.2045 37.5711 29.2045 38.004 29.1093C39.255 28.8711 40.4337 27.8952 40.8667 26.7051C41.035 26.2528 46.3756 3.54409 46.3756 3.16313C46.4476 2.09185 45.7982 1.2111 44.7637 0.901687C44.5233 0.83039 33.5538 0.782707 33.0004 0.854258H34.2033V0.877871Z" fill="#00908C"/>
<path id="Vector_4" d="M8.77615 8.1138C8.77615 8.13767 8.75198 8.28047 8.70404 8.42331C8.15073 10.28 7.59737 12.7794 7.66963 13.0888C7.86209 14.0172 9.23334 13.9458 9.71439 12.9698C9.85871 12.7081 10.8931 8.35197 10.8931 8.04261C10.8931 8.01874 12.5289 8.04261 12.5289 8.06617C12.5289 8.06617 12.5289 8.13767 12.5048 8.20922C12.4807 8.28047 12.2162 9.28025 11.9276 10.4705C11.2778 12.9937 11.2058 13.2554 10.8691 13.7553C9.76238 15.3741 6.05773 15.3265 5.76914 13.684C5.69693 13.3269 6.49089 9.20895 6.8518 8.08999C6.8518 8.01874 8.77615 8.06612 8.77615 8.1138ZM33.3613 8.1138C34.4679 8.35197 34.8045 9.23251 34.2994 10.542C33.7942 11.8511 32.7118 12.4223 30.8114 12.4223C30.234 12.4223 30.2821 12.3271 29.9213 14.1124C29.8492 14.4456 29.777 14.7551 29.777 14.8027C29.7528 14.9217 28.0448 14.9217 28.069 14.8027C29.5125 8.68519 29.6327 8.16154 29.6327 8.1138L29.6567 8.04261H31.3886C32.7598 8.06617 33.1448 8.06612 33.3613 8.1138ZM18.5189 10.4705C18.7593 10.5181 18.9277 10.7086 18.9277 10.8752C18.9277 11.4702 17.7008 11.875 17.2438 11.4226C16.8109 10.9704 17.7249 10.28 18.5189 10.4704V10.4705ZM14.2609 10.9226C14.2609 10.9704 14.2369 11.0657 14.2369 11.1369L14.2128 11.2323L14.5014 11.0893C15.2712 10.7086 16.0169 10.7798 16.2576 11.2559C16.4018 11.5417 16.3777 11.7084 15.993 13.4697C15.9208 13.7792 15.8246 14.2078 15.8005 14.4217C15.7042 14.8981 15.7764 14.8742 14.9104 14.8742C14.1646 14.8742 14.1646 14.8742 14.1887 14.8027C14.1887 14.7551 14.285 14.3744 14.3812 13.9219C14.7661 12.2321 14.7902 11.9939 14.4534 11.9939C14.2609 11.9939 13.9962 12.1129 13.9723 12.1843C13.9242 12.351 13.491 14.4217 13.467 14.6123L13.419 14.8266L12.6732 14.8742C11.7592 14.8981 11.8312 14.9693 12.0237 14.16C12.2882 13.1126 12.4327 12.3749 12.5289 11.7083C12.6491 10.9942 12.577 11.0657 13.2506 10.9704C13.5633 10.9226 13.876 10.8752 13.9723 10.8514C14.2128 10.7798 14.2609 10.8036 14.2609 10.9226ZM25.6874 10.8991C25.6874 10.9464 25.6634 11.0418 25.6634 11.1131L25.6392 11.2323L25.928 11.0893C27.4195 10.3277 27.9967 10.9464 27.5638 12.8985C27.4677 13.3269 27.3472 13.9458 27.2752 14.2315C27.227 14.541 27.1548 14.8027 27.1309 14.8265C27.0345 14.9217 25.6154 14.8981 25.6392 14.8265C25.6392 14.7789 25.7356 14.3982 25.8317 13.9696C26.2408 12.2321 26.2408 12.0178 25.8799 12.0178C25.5913 12.0178 25.447 12.1129 25.3988 12.3271C25.3265 12.5889 24.9657 14.3028 24.9177 14.6123L24.8695 14.8742L24.1237 14.8981C23.2097 14.9217 23.2818 15.017 23.4983 14.1362C23.739 13.1841 23.9074 12.3033 24.0276 11.6607C24.1237 11.0418 24.0517 11.1131 24.653 11.018C24.9177 10.9703 25.2545 10.9226 25.3748 10.8991C25.6154 10.7798 25.6874 10.8037 25.6874 10.8991ZM40.2894 10.8752C40.3855 12.3271 40.4097 12.7555 40.4097 12.7794C40.4097 12.8032 40.6262 12.4223 40.8667 11.9463C41.3477 10.9942 41.2516 11.0893 41.7808 11.018C41.9251 10.9942 42.2137 10.9464 42.4303 10.8991C42.9596 10.8037 42.9596 10.756 42.358 11.8035C41.5402 13.208 40.4097 15.1837 40.0006 15.8978C38.7739 18.1114 38.7739 18.1114 37.7395 18.1352L37.1141 18.1591L37.1621 17.9924C37.1861 17.8973 37.2584 17.7069 37.2824 17.5641L37.3545 17.3021H37.547C37.7636 17.3021 37.8115 17.2544 38.004 16.9212C38.0763 16.8022 38.1965 16.6117 38.2446 16.4928C38.3167 16.3738 38.5573 15.9929 38.7498 15.612L39.1348 14.9455L39.0384 14.065C38.9182 13.0413 38.7739 11.8273 38.7017 11.4702C38.6535 11.137 38.6535 11.137 39.0866 11.0893C39.2791 11.0657 39.5918 10.9942 39.7602 10.9704C40.2172 10.8276 40.2653 10.8276 40.2894 10.8752ZM22.1512 10.8991C24.0035 11.2323 23.354 14.4217 21.3333 14.8742C19.9621 15.1837 19.0241 14.6599 19.0241 13.6124C19.0479 11.7796 20.4191 10.5894 22.1512 10.8991H22.1512ZM36.0074 10.9942C36.1035 11.0418 36.248 11.137 36.3201 11.2085C36.4403 11.3274 36.4403 11.3274 36.4403 11.2559C36.4644 11.1608 36.4403 11.1608 37.4027 11.018C38.1724 10.8991 38.1483 10.8991 38.1003 11.1131C37.7876 12.4461 37.5229 13.6124 37.4027 14.1839C37.2343 15.0409 37.3545 14.9455 36.4164 14.9217H35.6225V14.8265C35.6225 14.7314 35.5745 14.6837 35.5263 14.7551C35.2616 15.1837 33.9626 15.017 33.6018 14.4933C32.7118 13.1603 34.6121 10.3515 36.0073 10.9942H36.0074ZM18.7352 11.6845C18.7352 11.6845 18.7352 11.8035 18.7111 11.8988C18.5189 12.6605 18.1821 14.2078 18.1098 14.4933L18.0376 14.8504L17.2438 14.8742C16.3057 14.8981 16.3537 14.9455 16.5461 14.3744C16.7145 13.8268 16.883 13.1603 16.9793 12.4461C17.0754 11.8273 16.9793 11.9224 17.6769 11.8273C17.9896 11.7795 18.3264 11.7322 18.3984 11.7084C18.5909 11.6607 18.7111 11.6607 18.7352 11.6845V11.6845ZM22.945 16.6117C22.945 16.6356 22.897 16.731 22.8248 16.8499C22.7765 16.9688 22.7046 17.0642 22.7046 17.0642C24.1237 17.0878 24.1719 17.0878 24.1478 17.1593L23.8833 18.0163H21.8144L21.6942 18.1114C21.4295 18.3495 20.0344 18.6589 20.0344 18.4685L20.299 17.6115H20.4914C20.8282 17.6115 20.9002 17.5402 21.189 17.0404L21.4295 16.5879C22.6805 16.5643 22.9449 16.5879 22.9449 16.6118L22.945 16.6117ZM26.0965 16.6117C26.0965 16.6356 26.0723 16.7545 26.0242 16.8976C25.976 17.0165 25.9522 17.1355 25.9522 17.1593C25.9522 17.1593 26.0723 17.1116 26.2166 16.9928C26.7459 16.6356 27.2029 16.5643 28.55 16.5643C29.0793 16.5643 29.5363 16.5643 29.5604 16.5879C29.5845 16.6356 28.7907 19.2065 28.6703 19.4444C28.5019 19.754 28.3334 19.9206 28.069 20.0396L27.8283 20.1347L26.4573 20.1586L25.0861 20.1824L24.8455 20.9917C24.3644 22.539 24.3644 22.4201 25.062 22.3485C25.6154 22.3008 25.5913 22.2534 25.4229 22.8246L25.2786 23.3006H24.581C23.0654 23.3245 22.873 23.2293 23.0172 22.6103C23.0895 22.3009 24.8214 16.6356 24.8455 16.5879C24.8695 16.5643 26.0965 16.5643 26.0965 16.6117ZM32.423 16.6117C32.423 16.6356 32.3989 16.7071 32.3751 16.8022C32.3028 17.0403 32.3028 17.0403 32.6155 16.8738C33.0245 16.6594 33.9867 16.5879 35.9592 16.5879H36.5848V16.8738C36.5848 17.207 36.609 17.2308 36.8975 17.2783L37.1141 17.3021L36.9936 17.7307L36.8735 18.159H36.4403C35.3338 18.1829 35.1655 18.0639 35.1413 17.4213V17.1116L35.0693 17.3259L34.9971 17.5641H34.7564C34.6362 17.5641 34.516 17.5641 34.516 17.588C34.516 17.588 33.3373 21.4677 33.1688 22.0153C33.1448 22.063 33.1688 22.0868 33.3132 22.0868C33.5297 22.0868 33.5297 22.0868 33.4575 22.277C33.3854 22.4913 33.3854 22.4913 33.6259 22.4913C33.7942 22.4913 33.8906 22.4675 34.0108 22.3962C34.1792 22.3009 34.1792 22.3247 34.9489 21.2537L35.2616 20.8012H34.6121C33.8183 20.8012 33.8906 20.8489 34.0349 20.3729L34.1551 19.9919H35.7429C35.8872 19.4921 35.9351 19.3493 35.9351 19.3254C35.9351 19.3016 35.5984 19.3016 35.1655 19.3016H34.3958L34.6362 18.4446H36.8012C37.9799 18.4446 38.9664 18.4446 38.9664 18.4685C38.9664 18.4923 38.9182 18.6828 38.846 18.8971L38.7258 19.3016L38.004 19.3254L37.2824 19.3493C37.1621 19.7064 37.1141 19.873 37.09 19.9206L37.0659 20.0158H37.7636C38.5814 20.0158 38.5333 19.9681 38.3648 20.4442L38.2446 20.8251H36.6569L36.4164 21.1107H37.0419L37.1379 21.682C37.2343 22.3247 37.2343 22.3247 37.547 22.3247C37.7877 22.3247 37.7877 22.277 37.6193 22.8484L37.4747 23.3245H37.0177C36.224 23.3245 36.0797 23.2055 35.9351 22.3962L35.8631 21.8725L35.5745 22.2534C34.7805 23.3245 34.7325 23.3483 33.7222 23.3483C33.0725 23.3483 33.0725 23.3483 33.1688 23.1579C33.1929 23.0627 33.1929 23.0627 33.0004 23.0627C32.808 23.0627 32.808 23.0627 32.7598 23.2055L32.7357 23.3483H31.3886L31.4127 23.2768C31.485 23.0389 31.6051 23.0627 30.1378 23.0627C28.8627 23.0627 28.7907 23.0627 28.8148 22.9912L28.935 22.5628C29.0793 22.1343 29.0552 22.1343 29.1996 22.1343C29.3199 22.1343 29.3199 22.1343 29.3679 21.9676C30.4987 18.2305 30.8595 17.0403 30.9075 16.8738L31.0039 16.5643H31.6774C32.1103 16.5643 32.423 16.5879 32.423 16.6117ZM23.8833 18.6589L23.6185 19.4921H22.1753C22.031 19.9681 21.9829 20.1109 21.9587 20.1586C21.9346 20.2301 21.9828 20.2301 22.6805 20.2301C23.0895 20.2301 23.4263 20.254 23.4263 20.254C23.4263 20.2775 23.4022 20.3252 23.378 20.3967C23.354 20.4442 23.3058 20.6346 23.2579 20.8251L23.1616 21.1345H21.6701L21.5017 21.7059C21.2611 22.5152 21.2851 22.539 22.1993 22.42C22.5843 22.3724 22.5602 22.3247 22.3918 22.8961L22.2475 23.3721H21.237C19.6494 23.3721 19.6253 23.3245 20.0582 21.9676C20.1787 21.5392 20.2989 21.1822 20.2989 21.1822C20.2989 21.1822 20.1305 21.1583 19.8898 21.1583C19.6735 21.1583 19.481 21.1583 19.481 21.1345C19.6494 20.5395 19.7214 20.349 19.7214 20.3014C19.7455 20.2539 19.7937 20.2301 20.1546 20.2301H20.5634L20.7559 19.4921H20.3711C20.0823 19.4921 19.9862 19.4921 19.9862 19.4444C19.9862 19.397 20.2027 18.7066 20.2266 18.6351C20.2748 18.5877 23.9073 18.6113 23.8832 18.6589H23.8833ZM28.5501 20.3729C28.5501 20.4205 28.5019 20.5633 28.478 20.6823C28.3334 21.3488 28.1412 21.4916 27.3713 21.5392C27.1068 21.5631 26.8662 21.5869 26.8662 21.5869C26.818 21.6582 26.818 22.2296 26.8662 22.3247L26.9384 22.42L27.4195 22.3962C27.684 22.3724 27.9006 22.3724 27.9006 22.3724C27.9006 22.42 27.636 23.2532 27.6119 23.2768C27.5638 23.3245 26.0965 23.3006 25.904 23.2293C25.6154 23.134 25.6154 23.1578 25.6392 21.6582L25.6634 20.349H26.8902V20.8489H27.1309C27.3954 20.8489 27.4195 20.8251 27.5397 20.4918L27.6119 20.3014H28.0931C28.5259 20.3252 28.5741 20.3252 28.5501 20.3729ZM30.8114 10.1849L30.5466 11.3274H30.9075C32.7598 11.3751 33.5297 9.25638 31.7254 9.11359C31.4367 9.08972 31.1722 9.0659 31.1481 9.0659C31.0759 9.0659 31.0759 9.1375 30.8114 10.1849ZM21.237 11.8035C20.78 11.9939 20.3471 13.7078 20.708 13.9696C20.9724 14.1839 21.3575 13.8268 21.5499 13.2318C21.8626 12.1367 21.7663 11.613 21.237 11.8035ZM35.5745 11.9224C35.0932 12.1606 34.7325 13.8506 35.0932 14.041C35.5745 14.3028 36.1999 13.3985 36.1999 12.4223C36.1999 11.9701 35.9351 11.7558 35.5745 11.9224ZM25.8558 17.5879L25.7356 18.0163C25.6634 18.2306 25.6154 18.421 25.5913 18.4446C25.5913 18.4685 25.7115 18.421 25.8799 18.3257C26.3609 18.0877 26.5053 18.0401 27.2029 18.0163L27.8044 17.9924C27.9006 17.7069 27.9247 17.5879 27.9247 17.5641C27.9488 17.5402 25.8799 17.5402 25.8558 17.588V17.5879ZM25.447 18.9684L25.3506 19.3493L27.4195 19.3254L27.5397 18.9445C25.904 18.9445 25.447 18.9445 25.447 18.9684ZM31.9901 18.1114C31.8938 18.421 31.8218 18.6589 31.8458 18.6589L32.1344 18.5638C32.2787 18.5161 32.5435 18.4446 32.6878 18.421C32.832 18.3972 32.9523 18.3733 32.9764 18.3733C32.9764 18.3733 33.2171 17.6353 33.2171 17.6115C33.2171 17.6115 32.9764 17.5879 32.6878 17.5879H32.1584L31.99 18.1115L31.9901 18.1114ZM31.6052 19.3254C31.6052 19.3493 31.509 19.5874 31.4367 19.873C31.3407 20.1586 31.2684 20.4205 31.2684 20.4205C31.2684 20.4442 31.3886 20.3967 31.557 20.3252C31.7254 20.2539 31.966 20.1824 32.1103 20.1586C32.423 20.1109 32.4471 20.0873 32.4712 19.9681C32.4953 19.9206 32.5435 19.7302 32.5914 19.5874L32.6878 19.3016H32.1584C31.8698 19.3016 31.6051 19.3016 31.6051 19.3254H31.6052ZM30.7632 22.063L31.8218 22.0868C32.0383 21.3726 32.1103 21.1345 32.1103 21.1107L31.0519 21.0632L30.7632 22.063Z" fill="white"/>
</g>
</svg>
