<svg width="33" height="32" viewBox="0 0 33 32" fill="none" xmlns="http://www.w3.org/2000/svg">
<g id="&#229;&#190;&#174;&#228;&#191;&#161;">
<g id="Group 1321316504">
<rect id="Rectangle 34625681" x="0.618896" width="32" height="32" rx="8" fill="#0ECE6B"/>
<path id="Vector" d="M20.1564 12.8065C20.3839 12.8065 20.6114 12.8275 20.8377 12.8474C20.2289 10.0223 17.1751 7.91162 13.6964 7.91162C9.80639 7.92527 6.6189 10.5544 6.6189 13.8929C6.6189 15.8175 7.68142 17.4049 9.44639 18.6339L8.73398 20.7422L11.2114 19.5145C12.0989 19.6881 12.8114 19.8617 13.6877 19.8617C13.9151 19.8617 14.1314 19.8517 14.3476 19.8319C14.2071 19.3524 14.1344 18.8557 14.1314 18.3562C14.1415 15.2955 16.7939 12.8077 20.1577 12.8077L20.1564 12.8065H20.1564ZM16.3489 10.9041C16.8864 10.9041 17.2364 11.2513 17.2364 11.7846C17.2364 12.3054 16.8864 12.6651 16.3489 12.6651C15.8226 12.6651 15.2864 12.3166 15.2864 11.7845C15.2864 11.2513 15.8226 10.9041 16.3489 10.9041ZM11.3951 12.6651C10.8702 12.6651 10.3327 12.3166 10.3327 11.7845C10.3327 11.2513 10.8702 10.9041 11.3951 10.9041C11.9214 10.9041 12.2827 11.2513 12.2827 11.7846C12.2827 12.3054 11.9327 12.6651 11.3951 12.6651ZM26.6189 18.283C26.6189 15.4778 23.7914 13.1847 20.6013 13.1847C17.2376 13.1847 14.5851 15.4778 14.5851 18.283C14.5851 21.0981 17.2376 23.3824 20.6013 23.3824C21.3039 23.3824 22.0163 23.2088 22.7276 23.0339L24.6676 24.0881L24.1314 22.3369C25.5564 21.263 26.6189 19.8592 26.6189 18.283ZM18.6514 17.4024C18.3014 17.4024 17.9389 17.0552 17.9389 16.6956C17.9389 16.3483 18.3014 15.9887 18.6514 15.9887C19.1888 15.9887 19.5389 16.3372 19.5389 16.6956C19.5389 17.0552 19.1888 17.4024 18.6514 17.4024ZM22.5426 17.4024C22.1914 17.4024 21.8401 17.0552 21.8401 16.6956C21.8401 16.3483 22.1901 15.9887 22.5426 15.9887C23.0789 15.9887 23.4301 16.3372 23.4301 16.6956C23.4301 17.0552 23.0789 17.4024 22.5426 17.4024Z" fill="white"/>
</g>
</g>
</svg>
